<mxfile host="Electron" modified="2023-08-14T17:21:53.904Z" agent="Mozilla/5.0 (X11; Linux x86_64) AppleWebKit/537.36 (KHTML, like Gecko) draw.io/21.2.8 Chrome/112.0.5615.165 Electron/24.2.0 Safari/537.36" etag="nQIXIVHBsg3BYXK2Af05" version="21.2.8" type="device" pages="2">
  <diagram name="es2" id="jmmCPHh3s-1mKK6pZG3U">
    <mxGraphModel dx="2092" dy="1297" grid="1" gridSize="10" guides="1" tooltips="1" connect="1" arrows="1" fold="1" page="1" pageScale="1" pageWidth="1100" pageHeight="850" math="0" shadow="0">
      <root>
        <mxCell id="0" />
        <mxCell id="1" parent="0" />
        <mxCell id="IuGo3EknCIed32Xk9lIp-4" value="" style="shape=image;imageAspect=0;aspect=fixed;verticalLabelPosition=bottom;verticalAlign=top;image=data:image/png,iVBORw0KGgoAAAANSUhEUgAAA/MAAAJXCAYAAADfBgTvAAAAOXRFWHRTb2Z0d2FyZQBNYXRwbG90bGliIHZlcnNpb24zLjcuMiwgaHR0cHM6Ly9tYXRwbG90bGliLm9yZy8pXeV/AAAACXBIWXMAAA9hAAAPYQGoP6dpAAEAAElEQVR4nOzdd1hT1/8H8HcGhBFI2AIyHLhw74ogoOJoraLW1a/VTmuts9Zq66yT/tSqLba27rZorVqteyIq7r1wg7KHQsIKhOT+/qC5JWYQIECCn9fz8AD3nnvPyb2fnNyTe+45HIZhGBBCCCGEEEIIIcRscGu7AIQQQgghhBBCCKkYaswTQgghhBBCCCFmhhrzhBBCCCGEEEKImaHGPCGEEEIIIYQQYmaoMU8IIYQQQgghhJgZaswTQgghhBBCCCFmhhrzhBBCCCGEEEKImaHGPCGEEEIIIYQQYmaoMU8IIYQQQgghhJiZOtmY37lzJ8LDw+Ht7Q0bGxv4+/tjxYoVkMvltV00QgghhBBCCCGkyjgMwzC1XQhj69q1K3x9fTFo0CC4ubnh3LlzWLRoEYYNG4YtW7bUdvEIIYQQQgghhJAqqZON+czMTLi4uKgtW7RoEebMmYO0tDS4ubnVUskIIYQQQgghhJCqq5Pd7F9tyANAhw4dAAApKSk1XRxCCCGEEEIIIcSoaqwx/+DBA/zwww8YO3YsWrVqBT6fDw6Hg0WLFhm0/V9//YXg4GA4ODjA1tYWbdq0wXfffWfwc/CnT5+GpaUlGjVqVJWXQQghhBBCCCGE1Dp+TWX0008/YfXq1ZXadsqUKVi9ejX4fD5CQ0MhFApx8uRJfPXVV9i3bx+OHj0Ka2trndvfu3cPq1evxieffAJ7e/vKvgRCCCGEEEIIIcQk1Nid+ZYtW2L69On4448/EBcXh9GjRxu03Z49e7B69WoIhUJcvHgRR44cwa5du/Do0SO0atUKZ8+exZw5c3Run5WVhUGDBqFx48ZYtmyZsV4OIYQQQgghhBBSa2rszvxHH32k9j+Xa9j3CEuWLAEAzJw5E+3bt2eXOzs7Y+3atQgMDMSPP/6IOXPmQCQSqW2bm5uLfv36obi4GKdOnYKtrW0VXwUhhBBCCCGEEFL7THoAvOTkZFy+fBkAMGrUKI313bt3h5eXF4qKinDw4EG1dUVFRRg4cCASEhJw5MgReHh41EiZCSGEEEIIIYSQ6lZjd+Yr4/r16wAAR0dHNGjQQGuajh07IjExEdevX8fIkSMBAAqFAiNGjMDly5dx8uRJNG3a1KD8ioqKUFRUxP6vVCrx8uVLODk5gcPhVPHVEEIIIYQQQggh+jEMg9zcXHh4eOjt0W7Sjfn4+HgAgLe3t840Xl5eamkBYMKECdizZw8WLlwIhUKBCxcusOtatGihcxC8pUuXYsGCBcYoOiGEEEIIIYQQUmmJiYmoX7++zvUm3ZjPzc0FAL3PuguFQgCAVCpllx0+fBgAMGfOHI3B8aKjoxEcHKx1X7NmzcK0adPY/yUSCby9vREfHw87O7tKvQZjk8vliI6ORkhICCwsLGq7OIToRLFKzAXFKjEHFKfEXFCsEnNhyrGam5uLBg0alNsGNenGfGUlJCRUajuBQACBQKCx3NHR0WSmtJPL5bCxsYGTk5PJBR0hZVGsEnNBsUrMAcUpMRcUq8RcmHKsqspT3qPeJj0AnuqbiPz8fJ1p8vLyAMBkGtuEEEIIIYQQQkh1M+k7876+vgBKnxXQRbVOlbY6yOVyyOXyatt/RajKYSrlIUQXilViLihWiTmgOCXmgmKVmAtTjlVDy2TSjfl27doBAF68eIH4+HitI9pfuXIFANTmoK+qyMhIREZGQqFQAACOHj0KGxsbo+3fGI4dO1bbRSDEIBSrxFxQrBJzQHFKzAXFKjEXphirBQUFBqUz6cZ8/fr10alTJ1y+fBlRUVH45ptv1NafPXsWiYmJEAgE6N+/v9HynTBhAiZMmACpVAqRSISwsDCT6cYvl8tx7Ngx9O7d2+Se7SCkLIpVYi4oVok5oDgl5oJilZgLU47VsoO762PSjXkA+PrrrxEeHo5ly5ahX79+7B34Fy9e4LPPPgMAfP755xCJRNVWBgsLC5M7waZYJkK0oVgl5oJilZgDilNiLihWibkwxVg1tDw11pi/du0a2/gGgCdPngAA1q1bh/3797PL//77b7i7u7P/Dxo0CJMmTcKaNWvQtWtX9OzZE7a2tjhx4gRycnIQEBCAhQsX1tTLIIQQQgghhBBCal2NNealUikuXryosTwpKQlJSUns/0VFRRppVq9ejYCAAERGRuLcuXOQy+Vo1KgRZs6cialTp8LS0rJay14RCoWiWgdRkMvl4PP5kMlk7DP9hJgiilViLihWiTmoq3HK4/FM7o4YIYSYCw7DMExtF8JUqZ6Zz8rKKveZeYZhkJGRgdzcXFTnIWUYBjKZDFZWVuXOO0hIbaJYJeaCYpWYg7ocp5aWlnB0dGSnJCbmzZSfQyakLFOOValUCmdnZ0gkEr3tUJN/Zr42VGY0eysrK7i4uMDZ2RlWVlY1UUxCCCGEELNWUlKC/Px8PH36FFlZWVp7aBLzZIojhBOijSnGqqGj2dOdeT0MvTPPMAzi4+Nha2sLDw+Pai0TwzDIzc2FnZ1dnftmntQtFKvEXFCsEnNQl+OUYRgkJydDLpfD29u7totDqsiU73YSUpYpxyrdmTei8kY4LCkpgVKphEgkApfLrdayKJVKAACHw6n2vAipCopVYi4oVok5qOtxKhaLkZycDMDwUZyJaTPFEcIJ0cYUY9XQ8tS9T4NaUFJSAgDg8+m7EUIIIYSQilJduNalwf0IIaS6UWPeiOpatzdCCCGEkJpA11CEEFJxdCvZAHK5XO90c3K5HAzDQKlUst3gqotqiANVfoSYKopVYi4oVok5qOtxqlQqwTAM5HI5eDxebReHVIHqmrk6p2omxBhMOVYNLRMNgKdF2dHsHz58iKioKL2j2fP5fNSrVw9eXl4mNec9IYQQQog5KC4uRmJiItLS0tjHFwkh5HVVUFCAUaNGlTsAHjXm9TB0NHuZTIbExET4+vpW+7R05jya7ebNm/Hhhx9iw4YNGDt2bG0XhxUaGoqYmJgae07v/fffx9atW/HkyRP4+vpWeX88Hg89evTAyZMnqy2PyjA0VhMSEtCoUSO899572LRpUw2WsPJM4fgS4zHnelWbU6dOoWfPnpg7dy7mzZtX28UxiKnWY4aqiXrM2HFqasdXJpMhISEBXl5eNMWvmTPlEcIJKcuUY5VGszei8kY4VCgU7OiyNJq9bqry1sRxqoyaKpPqIszYx6Hsvqorj4ooG6uqL0y0fXeoKp85xbQpHF9iPOZcr2pjju8pFVOrx8oKDg6u1XrM2HFqaseXy+WCw+GY5KjSpHLoXBJzYYqxSqPZE2KgrVu3Ii4urraLYVRLly5FXFwcPD09a7sodRIdX2LKOnfujLi4OHz++ee1XZQqofdZ9aLjSwgh5o/uzJPXnre3d20Xwejc3d3h7u5e28Wos+j4ElNmY2ODZs2a1XYxqozeZ9WLji8hhJg/ujNPjOb06dMYNGgQ3NzcIBAI4OXlhcGDB+Ps2bN6t/v7778xcuRING7cGDY2NhCJRAgMDMSuXbu0po+Ojka/fv3g4eEBgUAANzc3BAYG4pdfflFLd+3aNQwdOhTe3t4QCARwcXFBp06dsHjxYrV0wcHBOp8/3Lt3L8LCwuDk5AQrKyv4+vpi9OjRuHPnDpvm4cOHmDFjBtq3b8+ma9KkCWbOnIm8vDxDDp1B1q9fj5YtW8LKygpeXl6YMWMGZDKZ1rRjx44Fh8NBQkICu+zUqVPgcDiYP38+zp07h7CwMIjFYrXXzjAMNm7ciICAANjb28PGxgYdO3bExo0btebDMAw2bdqEwMBAiMVi2NjYwM/PD+PGjcPz588BlD4LGxMTA6C0W6fqR9u4CXfv3sWbb74JsVgMoVCIsLAwXL16VWveubm5mDdvHvz9/WFtbQ2xWIw+ffpojberV6/i888/R8uWLSESiWBtbY1WrVph2bJlWkcL9fX1ha+vL3JycvD555/Dy8sLfD4fmzdvNuj4XrlyBb1794adnR1EIhHCw8PV0pa1e/dudOzYEdbW1nBzc8PHH3+M7Oxstgyk9ul775Rd96qEhAStsa46t3l5eZg8eTJbl7Vu3Ro7d+7U2I8q3uLj47FmzRo0a9YMAoEAPj4+WLBggcbI5rrKVNF8Va9h+PDhcHR0hFAoRI8ePXD69GnMnz+fff0VYa71GIfDMYl67Msvv0Tr1q2pHiOEEAKA7swbhKamK9+aNWswbdo0WFtbY9CgQfD29kZycjJiY2Px119/oVu3bmx5Xz1Os2bNgqWlJQICAuDu7o7MzEzs27cPQ4cOxerVq9W6ih44cAADBw6EWCzG22+/zaa/desWfvvtN3z00UcAgBs3bqBbt27g8Xh4++234ePjg5ycHMTFxeGXX37BrFmzNF7Dq8dz+vTp+P777+Ho6IiBAwfC1dUViYmJOH78ONq3b48WLVoAAHbt2oUNGzYgODgYPXr0gFKpxMWLFxEREYGYmBicOnVK7bkX1TmsSLwsWrQI8+bNg5ubGz766CNYWFjgzz//xL1797SWX1seqt+xsbFYsmQJgoOD8fHHH+P58+fslED/+9//sH37dvj5+WHkyJGwtLTE8ePH8eGHH+Lu3bv4v//7P7X8RowYgV27dsHT0xMjRoyAvb09EhISsGPHDvTp0wehoaGYM2cOtm7dimfPnmHu3Lns9m3atFEr39OnTxEQEID27dvj008/xbNnz7Bz504EBQXh+PHj6NKlC7vty5cvERwcjLt37yIgIADjxo2DVCrFP//8g5CQEPz5558YNGgQm/6XX37B/v37ERgYiH79+qGgoAAxMTGYNWsWLl26pLUhU1RUhNDQUOTl5WHAgAHg8/lwcXFhj5Wu43vp0iV89913CA4OxieffIIbN25gz549uH37Nm7duqU2sNPGjRvx8ccfw97eHqNHj4ZIJMKhQ4fQu3dvyOVyWFhYmNT7vK4qr14t772ja1t96+RyOcLCwpCdnY3BgwejoKAAf/75J4YNG4aDBw8iLCxMo3zTp0/H6dOn8eabbyIsLAx79+7F/PnzUVRUhEWLFhk93+TkZHTr1g2pqano06cP2rVrhwcPHqB3794ICQlh86rr9Vj9+vUxd+5cbNmypVbrsfXr1+PAgQMICgqqk/UYTU1Xd5jydF+ElGXKsWpomagxr0XZqekA4OjRowZNTZeXl4fi4uIaKWNubm6N5GOI27dv44svvkC9evVw+PBhtW7rDMMgLS0NUqmUvfsik8kglUrZNNu3b9f45n7BggXo06cP5syZg6FDh7LH/9dffwXDMNi7dy9atWqlts3Lly/Z/W7cuBFFRUX4448/0L9/f53pALBT4JRddvjwYXz//fdo0aIF9u3bB0dHR7X0ZfcxcOBAfPjhhxrTEn733XdYunQptmzZgmHDhrHLVW/OvLw8tTx1efr0KRYuXAgPDw+cOnUKLi4uAICpU6eiV69ebJnK7ktbHgUFBQCA48eP48cff8S7777LppdKpdiyZQu2b9+Od999F99//z37BcScOXMwZswYrFy5EgMGDEDbtm0BlDaQd+3ahR49emDbtm2wtrZm91dYWMie72nTpuHkyZN49uwZpk6dqvbapFIp23vhzJkzmDJlitro20OHDsXQoUPx0UcfITY2ll0+fvx43L17F6tXr8Z7773HLp81axZCQkIwbtw4dOvWjb3g/Pzzz7FkyRK1C0SGYTBp0iT8/vvvOHr0KLp27cquUyqVSEtLg7+/Pw4cOKD22qRSqd7je+jQIWzYsAGDBw9mt/n000/x559/Ytu2bRgyZAgAQCKRYOrUqbC1tcXJkyfRqFEjAMBXX32FIUOGICUlBV5eXgbFCDEOXfWqvveO6g5qUVGRxrlSxbZcLldbp1QqkZKSgrZt22LPnj1s3TFw4EAMGjQIy5cvV4tHVbxdvXoVZ86cQb169QAAkydPRocOHfDjjz9iypQp7H5U5X21TBXNd/r06UhNTcXs2bPxxRdfsMt///13TJw4kc2rrtdjUqkUU6dOxYkTJ6geq8Z6rLi4GIWFhTh9+jRNTVdHHDt2rLaLQIhBTDFWVfVxeagxr8WECRMwYcIEdmq6sLAwg6amEwqFGtOpvB0Zi6zcIqOWT8kw4Bpx+iRnOwH+mRBQ6e2joqKgVCqxcOFCtGzZUmO9SCQCAPbYWFlZqR3P1q1ba2xjb2+PDz74ANOnT8eDBw/Qo0cPAKVfnACAi4uLxjkp+7/qItXR0VFvurL7LLt8y5YtAEp7HGjrIli2ca8rNqZNm4alS5fi3LlzbI8B4L/RKYVCod64Utm3bx9KSkowbdo09kJJle/s2bMxZswY8Pl8tX1py0P1hUj79u0xfvx4jXw2btwIW1tbrFu3Tu2iDwCWLVuGw4cPY9++fQgKCgJQOtUgj8fDunXr4Obmppbe3t5ebRolbcdYRSgUAgDEYjEWLFjA/g8A4eHh6NmzJ06cOIFHjx6hQ4cOyMrKwt9//43Q0FCNAb7s7e0xY8YMTJ48GZcuXcJbb70FAPD399d6bCdPnozff/8dFy5cULsjqRrZefny5RqvDdB/fIOCgjS63n7yySf4888/cffuXbz//vsASh8vycvLw8SJE9GuXTu19EuWLEH37t3B5XINipHatHPZFRRIa+ZLzMqysbfE0Jkdda4vb8ovfe8d1TqBQKBxrlSxbGFhobZOFV9r1qyBs7Mzu3zAgAHw8fHB9evXtb6f58yZgyZNmrDL7e3tMXDgQGzduhWpqansF5y6ylSRfIuKirB37164urri66+/hkAgYNOPHz8eP/74Ix48eAAbG5s6XY+VVdv1WIsWLbTGaV2px2QyGaytrREUFERT05k5U57ui5CyTDlWDb2ZQ415A1Rlarqs3GKkSY3bmDe+qk1zc/nyZQBA37599e5H19R0GRkZWLZsGQ4dOoRnz56hsLBQbbu0tDQ2/ciRI/H333+jW7duGDVqFHr27InAwEC1C1MAGD58OFavXo0hQ4Zg+PDh6N27N4KCgvSO2lu2TJcvX4ZAIEBISEi5x0b1vOXmzZtx584dSCQStS6Fqamp5U63pO152ylTpkAsFuPWrVsASi+uXi2L6kuOV8uvLQ/V706dOmnsp6CgALdv34aHh4daF1QV1R2cBw8egMvlIi8vD3FxcWjcuDGaNm2q9biUnUZJWxlfXdauXTutF3yBgYE4ceIEbt68iU6dOuHq1atQKBQoKirCt99+q5H+0aNHAErHMlDtu7i4GD/++CO2b9+O+/fvIy8vT216qVfPEVD6pVObNm20Nu70Hd8OHTpo7EvVW0UikbDrbt++zb6+V9O/8cYbbMPBFKaM0qdAKkd+jmk35sur48qb8kvfe0fflGT61onFYrVGrUr9+vVx/vx5re9nbfl7eXkBKP3QfzUWq5Lvo0ePUFRUxD4H/apu3bqx9UFdrse0qa16TCaTITIyEnv37q2T9RhNTVf30Lkk5sIUY9XQ8lBjvpq52AnKT1QhTJk788a5O1/VMkokEnA4nEqNivvy5Ut06tQJz58/R0BAAHr16gWxWAwej4cbN25g7969KCr678uQd955B3v27MHKlSvx888/IzIyEhwOByEhIVixYgXbdbJLly44deoUlixZgqioKGzatAlA6QVgREQE+7ynvtfk6elp0AXIpEmT8OOPP8LLy4t9jl91F2vBggVq5ddlwYIFGsvGjh0LsVgMiUQCAHB1ddVIo+1uS3m0bZOdnQ2GYZCcnKy1LCr5+fkAwJbJmFMa6XotquWqPF++fAmg9JnZsl1WdZUVKO3mum/fPjRp0gTDhw+Hq6srLCwskJOTg9WrV2s9R66urjoHRtRH24W86oJW9egO8N83rtrOK5fL1fiCylTZ2FuWn6iWGauMlXm/6aLqsfQqPp+v8/liQ2PLGPnqi09A+7Ggeqx667F33nkH+/fvp3qMEEIIixrz1WzfxO5G3Z9SqYRUKoW9vb3J3LETi8VgGAapqakVvijasGEDnj9/joULF2L27Nlq65YtW4a9e/dqbDNw4EAMHDgQubm5iI2Nxe7du7Fhwwb07dsX9+/fh1gsBlB6p+DQoUMoLCzExYsXsW/fPqxduxZvvvkm7ty5g4YNG+p9TWlpaVAqlXqPc0ZGBiIjI9G6dWucP39ebWyFtLQ0vReUZZW9u/Iq1cV3RkYGfHx81Nalp6cbtP+ytF3YqS7cOnTogCtXrpS7D1WZkpOTK5y/Lrpei2q5Kk9VWb/44gssX7683P1evnwZ+/btQ58+fXDgwAG1500vXLiA1atXa92uMhfAFaF6HRkZGRrrlEolsrKyzGL+52Ffd6rtItQYbTGhqh+0PeOrariZI33xCWh/v1I9Vr312P79+9GzZ08cOnRI7Y4N1WOEEPL6Mo3WIDFrnTt3BlA6UGBFPXnyBEBpA/1VZ86c0butnZ0d+vbti19++QVjx45Feno6Ll68qJHO2toawcHBWLFiBb7++msUFhaWO9BF586dUVRUxE5FpMvTp0/BMAx69eqlMUhieeU3VJs2bXTuz1h52NnZoXnz5oiLi0NOTk656YVCIVq0aIH4+Hi2O6g+qga0vruH169f1zqVn+o1qp7H7NSpEzgcDs6fP19uvsB/Mfbmm29qjJBsrONXGarzqu2u3KVLl2gAKDPh4OAAQHuD8Pr16zVdHKNp2rQpBAIBrl69qnHHl2EYg99/KlSPGaceCwsLo3qMEEIIixrzpMo+/fRT8Hg8zJ49G8+ePVNbxzAMUlJSdG6rukPz6py6UVFROHjwoEb606dPa72QUt0VUA2ac/78ea1zF6vujpQ3uM6ECRMAlA4spOoOqVJSUsLuR1X+c+fOqXVRTUpK0jr9XWWMGjUKPB4PK1euVLv7IZVK1aajqqpJkyahoKAAH3/8sVrXTpX4+Hi1OYYnTJgAhUKBzz77TGOcA5lMpnbcVAMGJiYm6sw/JycHixcvVlt25MgRnDhxAi1btkSHDh0AAPXq1cOwYcNw7tw5/N///Z/Wu4EXL15kRwHVFWN3797F0qVLdZanug0cOBBCoRAbNmxgL9SB0viaM2dOrZWLVEzTpk1hZ2eHf/75Ry3m09PTjfr+rGkCgQBDhw5Feno6Vq1apbZu69atuH//foX2R/WYceqxCxcuqKWheowQQl5v1M2eVFmrVq2watUqTJo0Cf7+/hg0aBB8fHyQlpbGzon86sWgyujRoxEREYGJEyciOjoaPj4+uHnzJk6cOIHBgwdj9+7dauknTZqElJQUdO/eHb6+vuBwODh79iwuXbqErl27onv30scaIiIiEB0djaCgIDRo0ABWVla4du0aTpw4gYYNGyI8PFzva+rfvz+mT5+O5cuXw8/PD+Hh4XB1dUVycjJOnDiB6dOnY8qUKXB3d8eQIUOwa9cudOzYET179kR6ejrbHbLsxU1lNW7cGHPnzsW8efPQunVrDBs2DHw+H7t27ULr1q3x4MGDKucBAOPGjcOFCxewZcsWxMbGolevXvDw8EB6ejru37+PixcvIioqih3df/z48YiJicGOHTvg5+eHt99+G/b29nj+/DmOHDmCX3/9FaGhoQCA0NBQ7Ny5E0OGDEG/fv3YQZkGDBjA5h8YGIiffvoJFy9eRNeuXZGQkIC//voL1tbWWL9+vVpZ165diwcPHmDGjBn47bff8MYbb0AsFiMxMRFXrlzBo0ePkJqaChsbG3Tu3BmdO3fGjh07kJqaiq5du+L58+f4559/8Oabb2qdm7kmiMVirFy5Ep988gk6dOiAESNGQCQS4eDBgxAIBPDw8DCZR2mIbpaWlpg4cSKWLFmC9u3bs48A7du3Dz169DBKHVBbli5diuPHj2PmzJmIiYlh55nfv38/+vbti8OHDxsco+Zaj23YsIGd690U6rG///4bwcHBVI8RQggBQI15g8jlcnYUXF3rGYaBUqnUOXCRsai+vVflZyo+++wztGjRAitXrsShQ4eQl5cHV1dXdO7cGUOHDlU7NmX/9vDwQHR0NL766iscP34cJSUlaN++PQ4fPozExETs3r1bLf1XX32Fv//+G9euXcORI0dgYWEBX19fLFu2DOPHjweHw4FSqcS4ceNgb2+PS5cuISYmBgzDwNvbG7NmzcKUKVMgFAo1jt+r/0dERKBLly5Yu3Ytdu7cCZlMBnd3d4SEhKBnz55s+o0bN8LHxwe7d+/GDz/8AG9vb0ydOhUzZsxgL7DK7lt1DisSL7Nnz0a9evWwevVqrFu3Dq6urhg+fLjaFEjl5aH6rS92Nm7ciL59+2L9+vXYv38/ex79/Pzwf//3fwgNDVXbNioqCr169cLGjRuxdetWMAwDT09PvPPOO2jfvj2b34cffoj4+Hj8+eefiIiIQElJCd577z28+eab7P4aNGiAyMhIfPXVV4iMjIRCoUCPHj2wdOlSdOjQQS1fsViMs2fPIjIyEjt27MAff/wBpVKJevXqoXXr1vjmm2/g6OgIpVIJDoeDf/75B7NmzcKRI0dw+fJl9vX07dsXO3fu1HlMdB2nih5fXes+/PBDiEQiLFu2DJs3b4ZIJMKAAQOwbNkyNGjQAI0aNTKp93ldVV69Wt57Z8GCBbCwsMDGjRvx888/w9fXF7Nnz8Zbb72FXbt2VTi+Xl2nr86ozHvd0Hw9PT0RGxuLmTNn4tixY4iJiUGHDh1w+PBhtm7TVpfqYo71WLt27di0tV2P7d27F19++SVOnjxZJ+sxpVIJhmEgl8s1HiUg5kV1zazv2pkQU2DKsWpomTiMvhFrXlORkZHsh/DDhw8RFRWl8Tx0WXw+H/Xq1YOXlxc7vzkhhFTW06dP0aFDB4SHh2Pjxo21XRxCNPTt2xeXL1/Gs2fP1OZUJ0SlovVYcXExEhMTkZaWRs/aE0JeewUFBRg1ahQkEonWGUZU6M68FhMmTMCECRMglUohEokQFham9yDKZDIkJiZCKBSW+yx2VTEMg9zcXNjZ2VX7KLWEVAXFavmys7NhY2PDTmUIAIWFhZg7dy4AYMiQIXrrHmIcFKu6paamakw7+vvvv+PixYvo3bs3PDw8aqlkrx9TjVNj1WMymQzW1tYICgqq9mspUr3kcjmOHTuG3r17m9zc3YSUZcqxqpr6szzUmDeAhYWF3hOsUCjA4XDA5XKr/dkwVVc1VX6EmCqK1fKdOXMGH374IcLCwuDt7Y2srCycPHkSCQkJCA0NxciRI+nY1QCKVd1at26Ndu3aoUWLFuDxeLhx4wZOnToFOzs7rFixgo5XDTLVODVWPcblcsHhcMq95iLmg84lMRemGKuGloca84QQUkv8/f3Ru3dvxMbGYs+ePQBKBwpbuHAhpk+fblIX7OT19Omnn2Lfvn24cuUK8vPz4eLiglGjRmHOnDlo1qxZbRePmACqxwghpPZQY54QQmqJn58ftm/fXtvFIESnxYsXa0y1RkhZVI8RQkjtoa9LCSGEEEIIIYQQM0ONeUIIIYQQQgghxMxQY54QQgghhBBCCDEz1JgnhBBCCCGEEELMDA2AZwC5XA65XK53PcMwUCqV7NQx1YVhGPZ3dedFSFVQrBJzQbFKzEFdj1OlUgmGYSCXy8Hj8Wq7OKQKVNfM+q6dCTEFphyrhpaJw6g+HQgrMjISkZGRUCgUePjwIaKiomBjY6MzPZ/PR7169eDl5QVLS8saLCkhhBBCiPkrLi5GYmIi0tLSUFJSUtvFIYSQWlVQUIBRo0ZBIpHA3t5eZzpqzOshlUohEomQlZWl9yDKZDIkJibC19cXVlZW1VomhmGQm5sLOzs7cDicas2LkKqgWCXmgmKVmIO6HqcymQwJCQnw8vKq9mspUr3kcjmOHTuG3r17w8LCoraLQ4hOphyrUqkUzs7O5TbmqZu9ASwsLPSeYIVCAQ6HAy6XCy63eochUHWtU+VHiKmiWCXmgmKVmIO6HqdcLhccDqfcay5iPuhcEnNhirFqaHnq3qcBIYQQQgghhBBSx1FjntSYzZs3g8PhYPPmzbVdFDXBwcE12mVx7Nix4HA4SEhIMMr+OBwOgoODDcpDLpdj/vz58PPzg0AgAIfDwZ49e/SuO3XqFDgcDubPn2+U8taEmj6nhJgSc3zPVqQeI4QQQkgp6mZPyGtkxYoVWLBgAYKCgjBs2DBYWFigWbNmetelpaXVcqkJIaT2BQcHIyYmBjTUECGEEFNBjXny2tu6dSsKCgpquxhGtXTpUsycOROenp5qy/fv3w+hUIhjx45pzLyga505Nubr4jklxFCdO3dGXFwcnJ2da7soVaKrHiOEEEJIKWrMk9eet7d3bRfB6Nzd3eHu7q6xPCUlBU5OTlqnUNS3ztzUxXNKiKFsbGzYHjfmTFc9RgghhJBS9Mw8MZrTp09j0KBBcHNzg0AggJeXFwYPHoyzZ8/q3e7vv//GyJEj0bhxY9jY2EAkEiEwMBC7du3Smj46Ohr9+vWDh4cHBAIB3NzcEBgYiF9++UUt3bVr1zB06FB4e3tDIBDAxcUFnTp1wuLFi9XS6Xu+eu/evQgLC4OTkxOsrKzg6+uL0aNH486dO2yahw8fYsaMGWjfvj2brkmTJpg5cyby8vIMOXQGWb9+PVq2bAkrKyt4eXlhxowZkMlkWtO++qzp/PnzweFwEB8fj2fPnoHD4YDD4cDX11fvuledPXsWwcHBsLOzg1gsxpAhQ/D48WOtZcjIyMDXX3+NJk2aQCAQwNnZGUOGDFE7dirR0dH44IMP0LRpUwiFQgiFQnTs2FHjnKqonq9NTk7Ge++9h3r16oHL5eLUqVMAtJ/TsmM2HD16FN26dYONjQ2cnJwwZswYvHjxQmte69atg7+/v8Zx1/aML6mbyj6Dfu7cOYSFhUEsFoPD4eh9Pj0hIQEcDgdjx45VW+7r6wtfX1/k5eVh8uTJbF3WunVr7Ny5U2M/qvdzfHw81qxZg2bNmkEgEMDHxwcLFixgRznXVt6q5Kt6DcOHD4ejoyOEQiF69OiB06dPs/WG6j1nqKrUY6++tlfPhQrDMNi4cSMCAgJgb28PGxsbdOzYERs3btSaD8Mw2LRpEwIDAyEWi2FjYwM/Pz+MGzcOz58/B1Ba58TExLB/q35U57bsuY6Li0N4eDicnJzUyl+Rz7qy+3v8+DG7P09PT4SFheHmzZtaX0tMTAyCgoJga2sLJycnDB8+HImJiTo/5yp6rAghhJgWujNPjGL16tWYOnUqrK2tER4eDm9vbyQnJ+Ps2bPYuXMnunfvrnPbWbNmwdLSEt27d4e7uzsyMzPxzz//YOjQoVizZg0mTpzIpj1w4AAGDBgAsViMgQMHsulv3ryJ3377DZ988gkA4MaNG+jWrRt4PB4GDhwIHx8f5OTk4N69e/jll1/wzTfflPuavvjiC6xcuRKOjo4YNGgQXF1dkZiYiOPHj6NDhw5o2bIlAGD37t3YsGEDQkJCEBwcDKVSiQsXLiAiIgIxMTE4ffp0lae7WLhwIebOnQs3Nzd8/PHHsLCwwJ9//om4uDiDtlc1OletWgUAmDJlCgBALBajbdu2OteVdeHCBSxduhR9+/bFxIkTcffuXfz99984c+YMLly4gIYNG7Jpnzx5guDgYCQlJaF3794YNGgQMjIysGvXLhw5cgQnTpxAly5d2PQRERF4/PgxunbtivDwcOTk5ODw4cMYN24cHjx4gBUrVmi8phcvXuCNN96Ao6MjRowYAZlMpnceTpV//vmHjaNu3brh9OnT2Lp1K548eaLxxdPcuXOxcOFCteO+Y8cO3L9/v9x8SN1z7tw5LFmyBCEhIfjkk0/Yhl5lyOVyhIWFITs7G0OGDEFBQQG2b9+OYcOG4fDhwwgLC9PY5ssvv0RMTAzeeust9OnTB3v27MH8+fNRXFys8SWlMfJNTk5Gt27dkJqair59+6Jdu3Z48OABevfujdDQ0Aq/5qrWY2XpOhcMw+Ddd9/Ftm3b4Ofnh1GjRsHS0hLHjh3Dhx9+iHv37mH58uXsfpRKJYYPH46dO3fC09MTI0eOhL29PRISErBjxw7069cP3t7emDdvHjZv3oxnz55h3rx57Paq+lNFVY+1atUKY8eOxYsXL9jeThX5rFNJSEhA165d4e/vj/fffx8PHjzAwYMHERISgri4OLi5ubFpjx49ijfffBM8Hg/Dhw+Hh4cHoqOj0b17dzg4OGjsu6LHihBCiAliiE4SiYQBwEgkEr3pCgsLmXv37jGFhYXVXiaFQsFkZ2czCoWi2vMy1I0bNxgul8t4eHgw8fHxauuUSiWTnJzMMAzDbNq0iQHAbNq0SS3NkydPNPaZm5vLtGrVihGJREx+fj67fPDgwQwA5saNGxrbZGVlsX9PmzaNAcDs2bNHbzqGYZgePXowr74V9u3bxwBgWrVqpZFeLpczaWlp7P9JSUlMUVGRRj4LFixgADC///672vIxY8YwADSOlS6PHj1i+Hw+4+npyaSnp7PLJRIJ07RpUwYA06NHD4Py8PHxYXx8fLTmo2tddHQ0A4ABwPz8889q637++WcGAPPWW2+pLe/WrRvD4/GYnTt3qsXqgwcPGDs7O6ZVq1Zq6Z8+faqRr1wuZ3r37s3weDzm2bNnautU5Xn//feZkpISjW21nVNV/PH5fObs2bPs8pKSEiY4OJgBwJw/f16trDweT+O4S6VSpkWLFlqPOzFP5dWrZd8DGzdu1Lpu3rx5GtvFx8czAJgxY8aoLffx8WEAMAMHDlSrO44fP84AYPr06aOWXvV+btCgAZOSksIuz8zMZMRiMWNnZ6e2H11lqmi+//vf/xgAzOLFi9WWb9iwgT0e0dHRGq9bG2PVY/rOBcMwzC+//MLWDcXFxezyoqIiZsCAAQwA5sqVK+zyH374gQHA9OzZkykoKFDbV0FBAfPixQv2f231iorqXANg5s6dqzVNRT7ryu5v2bJlDMP8F6fffPMNA4BZunQpm76kpITx8fFhOBwOc+bMGbU83nvvPXZfVTlW1a0mr6VI9SouLmb27NmjFleEmCJTjlVD26F0Z766resB5GUYbXccAPaMEhyOEZ+QELoC42Iqvfm6deugVCqxaNEija7ZHA4HHh4eercve0eXLZJQiLFjx+KLL77A5cuX0aNHD7X11tbWGts4OTlpLDM03avWrl0LoLTHwavp+Xy+2t0QXYMzff7555g3bx6OHz+Od999t9w8dYmKikJJSQmmTZsGV1dXdrm9vT1mz56N0aNHV3rfFdGkSRN8/PHHass+/vhjrFixAgcOHEBmZiZcXFxw/fp1nDt3Du+//z569uypdR8rV67EnTt32N4NDRo00MiPz+fj008/xbFjxxAdHY0xY8aorbe0tMR3330HHo9XodcxatQoBAQEsP/zeDyMGTMGp06dwuXLl9G1a1cAwLZt26BQKPDFF1+oHXc7OzvMnj0bo0aNqlC+ddXvs6YgPye7touhl63YAf9buqrK+2nfvj3ef//9qhfoX99//73aGBU9e/aEj48PLl++rDX9nDlz1J4hd3Z2xsCBA7FlyxY8ePAArVq1Mlq+RUVF+Ouvv+Dq6oovvvhCbfv3338f3333HR48eGBQfoDx6zFd5+LHH3+Era0tIiMj1XpEWVpaYvHixdi3bx+2bduGDh06ACit63k8Hn766SeNzwtra2utnyH61KtXT2fPr8p81jVo0ABffvml2rIPPvgAixcvVjtfZ8+exbNnz/D2229r9IRbtGgR/vjjDygUCrXlFT1WhBBCTA815qtbXgaQm2K03XH+/TElly5dAgCt3UINkZGRgWXLluHQoUN49uwZCgsL1danpPx3/EaMGIHdu3eja9euGDVqFHr27InAwECNUZuHDRuGVatWITw8HMOHD0fv3r0RFBRk8KjIly5dgkAg0Liw0ob593nLzZs3486dO5BIJGrPsJYtvy7anredMmUKxGIx+2xkYGCgRhpty6pLQEAAuFz1L5G4XC4CAgLw6NEj3Lx5E7169cKFCxcAAOnp6Vi2bBk7Z72Kqov6/fv32cZ8bm4uli9fjj179uDJkyfIz89Xy0fbMWzQoEGlRuvWdmFav359AEBOTg67THXctT0iUvbLgNddfk428l5qH2+grunUqZPR9iUWi7V+iVW/fn2cP39e6zaGxq4x8n3w4AGKiorQsWNHCAQCtbQcDgfdunXTaMzXZD2m7VwUFBTg9u3b8PDwQEREhMZ6uVwO4L86KC8vD3FxcWjcuDH8/PwqXAZt2rRpo3MQ0Yp81qm0bdtWo96taH3l5eUFb29vxMfHs8sqeqwIIYSYJmrMG0Aul7MfbLrWMwwDpVKpMRARR+iqY6vKYsAwzL+NIyM164WuYF4pd0VIJBJwOBy4ublpvP6yVOvKHqeXL1+iU6dOeP78OQICAtCzZ0+IxWLweDzcuHED//zzDwoLC9n0Q4YMwe7du7Fq1Sr8/PPPiIyMBIfDQUhICP7v//6PfX6xU6dOOHnyJJYuXYqoqChs2rSJXb506VKEhIToLJ/qNaka/vpeEwBMmjQJkZGR8PLywoABA+Du7s5e/H777bcoKipS2wfz7xzFZY/DggULNPb73nvvwd7eHhKJBEDpXbhXy+Li4qK1/Nry0PVay1un+t/V1VXrdqq7bNnZ2VAqlexAcgcPHsTBgwd15pObmwulUoni4mIEBwfj2rVraNeuHf73v//ByckJfD4fCQkJ2Lp1K2QymUbe5cXbq69F9bdQKNTYTnWxXFJSwq6TSqUAKnbcX0c2Is1ncU2NjchB73lSvV9U9fir9L0HVP9r21bfOpFIpDUvPp+v8b5VlU9b7Kp6psjlcrU6tqr5qhqKLi4uet/3NV2P6TsXL168AMMwSE5O1loWlfz8fCiVSmRnl/Yo8fT0rND7uKIxAlT8s071287OTu18Av+dc4VCwa7Td3yB0voyPj6eXVfRY1UTlEolGIaBXC6vcI8rYlpU18z6rp0JMQWmHKuGloka81pERkYiMjKS7ZJ29OhR2NjY6EzP5/NRr1495OXlobi4WH3l8L3VWVTj+bfhUhl2dnZgGAYPHz7U26VeNWKxTCZjG0pr167F8+fP8c0332D69Olq6b///nv8888/aukBICQkBCEhIcjNzcXFixexf/9+/Pbbb+jXrx8uXboEkUgEoPQOyfbt21FYWIirV6/i8OHD2LBhAwYMGIBz586xjwSUlJT8ewj+y0MkEiEtLQ05OTkad0XKyszMxNq1a+Hv768RJ+np6fj2229RUlKitm/VmzMvL49drrqofJVUKmX3GR8frzGIkWrQJ0PyAP67QJRqOd+61qnma09KStK6XVJSEgDAwsICUqmUvSsVERHBDkioi1QqxZ49e3Dt2jWMHj0aa9asUVu/a9cubN26FUVFRRp5KxQKreUBtJ9TbfH36mssm4+qe622456YmMjmo6sMr4sBM+fXdhEMYsh5ys3N1bpcFR/FxcUa+1HdXc3Pz9dYl5ycDKD0/Wjo+1Bb7Op6PwOlMasqo2qdtniuaL6qei8lJUXv+75svjVRj+k7Fypt27ZFdHS01nVly6TqMZSYmGhQfGg7NyqqmUt01QkV/axT7e/V2AH+i9OyeanqXV2vJTU1VWvZDT1WNaG4uBiFhYU4ffo0e6yJeTt27FhtF4EQg5hirKo+78pDjXktJkyYgAkTJkAqlUIkEiEsLEzvKNkymQyJiYkQCoWwsrKq1rIxDIPc3FzY2dnpnE6tpnXt2hXXr1/H+fPn9T5Pqjo2VlZW7PFUXey+8847GsdY9Txg2fRl2dvbY/DgwRg8eDC4XC42bdqEe/fuoU+fPhrp+vfvj/79+8PV1RXz5s3D+fPn0bp1awClX8ao0ql07twZhw4dwvXr17XexVe5d+8eGIZBWFgY6tWrp7buyJEj7P7L7lv1bKJQKDRo9PUOHTpg3759uH79usZUaDdu3KhQHqoLdG356lqnugi/fPkyhEKh2pcbSqUSV65cAYfDwRtvvAF7e3sEBQWpla28WFVdZA4ZMkQj76tXrwIABAKBxrpXX/Or6159Ldri79XXWDafDh06YP/+/bh586bGcb99+3a5ZSDmo7x6VVt8qKi6PGdlZWmse/ToEYDS96Oh70NtsauvzlD1ArKxsWHX6SpvRfLt0KEDBAIBbt26BYFAoNbVnmEY9r1ZNl99jFWP6TsX9vb2aN68OR4+fAilUqkxI8er7O3t0aJFCzx48ADp6enldrVXHQNbW1uNO8dCoZAts7bjUdHPOm37KxungPrx6ty5M4DSOvPV/SclJbFfvqjWVfRY1QSZTAZra2sEBQVV+7UUqV5yuRzHjh1D7969qzybDyHVyZRj1dAvUmmeeQNYWFiU+8PhcMDlcqv9R3WhWVP5GfIzfvx48Hg8zJ07F4mJiRrlTUtLY/8HoLZedXf83Llzasu3b9+OQ4cOaaQ/e/YsGIbRKENmZiaA0gs9LpeLixcvori4WCNdRkaGWrqyDdOy6T7//HMAwNSpU9m786ofpVKJzMxMcLlc9tlT1bOmqjQpKSlqgyBpO4eGHt93330XPB4P33//PbKystjleXl5WLJkSYXy0JbW0HUPHz7Ehg0b1JZv2LABDx8+xJtvvgk3NzdwuVx07doVXbp0wfbt27F7926NWAWAM2fOlBsDZ86cwfr167XGu76y6ltf3jZl8xk5ciS4XC5WrlyJly9fsssLCwuxdOnScstAP+bzY0i9qmt98+bNYWdnh3379qnVFZmZmez7syLxW9E6Q997vSr5WltbY+jQoUhPT8eaNWvU0v7+++/ss9SGHmNj12O6ztWkSZNQUFCAcePGobCwUGP9s2fP8Pz5c/b/CRMmQKFQ4PPPP0dRUZFa2uLiYrVz6ujoCKC0YV6RGOFyK/5Zp21/ZeP01eMVFBQEb29v7N+/HxcvXlTbz7x589iehlU5VjXxw+FwDLrmoh/T/wEMu36mH/qp7R9TjlVD0J15UmWtWrXCqlWrMGnSJPj7+2PQoEHw8fFBWloaTp8+jTfffJOdw/xVo0ePRkREBCZOnIjo6Gj4+Pjg5s2bOHHiBAYPHozdu3erpZ80aRJSUlLQvXt3+Pr6gsPh4OzZs7h06RK6du3KDv4TERGB6OhoBAUFoUGDBrCyssK1a9dw4sQJNGzYEOHh4XpfU//+/TF9+nQsX74cfn5+CA8Ph6urK5KTk3HixAlMnz4dU6ZMgbu7O4YMGYJdu3ahY8eO6NmzJ9LT07F//3707NkTT548qfLxbdy4MebOnYt58+ahdevWGDZsGPh8Pnbt2oXWrVtXaETpqujTpw8mTZqEgwcPwt/fH3fv3sW+ffvg7OyM1atXq6Xdtm0bQkJC8OGHH+LXX39F+/btYW1tjefPn+P8+fPIzMxku70PGDAAvr6++O6779gR7h88eID9+/cjPDwcO3furJHX96qmTZti5syZWLJkCVq1asUe9927d6NVq1a4c+eOWiOIvJ4sLS0xceJELFmyBO3bt8fAgQORm5uLffv2oUePHkapA2rL0qVLcfz4ccycORMxMTHsPPP79+9H3759cfjwYYPfAzVVj40bNw4XLlzAli1bEBsbi169esHDwwPp6em4f/8+Ll68iKioKLZxPX78eMTExGDHjh3w8/PD22+/DXt7ezx//hxHjhzBhg0bMGjQIABAaGgodu7ciSFDhqBfv36wsrJCmzZtMGDAgHLLVdHPuori8Xj4+eef8fbbbyM0NBTDhw+Hu7s7YmJikJycjDZt2uDWrVtVOlaEEEJMDzXmiVF8/vnnaNmyJVasWIFDhw4hLy8Prq6u6NKlC4YNG6Zzu/r16yMmJgYzZszA8ePHUVJSgvbt2+Po0aNITEzUuMCZNWsWdu/ejatXr+LIkSOwsLCAr68vIiIi8Nlnn7FdH8ePHw+RSISLFy8iJiYGDMPA29sbX3/9NaZOnWpQt9D/+7//wxtvvIEff/wRO3fuhEwmg7u7O0JDQ9G7d2823ebNm+Hr64tdu3bhhx9+gLe3N6ZNm4avvvrKaA3RuXPnwsPDA99//z3WrVsHV1dXjBgxAt9++63e8RyMqWvXrpg9ezZmz56NNWvWgMfjYdCgQfjuu+80plxq0KABrl69imXLluHw4cPYtGkTeDwe3N3dERQUhKFDh7JphUIhTp48iS+//BKnT5/GqVOn4O/vjz/++ANubm611pgHgMWLF6N+/fr44Ycf8PPPP7PHffLkydi3bx91sScAgIULF8LS0hIbNmzAzz//DF9fX8yZMwcDBgzArl27art4lebl5YXz58/jq6++wtGjRxETE4MOHTrg6NGj+OuvvwBo77KvS03UYxwOB5s3b0b//v3x66+/Yv/+/eznkZ+fH5YvX45evXqppd++fTvCwsKwfv16bN26FQzDwNPTE8OGDVObQeDjjz9GQkICtm/fjoiICJSUlGDMmDEGNeYr+llXGf369cPRo0cxd+5c7NixA9bW1ujZsyf+/PNP9O/fX+NcVfRYEUIIMT0cRjU8KtGgemZeIpGU+8x8fHw8ewe4OimVSkilUtjb29NdQWLS6nKsHj9+HL1798aMGTO0TutEzEtdjtXq0r17d5w/fx4SiYR9vptUr8rGaW5uLtzc3NCqVStcvHixGktYNTV5LUWql1wux8GDB9G/f3+DuwoTUhtMOVYNbYfSVQshhOiQmZnJPmuqkpOTg1mzZgEA2/2WkLpKNUBlWb///jvbLZsa8qYjPz9fY0YGhUKBL7/8EoWFhVRfEUJIHUTd7AkhRIc//vgDy5cvR2hoKDw8PJCamorDhw8jIyMDY8eOxRtvvFHbRSSkWrVs2RLt2rVDixYt2DnRT506BTs7Oyxfvry2i0fKePToEbp3744+ffqgYcOGyM3NxZkzZ3Dv3j34+/tj0qRJtV1EQgghRkaNeUII0aFbt27o0KEDjh8/jpcvX4LH46F58+aYM2cOPvvss9ouHiHV7tNPP8W+fftw5coV5Ofnw8XFBaNGjcKcOXPQrFmz2i4eKcPT0xPvvPMOYmJicPjwYZSUlMDb2xvTp0/HN998A1tb29ouIiGEECOjxjwhhOjQuXNn7N27t7aLQUitWbx4MRYvXlzbxSAGcHFxwaZNm2q7GIQQQmoQPTNPCCGEEEIIIYSYGWrME0IIIYQQQgghZoYa84QQQgghhBBCiJmhxjwhhBBCCCGEEGJmqDFPCCGEEEIIIYSYGWrME0IIIYQQQgghZoYa84QQQgghhBBCiJmhxjwhhBBCCCGEEGJm+LVdAHMgl8shl8v1rmcYBkqlEkqlslrLwjAM+7u68yKkKihWibmgWCXmoK7HqVKpBMMwkMvl4PF4tV0cUgWqa2Z9186EmAJTjlVDy8RhVJ8OhBUZGYnIyEgoFAo8fPgQUVFRsLGx0Zmez+ejXr168PLygqWlZQ2W1LxERUVhwoQJiIyMxKhRo2q7OKy33noLsbGxyM7OrpH8PvvsM2zbtg03b96Et7d3lffn4OCAgIAA7N+/v9ryIISUNqJCQkLg6OiI3bt313ZxDLZ161ZMnToVp0+fhr+/f7XkUdP1qCGeP3+ONm3aYOTIkVi7dm2N5KmtPtZn2bJliIiIwL59+9C9e3ejl8fY56Uyx9TQz6Pi4mIkJiYiLS0NJSUlRikvIYSYq4KCAowaNQoSiQT29vY609GdeS0mTJiACRMmQCqVQiQSISwsTO9BlMlkSExMhFAohJWVVbWWjWEY5Obmws7ODhwOp1rzMjbVsbGystJ7PGsan1/6NqipMllYWAAAhEKh0fLk8/lq+6qOPCqqbKz27NkTMTExUCgUtVIWQvQxtF7dsmULbt68idjYWJOqw8ozbtw4rFq1Ct9++y0OHTpULXnUdD1qCKFQCKC0PqzJcr1aH+sjEAgAADY2NuVuU5nPf2Ofl8ocU0M/j2QyGaytrREUFFTt11Kkesnlchw7dgy9e/dmzz8hpsiUY1UqlRqUjhrzBrCwsNB7ghUKBTgcDrhcLrjc6h2GQNW1TpWfOVGVtyaOU0Vs3boVBQUFNVYm1UWYsY9D2X0tW7YMs2bNgpeXV60d67KxqmJK550QFUPqVaVSiW+//RaBgYHo1q1bTRavygQCAaZOnYpJkybh/PnzCAgIqLa8TOk97uXlhbi4OIhEohovl6H5VeTzoCqf/8Z6/ZU5poa+Ri6XCw6HU+41FzEfdC6JuTDFWDW0PKbzqUtILfH29kazZs1quxhG5e7ujmbNmplcxUSIuTp06BASEhLw3nvv1XZRKmXEiBHg8/n4+eefa7soNcbCwgLNmjWDu7t7bRelzqBjSgghpoUa88RoTp8+jUGDBsHNzQ0CgQBeXl4YPHgwzp49q3e7v//+GyNHjkTjxo1hY2MDkUiEwMBA7Nq1S2v66Oho9OvXDx4eHhAIBHBzc0NgYCB++eUXtXTXrl3D0KFD4e3tDYFAABcXF3Tq1AmLFy9WSxccHKyzy+LevXsRFhYGJycnWFlZwdfXF6NHj8adO3fYNA8fPsSMGTPQvn17Nl2TJk0wc+ZM5OXlGXLoDLJ+/Xq0bNkSVlZW8PLywowZMyCTybSmHTt2LDgcDhISEthlp06dAofDwfz583Hu3DmEhYVBLBarvXaGYbBx40YEBATA3t4eNjY26NixIzZu3Kg1H4ZhsGnTJgQGBkIsFsPGxgZ+fn4YN24cnj9/DgDg8XiIiYkBUHqHRvUzduxYAEBCQgL7f1xcHMLDw+Hk5KRW/orESNn9PX78GOHh4XBwcICtrS169eqFmzdvan0tMTExCAoKgq2tLZycnDB8+HAkJibqjI+KHiti3jZt2gQOh4MhQ4ZorFPFiFwux/z58+Hr6wuBQIAmTZrofK7Y0PjZu3cvOBwOli9frrZ81apV4HA4qF+/vtpymUwGKysrhISEqC13cXFBcHAwdu7cWaF6qbi4GN9//z06deoEOzs7CIVCtGjRAtOmTSv3OWyJRIKIiAj06NEDHh4esLS0hIeHB9577z08efJEI71MJsOKFSvQpk0biEQi2NrawtfXF8OGDVN73yqVSqxfvx6dO3eGo6MjrK2tUb9+fQwYMACnTp1i05WtC16Vm5uLBQsWoHXr1myd0q5dO8yZM0dt0KGKfj5VRVRUFNq2bQtra2u4u7tj8uTJKCwsZNcfP34cDg4OmDBhgtbtnzx5Ai6Xiz59+misk8lkmDlzJry9vWFlZYXmzZvjhx9+wKvDJm3evBkcDgebN2/Gvn37EBAQADs7O/j6+gLQf0zv3r2Lt956C3Z2dhCJROjfv7/aZyUhhBDjo272xChWr16NqVOnwtraGuHh4fD29kZycjLOnj2LnTt36h3YZ9asWbC0tET37t3h7u6OzMxM/PPPPxg6dCjWrFmDiRMnsmkPHDiAAQMGQCwWY+DAgWz6mzdv4rfffsMnn3wCALhx4wa6desGHo+HgQMHwsfHBzk5Obh37x5++eUXfPPNN+W+pi+++AIrV66Eo6MjBg0aBFdXVyQmJuL48ePo0KEDWrZsCQDYvXs3NmzYgJCQEAQHB0OpVOLChQuIiIhATEwMTp8+XeU75AsXLsTcuXPh5uaGjz/+GBYWFvjzzz8RFxdX4X2dO3cOS5YsQUhICD755BO20c0wDN59911s27YNfn5+GDVqFCwtLXHs2DF8+OGHuHfvnlqDQqlUYvjw4di5cyc8PT0xcuRI2NvbIyEhATt27ECfPn0QGhqKuXPnYsuWLXj27BnmzZvHbt+2bVu1cj1+/Bhdu3ZFq1atMHbsWLx48YIdULIiMaKSkJCArl27wt/fHx988AGePHmCvXv3IiQkBHFxcXBzc2PTHj16FG+++SZ4PB6GDx8ODw8PREdHo3v37nBwcNDYd0WPFTFvDMMgOjoaTZs21RoPKiNHjsSlS5fQr18/8Hg87NixAxMmTICFhQU+/vhjtf0ZGj9BQUHgcrmIjo7G9OnT2X1ER0cDAJKTk/Ho0SP4+fkBAM6fP4+ioiKNxjwAvPHGGzh+/Dj7ZV55CgsL0bt3b8TGxsLPzw/vv/8+BAIBHj16hHXr1uG9997Tezzi4uIwd+5chISEIDw8HLa2trh//z6ioqJw4MABXLt2DT4+Pmz6MWPGYMeOHWjdujWbV2JiIqKjo3H58mW0adMGQGl98N1336FRo0YYNWoU7Ozs2M+b48ePIzg4WO/rysjIQI8ePXD//n20bdsW48ePh1KpxP379xEREYEvvvgCYrGYzauidU9l/Pjjjzh8+DAGDhyI0NBQHD58GGvWrEFWVhb++OMPAEDPnj3RoEEDbNu2DStWrNAYmHf9+vVgGEYt1lSGDRuG69evs19G7dq1C5MmTUJCQgJWrFihkf6vv/7C0aNH8dZbb+Gzzz4r99nNO3fuICAgAHl5eRg8eDD8/Pxw6dIlBAQEsOeNEEKI8VFjvpoN3z8cWYVZRt0no2TA4Rpv8Dtna2f8+dafld7+5s2bmDZtGtzd3REbG8t+gw+UXrSmpqbq3f7gwYNo2LCh2rK8vDx069YNc+bMwYcffshetGzcuJG9sH71AuHFixfs37/99huKioqwZ88eDBw4UGc6Xfbv34+VK1eiVatWiI6OhpOTE7uupKREbR+jR4/GtGnTNGYy+PbbbzFv3jzs2LED7777brl56vL48WN8++238PT0xLVr1+Dq6goAmD9/Pjp37lzh/R07dgwbN27E+++/r7Z8/fr12LZtG95//32sW7eO/QKiuLgYQ4cOxYoVKzBy5Eh06NABALB27Vrs3LkTPXv2xL59+2Btbc3uq7CwEPn5+QCAefPmISYmBs+ePcP8+fN1lis2NhZz587FggULNNZVJEZUYmJisGzZMnz11Vfssjlz5mDRokXYtGkTZs6cCaB0zItPPvkECoWCbcCrjBkzBlu3btUoT0WPVV2W/sN1KHOLa7sYenHtLOE2sV2lt4+Li8PLly/Rr18/vemSkpJw584ddpCvyZMno2XLllixYoVaA6si8ePg4IC2bdvizJkzKCkpAZ/Ph1KpxOnTp9GzZ0+cOHEC0dHRbGNe1cjX1pjv2LEjgNL3miGN+Tlz5iA2NhajR4/Gpk2b1KYLk0gk5U4f1rx5c6SmpsLR0VFteXR0NHr16oVFixbh119/Zff3119/oUOHDrh48aLavhUKBXJzc9WOn4eHB27duqXxvn/58mW5r+uzzz7D/fv38fXXX2v01EpPT2cHeQMqV/dUxvHjx3H16lU0bdoUALB48WK0bdsW27dvx//93//Bw8MDHA4HY8aMwfz58/HXX39hzJgx7PYlJSXYsmULXF1dNT7zgNIeZHfu3IFIJAIALFiwAF26dMH333+PkSNHsrGhcvjwYRw5cgS9evUyqPyff/45pFIpfv/9d7XPu6+//hpLly6t8PEghBBiGOpmX82yCrOQUZBh1J9MWaZR91fVLxvWrVsHpVKJRYsWqTXkgdJu1R4eHnq3f/VCCSgd9Xbs2LGQSCS4fPmyxvqyDUeVsg3uiqZ7lapr7OrVqzXS8/l8tbu6np6eWqck/PzzzwGUXqRVRVRUFEpKSjBt2jS2IQ+Ujk48e/bsCu+vffv2Gg15oPTOkK2tLSIjI9V6ElhaWrIXvNu2bWOXr127FjweDz/99JPGcba2tta4gC9PvXr1dPaYqEyMNGjQAF9++aXasg8//BAA1NKfPXsWz549w4ABAzR6kCxatEhrg6Wix6ouU+YWQyE17Z+qftmQlJQEAGrve22WLl2qNlp306ZNERAQgAcPHqg1RisaPyEhIcjNzcWVK1cAANevX0dOTg4++ugjeHt74+TJk2za6OhoWFtbo0uXLhrlU5Vf9Xr0KSkpwS+//AKRSITVq1drvA9EIpFao1cbkUiktR4ICQmBv7+/Wt3I4XDAMAysrKw0Bknj8XjsnXIVS0tLre/N8uqdtLQ07N69G40aNdL65aKbmxs7AjxQubqnMiZPnsw25IHSOnTkyJFQKpW4evUqu/zdd9+FpaUl1q9fr7b9gQMHkJqaijFjxmjtCTZnzhy2IQ+UnpvZs2eDYRhs2bJFI/3AgQMNbsg/f/4cMTExaN26tcYX119//bXGuSOEEGI8dGe+mjlbOxt9n9VxZ74qLl26BAAG3enRJiMjA8uWLcOhQ4fw7NkztWcEASAlJYX9e8SIEdi9eze6du2KUaNGoWfPnggMDISzs/prGDZsGFatWoXw8HAMHz4cvXv3RlBQEDw9PQ1+TQKBAD169Cg3req58c2bN+POnTuQSCTsqMOvll8XbReVU6ZMgVgsZp8VDQwM1EijbVl5OnXqpLGsoKAAt2/fhoeHByIiIjTWq54hvX//PoDSO1NxcXFo3Lgxe0ewqtq0aaP1SxGgYjGi0rZtW41Gger54pycHHaZ6vhqexTEy8sL3t7eiI+PZ5dV9FjVdVw77efMlFS1jKqeOOU1SrT1xCgbc3Z2dpWKn5CQEKxYsQLR0dHo2rUre/c9NDQUISEhOHz4MIDS2Lx06RICAwO1vpdUDd2srPK/wL1//z5yc3PRq1cvvV3py3Pq1CmsWrUKFy9eRFZWltr84WXLaG9vj/79++PgwYNo37493nnnHQQHB6NTp04ajdMRI0Zg7dq1aNmyJUaMGIGQkBC88cYbWr+8fdWVK1fAMAxCQkIMevypMnVPWTdu3MCePXvUlvn6+mo8c15e7Kg4OzsjPDwcf/75J+7fv88O3qpq3H/00Uday6Hv8+P69esa6yrS60tfHSoUCtG2bVu1sQwIIYQYDzXmq1lVuq9ro1QqIZVKYW9vbzJTAEkkEnA4nEqNbvvy5Ut06tQJz58/R0BAAHr16gWxWAwej4cbN25g7969KCoqYtO/88472LNnD1auXImff/4ZkZGR4HA47MWu6jnsLl264NSpU1iyZAmioqKwadMmAKUN2YiICK1dUF99TZ6engYd40mTJuHHH3+El5cX3n77bbi7u7NzBy9YsECt/Lpo61o+duxYiMViSCQSAFC7K69S3p1CbbRtk52dDYZhkJycrLUsKqqu86oyGfrlSGXLBVQ8RlS0zWesuuNWdr571bOg2o6vqlxlG/MVPVZ1XVW6r5sLVSNR14CTKobEXGXiJzAwEDweD9HR0Zg1axaio6Ph7+8PV1dXhISEYMuWLbh37x6Sk5NRXFyss35TNUQN6RZujPf4X3/9heHDh0MoFKJPnz7w9fWFjY0NO8Das2fPNNKr6mxVLx17e3u8//77WLJkCVvu1atXo0GDBti0aRMWLVqERYsWwcrKCsOGDcOKFSs0vtyt7OuqbN1T1o0bNzTOc48ePTQa84bWVwDwySef4M8//8T69euxfPlypKSk4NChQ+jRoweaNGmitRza6lfVMtUxKS+9Lvo+oyq6L0IIIRVDjXlSZWKxmH02vqIXfhs2bMDz58+xcOFCjS7jy5Ytw969ezW2GThwIAYOHIjc3FzExsayA9D17dsX9+/fZ++eBQYG4tChQygsLMTFixexb98+rF27Fm+++Sbu3Lmjtftk2deUlpYGpVKpt0GfkZGByMhItG7dGufPn1e7SE5LS9N7sV7WqyMKl6XqGpmRkaE2WBRQ+nxnRWkbmV11IdmhQwe2K68+qjIlJydXOP+KlAuoXIxUhOq1Z2RkaF3/6jGu6LEi5s/FxQWAYc9jl6cy8WNvb48OHTogNjYWhYWFOHv2LDtFnqrhHh0dzd4l1tWYV5Vf9Xr0UdWjVXmPz58/H1ZWVrh69apGD57t27drpLexsWEb5/Hx8YiOjsbPP/+M1atXo7CwEOvWrQNQ2sidPn06pk+fjpSUFMTExGDTpk3YunUr0tLScOTIEaO8LmPUPWPHjtU68ntVBAcHo1mzZti6dSuWLFmCTZs2QaFQaB34TiU9PR3e3t4aywCodb9X0VUfa1P2M0pX3oQQQqqHadzaJWZN1R3v6NGjFd5WNT2RtgF7zpw5o3dbOzs79O3bF7/88gvGjh2L9PR0XLx4USOdtbU1goODsWLFCnz99dcoLCzEsWPH9O67c+fOKCoqYqdU0+Xp06dgGAa9evXSuNtVXvkNpRroT9v+jJWHnZ0dmjdvjri4OLUunbqopqeKj4/Ho0ePyk2verb11TtMhqhKjBhCdXxjY2M11iUlJbGj/atU9FgR8+fv7w8ul4sHDx5UeV+VjZ+QkBAUFBRg7dq1kEqlCA0NBQB4e3ujUaNGOHnyJKKjo2Fra6v1URoAbPlbtWpVbn5NmzaFvb09Ll++XO4UdLo8efIEzZs312jIp6am4unTp3q3bdCgAT744APExMRAKBTin3/+0ZrOw8MDI0eOxOHDh9G4cWMcP35coyt8WR07dmRnByg7BZ2u8gPVV/dUxSeffILMzEzs2bMHGzduhIODg9ZpE1X0fX60a1e13jWqOlTbNLR5eXm4ceNGlfZPCCFEN2rMkyr79NNPwePxMHv2bI1ukwzD6H2mUHWn+dWLgKioKBw8eFAj/enTp7U2CFV3BKysrACUTs+krUus6g6BKp0uqnl8J0+erHE3rqSkhN2Pqvznzp1Te04+KSkJs2bN0puHoUaNGgUej4eVK1eq3fmQSqVYtGiRUfIASh8XKCgowMcff6y1i3h8fLzavPUTJkyAQqHAZ599pnHxLJPJ1I6b6lndxMTECperojFSUd27d4e3tzf27duH8+fPq62bM2eO1nir6LEi5k0sFqN169a4cuWK2vu8sioTP6q77REREeByuWrTr4WEhODkyZO4fPkyAgICdD4Lrvqy05CxQPh8PsaNGweJRILJkydrvA8kEkm589X7+Pjg8ePHandmZTIZxo8fr9GQzszM1DoneXZ2NoqKitg6u6ioCOfOndNIl5+fj7y8PFhYWOjtTeXm5oYhQ4bgyZMnWntOZWRksM/1V3fdUxVjxoyBlZUVpk6diqdPn2L06NF6P9cWLlyo1p1eIpFg0aJF7Aj5VeHt7Y2goCDcunWLnUZPZcmSJfSlJyGEVCPqZk+qrFWrVli1ahUmTZoEf39/DBo0CD4+PkhLS8Pp06fx5ptvYtWqVVq3HT16NCIiIjBx4kRER0fDx8cHN2/exIkTJzB48GDs3r1bLf2kSZOQkpKC7t27w9fXFxwOB2fPnsWlS5fQtWtXdgCeiIgIREdHIygoCA0aNICVlRWuXbuGEydOoGHDhggPD9f7mvr374/p06dj+fLl8PPzQ3h4OFxdXZGcnIwTJ05g+vTpmDJlCtzd3TFkyBDs2rULHTt2RM+ePZGeno79+/ejZ8+e7J2dqmjcuDHmzp2LefPmoXXr1hg2bBj4fD527dqF1q1bG+VuIQCMGzcOFy5cwJYtWxAbG4tevXrBw8MD6enpuH//Pi5evIioqCh2xoLx48cjJiYGO3bsgJ+fH95++23Y29vj+fPnOHLkCH799Vf27mFoaCh27tyJIUOGoF+/frCyskKbNm0wYMCAcstV0RipKB6Ph59//hlvv/02QkNDMXz4cLi7uyMmJgbJyclo06YNbt26VaVjRcxfeHg45s2bhwsXLqBbt25V2ldl4qd79+6wsLBAZmYm2rVrpzYoXUhICDsAmq4u9gzD4MSJE2jevLnO56pf9e233+LChQv47bffcOHCBfTr1w8CgQBPnz7F4cOHcfbsWXacEm0mTpyIiRMnol27dhg6dChKSkpw7NgxMAyDNm3asAOnAaXd3tu1a4c2bdqgdevW8PT0xIsXL7B3717I5XJMnz4dQOlz/wEBAWjSpAk6dOgAb29v5OXlYf/+/UhLS8P06dPZMUt0Wbt2Le7cuYPFixfj4MGDCA0NBcMwePjwIY4ePYr09HSIxeJqr3uqwtHREe+88w5+++03ANDbxR4AmjRpgpYtW6rNM5+UlIRp06ZpTEtXGZGRkQgICMB7772HPXv2sPPMX758GYGBgbXek4EQQuoshugkkUgYAIxEItGbrrCwkLl37x5TWFhY7WVSKBRMdnY2o1Aoqj2vioqOjmbeeustxtHRkbG0tGTq16/PDBkyhImNjWUYhmE2bdrEAGA2bdqktt2NGzeYsLAwxsHBgbGzs2N69OjBHD9+XGv67du3M8OGDWMaNWrE2NjYMCKRiGnTpg0TERHB5ObmsukOHz7MvPfee0zTpk0ZOzs7RigUMi1atGC+/vprJjMzUy3/Hj16MLreCrt27WJCQkIYkUjECAQCxtfXlxk9ejRz584dNk1ubi7zxRdfML6+voxAIGD8/PyYhQsXMsXFxQwApkePHmr7HDNmDAOAiY+Pr9Dx/fXXX5kWLVqwx3b69OlMQUGBwXlER0czAJh58+bpzefPP/9kevXqxTg4ODAWFhaMp6cnExwczKxYsULj2CmVSmb9+vVM165dGVtbW8bGxobx8/NjPv30UyYhIYGNVblczsyYMYPx9vZm+Hw+A4AZM2YMwzAMEx8fr/a/NhWJkfL2p+14MQzDnDx5kunevTtjbW3NODo6Mu+88w7z/PlzpmXLloxIJKrysSKmy5B6NTk5meHz+cz48eM11umrQ/S93ysaP926dWMAMF988YXa8pSUFAYAA4A5f/681nKcOnWKAcCsWrVK52vURiaTMcuXL2fatm3LWFtbs3XpF198wWRnZ7PptB0DpVLJ/Pzzz4y/vz9jZWXF1KtXj/nwww+ZjIwMjfTZ2dnM/PnzmaCgIMbd3Z2xtLRkPDw8mL59+zKHDh1i0xUXFzMRERFMWFgYU79+fcbS0pJxc3NjgoKCmKioKEapVLJp9dUFEomEmTNnDtOsWTNGIBAwIpGIadu2LTN37lymuLiYTVeRuodhdNcvusybN48BwERHR2usezWPV+P0+PHjDACma9euOvevOs6FhYXMjBkzGC8vL8bS0pJp2rQps2bNGrXjpS3PV+k7prdv32b69+/PCIVCxs7OjunXrx9z+/Ztgz/zavJailSv4uJiZs+ePWrvJUJMkSnHqqHtUA7D6Bl56zUnlUohEokgkUi0jjSrIpPJEB8fz94Brk6mOJo9IdrUhVjNzc2Fm5sbWrVqpXU8BlI3GBqro0ePxoEDB/Ds2TPY2dnVYAmr7n//+x8OHTqEJ0+e0LzfZurVOF2+fDm+/PJLbNiwAR988EFtF6/KavJailQvuVyOgwcPon///gZNAUlIbTHlWDW0HWqeV9iEEGJE+fn5yM3NVVumUCjw5ZdforCwEIMGDaqdghGTsmjRIhQWFuKHH36o7aJUyMOHD7F9+3bMnj2bGvJ1hEwmw48//ggHBweMGDGitotDCCGkltAz84SQ196jR4/QvXt39OnTBw0bNkRubi7OnDmDe/fuwd/fH5MmTartIhIT4OPjgy1btpjdVFtJSUmYN28eO7AnMV/nz5/H1atXcfToUTx79gxLly7VmEmFEELI64Ma84SQ156npyfeeecdxMTE4PDhwygpKYG3tzemT5+Ob775Bra2trVdRGIihg0bVttFqLDQ0FB2MEpi3mJiYhAREQFnZ2dMnTqVHRiQEELI64ka84SQ156Liws2bdpU28UghBC9Zs6ciSVLlpjtOCSEEEKMiz4NCCGEEEIIIYQQM0ONeUIIIYQQQgghxMzUyW72jx8/xvLly3Hp0iXcvn0bnp6eSEhIqO1iEUIIIYQQQkidUVKswL3YVOS+lOlNJ7Dhw7+7B6ztLGuoZK+HOtmYv3v3Lvbv34/OnTuDYRhkZ2fXdpEIIYQQQgghpE65HZOMc7seG5T2RXIe+nzUsppL9Hqpk93sBwwYgKSkJOzevRtdunSp7eIQQgghhBBCSJ2T9lRicNpnd15AqVBWY2leP3XyzjyN8koIIYQQQggh1UuSUQgA4HI5GDi1HcDRTHP1UAKe330JuUyBzMQ8uPna13Ap664aa/U+ePAAP/zwA8aOHYtWrVqBz+eDw+Fg0aJFBm3/119/ITg4GA4ODrC1tUWbNm3w3XffQS6XV3PJCSGEEEIIIYSUxTAMJJkFAAA7Zyt4+Inh0Vjzp0EbF3ab5Af0+LMx1did+Z9++gmrV6+u1LZTpkzB6tWrwefzERoaCqFQiJMnT+Krr77Cvn37cPToUVhbWxu5xIQQQgghhBBCtCmQFqOkuLTbvMjFRmc6zyZi9u/kh9lo38enuov22qixO/MtW7bE9OnT8ccffyAuLg6jR482aLs9e/Zg9erVEAqFuHjxIo4cOYJdu3bh0aNHaNWqFc6ePYs5c+ZUc+mJMWzevBkcDgebN2+u7aKoCQ4OBoejpU9QNRk7diw4HI7RZljgcDgIDg42KA+5XI758+fDz88PAoEAHA4He/bsKXcdIYQQQgghZam62AOAyFX3jVWxmw1sRKWj2Kc+lkBBz80bTY3dmf/oo4/U/jf0ufYlS5YAAGbOnIn27duzy52dnbF27VoEBgbixx9/xJw5cyASiYxXYELqoBUrVmDBggUICgrCsGHDYGFhgWbNmpW7jhBCCCGEkLJUXewBQOSiuzHP4XDg2cQBjy6nQ16kQOazXNRrSO02YzDpAfCSk5Nx+fJlAMCoUaM01nfv3h1eXl5ITEzEwYMHMXLkyJouIqkDtm7dioKCgvITmpGlS5di5syZ8PT0VFu+f/9+CIVCHDt2DJaWlgavI4QQQgghpCy1O/N6GvNAaVf7R5fTAZR2tafGvHGYdGP++vXrAABHR0c0aNBAa5qOHTsiMTER169fr3JjvqioCEVFRez/UqkUQGn3Y30D7cnlcjAMA6VSCaWyeruNMAzD/q7uvIxNVd6aOE4VUb9+fQCosTKpzqGxj0PZfbm5ucHNzU1jeUpKCpycnMDn8zXy1reuMsw5VsnrhWKVmIO6HqdKpRIMw0Aul4PH49V2cUgVqK6ZaZDqui87PZ/929bRQu85d2tkx/6ddP8lWvf01Jm2pphyrBpaJpNuzMfHxwMAvL29dabx8vJSSwsABQUFOHjwIADg6dOnKCgowM6dOwEAnTp1go+P9kEXli5digULFmgsP3r0KGxsdA/qwOfzUa9ePeTl5aG4uLicV2Ucubm5NZJPRcTGxmLt2rW4fPkyJBIJnJ2d0b59e3z22Wd44403IJPJAAAymYz9ogQovSP8999/4/r160hLSwOfz4e/vz/Gjx+Pt99+WyOfM2fOYPXq1bh79y5evnwJkUiERo0aYfjw4Rg7diyb7ubNm1i5ciWuXr2KzMxM2NnZwdvbG/3798f06dPZdG+99RZiY2ORna05uubBgwexfv163LhxAwUFBXB1dcUbb7yByZMno0WLFgCAx48fY+vWrYiJiUFiYiIKCgpQv359vPXWW5g+fTqEQqHaPlVvzry8PLXjUJ6tW7fip59+Qnx8PJycnDBkyBB8/fXXAICSkhK1fX322WfYtm0bbt68CW9vbyxbtgwRERHsetWFkpeXF0aNGqVz3a1bt3D27FkMGDAAX331FUJCQhAREYGrV69CKpWyx+z333/HwYMHcefOHWRkZMDa2hrt27fHlClTEBgYqPY6yu6vT58++Pbbb3HlyhVwOBwEBQVhyZIlWt/z+/btw8qVK3H//n3Y2dmhX79+7GMBAHDr1i219MXFxfj111+xY8cOPH78GFwuFy1btsTEiRPRv39/g487eX2YYr1KyKvqapwWFxejsLAQp0+fRklJSW0XhxjBsWPHarsIpJqlP7EBwAPAIPbSKXD0PEXNMABPYAtFERfJj7JxYP9BvelrkinGqqG9hk26Ma/6wLK1tdWZRtVQKtuQycjIwDvvvKOWTvX/pk2b1Bp8Zc2aNQvTpk1j/5dKpfDy8kJYWBjs7XXPhyiTyZCYmAihUAgrKyv9L6qKGIZBbm4u7OzsanTQtvKsWbMG06ZNg7W1NQYNGgRvb28kJycjNjYWhw8fRp8+fdhjY2VlpXY8Fy1aBEtLSwQGBsLd3R2ZmZnYt28fxowZg9WrV+Pzzz9n0x44cAADBw6EWCzG22+/zaa/desWdu3ahUmTJgEAbty4gT59+oDH4+Htt9+Gj48PcnJyEBcXh99++w3ffvstu08+v/Rt8Oo5nj59Or7//ns4Ojpi0KBBcHV1RWJiIk6ePImuXbuia9euAEorgD/++APBwcEIDQ2FUqnExYsXsXr1aly8eBGnTp2ChYUFu1/V30KhUG9clbVo0SLMmzcPbm5u+Oijj2BhYYHdu3fj6dOn7Gsou69X8wgLC4NAIGBnlJg8eTIAQCwWo02bNjrX2dvbs19kXb16FStXrkRwcDA++eQTPH/+nM3zyy+/RJs2bdC7d2+4uLggOTkZe/fuxaBBg7Bz504MHDiQLZtqf7du3cKaNWvY/d24cQMHDhzA/fv3cevWLbX30saNG/Hxxx/D3t4eo0ePhkgkwqFDhzB06FAoFApYWFiovf6ioiKEh4fj1KlTaNu2LT744API5XIcPHgQ7777LtasWYMJEyYYdOxJ3Weq9SohZdX1OJXJZLC2tkZQUFC1X0uR6iWXy3Hs2DH07t1b7fqH1C0Mw2Bz9HkACtg5WePNt4LK3ebkiwd4fDkDjIKDDi26o17D2p1v3pRj1eAbfkwtGTNmDAOAWbhwoc40ixcvZgAwAQEBOtN8/fXXDAAmLCzM6GWUSCQMAEYikehNV1hYyNy7d48pLCw0ehlepVAomOzsbEahUFR7Xoa6ceMGw+VyGQ8PDyY+Pl5tnVKpZJKTkxmGYZhNmzYxAJhNmzappXny5InGPnNzc5lWrVoxIpGIyc/PZ5cPHjyYAcDcuHFDY5usrCz272nTpjEAmD179uhNxzAM06NHD+bVt8K+ffsYAEyrVq000svlciYtLY39PykpiSkqKtLIZ8GCBQwA5vfff1dbror9V4+VLo8ePWL4fD7j6enJpKens8slEgnTtGlTBgDTo0cPg/Lw8fFhfHx8tOaja110dDQDgAHAbNy4Ueu2T58+1ViWlJTEuLu7M35+fjr3t337drV1o0ePZgAw27ZtY5dlZ2czQqGQsbW1ZR4+fMgul8vlTGhoKANAo9yqemHOnDmMUqlkl0ulUqZjx46MpaUlG5eEmGK9Ssir6nqc1uS1FKlexcXFzJ49e5ji4uLaLgqpRgXSIubHcSeYH8edYPauumbQNnfPJrPbXD4QX70FNIApx6qh7VCTvjNvZ1f6bEV+fr7ONHl5eQA076qaivghQ1GSlWXUfSqVSmQaOBuAIfjOzmiwa2elt1+3bh2USiUWLVoEX19ftXUcDgceHh56t2/YsKHGMqFQiLFjx+KLL77A5cuX0aNHD7X11taag2w4OTlpLDM03avWrl0LAFi9erVGej6fzz6PDkBjkDmVzz//HPPmzcPx48fx7rvvlpunLlFRUSgpKcG0adPg6urKLre3t8fs2bMNnuaxqtq3b4/3339f6zptY1q4u7tjwIAB+OWXX/Ds2TONx1uCgoIwfPhwtWUffPABfvvtN1y+fBkjRowAAOzduxd5eXmYNGkS/Pz82LR8Ph+LFi1Ct27d1PahVCrx008/oVGjRliwYIHaHSw7OzvMnTsXb7/9Nnbv3q3W64MQQgghhBhGkll28DvdjyOX5dnEgf07+WE2Ovb3NXaxXjsm3ZhXNQwTExN1plGte7URaUxVGQCvJCsLJenpRi+TsYe+qcpgOpcuXQIA9OrVS+9+dA2Al5GRgYiICBw+fBjPnj1DYWGh2nZJSUls+mHDhmH37t3o2rUrRo4cidDQUAQGBsLZ2Vltm6FDh2LVqlUIDw/HsGHD0KtXLwQFBelseJctn+o1CQQCBAYGlntsGIbBpk2bsHXrVty5cwcSiURtm+TkZLX/GS0D4Gkbq2Hy5MkQi8W4ceMGACAgIECjLAEBAVrLry0PXa+1vHWq/zt27Khzu6dPn2LZsmWIjo5GcnKy2kCSQOk5VI1vodpH+/btNfan+uInOzubXad6/d26ddNI36lTJ/YxCdW6uLg4ZGdnw8PDA/Pnz9coa2ZmJpuuLg4iRSqOqeMDi5G6oa7HKQ2AV3eY8qBixHhepP43fofQydKg820t4sHWQYD87CKkPpFAVlAEnkXtPThvyrFaJwbAa9euHQDgxYsXiI+P13r378qVKwCgNgd9VUVGRiIyMhIKhQJA1QbA4zg4gGviH7ocB4cKDcT2quzsbHA4HNja2urdj7YB8LKzsxEUFISkpCR06dIF//vf/yASicDj8XD79m0cPHgQEomETd+nTx/88ccfiIyMxLp167B27VpwOBwEBgZi0aJFaNWqFQCgefPm7IBp27Ztw+bNmwGUxsn8+fPVBmVTDbRTtuwSiQTu7u5szw99ZsyYgV9//RWenp7o27cv3NzcIBAIAAAREREoKChQ27e2AfDKPsOvMmTIEHC5XLx8+RJAaS+DV4+vqufBqwPg6RpkT3UBqO086VqnGoBDLBZr3e7p06fo2bMncnNzERgYiLCwMNjZ2YHL5eLs2bPs4IKqbVX7EwgEGvvTFiMvXrwAUNpbQ1v+Tk5OUCqV7DrVF3x3797F3bt3NdKr5OTkVCnuSd1TVwcWI3VLXY1TGgCv7jHFQcWI8UgeWQIovd599Owukg7e0r/BvxgbKyDbAgq5Ev/8eQwCR0U1ltIwphirdWIAvPr166NTp064fPkyoqKi8M0336itP3v2LBITEyEQCIw6OvWECRMwYcIESKVSiESiKg2AZ797l9HKBZjmADiOjo54+vQp8vPz9d751jYA3i+//IKkpCR8++23Guc3IiICBw8e1Bgwb8SIERgxYgRyc3MRGxuLv//+Gxs3bsQ777yDe/fuQSwWAwD69u2Lvn37orCwEBcvXsT+/fvx008/Yfjw4bh16xbbvV/bAHhisRgZGRkQCoXg6nmkISMjA+vXr0fr1q0RGxur9qVPWloaIiIiyh2cDgD7xZE2jo6OAIDCwkKNOFSNJm9IHgDY16ItnnWtU72mV8+Dyvr165GTk4MtW7bgf//7H7ucYRh89NFH7HFRbavan0Ag0NifakDLsgPaqR5zyMvL00ivVCrx4sULeHp6suvc3d0BAIMHD8Zff/2lUV5CXmWK9Sohr6rrcUoD4NUdpjyoGDGek1vuIxelvR1D+3aHg7vuAcvLeuCYjpg/HgIAfJybo31f3bOWVTdTjlVDbziZdGMeAL7++muEh4dj2bJl6NevH3sH/sWLF/jss88AlD6bLBKJqq0MFhYWek+wQqEAh8MBl8vV2/AzBtXdU1V+pqBz5864cuUKjh8/rvOZauC/xmLZ46QajX3QoEEar+fs2bMa6csSiUTo378/+vfvD6VSiY0bN+Ly5cvo06ePWjpbW1uEhoYiNDQUDg4OmDt3Lk6cOIHGjRtrLZ/qNR08eBBnzpxBSEiIzteUkJAAhmHQq1cvjSnoYmNjte5bdRFmaLy0bdsWf//9N2JjY9GlSxej5KEv31fXqf7XFXOqcxgeHq62XqFQ4OLFixrl0Lc/bevatm0LADh//rzGM/aXLl1i7+Co0vv7+8Pe3h5Xr15lR7onRB9TrFcJeVVdj1MulwsOh1PuNRcxH3Qu6zZp1r+PVHIAR3c78C0MezzGu/l/Y1GlPpaYRIyYYqwaWp4a+zS4du0aO51X165dceDAAQClg6eVXZ6amqq23aBBgzBp0iTk5eWha9eu6NevH4YOHYrGjRvj9u3bCAgIwMKFC2vqZRAtPv30U/B4PMyePRvPnj1TW8cwDFJSUnRuqxoUTdVwV4mKisLBgwc10p8+fVrrXeyMjAwA/939P3/+PNtlu6z0f8cvKO9bf9W0ZZMnT2a7uauUlJSw+1GV/9y5c2rPMCYlJWHWrFl68zDUqFGjwOPxsHLlSvZ1AqXf2C1atMgoeVSFrnMYERGBuLi4Ku9/4MCBEAqF2LBhA548ecIuLykpwZw5czTS8/l8jB8/Hs+ePcP06dO1PnN0584dtWNJCCGEEEIMJ8ks7QYuFAsMbsgDgL2zNeycSq/D055KUSKv/W725qzG7sxLpVL2Ll1ZSUlJSEpKYv9/deAsoHRE8YCAAERGRuLcuXOQy+Vo1KgRZs6cialTp8LS0rJay070a9WqFVatWoVJkybB398fgwYNgo+PD9LS0nD69Gm8+eabWLVqldZtR48ejYiICEycOBHR0dHw8fHBzZs3ceLECQwePBi7d+9WSz9p0iSkpKSge/fu8PX1BYfDwdmzZ3Hp0iV07doV3bt3B1DakIyOjkZQUBAaNGgAKysrXLt2DSdOnEDDhg0RHh6u9zX1798f06dPx/Lly+Hn54fw8HC4uroiOTkZJ06cwPTp0zFlyhS4u7tjyJAh2LVrFzp27IiePXsiPT0d+/fvR8+ePdUan5XVuHFjzJ07F/PmzUPr1q0xbNgw8Pl87Nq1C61bt8aDBw+qnEdVfPrpp9i0aROGDBmCYcOGwcnJCRcuXMC1a9cQFhaGo0ePVmn/YrEYK1euxCeffIIOHTpgxIgREIlEOHjwIAQCATw8PDTuUi1YsADXrl3DmjVrcODAAQQFBbHn7/bt27h58ybOnz+vNjsAIYQQQggpnyxfjqL80p6RIlfNmaPK49lEjPvn06CQK5EeL1Ub5Z5UTI015oODg9mRWCtj2LBhGDZsmBFLZLiqjGZvbKY6mu1nn32GFi1aYOXKlTh06BDy8vLg6uqKzp07Y+jQoWrHpuzfHh4eiI6OxldffYXjx4+jpKQE7du3x+HDh5GYmIjdu3erpf/qq6/w999/49q1azhy5AgsLCzg6+uLZcuWYfz48eBwOFAqlRg3bhzs7e1x6dIlxMTEgGEYeHt7Y9asWZgyZQqEQqHOUdtVIiIi0KVLF6xduxY7d+6ETCaDu7s7QkJC0LNnTzb9xo0b4ePjg927d+OHH36At7c3pk6dihkzZmDnzp0a+y5vpHltZs+ejXr16mH16tVYt24dXF1dMXz4cCxYsIDt3l/do9nrirk2bdrg8OHDmDt3Lnbv3g0ej4c33ngDp0+fxq5du3D06FGN869rf7rWffjhhxCJRFi2bBk2b94MkUiEAQMGYNmyZWjQoAEaNWqklt7CwgIHDhzAhg0b8Pvvv2PXrl0oKiqCm5sbmjdvjk8++QT+/v4m9R4itcdU61VCyqrrcUqj2dcdpjxCODGOsiPZ2zlZVfhc12tkj/vn0wAAiXEv4NpAWM4W1cOUY9XQMnGYqrSw66iyo9k/fPgQUVFRBo1m7+XlRb0ECKlBT58+RYcOHRAeHo6NGzfWdnEIIYRUUnFxMRITE5GWlkaj2RNi4gpS+Hh5s/SOvKhpEewaFpezhbqSQg7STpU24C0dS+DapbCcLV4/BQUFGDVqFCQSid6B2Kkxr4dqNPusrCyDRrP39fWt9hFY6/potqTuMGasZmdnw8bGhp3yDygd3X/48OE4cOAAfv/9d4wcObKqRSavKapXiTmo63Eqk8mQkJAALy8vGs3ezJnyCOHEOK4dfo4rB0rHyer9UXM0aONc4X1sW3AZuVkycPkcjI14A3zLmu+RY8qxKpVK4ezsXG5j3uRHszcFNJo9IRVnzFg9c+YMPvzwQ4SFhcHb2xtZWVk4efIkEhISEBoaipEjR9L7gVQa1avEHNT1OKXR7OseOpd1V+6L/8Y4c3K3q9R5rt/EAXFZqVCWMHiRVIj6TWvvuXlTjFWTG82eEEIqy9/fH71790ZsbCzWrFmDqKgoCIVCLFy4EAcOHKiTF7aEEEIIIaZIkvFft3h754oPgAcAnmUa78kPsqtcptcV3ZknhJg8Pz8/bN++vbaLQQghhBDy2lNNS2crsoSFoHLd4z2biNm/kx9SY76yqDFvABrNnpCKo1gl5oJilZiDuh6nNJp93WHKI4STqisuLEFhbum5tXep+Ej2KgIhD/YuVpBmypAeL0VhvqzGn5s35Vil0eyrgEazJ4QQQgipOTSaPSHmoVjCRcY5WwCATf1iOLYqKmcL3bLvCJCfWNp2cu5UACtnhVHKWBfQaPZGQKPZE1J5FKvEXFCsEnNQ1+OURrOvO0x5hHBSdU+vZ+L4xvsAgE4DfNEuzKvS+3p8JQMntzwAALTr44VOb/kao4gGM+VYpdHsjcjQ0exrYoTZuj6aLak7KFaJuaBYJeagrsep6jrKFEeVJpVD57Juynv535zyjvWEVTrH3s2dAZQ25lMfSWstXkwxVmk0+xrE55d+J0LdwgghhBBCKk71fCg9L0+IaSs7kr3IpXIj2avYigUQu5U+ypyRIIW8iLrZVxQ15o2Ax+OBx+NBKpXWdlEIIYQQQswKwzCQSCQQCAQmd3eMEKJOkmm8xjzw36j2SiWD1Cc5Vd7f64a62RsBh8OBq6srUlNTIRAIYGtrW23PsymVShQXF0Mmk9XJbnak7qBYJeaCYpWYg7oYp6rR6yUSCfLy8uDp6VnbRSKElEOSUTotnbWdBSytq96U9GzigLtnUgAAyQ9z4N3Cqcr7fJ1QY94A5U1NBwA2Njaws7NDZmYmMjIyqq0sDMNAJpPBysqqTg6AQ+oOilViLihWiTmoy3EqEAjg5uYGa2trk5wiilSMKU/3RapGXqRAvqT0mXl7Z+O8X10bCtm/k+6/hFzuXeV9GsqUY5WmpquCik5NVxaHw6HnvQghhBBCDKBUKtnB/Qghpk2ey0X62X+npfOUw7G1zCj7TTttg5J8HsBhYOWqewwyDhewdi2Bdb0ScOpGByWdaGo6IzB0arqaZMpTKBBSFsUqMRcUq8QcUJwSc0GxWnfF38zCsfVxAICOb/qgfV/j3EU/++dj3DubanB6a3sLtAhwR/Pu7rCxt6x0vqYcqzQ1nRGZ6nQFplYmQrShWCXmgmKVmAOKU2IuKFbrnrLT0jnUszXa+W0d4oUn1zJRVGDYzGCFUjmuHnqO60cT0bijK1qHeMHNt/I3Xk0xVg0tDzXmCSGEEEIIIYTopT6SvWGPIBvCyVOI97/rDlm+/ufEc9ILcPtUEp5ezwTDAEoFg4cX0/HwYjrcGtijdUh9NGzrAg6v/HFFeLy60U+fGvOEEEIIIYQQQvQy5hzzr+LxubAVCfSmsRUJ4NnEAbkvZbgTk4y7Z5NRlF96Nz89Xopj8fcMysvazgIf/F9glctsCqgxTwghhBBCCCFmRpJZAFm+/q7pNvaWsHO0Mlp+ACCw5cPKtva6pds5WuGN8Ebo9KYvHl5Ox62TSXiRnFdr5alN1JgnhBBCCCGEEDNy/ehznNv92KC0YR/5w6+jW5XyK5ErkJddBMC4Xeyrgm/JQ4sADzTv5o6URzm4eyYFednlj7AvsDGt5+OrghrzhBBCCCGEEGImGIbB7VNJBqe/cjABjTu4gsMp/1lyXaRZMuDfOdCM3cW+qjgcDjybOMCziUNtF6XGUWPeAHK5HHK5/gEZaoqqHKZSHkJ0oVgl5oJilZgDilNiLihWq192WgFyX5begRa5WKN+c7HWdIlx2ZBmyvAyJR/Jj17CrUHlR3x/mZrL/m3nJKgT59eUY9XQMtE881pERkYiMjISCoUCDx8+RFRUFGxsTKM7CSGEEEIIIeT1lRtvAcn90ufgRc1ksGugveGXn8RH9u3Su+g2nnI4ti6/C7oheTq0LoStp2HTyJHKKSgowKhRo8qdZ54a83pIpVKIRCJkZWXpPYg1SS6X49ixY+jdu7fJzYdISFkUq8RcUKwSc0BxSswFxWr1O/DDbSQ/zAEAvPNNBzjU037TsaRYgd9nX0RxoQI8Cy7+t6gLBDaV65h9dsdj3DuTCgAYOK1Nle7ymwpTjlWpVApnZ+dyG/PUzd4AFhYWJneCTbFMhGhDsUrMBcUqMQcUp8RcUKxWj2JZCVKfSAAAdk5WcKlvr/NZeAsLCzTt6o7b0UlQyJV4eu0FWofUr1S+uS+K2L+d3O3q1Lk1xVg1tDzcai4HIYQQQgghhBAjSLqfDaWitGO1j79TuYPa+Xf3YP++dzYZle2ULckonZbO0ooHK6FpNXxfZ9SYJ4QQQgghhBAz8PzuC/Zv75ZO5aZ38hSiXsPSbtovkvORHi+tcJ6KEiVyX/w74J6rTZVGxSfGRY15QgghhBBCCDFxDMPg2b+NeS6fg/pNDZuKzT/Qk/377pnkCueb+0IGxkSnpXvdUWOeEEIIIYQQQkzcy9R85L0sfXbd008MCwHPoO0adXCFpXXpUGmPr2SgqKBiU7FJMgvZv6kxb1qoMU8IIYQQQgghJu75nZfs397+5XexV7Gw5KFpl3oAgBK5Eg8vpVcoX0lmAfu3yJUa86aEGvOEEEIIIYQQYuKelXle3seA5+XL8g/8byC8u2cqNhCeJKPsnXnt0+CR2kFT0xlALpdDLq9Yd5TqoiqHqZSHEF0oVom5oFgl5oDilJgLitXqUSwrQerjHAClU9LZOlpU6Bjbuwrg1sAO6fG5eJGcj+RHLw2eKz47PZ/929ahYvmaMlOOVUPLxGEqOz9BHRYZGYnIyEgoFAo8fPgQUVFRsLGhb6EIIYQQQgghNa8wnY8X10q7uNt6F8PBv6icLTTlJ/GRfbt0Hzaecji2lhm0XdppW5Tkc8HhMfDonQcazL76FRQUYNSoUZBIJLC31/2lCzXm9ZBKpRCJRMjKytJ7EGuSXC7HsWPH0Lt3b1hY0ByPxHRRrBJzQbFKzAHFKTEXFKvV4/T2R7gfmwYA6DvOH94tHSu8j5JiBX6ffRHFhQrwLLj436IuENjo76itVDDY+EUslAoGjh62GDqrfaXKb4pMOValUimcnZ3LbcxTN3sDWFhYmNwJNsUyEaINxSoxFxSrxBxQnBJzQbFqPAzDIOleNgCAx+fC298ZFhaGjWRfloWFBZp2ccftU0lQyJWIv/4CrYLr691GKimEUlF671fsZlMnz6kpxqqh5aEB8AghhBBCCCHERL1MyUdedmm3eo8mYlhYVrwhr1LRgfDUB7+jkexNDTXmCSGEEEIIIcREqY1iX4Ep6bRx8hSyA9+9SM5HeoJUb3q1aemoMW9yqDFPCCGEEEIIISbqeRWmpNPGP9CT/fvumRS9aXMyy9yZd6UBwU0NNeYJIYQQQgghxAQVF5Yg9ZEEAGDvbAWRa9Xvjjfu6ApL69Kh0x5fTkdRYYnOtNTN3rRRY54QQgghhBBCTFDS/WwolaXPtfv4O4FjhHnhLCx5aNrZDQBQIlfi4cU0nWkl/96Z5/G5EIoFVc6bGBeNZk8IIYQQQgghJqjs8/LeRuhir+If5InbMckAgAt7nrB/vyonLR8AYO9iDQ6XJpg3NdSYJ4QQQgghhBATwzAMnt0pbczz+Fx4NnUw2r5VA+Glx0tRLFOgODVfb3oHN3pe3hRRY54QQgghhBBCTMzLlHzk55ROSedZxSnptAkY6ofjm++hMLdYbzobe0u0C/M2at5VxTAMigryUZgrhSw3F4W5UhTmSqGQy8vdlm9piRZBoTVQyupHjXlCCCGEEEIIMTGqu/KAcbvYq7g3EmH0wjcqvX1RQQFSHz9A2uOHKJYV6k3LKJVQlpRAUSKHoqQECrm89Efx798lJWAYZbn7kOXlsQ13Rqk/vS42IjE15l8ncrkccgO+5akJqnKYSnkI0YVilZgLilViDihOibmgWDWehDtZ7N+eTUW1ekwZhoEkPQ2pj+4j9dF9pD1+iKzEZwDD1FqZKothGLX2nSnGqqFl4jCMGZ6BahYZGYnIyEgoFAo8fPgQUVFRsLGh50QIIYQQQggh1U8pB1JOCAGGA56NEu499D/TXlHy/DzIMtMge5EJpkT31HQAoJAVQpaVDkWRzKhlqAwOnw+ewAo8SytwBYLSvwVW4AkE4AqswOWVf6+aw+PBzrdxDZS28goKCjBq1ChIJBLY29vrTEeNeT2kUilEIhGysrL0HsSaJJfLcezYMfTu3RsWFha1XRxCdKJYJeaCYpWYA4pTYi4oVo0j/kYWjm2IAwD49/BAwNBGld4XwzDISU1B8oN7SPn3R5qZUaXycThcOHv7wr1JU9Rr3BRCR/2PAXA4HPD4FuDy+eDx+eDxLUp/W/y7jMcHh6t/1nQOt3QfxmLKsSqVSuHs7FxuY5662RvAwsLC5E6wKZaJEG0oVom5oFgl5oDilJgLilX9SoqLoVQqdK5/ficdjLIQDFMEsbMIqQ/iUFSQh6KCAhQX5EOWn4/iwgKUd18290Umku/fQ4Ekp0rltbIVwr1JM3g0aQ6PJs1Rr7EfLK2sq7RPU2GKsWpoeagxTwghhBBCCCHVRKlUIOv5M6Q+eoDUR/eR/CAOOWkpBm9/Yr1xy8O3sEQ9vyao38wfns38YevgqDe9haUAIle3cu+ck5pHjXlCCCGEEEIIMUBJcTFyX2RCqW8kdQaQZKQh5eF9pD6KQ+rjR5CXM9p7dRLY2MKjaXN4NvNH/eYt4dawMfgmdieaVA415gkhhBBCCCGkjAKpBC9TkvAyOenf34l4mZIESUa6EUZw54LDcwGHIyg3Xb1GrnDxdoKljS0E7I8NBLa2sLS2AZerf+55S2trOHrWLzcdMU/UmCeEEEIIIYTUCQzDoDBXitwXWch7+QJ5L0t/5754gbzsF6XPjutpjDMA8rJfQpYrNVqZuHw7gFMPXL4HuHx3cPiuaNrFE+6NxHq3s3e2gldzR3A4HKOVhdQt1JgnhBBCCCGEmARVYzwnLQXZqSmlv9NSkZOWgvzsl9B7T5xhIMvLhaKcqdYqy8LKGo4e9SGu5w6+haXetAqFBV6m2UGSKQKHa8cu9/Z3whvhDeFc307P1oQYhhrzhBBCCCGEEKNhGAb5OdmQpqfhZXIiXiQnIj/7ZTnbKJH74gVy0lJQVGDcOdXL4vL44PL0dDlnGFgJhXD0rA9HTy84uNeHldAFDMcRsjxLZKcVQJpViKIi3V8rKEoYZD7PBQBw/h0zztXHDm8Mboz6TR2M+XLIa44a84QQQgghhBANihI5sp4/Q172C73plAoFJBnpeJGUiBdJz5H+LB5Pthl3CHYOhwtbsRgcfQ1xlA72ZufoBKGjE4SOzhA6OsHOyRm2YkcUy6yQm80AjL5u6wzyc4rwMrUAmSn5eHS9AAp5AYCCSpVb5GqNrgMboVF7F+ouT4yOGvOEEEIIIYS85hQlJXiR9BxpTx4hI/4x0p48Rtbz+Grrsq4Nh8OFnbMLHNw9IHZzL/1dzwPieu4Qudar0AjsCrkS6c+kSHmUgztncpD65DnkMt3zuhub0FGADn190TzAHTweTelGqgc15gkhhBBCCKlDSuRypD15iOS4u8h9kaU3raKkBFmJCch8Fg+FXG6U/Pk2tnBv2BguXj5w9PSCk6cX7F3dwC1nnnIrO3utDXaGYZCTXoCXqdnQ99C8UsngRXIeUh9LkB4vhaJEz/RxBuBwORC7WsPB3RYO9Wzg6G4LB3dbiN1swOeX00DngO7Ek2pHjXlCCCGEEELMmLy4CKkPHyAp7jaS4u4i9eF9lMiLq7ZTDgcO7p6o17AxHDw8y53aTOjoBEfP+rBzqYcTp06hf//+sKjCXOb5kiIk3c9GUtxLJN7PRn5OUaX3BQA29pbw8BPDrYE9+Jb6X4uVrQUc3G0gdrUBr7xGOyG1iBrzhBBCCCGEGFFhrhSFubl60zCMEiXFxSgpKoK8SAZ5cdG/fxehpLgIcpkMSqX+buFymQwpD+OQ9vhhlbvDO7h7wq1hY/bH1bcRBDY2Fd6PXMvdfUbJoKhQf/mUCgbpCVK28Z6dWrVB8OydreDhJ4Z7YzE8/MQQuVjTnXJS51BjnhBCCCGEkCpQKhRIeXQfCTeuIv7GVWTEP6nV8ti7uKJ+85ao36IlXLx8wdHXvZ3DgditHgQ2tkbLn1ECGc9ykZmQh5RHOUh5nIOi/Mp/2cC34MLdTwz3RiLwLcrpIeAggHtjMYQOgkrnR4i5oMY8IYQQQgghFZT7IgvxN64i4eZVPL99s1qnUyuPuJ476jdvBa8WLVG/eUvYu7gadf9Khf5nzxUKBpnPpEh5JEHyw5dIeSTEniM3Kp0fhwO4+tqjfjMHeDVzRL2GIvAsqLs7Ia+ixjwhhBBCCHmtlcjlSH/yCMkP7iH10X0UFeifhqxAkoMXSc91rnfxbQgXL5/SVqkOHA4HfEtL8AVWsBAIwLcU/PfbygoWlgJw+frvQnM5XDh7+0Lo6KT/BVaQQqFEyqMcJNzMQsLtLEizZBXcg/rrFtjw4eJtB245o7qLXK1Rv6kDPJuIIbCp/PP2hLwuqDFPCCGEEEJeK7K8PKQ8jEPy/btIfnAPaU8eVWkkdyuhHXxat0ODth3g07odhA6ORixtzSgqkOP53ZeIv5WFZ3deoLicZ9z14QqUaODvBs8mDvDwE8PR3RYcLj2vToixUWPeAHK5XOtgHrVBVQ5TKQ8hulCsEnNBsUrMQV2OU6VCgQJJDgokOVAq9A/4pigpQXFhPory81FUUICignwUF+SjiP0pAFPOoHEFUgleJiVWrdAcDtwa+sG3TXv4tG4H14aN1EZ7N4XzVFxYgtQnEuTn6B/VXi5TICkuGymPJWCUmvO+cXkcONUXgsfT3xi3d7WGeyMRnH1scOHaGQSFNWJHsy9RlAA1N8U7IQYx5XrV0DJxGIbRM1vj6ykyMhKRkZFQKBR4+PAhoqKiYFOJ0TwJIYQQQuo6pbwYBWnJYMoZTV2pKEFJQQEUhQUoKcyHorCw9LessIZKqpuF0B5WLm6wcqkHa5d64NsK9abncLn6B5WrBcoSoCibh6IXfBS95EEu4eLV7u6G4vAZWLmUwNqtBFbOJeBSj3dCalRBQQFGjRoFiUQCe3t7nemoMa+HVCqFSCRCVlaW3oNYk+RyOY4dO4bevXtXae5OQqobxSoxFxSrxByYYpzmpKfi1tGDuBtzAnITaJAbisPhwsW3ATyaNId70+bw8GsGWxPqFl9SrEBhnhyFuXIo5PoHnpMXKZD2RIqURznIfJ4LRn9yvewcBfBp7QTfVk6o18i+3OfbdZbJBGOVEG1MOValUimcnZ3LbcxTN3sDWFhYmNwJNsUyEaINxSoxFxSrxBzUdpwyDIOke7dx9eA/eHL1IlCFe0IcLhe2YgcIHRxh6+AEW7EYfAtL/dvweLCysYWljS2sbG0hsLWFwMYWAlshBDY2ENjYgsvXf3nL5fLAKydNZSkVSmQm5iHlYQ5k+fq7tyuVgCyvuLThLv33d24xSoqr0CIvw8nTFp5NHOBUXwiunufVORzA2csOjh62Rp2HvbZjlRBDmWKsGloeaswTQgghhBC9SoqLcT82BtcO7kXm8wS1dXwLSzQPDIaLTwO9++BZWEDo4ARbB0cIHRxhbW+v9py5OWKUDF6k5CP5QTaSHmQj5VFOlQaOqwqHejbwbOoAzyalo8Fb2+n/YoQQYv6oMU8IIYQQ8hqS5eXhydWLSL5/Fwo9z7szSiUSbl1HoVSitlzo4Ii2fd5Cq559YGMvqu7i1oiiwhKkP5WgqJwGuSxPjuSHOUh+mA1ZnhEGz+IAVrYWsBZawNrOkv3NF/D0PvXO4XLgXF8IjyZi2IoEVS8HIcSsUGOeEEIIIeQ1USCV4PHlC3h06Rye375R7ujx2tRr3AQd+g+EX5eAauuuXlMKpMVIeZSD1Mc5SHmcg6ykPKAKo0lZCS1K50lv6gAHNxu9489xOIDA1gLWQktYCS30doUnhBBtzLsGJoQQQggheuVlv8TjS+fx6FIsEu/dAaOs+DPZHC4XTboEoH3/gfBo0qwaSll5JXIFZHklkOUXQ5Ynh1KhvzVemFuMlMcSpDzKQU56QZXytrTiwaOJA+o3dUD9Zg40nzohpEZRY54QQgghpIbl52Qj7clDKPU1rBkGJUVFkBXkozBXiqw7d3AiJR7ywkLI8vNK51gvLIS+W8lKpRKSjHStA9XZObnAr0s3NO7UFbZi/aO529iLYCXUPl0bo2TwMjUf8mL9d/mVCgbyIgXkMkXp7yIF5EUlZf5WlDuenrJECVmeHIV5csjy5ZDlySEvMtIE5hyUdllvLIadk5XepFweF24N7OHiJaz0qO+EEFJV1JgnhBBCCKkBjFKJ53dv4daxQ3h85UKlurjnxFWtDGI3d/h16Qa/Lt1Qr1GTKo1eLi9S4P75VNyKTqryHe7awOVy4OprBw8/Mdwbi+HeSASBjWmNaE0IIfpQY54QQgghpBoVSCW4G3MCt08cRnZqitH2y+FwYWltDQ5X/51hoYMjGnfqCr8uAXDxaVDl6cfysmW4fSoJd8+koKigdkZu53BKn0+3srWAlfC/586tbC3+n737jo/jvA/8/5nZ3tF7IQmwd4qUKFKVEiWLsizJ3XLimtxdbP98tuKc7SS+i8+J7cTOXWSHcXxObCdy5CLLkiJZjaIaKVJi7xUA0Xvbgu078/tjQJAgCgEQZQF+33zNa2ZnZ2afBR8s9jvP83wfTObR35/JopI/z0v+Ah8W6+zOpi+EuL5JMC+EEEIIMcl0XafpzEmO7niR8+++PSRbvNOXwdJb7sDpyxj1OmarFZvThdlm5/Dx49x+1924vD7sLhcWu2NS5wW/mrbaAEd3NlB9sB1NG9wfvmhhBjmlw3fDv0hVFSw2ExabGYvd1L9turRtNV11vLmqKtjdFmwOs4xNF0Jc9ySYF0IIIYQYg4sB+rFXX6Kl6iz6KAO8k/E4fT3dQ/aXrVjFqrvvo3LDRkzmsXfpTiQSnGnrJKe0HItlcrqCp5IabbUBOhuCoyaN0zSd2mOdtFQNnppONSks3JDP6i2l5JZ5JqVMQgghxk6CeSGEEEKIUcTCfZx66zWO7niRrsb6cZ9vd3tYfsfdrLrrPWQVFU9BCccmlTCC9+bzPTSd66W12k8yMf7M9naXhRW3F7Pi9mKZ21wIIWaQBPNCCCGEEMNoq6ni6I4XOP32myRjsUHPmW02LLbRM55nl5Syasu9LLxpM2arddLKFY8mCfvjhAPGVGyj9RDQdehp7TOC9xo/qQkE7xdlFrpYvaWExTcVYJax5kIIMeMkmBdCCCHEnKNpKeKRCPFwmFgk3L/uIx4Ok4zHRz03Ho1wetfrtFafH/Jc8ZJlrN66zQjQJ9jdXUtpNJzpob02MGTs+SA6xCJG4N7XG6Wz1cVPd75NMj7xgPxy7kwbxYsyKay8ehZ3l89KQYVvWsfoCyGEGJ0E80IIIYRIe329Pbz28/9H0+kTox6n6zqJaJRELDppr211OFh22xZW330fOWXzJnQNXddpuxDg3L42qg62EQkmJnAVFZh4IO/OslGyKJOiRRkUL8rEk22X4FwIIWYxCeaFEEIIkdZaq8/z7N//DaGuzml93bx5Fay+5z6WbL4dq90xoWt0NYc4v6+Nc/vbCHZd2w0Gxazjy3bi8tlw+mw4fVYcbgvqVaamc3gtFFVm4M2Z2HsQQgiRniSYF0IIIUTaOr3rdV758Q9JJoyu8VaHA7t79MzpFpsdq9OJzeHE6nBicxrri9tmq+2qLdJ58yvIX1A55LhkPEX9qW46G0PGgPQRpJIadSe66WoKDXnOZFGZtzKHirW52FyjfBXTwWI34/JZsTgUXnn1ZbZtu23SstkLIYSY3SSYF0IIIUTa0bQUu574Nw4897uBfUWLlvK+P/1zXBmZ01qWRCxF3Ykuqg+3U3u8i2QsNe5rKAqULs1i4Y35LFidi9Uxvq9gicREuuULIYSYyySYF0IIIURaiYZCPP/Y31J37PDAvpVb7mHLZ/5kwknnxiseTVJ3vIvqQ+3Uneia0BRuAPnzvSy6MZ/KG/Jxeicvo70QQgghwbwQQggh0kZnQx3Pfu+v6W1rAUA1mbjzk/+FFXe+h2OvNdJS7R/fBUfpCj+SZEKjpcpPKjk0gLe5zCxYnUv5imwsttGnZ8vId8o4dSGEEFNGgnkhhBBCpIWq/e/wwj/+PYloBACHx8sDj34dd9YCnvreQTobho4/nw4Oj4X5a3KpXJtH0eIMTKbRE84JIYQQ00GCeSGEEEKMqqPuAv72tlGP0TWNSChIJBggEvAPWocDASLBAMlYbPRr6JdawnPnLeDBP/0Lms6neOGf90/a3Opj5fBaqVibS8W6PIoqfagSwAshxKyiRaMkGhuJ1zeQaGww1g0NmDJ8FP3t38508SbFnA3mq6qq+OIXv8hbb72F3W7nwx/+MN/73vdwuVwzXTQhhBAi7em6TsPJY7zz1K9oOHV8Wl978c23cscnP8/bT9VSdaB9YH9mgZO7PrkMb459xHN13Ug2N8gEplK3Oy0oqszBLoQQ6UBPpYjX1aP1hdDCEbRwH1o4jB6JoIXDxtIXJtneTryxkUR9PcmOjmGvZc7Lm+bST505Gcz7/X62bNlCUVERTz75JN3d3Tz66KO0tbXx1FNPzXTxhBBCiLSl6zoXjhzgnd/9mpZzZ679goqCw+3B4fVhsdmHBtqXUc0Wlmy+jfyKW/jd944R7L40L/uyW4u45UMLsVhHH6cuhBBibtCTScL79xN46WWCr75KqqtrUq6bCgTQ4vFh7vzOPnMymP/xj39MR0cHBw4cIK//zovD4eADH/gABw8e5IYbbpjhEgohhBDpRdc0qva/wzu/+zXttdWDnlPUDEzWpcAogbQCKHYUxYHD6yN/QT4li4soXV5ITpFnTK3cmqZz6KU6nvk/h9E1I3GdzWnmjo8vofKGudOSIoQQYnh6IkHfO+8SfOVlgjteJdXbO6HrmHJysJaUYCktxVpaaqzLSrGUlGLOzUFRVVJzYMrPORnMv/DCC2zZsmUgkAd43/veh9vt5vnnn5dgXgghxHUj1NNNrG/0xHHttTW8+/Rv6GqsH7RfUbMxO25CtSxCUcY+ZjwehYZTOg2nmtj7dBN2l4XCSh9ZRS6UK1tCLnvYfK6X5vO9A48LK31s/cxyPFkjd6sXQggxe+maRqK5mejp04Ref4Pgzp1o/qGzlig2G67Nm7EUFqI6HahOJ6rTieJwoDpd/Y8dmDIzsZaUoF4nQ6unLZg/e/Ysr7zyCgcPHuTgwYOcPn2aVCrFt771Lf7yL//yquc/+eSTbN++naNHjxKPx6msrOTjH/84X/7yl7FcMefsqVOn+MQnPjFon9lsZtGiRZw+fXpS35cQQgiRLjQtRVdDPU1nTtF01liCncOPGRyNYsrHbL8J1VKB2Wpi6aZCFm7IRzWN3LqeiKZorfHTfL6X1hr/oIR10b4EF452cuFo59heX4H12+axfts8STwnhBBpKtXbS+jNN+nbswc9pWHOycGcm4s5t3/d/1j1+QBItncQO3/eWKrOEztfRayqCj0cHvb6isOB+47b8d57L+5bb71uAvTxmLZg/kc/+hGPPfbYhM790pe+xGOPPYbZbGbLli243W5ee+01vvrVr/Lcc8/xyiuv4HBcmse1p6eHjIyMIdfJzMyku7t7om9BCCGEmFbBrk4iwcCox0RDQZrPnqbp3Gmaz54mHhn+S9FYKKYioyXePA+7y8KK24tZdWcpTq91TOeXLs0CIJXS6KwP0Xy+l+aqXlqqeomFk2O6hjvTxtbPLKNoYeaE34cQQoipEW9sJLRzJ8GdrxE+eBBSqaueo1gsKDYbWujq04uqTifuO+/Ec+89RgB/WYwnhpq2YH7FihV85StfYe3ataxbt45vf/vbPP7441c975lnnuGxxx7D7Xbz5ptvsm7dOgA6OzvZsmULu3fv5hvf+Abf//73p/otCCGEEFMumUhQtW8PR3e8SOPpE9d4NTOquRBF9Y5+mGJGtSxENZfizrSz5u5Slt1ShNU+sa8JJpNK/nwv+fO9rL2nDF3T6W7pI+yPDzpORx/0WDWpFMz3YpYkd0IIkRZ0XSd68hSh14wAPnb27PivkUigDzc+XVGwlJZiW7gQ28JKHKtW4dq8GdVmm4SSXx+mLZj/oz/6o0GPVXVs3ea+/e1vA/C1r31tIJAHyMnJ4Z/+6Z+49dZb+cd//Ee+8Y1v4OvvwpGZmUnvMMkSenp6WLhw4QTfgRBCCDF1/O2tHHv1JY6/voNIYOh4wTFRnKjmYlRzEaq5GMWUi6KMLTDOLHCy9p4yFt1YgMk8uV3bFVUhu9hNdvGkXlYIIcQU0RMJ/L//PV3/8i/Eq6qHPcZSVoZnyxY8d23BlJNDqrOTZEeHsXR2kmzvX3d0oIXDWOfN6w/c+5eKBahO5zS/s7klrRPgNTU1sX//fgAeeeSRIc/fcsstlJaW0tDQwAsvvMDHPvYxAJYuXTpkbHwqleLcuXO8733vm/qCCyGEEGOgaSkuHD7A0Vde4MLRQ8Yk6ZdR1CxUczGjTpSuqKimfBRzMYrqQ1EUrHYTefO85M/zkjfPe9UEciaLSma+U+ZVF0KI65wWjdL71FN0/+tPSTQ3D3nevmrVQABvrawcnNR0/vxpLKmANA/mDx8+DEBWVhbzR6gc69evp6GhgcOHDw8E89u2beOb3/wmHR0d5ObmAvDcc88RCoW4//77R3y9WCxGLBYbeBwIGOMUE4kEiTSZuuBiOdKlPEKMROqqmC2moq521F3g6Cu/v+p49866WoJdVyaoU1EtCzHbVqGYS4Zmf7+C0ertIq/cQ948D7nlHjLyHOMOzJOpJFx96KOYIfKZKmYLqauzkxYK4f/1b+j9938ndUWOMfvatXjeez+uO+7AfNlsYcnk2HKhpKt0rqtjLVNaB/MXLlwAoKysbMRjSktLBx0L8F//63/lhz/8IQ8++CDf+MY36Onp4dFHH+XBBx9k/fr1I17rO9/5Dt/85jeH7H/llVdwplkXkB07dsx0EYQYE6mrYraYjLqqJeJ0HTuI/+xJuGI8+FWpHszWVZhsK1CtTpyFCZzFYawZ2lVPVZQAAVoIdEFV18TKLmYH+UwVs4XU1dnBFAqRsfttMvbuxRSNDnqub/Fiuu+8g8jFRtUDB6a/gNMgHetqeIQM/1dK62A+GAwC4BplGgK32w1cakUHyMjI4LXXXuOLX/wiH/zgB7Hb7XzoQx+6apK8r3/96zz66KMDjwOBAKWlpdxzzz14vVdJHjRNEokEO3bsYOvWrUOm5BMinUhdFbPFZNRVXdep2r+Xt/79X+nrHd+sKap5PibbakzWeZQuy2bRTfmUr8zGbJEp2cQl8pkqZgupq+lFC4dJtraSaGkh2dJCsrmFZGsLiZZWki3NJFvbBmekVxTc99xD5mc/g23p0pkr+DRI57p6eWw7mrQO5q/FokWLeOmll8Z1js1mwzZM9kSLxZJ2/8HpWCYhhiN1VcwWE62rva0t7Pzpj6g9euiyvSbM9o2YbMsZfby7heziTJZsLGTRTfm4fJLBV4xOPlPFbCF1deJ0TaNvz17iFy4Y07pZrSg2K4rVimq1othsxj6zmZTfT7Kjk2RnJ6muzoHti4s2xqAQiwXfg+8j+7OfxXadjX1Px7o61vKkdTDv8XgA6OvrG/GYUP98henSci6EEOL6kEwk2P+fv+Xd3/2GVPLS2DbVPB+rewtrtq5g0Y0FKKM0sFtsJrw5jquOixdCCDH3pUIh/L97mu7/+AWJuvopfz2Tz4e5qAjXTTeR9alPYikomPLXFJMrrYP5efPmAdDQ0DDiMRefu3jsVJAEeEKMn9RVMRNaq85x6q2dJK4Y9zeEomAymzGZzaCodDY2ssvfgcVqw2Q2o5pMKKNMoaprGide34G/reWya7qxOO+kbNUGNn+ggoyCseVame0JhMT0kM9UMVtIXR2/REMDvU88QeDpZ9BHacQcD8XpxJyTgyknB3NhIZaiQswFhZiLCrEUFmIuKEC9Yijz9fZ/ls51dU4kwFu7di0AXV1dXLhwYdiM9gf6EzFcPgf9tdq+fTvbt28n1T9+RBLgCTFxUlfFdNASCbqO7sd/7uSEr3H4zPEJnqlgsq3DlnkTmcs1yGtgz6GRb0ILcS3kM1XMFlJXr0LXcVRXk7n7bVxnzqBcMTVpX2UlwdWrQVFQUkmURHLwOplETaZIORwkPR5SHnf/2kPS7UYfZugwAIGAsZw9Ow1vcnZIx7o6JxLglZSUsGHDBvbv388TTzzBX/zFXwx6fvfu3TQ0NGCz2di2bdukve7nP/95Pv/5zxMIBPD5fJIAT4gJkLoqpkvt0UPs/Jcf0dfTOe2vrZgKsfvuYf17b2DlncWStE5MGflMFbOF1NXhabEY8apq4ufOETt3lsg77xCvqh50jGKz4Xnve/F9/BFsCxfOUEmvH+lcV+dMArw///M/5+GHH+a73/0u991330ALfFdXF5/73OcA+MIXvoDP55uyMqRrUoR0K5MQw5G6KqZKOODn9Z//hDNvv3HZXjNmxyZUS+VVztaMRdcwJlfX0PWUsT2wb3SK4mTRzWvZ/IGFuDPtE3wXQoyPfKaK2eJ6rat6KkWyrY1YdTXRM2eInTlL9OwZ4hdqB2eNv4y5oIDMRx4h40MfxJyZOb0FFmlZV9MuAd6hQ4cGgm+A6mrjTtSPf/xjnn/++YH9Tz/9NIWFhQOPH3roIb74xS/ygx/8gI0bN3LXXXfhcrnYuXMnvb29bN68mW9961vT9TaEEELMMF3XObPnLXb+yz8TCwcH9qvmUrwF93P7Izcyb2X2qNfQNB1d09E0nXg0wauv7uSO2+/ApJpJpTS01NXniHe4rbgzJfu8EEJcb1KBAPH6BhKNDSQaG4k3NBrrxgYSzS0wxvHOjjVryPrkJ/DcfTdKmgWTYnaYtmA+EAjw7rvvDtnf2NhIY2PjwONYLDbkmMcee4zNmzezfft29uzZQyKRoKKigq997Wt8+ctfxmq1TmnZJQGeEOMndfX6oGkpGk8e59iOHTSfP4OuaaMeb7bacHh8uDJ8uLOzcGVk4PT6cPh8OL0ZODweVJNpxPMTsRi7f/kLGk5cNg2cYsPivJ0177mH9dvmYbGZ0Bm9HIrJWFQUdFXB7NBx+MzjvjMv9VtMF/lMFbPFXK6r8ZoaOv/v/yX8xpvjO9FsxlpRgW3xIqyLFmNbvAjbokWYsrIASMKYbwCIyZPOdXWsZVJ0Xb9688N15vIEeOfOneOJJ55IuwR4Qggxk+KBXvznzxO8cB4tPjmZdydCtSzEWXgb2avNWDyjB/BCCCHERJhCIbJ3vIpv3z6UUW5aa1YriawsEllZxLOziRUVEissJJ6bC+a0H90s0kg4HOaRRx7B7/ePmrtNgvlRXEyA19nZKQnwhBgnqatzTyzcx+ldb3Hs1VfpbakZ5ggLKFfpdq7Hgfi1F0Zx4czaym2PvIeFN+Zd0zztUlfFbCD1VMwWc6muatEovb/4BT3/8q+Dpowz5eXhuvVWzCXFWEpKsBQbazUj45r+Honplc51NRAIkJOTc9VgXm4RjUG6JkVItzIJMRypq+ktEgpy4LnfU3f8BLp2ZWKeS19ItFSSrsZz6NqVc6IrqJb5ZBTewPLbNuH0jd6LKR5JEuruw9/VTV9XD329vURCAVKJELoWRtcjwOj3mFVTBsvvvJ9bPrgcu2vy6pbUVTEbSD0Vs8Vsrqu6phF4/nna/+8/kGxpGdivOp1k/5c/JuuTn0R1OGawhGIypWNdTbsEeEIIIdJHV2M9u375W2oO7ULXxj9WTFGzcWWtYemtd7D8toVkF7mvqTzxaJKwP04kGGdwf7Ghgb0n24EnS7LHCyGEGJ9kTw/xCxfQk0nQdNA1I9eLjjGTiaaRCoXo/unPiJ48eelEVSXjQx8i9//7AuacnBkrvxBXkmBeCCGuE7quU33gAG//5rd01p+8+glXUuzYXMup2HA7a7auo2CBb9K6E1rtZqx2Mxn5kp9ECCHEtdPCYaKnTxM5dpzo8WNEjh0ncVnS7bFy3X4b+V/5isz7LtKSBPNCCDHHJWJRDr3wCgdfeJZIoO2KZy3YfatYfvu9eHMvm85NG9wirus6OaW5lC7NQjWpU19oIYQQ1yVd10l2dJBoaiLR1GysGxtJNDWR7OlBtdlQnU4UpwPV4UR1OFCdTlSnA8XuINFQT+TYcWJVVSPO6z4WtsWLyf/q/8C1adMkvjshJpcE82MgU9MJMX5SVydXLNxHb1sLXfXNtNc20tPSQqCjjbC/g2QsNOq5uq7BlVO1qV6yim/mxge3UbmhFNU0thb2lJYiNWRs/ewmdVXMBlJPxWwx3rqqaxrhXbsI/O5p4jU1JFta0IeZqvpaKXY7tqVLsS1ejOJwgKqiqAooKqgKiqqCagIFrAsW4LrzThSTSX7n5rB0/lyVqemugUxNJ4SYKrquE+vuJtTQSqS1lWQkeLUz0OIh9FR0Ul5fMRfhKlpN5ooSbBmTckkhhBBi3JREAs/hw2S+tQtbR8eYztFVddSp4QaOUxRiBQXESkqIlpYSKS0hnp8PJtO1FluIaSFT000CmZpOiImTumrQUilaq6o4985hGk+dpLe1Cm2SAnMAFDuK6ubyzPPDsTryWXbbe9jwvhuxu6/f/4/hSF0Vs4HUUzFbXK2upnp68P/q1/h/9StS3d2DnlMcdixFxZiLirAUF2Mu7l8XFWMpLkL1+UDT0CMRtP5Fj0TQwuGBfabMTGxLlqBKQ5y4inT+XJWp6SZRuk5XkG5lEmI4c62uxsJ9nH57H2f37CPU0znMEZdN55ZMEOyqQ9dGm1dd4WqBOIoT1ZSB1ZmN05eLL6+A7OJi8uaXklOajctnQ1VHv4bNZZa5b69irtVVMTdJPRWzxZV1NXbhAt3/9m/4n3kWPTr4prZj/Q1kf/rTuO+80+jufjV2O2RmTnaRxXUqHT9XZWo6IYSYBLqm0XT2HMdf30P9icOEumq52jzoo1IcWByl5JQspnzVKuatWozJMnq3P4fHijvLhkkSzwkhhEgzqd5eIsdPkOzsRAv4iXf3kHv8GK1v7UIPBtD8AVJ+P/G6OgbNPaqqeO69h+xPfxrHqlUz9waEmMUkmBdCXFcioSBNZ84R6OwZ8tzlLdeRYB81hw7TUXcSLRme+AsqLmzucnLLFzN/zWoW3bQUX65TWsmFEELMSom2diIHDxA+cIDwgYPEzp0bckwmMFJqVsXpJOODHyDrE5/AWlIypWUVYq6TYF4IMSfpuk6wq5PaY2doOHmG9toaAh0NJGO913RdRc3Ek7uY8pVrmb9uOWbzpY/RK1OQqKpCTlkO7gz7Nb2mEEIIMRN0XSdeW0vk0GEjeD94kER9/bivo7rdmPPz8T30IJkf/jAmn28KSivE9UeC+TGQqemEGL/JrKupZILmc1VUHzhBy/nzxCND7/crl407TyXj9PU2X1uL+gArVtc88hesYPHNG6jcUInVMb6PTvl9TW/yuSpmA6mnYjpooRDREyeIHj1G9OhRoseOofn9I5+gqtiWLMG+bh3W8jJUrxfd5eLAmTNsvPtubNnZqG43ymU3vjVAk3os0kA6f67K1HTXQKamE2Lm6LpOIhiir7GDSFsH8d52kpEOYDLmNregmvMwO3MwOTyD0s5d+UGoKAq2nGw883KweBSkV7wQQoi5RInHsba3Y2tpwV7fgKO+HmtbG8oooYFmNhMtLSEyfz6RefOJlpeh2aX3mRCTTaammwQyNZ0QE3exrm5av4Hq/ceoPXKczobzpBJDp2W7PE5OpaKT06KuOLDYC/DklJJTNp/iJQspWz4Pb44T5SqZ38X1RT5XxWwg9VRMlJ5IEK+tJV5VRfx8lbGuqiLR2Dg4Id0w1IwM7KtXYV+9Gse6ddhWrEC12UY9R+qqmC3Sua7K1HSTKF2nK0i3MgkB4G/v4NTuA1w4fIS22lNUPfGTa76mYsrE6Sslp7SSshXLyC0vHhSQ69oVY9XNJvLKc3C4rdf82uL6IZ+rYjaQeirGQguHCbz4Ir2/fYrI8eOQTF79JJMJ2+JFONeswbF6NY41a7CUlU04YavUVTFbpGNdlanphBAD4pEwySvG3lz5xzmVSBDs7qG3rZtARzfBrh76ensJ+3uJhALEwyE0bfSu7olokGRsaJb4y14VFBuM2sHdhNWZT2bhAooWLWHhhpUULSrEZJZp2YQQQojRRE6epPfJJwk89zxaX9+IxykOB7bKSmwLF2KrrMS+YjmOFStQZVipELOKBPNCzDHhYID6Y6e5cOw0bTVVBNrqSIwaYE8lBZO1gMyiRZQuW8HSW24gpyR71FheUcF8lXnXhRBCCGFIhfoI/P739P7mN0RPnhzyvHXePOzLlxuB+6KF2BYuxFJcjKLKTXIhZjsJ5oVIQ7quEwkGaK+tp7W6gdQV3eMUBreqBzq7aK2pItBeRyI6U4E7gAmzvYis4oWULltBuxbkoY8+gNUq3d2FEEKIa6FFIiQ7Oi4t7R1Ez54h8OJL6OHBuWYUpxPvtvvI/PCHsa9cOeGu8kKI9CbBvBBTRNd1IgE/WuqyrumX/TG9+Ic1HPDTcr6W1uo6OhsaCHS0EAm0o6Uik1QSMyZrHibL6F3nFEXFYndjd3mxe7y4fBm4M314srPw5WXhy8/C5hycsfbKseomi4rLZ0NRFBKJBC+88IJ8gRBCCHHdidfWkmhrx5ydhSk7G5PPN2pLuK7rJDs6SDQ0EG9oINHQSKKxgURL60DwroWGTst6Jfvy5WR8+MN479+Gye2ezLckhEhDEsyPQTrPM9/X003bheoxnasoCoqqGsvFbUVBUVRUVTW6Pl8ReF3eAqwoCpnFJVjtjsl5M5fRNY36E0fZ/+xzdNRXg65d5b2oKKrJWBQVVTWhmIzHqmrq/4N5xXu5Iqa0Ol1kFhaTV15CTlkJGYVFuDIyJxR8ppIJuhobaDx5nqZzVXQ11BLqakRLDc3cPrXMmKz5uLOMDO4lyxYzb/VCvDmOaQuqk/29CNJ57k4hLjeb66qu65BMoqRZ4h4x+WZzPb2epLq76fze9wk+//zgJ0wmTJmZRmCflYUpKwvV7SLZ2kqysYlEUxN6dGLfGRSXC8/92/B+4APYly0DZnYud6mrYrZI57oq88xfg9k0z3zv2Vo6D+6YvhdUTTgLSvHMX4CrqAz1Gr9ApuIxAlXn6T17mlSkd3LKeC0UCya7D7PTh8XtGXoX/YqAONnXRzzQSSrSjfGnc7LK4Ua1ZGKyZ2Bx+VBNl+67DfcLq1rM2HOzcRZ6MDtlTnQhrguaRtEvfoHr1GnaH34I/003zXSJhLh+6TreAwfJfeEFTOFJmF71MprVStLrJenxkPR4SHk9JD1ekl4PSa+XaFkZugxnE2JOkXnmJ8FsmGf+7d+8zMH//OcZKYtqslC2ah1Lb72NeatvwHKVeUcv19lQx8HnnuP8u7vQUvHBTyp2FGW0a+lGa5Rx39lY9BRGmDt6tvVppbgwWXJRTcP9gb30a6eabbgy88goKCJvXhlFC8vJKcvE7prdLW3pPHenEJebrXW1998fp/N73wPAlJfHvB2vSEKrOWy21tPrQby2lo5vfYvIvv0D+1SPB88DD6CFgqS6ukl1d5Ps6iLV3T1kmjjFasVcXIyltBRLSQmWEmPbXFKCpbAQ1eWa7rd0TaSuitkineuqzDM/idJ17kGLxUJGXilm++YxnqUDOnr/GnQYCIovPn/l8Zc/jJNKXADduOOspRLUHn6X2sPvopqtzFu9nkU33YTZOnIgHgv3ceTlV+ioOzvkOdVcSk75Jm547504PfZhzh5cNF3X0S+utYuPdbSkhpZKXnn4YJpGb3sXnY2N+NtaCHW3EevrRE/1oGv+4c4YhYKiZmF1FuDLKyVv/gLKli+meHERnmz7dT9mPB1/f4QYzmyqq/GGBrp++MOBx6n2dpInTuC84YYZLJWYDrOpns51ejxO57/8C13//GP0+KWGCe/995P/9a9hzskZeo6uowWDJLu60IJBzPn5mHNz5+SNOKmrYrZIx7oq88xfJxZvXEpuedngncPEoTpGD3FjrLxy2XZ/IjblUg/yQX01LttOxJLUHuvgzJ6DBNqPk0qcB91I0qYl49Qc3EPNwT3jfAcWzPZlVGy4i5vet4HcMs84z78W84BLX3w1TSfUE6W3LUTbhUZ6mtu4vOPKcJ1YnF4PZSsXUTA/a9a3pAshZgdd12n5xv8cMr428NLLEswLMU3CBw/S8j//F/HqS3mLLMXFFPzV/8J9660jnqcoCiavF1Oa9PgUQsxuEszPcg6PlWLP9I2TKlqYyc3vX0hX0wNUHWzhzNsH6G051h/Yjz1xi6Jm4ci4gbX3bmXVlkqc3pkf66WqCt5sB95sB2XLcme6OEIIMaze3/6W8DvvAGAuLCTV2YmeSBB8+WXyv/61OdnCJ8RM0XWdZHs7sfNVxKrOE6uqInb+PNGjxy4dZDKR9alPkvv5z6OmaY4lIcTcJMG8GDdFUcgpcZNTspCNDy6kp/V9nD/Yypnd+/G3Nw4+eJheApnF89jwwGYq1+VjMsuXTiGEGKtEWxvtf/t3A48L//f/puc//oPQG2+QbG8ncuQIznXrZrCEQqS3VG8v0bPn0GNR9EQCPR4fstZicRKNjUbgXlWFFgiMeD37ypUU/u9vYl+6dBrfhRBCGCSYF9css8DFjfdXcOP9FTNdFCGEmLN0Xaf1m/97YK5p30MP4b71FpJdnYTeeAOAwEsvSTAvxBVSgQDBV3cSePFF+vbuHZKAbiIs5WVk/cEfkvnIx1BMpkkopRBCjJ8E80IIIcQsEHzpJUKvvQaAKTub/K99FQDPli20WCyQSBB8+RXyvyZd7YVIhUKEXnuNwAsvEnr7bZjgPNLmwkJslZXYFi7sX1diW7Bg1mWYF0LMTRLMCyGEEGku2dND67f+euBxwTe+gSkjAwCT14t70yZCb75Jsq2NyJGjONetnaGSCjF1kj09xM6eRU8kQUuhp7RL61QSPaWhRcKE3nqLvrd2Dcowf5G5sBDPnXdiysxEsVqNxWJBsVpQLNb+tQVLXh7WykpMbvcMvFMhhBgbCeaFEEKINNf+3e8a81MDnq1347n3nkHPe97zHkJvvglA8OWXJJgXc0rswgW6f/Zz/M88M2yAfjXm/Hy877kX7333YV+1SnquCCHmDAnmxyCRSJCYYPesyXaxHOlSHiFGInVVzBbpXlf73tqF/9n/BED1eMj++tdJXjHm137brWA2QzJJ4KWXyXz0UQlY5ph0r6dTIXrsGD0/+xl9O1+7Yt7cqzPl5OC+5x7c996Dfc2agd+HZCoFqdRUFFf0ux7rqpid0rmujrVMij7c5NnXue3bt7N9+3ZSqRTnzp3jiSeewClTjQghhJhmajRK+f/5v1j8fgBaP/gBAhs2DHts0c9+hvvMWQDqP/cnRMvLp62cQkwaTcN19hyZb76J88KFQU+lbDaCa9eQcrnQVRVUFV1RQVUuPVZV4vn5RObNA7mhJYSYpcLhMI888gh+vx+v1zvicRLMjyIQCODz+ejs7Bz1hzidEokEO3bsYOvWrVgslpkujhAjkroqZot0rqsdf/03+H/9awAcGzdS9P9+jKIowx4beOZZ2r/xDQB8f/iH5P6PP5u2coqpl871dKz0RAItGkWPRtGjMbRoBD0WQ49E0WJRks0t+H/5BPGq6kHnmXJzyfiDj+P90IcweTwzVHoxVnOhrorrQzrX1UAgQE5OzlWDeelmPwYWiyXt/oPTsUxCDEfqqpgt0q2uhg8dHgjkFYeDor/+FlardcTjM7beTfs3vwnJJH2vvkrh1yWr/VyUbvVUi0QIvfEGod27Sfn96OEIWuTiEjYeR6Nokci4p4SzLlhA9mc/g/eBB1BHqfsiPaVbXRViJOlYV8daHgnmhRBCiDTU++tfDWznfem/Yy0pGfV4U0YGrptvpm/XLpItLUSPHcOxZs0Ul1Jcj/R4nNCePQR+/wKhnTvRwuFJvb7jhhvI/uxncd9xu9yQEkKIUUgwL4QQQqQZXdfp27MXMFrlMz/2sTGd533PvfTt2gVA4KWXJZgXk0ZPpQjvP0Dg978n+MorpPrzOIxEsVpRHA7UyxbF4UC121EcdlTbpbXqsKPY7KhOB84bbpB6K4QQYyTBvBBCCJFm4jU1JDs6AHDecAPKGLsYe+66i5b/9VdGVvtXXibvq/9jxDH2QlyNrutEjx4l8OKLBF54caBOXk71+fDesxXvtm1YKypQnU4jYDfLV0whhJhq8kkrhBBCpJm+ve8MbLtu3jjm80wZGbg2bqRv926Szf1d7VevnooiijlK13Wip04R7A/gE83NQ45RHA48W7bgvf9+3LdsHvPNJiGEEJNLgnkhhBAizfS9s3dg27lx7ME89He1370b6O9qL8G8GIPouXP9LfAvkKirH3qAxYL71lvx3r8Nz513osqUvUIIMeMkmBdCCCHSiJ5KEd63HwCTz4d96dJxne++6y74X38FqRTBl18m73/8mXS1v46lQn0kW1tI9fSQ7O0ldXHpubQdr60lXlMz9GSTCdfGjXi3bcNz912YfL7pfwNCCCFGJMG8EEIIkUaip06hBQKA0So/3mze5sxMo6v922+TaG4meuIEjpUrp6KoIg2lQiEiBw/St28f4X37iZ48CZo29gsoCs4bb8R733147tmKOStr6gorhBDimkgwL4QQQqSRiY6Xv5znPffS9/bbAAReekmC+TnsmoN3AEXBsXatEcDfew+WvLypKawQQohJJcG8EEIIkUb69u4Z2HaNc7z8RZ6776b1r75pdLV/6WXyvvIV6Wo/S2l9fSSam4k0NOB75x26zp8n1dpGoqWFRHMzyba2UYN328KF2Jctw5SVhSkj49KSeWnbnJEhSeyEEGIWkmB+DBKJBIlEYqaLATBQjnQpjxAjkboqZot0qqtaLEbk0GEAzAUFUFQ0sXK53ThuvJHI3r0kmpoIHT2KffnySS6tmCxaOEyiro54XT2JujoS9XUk6uqJ19Wh9fYOHJcP9FzlWtbKShwbNuDYsB7HDTdgGkM3+SRAGtR/MTek02eqEKNJ57o61jIpuq7rU1yWWWf79u1s376dVCrFuXPneOKJJ3BK1lYhhBBTzFFVRelP/gUA/w030PbhD034Wr5395H/u98B0H377XRuu29SyigmSNcxBYPY2tqwtrdjbWs31p2dmIPBCV0y6XKRzMggWlZGeMECIgvmk3K7J7ngQgghpls4HOaRRx7B7/fj9XpHPE6C+VEEAgF8Ph+dnZ2j/hCnUyKRYMeOHWzduhWLxTLTxRFiRFJXxWyRTnW16wc/oKc/mM//9rfxPPDeCV8r1dPDhTu3QCqFubiY8hdfkK7200BPpUi2thot7dXVxKtriNfUEK+qQhtn0G7Oz8dcUoKlqBAlL5/zPT2s3HIn9tIyzAX5Mj2cSEvp9JkqxGjSua4GAgFycnKuGsxLN/sxsFgsafcfnI5lEmI4UlfFbJEOdTWyb9/Atmfz5msqjyUvD9dNN9K3Zy/JpiZ6f/iP5H7pv6OYTJNR1OuaruskOzqMKd1qa4nX1RGvrSNeV0uirh59HF02TdnZWMvLsc6bd2k9rxxrWRmqwzFwXCKR4MALL+C9/fYZr6dCjEU6fKYKMRbpWFfHWh4J5oUQQog0kAoGiR4/AYC1sgJL/rVnFM/44Afp27MXgK6f/ITI8eMU//33MWdnX/O1r0daJIL/P5+j5xePEztfNa5zzQUF2CorsVVUYK2sGNg2pUnPPyGEELOPBPNCCCFEGgjv3z+Qldy18eZJuabnvvvIa22j/e//HlIpwu+8w4WH30/xP/xfnOvWTcprXA8SLS30PPEEvb95kpTfP+JxitWKpax0oJXdNn8+tspKrJWVmGQsuxBCiEkmwbwQQgiRBi62oMPE55e/kqIoZH/m0zhWraTpy4+S7Ogg2d5O3Sc+Sd5X/pSsT37yuhtHH29sIl5XizknF0thAarHM+zPQNd1IocP0/3vjxPcsQNSqUHP21evwrF69WVd5OdhKSyQYQxCCCGmjQTzQgghRBroe6c/mFdVnBs2TOq1nevXM/93T9H0p18hvG8fJJO0f/dviRw+QuHf/PWcbzXWIhGCO3bQ+9TvCL/77qDnVKcTc2Ehlvx8zIUFWAoKUT1uAs//nuiJE4MvZLHg23YfmX/4CRwrZKo/IYQQM0uCeSGEEGKGJdrbiVdVA2BfsWJKxlGbc3Mp++m/0vHYD+j6yU8ACL78MrGzZyl+7DHsixdN+mvOJF3XiZ44Qe9TTxF4/vdoodCwx2nhcH/W+eoRr2XKzibzox8l86MfwZybO1VFFkIIMVV0HUJt0HoCtCQsfs9Ml2hSSDAvhBBCzLDLW4tdGyeni/1wFLOZvD99FMfaNTR/9WtowSDx2lpqP/IRir77HbzvSd8vN5GjR+n+xX8Qr63FnJWFKTcHc04O5pxcY93/WLHZCL78Mr1P/Y7YuXNDrmOdNw/37beT8vtJtLaSbGkh0daGHo0OOda+bBmZn/hDvNu2oVqt0/E2hRBCXKtUAjrOQtsJaD3evz4B4U7j+fwVEswLIYQQYnL07X1nYHuyxsuPxrNlC/Of+i2N//1LxE6fRo9Gafryo6SCQTI/9KEpf/2x0jWN0Btv0PXTnxI5cHDC11EcDrz33UfGB96PY926IWPkdV0n1dtLsq2NREsLyc5ObJWVONasue5yCgghxKyi69BzAer2Qv0eaD4KHWdAG2WK0I4zkIwB6rQVc6pIMC+EEELMIF3XB8bLKzYbjmnKMm8tK2PeL5+g9a++if+ZZ0DXaf3G/0QPh8n65CenpQwj0aJR/M/+J90/+xnx2toJX8exZg0ZH/wAnvfch8ntGvE4RVEwZ2ZizszEvmTJhF9PCCHEFNM0Ixivexvq90LdHgi2XP08Zw4UrDBa5QtWGjcB5gAJ5oUQQogZlKivJ9lsfBFxrFuLarNN22urdjuF3/k2powMun/+cwDavvNdUn195PzJn0x7q3Syp4eeX/6Snl/8B6nu7kHPWSsqyP7Mp/Fu24YWDpPs7CTZ0Umys4PUwHYnqd5ebEsWk/H+92OrqJjW8gshhJhkqQS0HDWC9vq9xhLpGfl4xQQ5C/uD9hWQv9JYu/Phyr9piVFa72cJCeaFEEKIGTSoi/0kzS8/HoqikPfV/4HqctG5fTsAnT/4IVpfH3lf+co1B/S6rpNsbiZy9Cjxpia0YAgtFCQVCKIFg6RCIbRAgFQoRKqzE/2KL1fOG28k6zOfxn3bbSiq0SVSdTgwZ2fD4sXXVDYhhBBpJhaCxv2XWt0bD0AyMvLxVjeU3ghlm6B8ExSvA4tj+so7wySYnwNav/1tnGvW4LnvPhnbJ4QQs0zf3smfX368FEUh9//7AqrLRfvf/R0A3f/6U7S+Pgr+5/8cCKLHQguHiZ48SeToUcJHjhA5epRUR+f4CqSqeN9zL1mf/gyOlSvGd64QQojZQdehpxaaDhpL/V5oOQZ6auRzHFlG0F6+CcpuhoJVYLp+Q9rr953PEeH9++n598fp+ffHcfziP8j/+tfli48QQswSuqYNZLJXPR7sy2d27vLsz3wa1eWi9a/+CnSd3l/9Gj0SofBv/gbFPPQrg67rxGtriR47RuToUSJHjhI9exZSo3wRG4Zit6N63Ji8PlybN5H1iU9iLSmepHclhBAiLfR1QtOhS8F700GIdI9+jq8Mym+Gso1G63vOIhjHDea5ToL5WS746qsD25FDh6j90IfwPfQQuV/+Mpb8vBksmRBCiKuJnTlDqrcXMLqTKybTzBYIyPzIh1GdDpq/9nVIpfA/+59o4QhFf/999HCYyLFjRI4eM9bHjqH5/aNeT/V4cKxahWPNGmwLF2LyeVHdHkxeD6rHg8ntRpFp34QQYu5JJaF2F5x6Bqpfh966q5+Tt8xocS+72QjifSVTXszZTIL5WS7va1/DefPNtH/3bwcy/vqfeYbAK6+Q81/+mKxPfQrVbp/ZQgohhBjW4PHyM9PFfji+Bx5AsdtpfvRP0RMJgjt2UHXb7QM3HkakKANTujnWrMaxejXWBQvG1U1fCCHELJZKwIW3jAD+9POjt7w7s6F4PRTf0L+sA2fWtBV1LpBgfpZTFAXPHXfg3rSJnl/+ko7t/4QWCKCHw3T8w2P0/OY35H/lKzKeXggh0lDfO9M7v/x4eLduRf3Rj2j8whfQo9FhA3lTdrbR6r56FY5Vq7CvWoXJ7Z7+wgohhJg5qQTUvAmnnoYzvx8+27zJBkVroWS9EbQX3wAZ5UMzzItxkWB+DBKJBIk0mbrgYjmGlEdR8DzyCM777qP7n36E/8knIZUi2dxC06N/iv3xX+C66y6jW6PXa3Rt9BhdHFWPF9XjlpYTMalGrKtCpJmZqqt6IkH4wH4ATLm5KGVlaff7YrvpRop+/M+0fvlRtFAI29Kl2FauxL5qJfZVqzAXFQ26UawBWpq9h7lCPlPFbCF19TqhaygN76KceBL1zHMowwTwusWJXrkVben70CvuMjLPXy6ZnKbCDi+d6+pYy6Touq5PcVlmne3bt7N9+3ZSqRTnzp3jiSeewOl0znSxxsXa2kbu88/jOn9+TMfrikLS6yW4ejWBG24gXpA/xSUUQojrm+PCBUr/+ccABNaupfWjH5nhEo1C04ysw2kwpl8IIcTM8UQaKenZQ0n3XpyJriHPJ1Ubrd41NGfeSLt3FSnVNgOlnP3C4TCPPPIIfr8fr9c74nESzI8iEAjg8/no7Owc9Yc4nRKJBDt27GDr1q1YLJZRj9V1nfCuXXR+73skaseQcOIythUr8D74Ptz3bcPkS4/3LmaX8dRVIWbSTNXVru3b6ekP5vO+9S28Dz04ba8tZh/5TBWzhdTVNBLuhlCr0SJu84LNA+oEbsoGmlBPPoV64imU9pNDntYtTvRF70Fb8iB6xZZZM897OtfVQCBATk7OVYN56WY/BhaLJe3+g8daJutdd+G77TbChw6T6uokFQiSCgbQAgFSgSBa0Fin/H6iZ85Af5eO2IkTdJw4QefffQ/33XeR8f7349q0KS0yLYvZJR1/f4QYznTWVS0SIXLZ/PLeWzbL74kYE/lMFbOF1NVppuvQXWPM1V7/jrF0DdND1+ICu9cI7u39Ab6uQyoOyRikYpCMD16Hu4Er2n8VE1RsgVUfQVmyDcXqYrYO2E3HujrW8kgwfx1QLBZcN9141eOSPT0Env89/qefJnrqFGCM6Qy++BLBF1/CnJeH6+absS5YgHXBfGwLFmAtK0NJs8ovhBDpJtnZSfjQISIHDxE+fNj4jO0fK2gtL8dSWDjDJRRCCDGr6Do0H4K6PZeC93Dn1c9L9BlLsGVir1u8HlZ9BJY/DO7ciV1DTBoJ5sUAc2YmWX/4B2T94R8QPXsW/++exv/cc6S6jSklku3t+J999oqTzFhLS7EuWIBtwXwspaWYvD5UtxuTx43qdhvzCbtdKE6nZNQXQsxaqVCI6KlTRE+cJHriBMn2dhS7HdXhQHU6UBwOVIcT1WFHcThQLBZiZ84SPnyIRF39iNf13HvvNL4LIYQQs153DTz/Zah5Y+RjVAsUrobcJUbwHgtCNACxwKV1PDT8eWYbmKyX1o5MWLwNVn4Qsium7G2J8ZNgXgzLvngx9q9/jbw/fZTQrl30Pv00oTfeHJp1MpkkfuEC8QsXCO28ykVVFdXjwbFmNdmf+hTOjRsluBdCpCUtHCZ65gzREyeInDhB9MRJ4hcuGC0hk8BaUYFz3TqcN92E9z0SzAshhBiDVBLe2Q6vfweSkcHP2XxQdhOU3gRlNxvTv11t7LqWMoJ8RTGmjjNZQWa3mlUkmBejUqxWPHfdheeuu9CiUeJ1dcRraohV1xjr/kBej0avfjFNQ/P76XvzLfrefAv7smVkfeYzeN9zL4pZqqIQYmbpuk54/366n3iC4I5XJ23KHMViwb5qFc51a3GsXYdj7RrMmZmTcm0hhBDXieYj8J//H7Qeu7TPVwqb/zuUbzZa4McbiKsmcGRMZinFNJMISoyZarcbLfaLFw/ar2saieYW4hdqSDS3oIWCpEIhtGAILRQiFQoObCdaW0l1GdNYRE+dovkrX6H9//w92Z/8JL4PfBCT2zUTb00IcR3TwmF877xLw7/8K/ERpvNULBZsS5ZgX7Ecx4oV2FeswFpejh6LoUWjaOEweiSCFomgRaJokTB6NIaluAj7ihWoVus0vyshhBBzQjwMb3wb9v4T6Kn+nQrc9N9gy1+CzT3q6WJuk2BeXDNFVbGWFGMtKb7qsXoySfCVV+j6158SPWlMbZFsbqHtO9+lY/s/kfmRj5D5h3+AJS9vqosthLjOxS5coOeXv8T/9DPkB4PEL3vOlJ2NZ8ud2FesxL5iOfaFC1GGC8jtdkw+37SVWQghxHWk+nV4/kvQU3tpX94yeN8PoWT9TJVKpBEJ5sW0UsxmvNu24bnvPsL79tP103+l7823ANACAbp+8hO6fvITVI8Hk89nLBkZ/etL25ayMhyrV2POyprhdySESDepQAAtGOxvJY+ghSNGS/nF7XCY0Jtv0rd795BzHWvWkPnxj+O59x5pTRdCCDG5uqrh3Mtw7kUj+7yuD042Z7YZY9fNVkAZ3KXeZIPb/ww2/ff+54WQYF7MEEVRcN10I66bbiR2/jxdP/0Z/uefH5jnXgsG0YJBEo2No17HUlKCY9UqHKtXYV+1CvuyZag223S8BSHEFXRdn5GklrquEztzhuDO1wju3Ens9Olxna/YbPSuXMnyP/sKntWrp6iUQgghrjupJDTug7MvwrmXoPPc0GPiiatfp3wzPPAY5Cyc/DKKWU2CeTHjbAsXUvSdb5P7pS/R8x//Qfjdd0n5/aR6e0kFAqBpI56baGwk0dhI4IUXjB0WizGuf+lSFIsZPaWhp5KQ0kBLoSdT6FoKUhrm/Hzct2zGuWEDqtM5Te9WiLlFTyQI7nzN+N09fBiT14uloABzQQGWgnzMBYXGOr8AS2EBit2OHo2iRaLo0QhaNGasI1H0WBQ9kcCUnY2lsBBLYSGq1zvsDQI9mSR88BDBna8SenUniebmcZfdUlJC5sc+hut9D/Dynj3csGzZZPxIhBBCXK9SCeg8D63Hofo1OP8yRHqGPzajzJjyLRkzllQcklFIxiHV/9hdAHd+HdZ+QrLMi2FJMC/ShiU/j7xHvzxon65paMGgEdxfDPC7u4meOUvk2DGiJ08OzqSfSBA9cYLoiRNjes2exx9HsVhwbliP65Zbcd96C9bKSpkyT4irSHZ20vvkk/T86tck29oG9qe6u0l1d8OpU5PyOorTaQT2BQVYigoxFxSQaGgk9PrrpPz+Yc+xL1+OpbTUmP/9yjngncY+c0EhzvU3oJhMJBJjaBURQghxfQi2GovVDVYnWJxgdYHJMvi4qB/aThqB+8Wl/bQRiA9HUaHkRlj8Hlh0H+QuNqaEG4mmGc/Ld1IxCgnmRVpTVHVg7PzlfA8aaz2RIHb+PJGjR4kcPUbk2DHiNTXjeg09kaBvz1769uyl/e/+DnNBAe5bb8G5cSMmtxtd00AHdA10fdBjU2YWjpUrpGVfXBd0XSdy5Ag9//EEgZdfHhgWc5G5qBB0SLa3Qyo1wlXG+ZrhMPHqauLV1SMfZDbjuvFG3HffhWfLFiwFBZPy2kIIIa4jrcfhre/DqWcxvuhdwWS9FNijQGD0oaAAWD1QucUI3hfeA67ssZdHWuLFGEgwL2Y1xWLBvmwZ9mXLyPzYxwAj+VW8rg4UFcWkgsmEYjKBqqKYzSj9H46RU6fo27Wb0O5dJJtbBq6ZbG2l98nf0vvkb8dWCJMJ+5IlOG5Yh3PdOhxr12HJHz4bv67rpHp6iNfVEa+rI1Ffj55MYatYgLWiEtuC+XJjQEwZXdNIdXeTaG0j2d5GorWVZGsbybY2Ur29KFYrit2OYrOi2uwodpuxttlAUQi+9BLRK1vcVRX3ljvJ+vjHcW7ciKIo6Mkkya4ukq2tJFpaSba1kmhtI9Hagh5PoDocxrXtDlSHHcVuR7Uba8VkItne0V+2FhLNLSRaWwf3wAFUlwvXbbfiuetu3LfdisnrncafpBBCiDmj8YARxJ97cfTjUnFjifaOcIAC2ZVQsBIKVkDROmOsuySrE1NIgnkx55i8XhwrV171OEtxMd6tW9F1nXhNDX27dxPatZvwvn3o8fhVzx+QShE9eZLoyZP0/PvjA9d23LAOx4oVpHp7idcawXu8vh4tGBz5WoqCpbgYW0UF1soKbBWV2BZWYluwANXlGnuZxDXR43Gip09jrajE5J5dP3c9Hife0EC8tpb4hQvEamuJ19aSbG4h0dExpDV9okwZGWR86ENkfvQjWIoHT0upmM1Y8vOx5OfjmISEcrquk+rtJdliBPaqw4Hjhhsk27wQQoiJ0XWoexve+h7UvDH4OVcuLHqPEbjH+yARNuZ6T/T1r8PGGPfsCiNwz18BBasgf1l/q70Q00eCeXHdUxQFW0UFtooKsj75SbRIhPCBA0RPnEDXNKMlX1GMsU6qYoynV4zW/Xh9PZFDh4idPz/omommJhJNTQT+87nxFUbXB5L68eabg54yFxViq6w0AvzKSmyVFbMy2ByNrmno0eiM9U5IhUL0/vo3dP/bv5Fsb0d1OvE+8ACZH/so9iVLZqRMl9M1zQhqOztJdXWR7Owi2dVJsqWVWO0F4hdqjbozStLIa2VfvpzMP/gDvNvum7aZIxRFwZyZiTkzE7skqRNCCDFRug5VO2HX96F+7+DnvMWw+b/Duk+AxTEz5RNinCSYF+IKqsOB+9Zbcd9665jPSfn9RI4cIXzoMJFDh4gcO4YeuyIBiqpiKSrCWl6OtbwMa3k5lrIyFFUlVl1DrKqKWHUV8apqtL6+Ia+RbG4h2dxC31u7Bu03FxZiLS1FdRrJvRT7MEm/HA4spSXYly3DnJk5oZ/LVNH6+ujbu5fgG2/Q9+ZbJDs6sFZW4Ln7bjx3b8W+fNm4EhImOzqINzRgnTcPc1bWmM5JtLfT8/jj9PzyV2ih0KWyhcP0/vrX9P761zhWrybjox/Fe997UO32kd9POEz05EnCR44QO30aPZEwbv4oSv/NINUYB6coKKrxvvSLsy1cNvvCxVkX9FSSVK+fZGcHqe6eCY9FN2VmYu5vLTfn52MuuLhtZJ03ZWaiJxLosZiRYT4WRYtG0WNxYzsWw1o+b9z/H0IIIURaqH8XXvlLY6q4y2XOh1u+DKs/Jl3ixawjwbwQk8Dk8+G+/Xbct98OXOqmHTt/HlN2NtbyeVhKikfsFnzxPDC6FCdbW4lVVRsBftV54v3B/uWB5kXJlhaSLS1D9o/EnJ+PfelSbEuXYF+6FPvSpVhKSkYN0C62mKf8fpL92cpT3d0ku3tIdXcZ+7q60WJR44ZFaRlqcRG2xkZS/gCWnMEJX+INDYTeeJPQG28Ywxqu6Podr6qmq6qarn/+MebCQjx33YXn7ruN7OPmSx9bWjxO7NSp/gSIRhLERFPTwPPW8nIca9fiWLcW59q1WCsqBnImAMRqauj66U8JPPufg8ugKDhvuIHIqVPo4TDAwGu0fec7ZDz8EBkf+QjW+fNJ1Ncbzx05QuTIUaJnz05a8rfxUpxOrPPKsc2bj3XePKzz5xvLvHJMbveMlEkIIYSYUd018Opf9Se2u0zOYrjtK7D8/WCSkEjMTlJzhZgCitWKY/XqCY0XVhRlYI5t9623DOzXdZ1kezux81XEq6suC/arRh+Hf4VkWxuhtjZCb7wxsE91u7GWlaGnUkbLbDzW3yIbQ4vFJjzOuhy48MN/xOTzYSkrw1JcTOz8+REzkys2G9Z584idO2d0hcO4WdHzi1/Q84tfYMrIwH3nnahuN5GjRy+1fI/gYqJB/zPPGO/T68WxZjWONWuInjxFaOfOwa9vseB76EGyPv0ZbAvmkwqFCDz/PD2//BWxs2cB0AIBuv/t3+n+t39H9XrRAoEJ/WzGxWzGnJWFKScbc3YO5uxszDnZmLJzMOfkYM7NxTqvHHN+vrSaCyGEEADhbiOx3b7/B9pl3xVyl8Cdfw5LHpCM8WLWk2BeiFlCUZSBpGLcsnlgv67r6NEoWiSCFo6gR8ID21okjB6JkAqGiFVXETt9huiZM0OCfy0UGpqlfBKl/H5Sx48TPX58yHPmwkLcd9yO5447cN50E6rdTrKjg+DO1wi++ip97747cDMh1duL/+mnR3wdxeHAsWIF1vnziZ0/b+Q9uCzY1wIB+t7aNWSogup2k/mxj5L5h3+IJe/STAQmt5vMj36UjI98hMiRI/T+6tcEXnxxIEHikEBeUbBVVuJYs8a4abBqFarXNzCtIZqGruuXtvvHthuzLZiGzr7Qv191Ogb1KBBCCCHECJIx2P8v8ObfDc4878o1gvi1n5CWeDFnSE0WYpZTFKV/bLwDxjBEXNd1Ek1NRE+dInbmDNFTp4mePk2yvd2YmsxmQ7XZUAYWK6rV2DZ5vZiysjBlZWLOyjbW2dmYMrMwZ2WiWK3EGxtJNDQQvVBLzZ49FCiQaGwk2dJqBLGqimP1atx33IH7jjuwLVo4pDXZnJtL5kc/QuZHP0IqGCT05lsEX32V0FtvDXR7B7AuWIBj1SojcF69GtvChYO74cdiRE+eJHL4sJHP4PBhUt3dl14nL4+sT36SjI98eNRu6Iqi4FxrdNXP//rX6H3mGfy/e5pkdzf25ctwrlmDY/Vq7KtWSXd2IYQQYjLFgnBhF1S9Ch1nwWIHqxtsbmN9+bauwTv/BD21l843O2DTF4zkdjbPjL0NIabCnAzmq6qq+P73v8++ffs4fvw4xcXF1NbWznSxhEgLiqJgLSnBWlIC99wzsF/X9Unpou3w+XAsX44jkaCtqJAbtm3DYrGgxeMkm5sxZWRgysgY8/VMHg++996P7733o8ViRA4eRNd0HCtXYPL5Rj1XtdlwrluHc906sj/bfyOjf4y76nTivu02lHFOb2bKyCD7U58i+1OfGtd5QgghhBgDXYe2E0bwXrUT6t8Z3E1+zBQjqd2WvwRf8dUPF2IWmpPB/MmTJ3n++ee58cYb0XWdnp6emS6SEGlvqsdaq1Yr1nnzru0aNhuuTZsmfL6iKP2zCZRfUzmEEEIIMUliQeiqNlrda96A6p0Qaru2a86/De75aygcf+4iIWaTORnMP/DAAzz44IMA/Lf/9t946aWXZrhEQgghhBBCXIc0DeJBCHVA13noqupfqqHzPIRaRz8/cz5U3m0sZRuNrvTxPoiHIBYyrh3v698OQd4yKN9kTAkrxBw3J4N5VRJFCSGEEEIIMXV0HXrroWEfNB+Cvg6IBjBF/dzR0YS5+s+NVvdYANDHfl2L02hZr7wbKrZAdsXQY5xjSBIkxHVgQsH82bNneeWVVzh48CAHDx7k9OnTpFIpvvWtb/GXf/mXVz3/ySefZPv27Rw9epR4PE5lZSUf//jH+fKXv4zFYplIkYQQQgghhBBTJRmH1mPQ8K6x1L87bKu6CvgAomO4pjMHsishp9JYF62FspvBbJvkwgsxN00omP/Rj37EY489NqEX/NKXvsRjjz2G2Wxmy5YtuN1uXnvtNb761a/y3HPP8corr+BwOCZ0bSGEEEIIIcQkifrhwE/h3CtG63tyLBE6pBQLqjMTxe4FmxfsXnBkGa3s2f2Be3YFODKn+A0IMbdNKJhfsWIFX/nKV1i7di3r1q3j29/+No8//vhVz3vmmWd47LHHcLvdvPnmm6xbtw6Azs5OtmzZwu7du/nGN77B97///YFzfv7zn/PpT3/6qtd+8skn+eAHPziRtyOEEEIIIYS4KNwN7/wI3v0xxPzDH2P1QOkGKL0JSjZA5jyw+0iYHLzw8qts65/NRggxdSYUzP/RH/3RoMdjHaP+7W9/G4Cvfe1rA4E8QE5ODv/0T//Erbfeyj/+4z/yjW98A1//lFMPP/wwGzduvOq1i4tlygkhhBBCCCEmLNgGe/8R9v8rJPoGP5c5D0o3QumNRgCftxRU09BrJCYyjZwQYiKmLQFeU1MT+/fvB+CRRx4Z8vwtt9xCaWkpDQ0NvPDCC3zsYx8DwOfzDQT2QgghhBBCiEnmb4S3fwCH/m1wV3rVbMzVvvlLxrh2IURambZg/vDhwwBkZWUxf/78YY9Zv349DQ0NHD58eCCYF0IIIYQQQkwyXYeWo8aY+CNPgHZZi7rJBus+AZu/CBllM1dGIcSopi2Yv3DhAgBlZSN/IJSWlg46dqLC4TAvvPACADU1NYTDYX77298CsGHDBsrLy4c9LxaLEYvFBh4HAgEAEokEiTTpMnSxHOlSHiFGInVVzBZSV8VsIPVUTJqeC6gnnkI9+RRK1/lBT+kWJ9q6T6Hd9DnwFBg7x1nnpK6K2SKd6+pYyzRtwXwwGATA5XKNeIzb7QYuBdET1d7ezoc+9KFB+y4+/tnPfsanPvWpYc/7zne+wze/+c0h+1955RWcTuc1lWmy7dixY6aLIMSYSF0Vs4XUVTEbSD0VE2FNBCjufZeS7j1khauHPJ9QHdTkbqUm717icQ/sOnTNryl1VcwW6VhXw+HwmI6btmB+Os2bNw9d18d93te//nUeffTRgceBQIDS0lLuuecevF7vZBZxwhKJBDt27GDr1q2SIVSkNamrYraQuipmA6mngmQUgq0owWYINKMEW6CvHXQNFBMoav9ycVsBRUVpOohy4Q0UPTXkklrZJrTlH4BlD7HA7mPBJBRT6qqYLdK5ro61cXvagnmPxwNAX1/fiMeEQiGAGQucbTYbNpttyH6LxZJ2/8HpWCYhhiN1VcwWUlfFbCD19DrR1wX7/h+0HIFAEwRaINw5OdfOXwErPwQrP4jqK2Fsc1KNn9RVMVukY10da3mmLZifN28eAA0NDSMec/G5i8cKIYQQQghx3YgFYe8/wZ4fQjw4edf1lcHKDxpBfP6yybuuEGJGTVswv3btWgC6urq4cOHCsBntDxw4ADBoDvp0IAnwhBg/qatitpC6KmYDqadzXDKKeujnqG//A8oVLfC6agZ3Abq3CDyF6J5C8Bahe4rAnW9MH6dr/UvKWGvapX3OLPTCNUbXe5jyeeClrorZIp3ratolwCspKWHDhg3s37+fJ554gr/4i78Y9Pzu3btpaGjAZrOxbdu26SrWsLZv38727dtJpYyxRZIAT4iJk7oqZgupq2I2kHo6tyh6itLu3SxueRpnontgv4ZKffZtVOXfT58191IgDpAAuvoXesbwKq1w5KXJLfgYSF0Vs0U61tW0TID353/+5zz88MN897vf5b777htoge/q6uJzn/scAF/4whfw+XzTWawhPv/5z/P5z3+eQCCAz+eTBHhCTIDUVTFbSF0Vs4HU01lC16DjLErjPpR4EMxOdIsDLA6wOAfWusWJ0nUO05vfHTI9nLbsIVK3fY3i7EqKZ+htXAupq2K2SOe6OqUJ8A4dOjQQfANUVxtTXPz4xz/m+eefH9j/9NNPU1hYOPD4oYce4otf/CI/+MEP2LhxI3fddRcul4udO3fS29vL5s2b+da3vjWRIk2pdE2KkG5lEmI4UlfFbCF1VcwGUk/TTCoBLceg7m2o32sskbG0lg+jcivc9Q3UwtVTlpRuOkldFbNFOtbVKU2AFwgEePfdd4fsb2xspLGxceBxLBYbcsxjjz3G5s2b2b59O3v27CGRSFBRUcHXvvY1vvzlL2O1WidSJCGEEEIIIaZWMg5NB6B2txHAN+yHxMgzNY1J6Ua4+39B+abJKaMQ4roxoWD+jjvumNA87hd9+MMf5sMf/vCEz59ukgBPiPGTuipmC6mrYjaQejpDdA1aj6PWvoVSuwul4R2UxMhjWXVHFnrpTehlN6N7SyAZRYn3QTICiQgkwpCIDFxDW7QNvXKrMSf8HPm/lboqZot0rqtjLZOiX0tUPkddngDv3LlzPPHEE2mXAE8IIYQQQkwuUyqGM95BdugsuaFT5ARPYU2N3PIesWTR6V5Mt3sxXa7FBO2Fg5PVCSHEBITDYR555BH8fv+oudskmB/FxQR4nZ2dkgBPiHGSuipmC6mrYjaQejoJdB0i3RBoQvE3ovjrwd/Qv90A/kaUSPfol3AXoM+/Da38VvTyzeArNVrVxQCpqyJddUW6ONl9Ek3XuKPkjrSuq4FAgJycnKsG89OazX62StekCOlWJiGGI3VVzBZSV8VsIPV0FJoGXeehpxb8jRBohkDTZdvNRnf38bD7YN6tsOAOmH87Ss5CFEWZEwnqpprUVTGTwokwp7tPc7zjOMc7j3Oi8wTNfc0ALMlawtb5WweOTce6OqUJ8IQQQgghhJhRqQS0HDUS0dX1Z5KP9k7sWooK3mKjpT2jFPKWwvzboXA1qKZJLbYQYnwagg3sbtrN6a7TAJhV8+BFMWNRLZhVM02hJo53HqeqtwpN14a93vme80SSEcxzIBSe/e9ACCGEEELMffGwkUm+bo+xNO43EsqNhdUDvmIjYPcWQUZZf+BeZgTvniIwyddiIdJBPBXnQNsBdjftZlfjLmoDtdd8TYfZwfLs5azMWcmKnBWoigpzYLC5fGqNgWSzF2L8pK6K2ULqqpgNrst6Gu5GaXzXyCBf/w5K61EULTni4UYm+Y3oecvQ+4N2Y10MNs/or6XpoF1HP9spdF3W1etUSktR7a/mRNcJrKqV+b75zPPOw2Vxjes6iVSCpr4mI4Bv3s3+tv1Exjsk5jImxUSFr4IVOStYkb2C5dnLWeBdgOnyXjZaetdVyWZ/DSSbvRBCCCHE9HLEO8kOnSUrdI7svnN4o02jHn8xk3yXezHdkkleiCkX1+M0JhupS9VRn6ynPllPjNiQ47yKl1xTLrlq7sDaq3oJaAF6tB56tB56td6B7aAeRB+hmVxFpdRUyiLLIirMFVgUC5qukbr4T0+hYTzW0HAoDopMRVgV61T/OKaUZLOfBJLNXoiJk7oqZgupq2I2mLP1VNdQql5F3f9j1Atvjn5o9kL00pvQyjahl26UTPJpas7W1euQpmscbD/IrqZdHOk4wpnuMyT1kXvHTJZsezabijaxuXAzGws34rVOTRyWznVVstlPonTNcJhuZRJiOFJXxWwhdVXMBnOmnsZCcOQJePefobt66POKyUg+V74JyjZC2c0orhwUkEzys8ScqavXoda+Vp6tepanq56mKTRyD5lsezbr8texOnc1ADX+Gmp6a6jx1xCIB8b0Wln2LIpcRRR7ilmYsZBbS25lSdYSY0z7NEnHuirZ7IUQQgghRHrpqYN9/w8OPQ4x/+DnMufDqg9D2c1QsgFs7pkpoxDXoUQqwRuNb/C7879jT/OeYTPBL/AtYG3eWtbmrWVd3jpKPCUow/SO0XWd7mg3F/wXqPHXcMF/gc5IJ/nOfIrcRRS7iyl2F1PkLsJpkaHM10KCeSGEEEIIMfm0FITawN8E/no4+QyceR6uDBLm3wYbPwcL75Fp4ISYJrquE0wEaQo28XzN8zxf8zzd0e5Bxygo3Fx0Mw9VPsTGwo1k2jPHdG1FUch2ZJPtyGZ9wfqpKL7oJ8G8EEIIIYSYGE2D9lPQ8C701kOgCfyNRgAfbIaRss+bbLDqQ3DTn0DBiuktsxDXgd5oL/vb9lPVW0VPtOfSEru0To7w+1nkKuKhyod4sPJBitxF01xyMR4SzAshhBBCiLHRdeg8DxfehNpdULsbwl1jP9+dDxv+GNZ/Glw5U1dOIWY5TddIakmsprFlZe9L9HGw7SD7Wvaxr3UfZ7rPjJghfjgW1cJdZXfx8MKH2Vi4cVrHrIuJk2B+DGSeeSHGT+qqmC2krorZYEbrqb8RpeZ11LpdKLW7Ufrar3qK7sgETzG6r3hgrnc9eyF65d1wMTiR37k5ST5TJyapJTnbc5aD7Qc50HaAIx1HCCVCeCwesh3Z5NhzyHHkkG03uq/nOHLwWDyc7DrJ/rb9nOw6OaZM82bVTKYt01jsxnpVzireM+89ZNgyAEgljWnf5rp0rqsyz/w1kHnmhRBCCHE9M6WiFPXup7R7N7mh0yMelzA56XQvptO9lKC9hIg1m4gli5TJNo2lFWL2SekpmlJNXEheoDZZO+Kc7ROhoFBgKmCBeQHlpnI8qgen4sSlurBhGzZpnUgvMs/8JJgt88wf7ThKZUYlLotrhksnxCXpPHenEJeTuipmg2mpp7qGUvc26vFfo5x+DiXRN/QQqwu99Gb0ebegld8C+SslaZ0Y5Hr9TA3Gg9QH6weW7mg3kWSESDJCOBk21onwwL5APEBci494vUxbJqWeUrqj3XRGOommoqO+/jzvPDbkb+DG/Bu5If+GgVZ2MbJ0rqsyz/wkSte5By0WC93Rbr745hexm+w8uv5R7p9/v9xtE2klHX9/hBiO1FUxG0xJPe2ugaO/giO/NLLOXym7ElZ+GCq2oBStQTEZry8hvBjNXPtMTWgJOsOdtIXbaA230hBooDZQS33gUvB+LXIcOazPX28sBetZ4Fsw6Dt9OBGmI9JBZ6RzYOmJ9lDuLefGghvJd+Vf61u8bqVjXZV55q8T2w9vJxgPEiTI13d9nSfPPsnXb/o6S7KWzHTRhBBCCJEudN3IMt957rLlPHScheHGwNt8sOL9sObjULIepKFAXAcC8QB7mvZwIXCB9nA7HeEO2sPttIXb6In2jCuh3HCsqhWHxYHT7MRlcbEocxHrC9azIX8D5d7yURvknBYn5ZZyyr3l11QGMbdIMD/LfWrFp2iPtPNGwxsAHGo/xEee/wgfXvRhvrD2C/hsvhktnxBCCCFmQF8XXHgDql+H1mPQWQXDdJsfRFGhYguseQQWbwOLY1qKKsRM6gh38HrD6+ys38m+1n0jTtc2mjxHHmXeMsq9RrBd5i2jwFmA0+LEaXbisDhwmB1Y1PRq/RWznwTzs1ypp5Qfbvkhuxp38bf7/5a6QB2arvGrs7/i5dqX+eK6L/Jw5cOYZDybEEIIMXcl49C4D6pfM5bmIzCWVkRXLuQshoVbYdVHwFs41SUVYsbV+mt5reE1dtbv5FjHsVGPNSkmchw55DnzBi2lnlIjcPeU4bRIomwxMySYnyNuLbmVmwpv4vFTj/PjYz8mkozQE+vhm3u/yW/P/ZY/v+nPWZW7aqaLKYQQQohrlYhCoAn8DdB+Bmpehwu7Rm55V1TIKIfcxZCz0AjecxYZ286s6S27ENNM13Uagg0c6zzGsY5j7GvZR7W/ethjC12FbCnbwoaCDRS4Cshz5JFlz5JGMZG2JJgfg9kyz7yCwieWfIJ7y+7lHw7/Ay/XvQzAya6TfPyFjzPfO9+4m+jII9eZS54jb9DjLJt8WInJk85zdwpxOamrIi3FQyj1e1G6qiDQiNLbwG2NpzGffRTCnVc9Xc9bgbbgDvQFd6KX3Dhyl3mp92KSTfZnaigRoinURGOokZ5oDy6LC4/Fg8fqwW1x47Ea23aTHUVRCMQDnOg8wYmuExzvPM7J7pP0xnpHvH6lr5I7S+/kjpI7WJK5ZMi4dS2loaW0SXkvIr2k899/mWf+GsyVeeZrEjX8PvJ72rS2MR1vV+zcYL2BjbaNZKqZU1w6IYQQQgzQNXyRevICx8kNniC77xyqnhrz6VGzjw7Pctq9K+nwLCdmyZi6sgoxTrqukyBBUk+SJDmwTukpklzaF9ACdGvddGvd9Gg9dGvdhPXwmF5DRcWm2IjokVGPU1AoNZWyzLKMpZalZJuyJ+MtCjGpZJ75STBb5pkfTVJL8uT5J3mq6imaQ81XnaMSQFVU7iq9i48v+TircqRrvpiYdJ67U4jLSV0VM6avA6XmddSa11EuvIHS1zHq4ToKuqcQfCXgLUb3lYC3FK30RshbZnSnF2KGxeIxfv3yr8lZnsN5/3nO9pzlTM+ZUVvHp1KGLYMV2StYmb2SFTkrWJ69HK81Pb7Xi5mVzn//ZZ75SZSucw+OpUwWLHxixSf4xIpPoOs6gXiA9nD7wNIWbqM93E5rXyvvtrxLXIuj6Ro76newo34Hq3JX8Ylln+Cusrswq1JdxPil4++PEMORuiqmVKgdWo5B69H+9XHoHn7cLgCZ86DiLii9ETLKSLgKeHH3Ye67/31D6qkMkBMzyR/z82bjm5zsPMmZ7jOc6T5DOBmGd67tugrKQKK5Ek8JJe4Schw5RJIRY1rmRNBYX7Fk2jNZmbOSVbmrWJWzihJPyahTvgmRjn//ZZ55MYSiKPhsPnw2HwszFw55vivSxW/O/YZfnfkV3dFuAI51HOMrb36FIlcRjyx9hK3lWylwFaDK3X8hhBBiMF2Hvk7orYeeC9B+qj9wPwahqwx5s7hg/m1QeZcxPVx2xeDnEwl05fjUlV2IcdB0jXda3uGZqmfYWbeTuBYf9fgsexYLfAtwmB1YTVasqtVYX1xUKxaThRxHDiXuEko8JRS5i7CZbNP0joSYnSSYFwOyHdn8yeo/4TMrPsMLNS/w+OnHOd9zHoDmvma+f+D7fP/A93GYHcz3zWeBb8HAMj9jPqWeUpk/UwghxNznb4KGd42g/colOfp43QFmO+QvNwL4irug9CYwW6e23EJco8ZgI89WP8uzVc/S0tcy7DGFrkIy4hncseQOlucuZ0nWEvKcedI6LsQUkGBeDGEz2Xh44cM8VPkQ77S8w+OnHmdX066B5yPJCKe6TnGq69Sg88yqmVJPKUWuIgpcBRS6CilyX9rOd+ZjMUmwL4QQYhaKBuD0f8LRX0HtbsY0h/tF9gwoXAUF/UvhKsheCCb5GiamX0pL0RvrpTPSSVeki+5YNwrKoBbyQS3nqpWTXSd5puoZ9rXuG3K9DFsG9y+4nztK72Bp1lKcqpMXXniBbSu3pV3XZSHmGvkrIkakKAo3F93MzUU3U9Nbw/M1z3O+5zw1/hoaQ41o+uBpOpJakgv+C1zwXxj+eijkOnK5uehmPr/m8xS6C6fjbQghhBATk0pA9WtGAH/2BUiOkkTW7ICMssFLdqURuPtKQVolxTTxx/zUBmqpD9RTF6ijpa+FrkgXXdEuOiOddEe7h3yHGy9VUdlctJmHKh/ijtI7sJou9SpJx2m+hJirJJgXY7IgYwFfXPfFgcexVIxafy0X/Beo8dcMLA2BhhEz5uvotEfaebb6WV6qfYlPLPsEn135WVwW13S9DSGEENerRBSaDkL9HuhtAKvrssXdv/Q/VhQ4+xKceGr4Od2zFsDy90P+MsgoNwJ3V64E7GLKxVIxeqO99MaMpSvSRX2w3gjcg3XUBerwx/xT9vrl3nIeqnyIBxY8QL4rf8peRwgxNhLMiwmxmWwszlrM4qzFg/bruk5vrJeWvhZaQi3G+uISauFC4AJ9iT5iqRg/Of4Tnjr/FF9Y+wUernxYsuULIYSYPFE/1L9rBO91e6H5EKRGT9I1KkcWrPgArPoIlKyXwF1MulA8dCkwD9RRH6ynI9wxELj3xnqJjDUnwzDMipksRxY5jhxyHDlk27PJceSQZc8CIKEliKfixLU4iVSCuBY3HqfiuK1u7p13L2ty18jYdyHSiERPYlIpikKmPZNMeybLspcNeT4QD/CTYz/hP07/BwktQXe0m/+993/zxOkn+LP1f8am4k0zUGohhBCzXjxsjGWvehXq9kDbCcY1rn04Jhssvs8I4CvvlgR1Ylx0XR+YRi2UCA2ZQq0n1kNDsIH6QD31wfqBmYSuRb4zn3neeZR5yyj3llPuLafYXUyuIxevzSuzEQkxx0gwPwaJRCJtxv9cLEe6lGe8HIqDL67+Iu+veD8/PPJDdtTvAKCqt4r/+up/ZVPhJr645ouUuEtQFRWTYkJVVFRFlTvBs8xsr6vi+iF1dRbrrUOtehWlagdK3W6UUca065nz0cs2oZVuRM9bhpKKQzwE8T6I96HE+yDR/zgRRs9ZjL7kAbD7+i8AzGAdkXqa/pJakiMdR3ij8Q12Ne2iua+ZlJ665uuaFBM+m48MWwY+q7G+uPhsPopdxZR5yyhxl+AwO0a8TiqZIsW1l+dqpK6K2SKd6+pYy6Toun6Nt63nnu3bt7N9+3ZSqRTnzp3jiSeewOl0znSx5qS6ZB0vRl6kMdV41WMVFNT+fzmmHFZbVrPKugqv6p2GkgohhJhpipYku+8c+YGj5AeO4ok2D3ucjoLfUUq3ezFdrsV0uRcRs2RMb2HFdSGux6lKVHE6cZozyTNE9Il1g/coHrLVbLJN2WSpWeSoOWSZsshQMrArdmnQEOI6Ew6HeeSRR/D7/Xi9I8c6EsyPIhAI4PP56OzsHPWHOJ0SiQQ7duxg69atc2a6D03XeKXuFX5w5Ae0hlvHda6Cwob8DWybv40tpVtwW9xTVEoxXnOxroq5SepqGosGUJr2ozS8i9LwDkrzYZQRxgzr7gL0yrvRKraiz7vlUov6HCH1dOaltBTdsW46Ih2c7znPm01v8k7LO8Mm/jUrZioyKvBavbgtbjxWz5C1x+Kh2F1Mqad01Bb12UbqqkhHKU3n3QvdPHu0hQU5Lv7rbfPTuq4GAgFycnKuGsxLN/sxsFgsafcfnI5luhYPLHyArfO38qszv+Kd1ndIakk0XSOlpdB0zdjWje1IMkJtoBYwMuTva9vHvrZ9fGf/d7iz9E7uX3A/m4s2y5z2aWKu1VUxd0ldnWG6Dv5GaHgX6vdC/TvQdpIRx70rKpTcCAu3wsJ7UApWoigKc31EsNTTqRNOhKnx13C+5zytfa20R9rpDHfSHmmnI9xBV7Rr1CndXBYXtxTfwpbSLdxScgtea3o0BM0UqaviWmmaTl13mFPNAU61+GnxR1lW6GVTRQ5LCjyo6ug9VnRd53RLkGeONPHskSbaAjEASjIdfH7LwoHj0rGujrU8EsyLtGE32/nUik/xqRWfuuqxdYE6fl/ze56veZ6GYANgTNfyUu1LvFT7Em6Lm2xHNg6zY2Cxm+w4LJcel3nKuKP0DgpcBVP8zoQQQgwRDUDzYWg6AE2HoPEAhK7SOyujDMo2GQF8xRZwZk1PWcWcktSS1AfrOd9z/tLSe57GYCP6OJMm5jhyuLP0TraUbeHGghsHzbcuhBi7SDzFmdYAp1uCnGrxc6o5wJnWIOH44DwPv6MJgEynhY0LstlUkc3NFTlU5LoGhqM090Z49kgzzxxu4mxbcMhr+cMJ6rvDFHln/++rBPNiVir3lvO5NZ/jT1b/Ccc6j/H7mt/z0oWX6In1ABBKhAglQle9zt+8+zcsz17OlrItbCndQkVGhYxLE0KIidB1SMYgGb1siUEi0r8/At010HjQCOA7zjJqtnlFhfwVUHYzlG00Fm/RtL0dMXfous7ZnrPsbtrNnuY9HOs4RiwVG/P5qqKSY88hx5lDniOPXGcu+c58NhZtZGXOSskQL8QExJMaRxt7ebuqkz1VXRxu6CGRGvvNtJ5wghdPtPLiCeMmcJ7Hxs0V2bQForx7oZsrB5JbTAp3LM7j4bXFbFmSh91iSsvEd+MlwbyY1RRFYXXualbnrubPNvwZe5v38lz1cxzpOEJfoo9oMkpCG/0X9WTXSU52neSHh39IubecLaVb2FK2hVW5q+QPtBBCjCSVNILy6teh+jVjHnctOfHr2bxQvA5KbzIC9+L1YL++uymLieuN9rK3Ze9AAN8Z6Rz1eIfZQYWvgsrMShZmLKTMW0auM5c8Rx5Z9ixMqmmaSi7E3KRpOqdbA+yp6uLt6k72Xege0up+pZJMB8sKvSwr8rKs0Eu+187h+h72VHfxTk0XgeilvzntwRjPHhmaFPWG8kweWlvMe1cWkuma/S3xV5JgXswZFtXCbSW3cVvJbYP2J7UkkWSESDJCNBkdmPP1QNsBXqt/jdPdpweOrQvU8bOTP+NnJ39Gpi0Tn83XPwbTmBpvYJo8jO1CVyH3zb+PO0rvkK51Qoi5TdeNlvXq16DmDbjwFsQCE7uWaob85UbAXrLeWGdXgio3UMVguq4TSoTojnbTFekiEA8QT8WJa3ESqcTA9sV1OBHmUNshjnceH7HLfLG7mGXZy1iYuZBFGYtYmLmQYnexBOxCTJJoIkV1R4izrUHOtgY50xrkeJOf7r74iOfMy3ayfl4Wy/sD9yWFXnyOoePGV5dm8KnN80lpOqeaA+yt6WRPddegmwMLclw8tLaYh9YUU5Y9t2ckk2BezHlm1WxkjbV6Bu1fX7Ce/7b6v9Ecaub1htd5rf41DrYdHJgTtifWM9BtfyQnu07yav2reK1e7pt/Hw9WPMiKnBXSVV8IMTdE/UbQXrXTCOJ760Y+NnsheArAbAOzvX/tGPzYlQvFN0DhKrDMnezd4tr0RHs42nGUE50naAu3DQTuF9dxbeQAYCwcZgc3FtzI5uLNbC7aTJm3bJJKLoToiyV5p6aLk82B/sA9QG1XmJQ2epf5XI+NzRXZbKrMYXNlDsUZ4/ubYFIVVpb4WFni47/cVkEipXGqOYDNorI433PdfBeXYF5c94rcRXx86cf5+NKP0xvt5c3GN3mt/jWOdBwxuujroGFk1Nd13ciu3//4YlbbQDzAr8/+ml+f/TULfAt4X8X7eO+C95Lvyp/hdyeEEOOgadByBKp3QtVrRmZ5fYRukM5sWHAnVNxprH3F01pUkT76En2c7zmPRbWQYc8g05aJw+wY9su0pmtU91ZzpOMIR9qPcKzj2MAMNZOpMqOSW4pvYXPxZtblrZPec0JMogudfbx2pp3Xz7Sz70I38dTIszxc5HNYuHF+FpsrstlcmUNlnntSA26LSWV1acakXW+2kGBeiMtk2DN4sPJBHqx88KrHprQU+1r38Wz1s+ys2zkwz2yNv4Z/OPQP/ODwD7ip4CYWZS4iw56Bz+Yjw5ZBhm3wtnzBEELMmETU6DrfctQI4Ktfh/AIY4tNVmMse8UWY8lfKd3ir1Pd0W4Otx3mQNsBDrUf4mz32YFebRdZVIsxXM3uGxi21pfo41jHsTElqFUVlQxbBln2LLId2cbano3P5sNmsmE1WbGoloFtq2rFYrJgNVmZ550nM9UIMYliyRTv1nTz+lkjgK/tCo94rNWkUpnnZkmBh8UFHhYVeFhS4KHAa79uWsunkwTzQkyQSTVxc9HN3Fx0M6GbQuyo28EzVc9wqP0QYLQ+7G3Zy96WvaNeJ8OWwcLMhSzOXMyizEUsylpEZUYlNpNtOt6GEGKu01Lgb4CuKuiq7l9XQWeVsX+0jPLZC6HyLqi4C+ZtBqtr2oot0kM4Eaalr4VTXac42HaQQ+2HuOC/cNXzElqC9kg77ZH2UY+zqBaWZy9nTd4aVueupsxbRrY9mwxbhoxhF2KK9Ibj7K3uYndVJ/trL401vxhrK1wKuhUFOoKxEZPVFWc42LIkj5sWZLGkwMO8bBdmk9zonS4SzAsxCdxWNw8vfJiHFz5MQ7CB56qf4z+r/5OmUNNVz+2N9bK/dT/7W/cP7DMpJsq95UaAn7WIPGcePqsPn82H1+bFZzXWFnVoYhAhxByi65AIG9O7xfuMdaJ/HQ8b27EQRLoh3AXh7v6l69IS6WHUgP1yVg8suP1SAJ9ZPqVvT8wsXdfpjnbTGm6lJdRCc6iZlr4WWvoubffGeq96nYWZC1mTuwZVUemN9dIb7aU31ktPrIfeaO+gMe85jhzW5q0dmIlmWfYy6aEmxBSLJlIcrOthd1Unb1d1crzJP2TqtrEyqQrryzPZsiSPLUvyJr27vBgfCebHIJFIpM08hBfLkS7lEUMV2Av44+V/zGeXfZa6QB3dsW78Mb+xxP30xnoHbTeGGodMmZPSU9T4a6jx1/Bi7YsjvpbL7MJr85Jtz2Zp1lKWZS1jWfYy5nvnY1Zn9tdb6qqYLdKursaCKFWvoJ59AaV6J0r86l2SJ0K3edGzKyGrAj2rAr18E3rxBjBddpMwXX4mYtz1VNM1emO9dEQ6aO1rpT3STmtfK23htkHL1aZvvZJZMbM0aylr89ayNncta3LX4LP5Rjxe13WiqSg9sR5Miok8R97gL/4a4y6DSG9p95l6ndE0nYbeyEAW+YP1vRys6yWWHH5cu8WkDGSNvxjgX5wJ4uJjh8XETQuyuHNRDpsrsvFelmU+mbyGKUlnWDrX1bGWSdH1id6Xmbu2b9/O9u3bSaVSnDt3jieeeAKnc25PayBmVp/WR2uq9dKitdKeaifF6PNvjsSChUJTIcWmYorNxRSbislWs1EV6fYkRDqyJfwU+A9R2HuQ3NBJ1JGSzo1DQnUQN3uIm91ELZmEbAWE7AXG2lZI3Oy51KdSpB2/5qc6WU1Ei6CgoCiKMS0qxvSoF//p6IT0EEEtSEAPGGstQEgPoXH1pFQjUVHxKB4y1Awy1AyyTdmUm8opNZdiVaQlXYh0EEtBcxiawwpNfQrNYYXmPohpo3+2Fzt1Fvl0Fvt0Fnh1bDKiJe2Ew2EeeeQR/H4/Xq93xOMkmB9FIBDA5/PR2dk56g9xOiUSCXbs2MHWrVuxWKSL9VyW0BLUBeqo9lfTG+slEAvgj/sJxAMDy8UW/u5o91WvV+gq5L3z38v7FryPYvfUZ52Wuipmixmrq8EW1FNPo5x9AaXhXZRhusLrjkz0vOVgcYLVCRYXusVhPLY4jendrC50RxY4s9Ad2eDIBGeWkbBOzBrRZJTDHYfZ07yHva17qfHXTOnruS1uCpwF5DvzyXPmUegqpNBVSIGrgEJXIXmOvBnv4SVmJ/n7P/niSY0LnX2caw9xvi3EufYQ59pCNPRExnR+oc9uTANXkcXNC7LIcUteJkjvuhoIBMjJyblqMC+f0mNgsVjS7j84HcskJpcFC0tzl7I0d+lVjw3Gg5zpPsOJzhOc7DrJyc6TNIYaBx3T0tfCT078hJ+c+AkbCjbwUOVD3F12N07L1PY6kboqZotpq6vhbtj197DvJ5CKDX3eWwJL7oel70Up24Rikj/V6S6lpWgMNXKu5xzne85zrucc1b3VAOQ6c8lx5JDjyCHXYWznOnPJseego/NOyzu83fQ2B9oOEBuuPoyTgkKWPYs8Zx65zlxyHbnkOfMocBUYwbsrnwJXAS6LJDMUU0v+/k9MNJHiWKOfg3U9nGz2c64tSE1HH8mrzNt+UXGGg6WFXpYWelha6GV5kZeyLKeMax9FOtbVsZZHviEIMQd4rB42FGxgQ8GGgX290V5OdZ3iZNdJDrQd4J2Wd9B0o8vlxYR737Z8m3vn3ctDlQ+xJneNfNALMZViIXj3R/D2DyAWGPxczmJY+l5Y8l4oWivd39NUPBWnOdRMU6iJ2kDtQOBe1VtFJDl8C9lE5lBXFZUVOSvYXLSZBb4F6OgkkgkOHTnEqlWrUFQFTdcGutFn2bPIcxjBe7YjW5KjCjGLdIZiHKjt4WBdNwfqejjR5CeRunrg7rSaWJjvYWmBEbQvKfCwpNA7MP5dXB8kmBdijsqwZ7CpeBObijfxx/wxbX1tPFfzHM9UPUNdoA6AvkQfvzv/O353/ncUuIzulj6bD6/Vayw2Y31xn6ZrRJIRoskokWRkyBJNRYklY0RTUaKJKK3BVn7+ws+Jp+LGc6kYDrODPGfewBfPPGee0YLkyCXfmU++K19ajMTckozDoX+DN/8O+i6bpstshxv/GNZ9EnIWzlz5rhO6rtMR6eBM9xla+1oxq2ZMislYqybMinlgn6qodEY6aQo10RRqojHYSGOokY5wx0BiqKtxmB0oKISTI8/HfLk8Zx6bizazqXgTNxfePCSpXCKRQD+ls23BtrRrQRJCDOaPJGjoDtMXS9IXTxKKpQhFk/TFkoRixrq7L87hhl4udPaNlrC8ewAAcnFJREFUei2LSaEi123M2Z7vYXG+MX97cYYDVZUbv9c7CeaFuE7ku/L5o5V/xGdXfJYjHUd4puoZXrrw0sAXzda+Vlr7Wif/hXsHP/TH/Fd9naVZS9lcvJlbim9hVe4qaWUS0y/UYUzrFu+DeKh/fXG7/7GugSv30uLOM9Z2n9Gyrmlw4rfw2l9Db92laysmWPsHcPtXwTf1+Stms3gqTleki65oF52RTjojncRTcTLtmWTYMsiyZ5FhyyDTnjloejNN12gMNnK6+zSnu05zpvsMp7tPjym/yESUecpYmLmQRZmLBpYSTwmqohJOhOmMdNIR6aAj0kFn2NjujHQSSUZYnbuaTUWbqMyolN5RQsxisWSK106389ShJt442z7mbvFXmp/j4obyTNaXZ7K2LJMFuS4sMm+7GIEE80JcZxRFMaYUylvLVzd8lZ31O3m26lmOdx4fcwvSeNhMNuxmOzaTDZvJRl+i76pfqE93n+Z092n+5fi/4La42Vi4cSC4L3AVTHoZhUDXoeUIVL0MZ34P7acmfi2T1QjqFRX8DYOfW/YQbPlLaYm/QjgR5o2GN9jdtJu2cNtA4B6IB6567kUui4tMWyYeq4f6YD19idFbu8Yry55Fsbt4YCn1lLIwcyGVGZWj5h5xWpyUWcoo85ZNanmEEDNP13UO1ffw1KEmnj/aTCA6vmnarCaVlSU+1pdnckP/ki3J6cQ4SDAvxHXMaXHyQMUDPFDxAGBk0A/GgwRilzLmX8yiH4wHURUVh9mB3WQ31mZjfXG5GLQ7zA5UTWXnyzu5//77h3QJTaQSdEY6aY+00x42lo5wB+3hdqp6qzjdfXrg2FAixKv1r/Jq/asAVPgqWJa9DKfFidPsxGF24LQ4B8rgNDtxWV3M884j35kvLV1iZKkE1O1BPfUcW08+heXIJLXapuIQaBq8b8GdcNf/hOJ1k/MaaUbXdZJaEotp7L1oEqkEbze/zQs1L/BG4xsjjjkfq75E36gBfIYtgyVZS1iavZRyTzk6OiktRVJPDrvOtGcOCt6nOlmoEGL2qO8K87vDjTx9uIm6rqENIfleG3csyiPDacFlM+OymXHbTP3r/sVuZl62C7tF5oUTEyfB/FygpUBLGl9MtYTxeGA7Camk0R00o8yY2kiIEVhUC1n2LLLsWdd8rUQiMWIgbTFZKHQXUuguHPb5zkgne5v3srtpN3ua99Ab6x14rtpfTbW/ekxlcFvcVGRUUJlRycLMhQPb2fbsgbKltBSBeIDeWK+xRI11OBlmUeYi1uStkW7+s0EyDt010HUeemqNzz4A+uvgQF3sX7edhHMvQbQXEzDkk7Fkg5GUzuq6bHEP3gbo6zDGwfd1Qqjd2A51GPsjPUbwfuefw4I7pvDNT75gPDiQ6O3iujfWS1+ij3AibATOyb6Bx+FkGE3XyHHksMC3gPm++SzwLWBBxgIW+BaQ68hFURRSWoqDbQd54cIL7KjbMWLLu8PsINuePZAFPttxadtqstIb7aUn1kNPtH+JXVoHYgHyXfkszVrK0qylAwG83NwTQoxG13VCsSQ9fQk6QlHaAjHaAlFaA1Ha+7eNJUYoNrQF3mExcd+KAt6/roSbK7IxyXh2MQ0kmJ/tTjwFv/3M2I5VTJC/DIrWQfENxpK7BGTaI5Fmchw5Az0GUlqKU12n2N28m7eb3uZ45/GBrPxXE0qEONpxlKMdRwftz7Rl4rV56Y31EogFRk1odbGb/y3Ft7C5ePOYu/nruk4gHsBj9aAqMtZt0kR6oP2MEbR3noPO88bSUwt6asKXTSlmlAV3oC59L40la3ij+yRWk5UybxllnjLynfmY1HG2nuj6qFnpNV0jEAsQS8WIp+LEUjFiWoxEKmFs9+8PJ8MDrc6heIhQIkQ4ESaUCNGX6EPTNVbnrmZz8WbW5K4ZV+t4e7id/a37OdF5guZQM819RuAejAfH9177Xewev69136D9HouH+b75tPS10BHpGHKez+bjnvJ7uG/+fSzPXn5NreC6rkvQLoQYQtd1DtT1sOtcB519cXr64vSE4/T0JegOx+kNx8eURf5yigKbK3J4eG0x71lRgMsm36nF9JIaN9up4/gv1FPQetxYDv2bsc/ihMLVRoBfuNpovc8oA08BjPeLqxBTwKSaWJm7kpW5K/mT1X9CMB6kI9JBJBkhnAgb62SYSKJ/nYzgj/mp8ddQ1VNFc1/zkGv2xIwWvLG4spv/wsyF3FJ0C7cU38KCjAW0hFpo6jNaLy9vyWwONRNNRXGYHSzMWMiiLCMp1uLMxSzKXIT7YsvuDEppKdrCbTQGGwnGg1RkVFDmLbvmmw/xVBx/zG8s8f51qBV/11kyTA42lW0hL38lWByjXygZh7YT0HQQGg9A0wHoqrqmsg1i88LCe0gufA8vV6co2bSUx88+zo5X/mHIDSOLaqHYXUyZt4xSTymlnlKK3cVk2DIGFq/NO/hn1x9QJrUkTaEmqnurqfHXDKwv+C9cc9fyiw60HeBfT/wrTrOTGwtvZHPRZjYXbabUWzrouLa+Ng60HWB/634OtB0YmNlivBQUnBYnLrPLWFtcmFQTjcHGYXNiBBNBjnUeG7TPYXawpWwL2+Zv4+bCm8d1E2LUskkgL4S4TF8syTNHmnh8bx1nWid2o/Iip9VEgddOvtfObYtyeWhtEYW+q/wtE2IKSTA/27lyofQmUC1G8G2yDN02WYwup60noOO00eX+okQY6vcay+VUM3iLLwX3vlLIKO3verpI5kAWM8Zj9eCxesZ8fF+ij+reaqp6qzjfc35gO5qMkmE3gjCfzTcoKMuwZWBSTexr3cee5j34Y/6B653vOc/5nvP87OTPxvT6kWSEY53HhgQyxe5iFmUuYp5vHl6rF5fFhdvixmlx4ra4cVvcuCwuXBYXNrMNq2rFolqu2jqs67oxNWD/9IHRZJRwMkxrX+vA9FoX102hJpLa4K6CHouHZdnLWJazjBXZK1ies5wiV9GgACmRStAQaqDOX0ddoI7aQC11gbqBrthXDVDP/wdLY3FuSSrcZslmpWcepoxy8JWAI8P4rGrcDy1HIRW7+g/Z4oTsSuOzKWchZFX03yjQL/5QLv8JGStHJpRuRDOZeavuDf45/H+pfbl2xJdIaAlqA7WjzhmuoOC1eQfqlNfqpS3cRq2/loSWuPr7mAThpJFI7o2GNwAjy/qmok0ktMSYgneTYqLAVUCxu5gidxFF7iJj21VEjiNnoE7azfYRb/r0RnuNmxb+amp6jZsWNf4aWvpaMKtmbi2+lW3zt3FbyW0yDl0IMWVqOkI8/k4dvz3QSHCYbvEX2cwqWS4rmU6rsXZZyXZZyffaKfDZyPfYyfPayffacNvMcsNQpBUJ5me78k3w2VfGfny8z/iC3HQQmg4Z695hvtxpSWP/cM9lLYDF22DxfVC6Ubrpi7TmsrhYlbuKVbmrxn3uBxd9kJSW4mTXSXY37WZ3025OdJ646jzTdpOdIncRuY5cY47qUOOQYy7OX03DMBcYhUkxYVEtWEwWI8A3WVBRiaaM4P1aW3qDiSDvtr7Lu63vDuzLtGWyLGcZCspA0D7WoQ4jOW2zctoGPyGAL3yYTV17uS0cYVMkik/T0IErQ3DdZEUvWEm0YDndvmJ63dn0OHz0qAq9cf/A+Olgx1uXkpd5iilxG63oOY6cgS9h8VSc39f8np+f/Dk1/ppBZcuyZ/HRJR8l255NQ7CBhmAD9cF6GgINRFPREd+Tjj7QI+FqVEWlxF1CqacUp8WJRbVgM9mwmqxYTdZL26p14AbPxUD64rbbaqz7En3sbd7L281vs7d576CW8fpgPfVn64ctg1k1szJnJevz17M+fz3zffPJdeZiHk+Pr2Fk2DNYZ1/HuvzByf7CiTAm1YTNJJmahRBjF4mnePFEC7850MCp5gA5HhvFGQ5KMh39ayfF/ds5bhtvnG3n8Xfq2HW+c8i11pZl8PGbyllS4CHTZSXLacVhlZ6oYvaSKOx6Y3UZNwDKN13a19dpBPad54xplHoboLce/PUQHeZLaXcN7P1HY7FnwKJ7jeC+8i6wjb3FVIjZwKSaBm4GfG7N5+iOdrOneQ97mvbQE+uhyHVZ62X/OsueNejOfV+ij/M95znbfZZzPec422OsJxJ4p/QUqf+/vT+Pj+MqE/3/T1Xvi7q175IlL3HiJd6z2SEbCRAChBAyELbMDJc7A0xYBm7Y8ptvJnyBy/DiewPjYbgzDJPLJQMEkkBIIBtZyG47juMkjlfZlrW3lt6X6qrz+6Mk2bIWy1ostfy8X696Vau7unRaetTqp845zzHNCZPKyfA5fTQUNVAfrKe+qB6/y89bfW/xZuRNutPdI47tz/bzXNtzpzxniWlSapqELYuwadl7yyJsQThYQ6hkMQfI8edUK29ax6v/Rh0O/hAM8IdgYBIt74G+p2AKhec9Ds9wb/Pevr1E0iM/6DWFmvjEyk/wniXvGTPhVEoRSUfsBDl2lM5UJ9FsdLh4YjQTpT/bTzQbJWEkAHBqThpDjSwpXsLi8OLhfVO4acaSWp/TN1xjwlIWb/W9xfPtz/Ns27Ps6t5FXtk9Uk7dyfnl57OxeiObqjexpmINPueZGx4qvfBCiMlSSvHasSi/3N7Kg6+2j+hZj2XyHOqZ/NKTHqfO+9bW8vGLm1hVF56N5goxZySZFxAoh3OusbeTZaJ2ch9ttZP9/Y/BkeePF5rKDMBrv7Q3h9uee+8psm873fbe4QKH5/h9dRvt5F969EUBKvWWct3i67hu8XWTfk7AFWBt5VrWVq4dvs9SFsfix2hPtg9XBB8qaDZU6Gzo9lBRtJyZw7AMclYOwzTs22YOS1ljLhN44hKCFb4K6ovsxL0+WD/qgsOJulPdvBF5gzd6B7fIG8M1BvwOL4s0D03Jfhal4iwyDJqMPI15g5A12Jdefs4JhTbXQ9UqcHmHz/9Z7EJpfz72Z/587BleaH+eRH700j4zLWtmaYm20BJtGXH/uop1rEit4Avv/gIe9/gJtqZpVPgrqPBXsKFqw4Tfy7AMYtkYIU/ojK6GoGu6PU2ibAWfXP1JErkEr/a8ilt3s7pi9RlN3oUQAsAwLY71p+lL5gh5nYR9LkI+15hLsvUnc9y/s41fbW8dc357RZGHRCZP2jh1wdPGUj8fu2gRH9xYT7HfPSOvRYj5RrIpMTFvGKrDUL3KHla/+XOQ6oMDj8Peh2H/4zBU9djMQeuLkztv8SK4+LOw7iP2aAEhzjK6ptNY1ECjOwxOr32xa67m4VkWJDohG4dsnMrB7QpKoGgtytVMV6IDveVpKiL7GNVKlx9WvAdWfQCattjvG6dQ7ivn/cvez/uXvR/DMni1+1X+3PZndvfsxlQm2gnfZeiig4aGpmm4HW5KPaUUe4sp9ZZS7CmmxFNCibeEYm8xQVeQSDoyXIzwWPzY8LSGocKEuqZzVeNV3LLyFs4rPo+HH354RlcdcOkuynxlM3a+qQq6g2yp2zLXzRBCLHC5vMWx/hSHe5Mc7I7zTIvOr+/ewdH+NMf605jW6OlpHqdO2Oca3txOne2H+8mZI6dx+d0O3r26hr/Y1MCGRSUA9KcM2vrTtA2kODb4PdoG0nRE09QV+/jQBY1ctqwCXZaHEwucJPPi9PlL4fyb7C2fgyPPwt4/2Ft0khOAB47AH74MT30LNn0SLvgUBCun1h7LtEcQpPvtkQLpfjs5abxwUkmFEHNi3yPwyNeOV2fXHHZS7PbbxdtcAXvv9tsFKCuW20tJViyHcCPoU0w8TQN63oKO1+z6GR277BUujPGHLGrAqAX5dCcsfTusutG+0OeZenV+l+5iU/UmNlVvmvI5Tlbpr2RF2YpR9yul6M304tJdhD32+4NhnJnidEIIsVBE0wY7jvTxcks/L7f0srstetKybjrQO+E5snmL7niW7vjYhU7XNxZz08YGrltTS/CkJd9KA3axutX18jlPnN0kmRfT43TDkivt7V3ftQvsmTk7YTBzI7d8DpLdsO0ncPAJ+/npfnjmn+C5H8CaD9m99RXn2I8pZT8+cAT6B4vx9R+25/MneyA9YG/jFZtyuGHZNbDqBjjnnTICQMwP/Ufgj1+FvQ+NvF+Z9iiXyazv7fTZVduHkvuSJvt+K29f3FLmCXvL/vvr3W8n7l1vTq5C/Jg0u+d91QdgxfvsC3sFRtM0yn3lc90MIYQoKN3xDNta+tl2uI+XWvp4qzM2cqGQcQTcDprKAzSVBago8hDP5ImmDWJpg+gJ29Cw+bKAmxvW13HTxgaWVUkdJiFORZL5STAMY9703Ay1Y760ZxTdY28TTRFdcg10vYHjpa1ob9yHZuXt5OKVu+GVu7EaLkLLJWHgMFp2GuuBmjl46/fw1u9RLj9q2TVYK25ALbnSHtYsZtW8j9UzLZ9Ff3Er+nP/H9oJhe9U5SqUJwhGGs1IgZGGfBpyqRHHjTxXGjpfs7cZoMKNqMrzwFeKcgftuhfuIHiCI75WZcug6IQ++gXyu5VYFYVA4lScaYlsnt/t6uBXO47xRvvEn8eayvysqCliUZmf+rCH7oOv84F3XEZ1sX9SS7nl8haJbJ6wz4VjcGi8xLqYbfP5fXWybdKUmsx1tbPL1q1b2bp1K6Zpsm/fPu655x78fqnCOxu8uT4W9zxKU+RJXNbkK3tb6BjOAIbDj+EIkHMEMZx+e+/w4zJT1A5sw5sf3Wtv6D46ijfQUbyRSPBc8g753YrZVRHbzfnH/g/BbNfwfRlnmNfrPkxbycXjz5VXFk4rSyDbRVGmjaJM++DWRiDbhXaKJfJGnQ6NhKeaqH8RA74mov4mor5GDOfUh8gLIYRYWFoT8FyXzo6IRs4a/f9JQ1HrhyUhxZKQYnGRIiT15YSYUalUiptvvploNEooFBr3OEnmJxCLxQiHw0QikQl/iGeSYRg89thjXH311bhcZ65C8qzLxNBf/T/oL/8YLd6B0p0QqkcVN0JxI6q4afD2InvvLz91sTDLRDv6PNqb96O/9SBaun/UIUrTUVWrUYs2oxZtQTVcBN5J/q5zSXtYsztgzx9eiJSCaCta23a0nr2oqhWoc98DkygUtmBiNZeAWDtarG14r8XbIdYOlgHBKlSwCoLVqKJqex+ssnuw0wM4HvsG+lu/Gz6d0hxYmz6J9bavTG8px3wW+g6hRfaixTtAd9jz7jUdpTvsmNQc9tx6zQGhWlTVKrvHXYywYGJVLGgSp2I2JbN5fr+7k19sO8br7bFRj6+qDbF5SRmbmopZ31hMkXf8GJRYFYViPsdqLBajvLz8lMn8As1AZpbL5Zp3v+D52KZpcZXBpV+AzbdCqhfNVwoO5+iq2ad3Ulh2pb1d93049BS8/hvY8/vhecmastA6d0HnLnjpX+wktWaNPS+4fhPkUnaV73gXJAa3eKe9zyWOfyund3hYMu7g8dueEFSvhqZLoXatvUzfmZDP2vUGhrZM1G6jr8Se5+wrsdt48gWRXArad8Kxbce3RNfIYxZtgff+AMqWTKoppx2rmRikIvaqCckIpHpP2Abvd/mOzxevOBdKF0//Z2tkoOt1aHsF2l+xi8INtI5fk2FSNDix97zxYrRrv4ejehWjF+Q5TS4X1J1vb2JGLLj3VbEgSZyK09Edy7CvK0HGMMnmrTH3ndEMD+3uIHHCWu5gz3e/fl0dN1/YyMra0y80J7EqCsV8jNXJtkeSeTG/6I6pV7WfiMMFy662t+sydgG+Q0/D4Weh+43jxynLTmbbd57e+fMZe0tFRj/2xn323hWAhgugafNgcr/eLiB4OnJJO8GMttoFAYdux7tOSNwHwJjEmt26007qfSXgK7Wf0/WGXTRtIkeehR9dApd/BS7+O3BM820kGYGWp6HlGft30t9y6uecTHdC6ZLjyX35MvtCitNjX8Rwee2902MXj3N67J719leOJ+9db9gjLWbUYCLvL4dr7oQ1H5675eeEEEKcNSKJLD94Yj/3vHSU/BjLwk1kdV2Ymy9s5L1ragl4JFUQYj6Tv1Bx9nF54dx32xtAsheOPGcn9icn92PxhGBoGLXDbffQ55L2Gt25BGQTY1cLN5Jw6El7AzupbNgElSvs4exW/ng18uHbeXtlgFibnbSnJl7m5bRYeXtVgGTPBK81DPUboP4CCNfDM9+1VxPIZ+Dx/wdevw/e98/2aIbJysTgyPN28t7ytN0bPl1WHiJ77W3P7059/GToLvs1h+ogXAeh2sHb9YO36+2LMfEuiHfYIzZO3meisPgyuOx/2BdNhBBCiFmUyOb59z8f4t+eOUQyd4qL8yfwux28d00tN1/YyPn1xbPXQCHmkBnNktodwRFw4V83C52Hc0CSeSECZbDivfYGx5P77jfBWwxF9nzo4b17EgXzTMNO7BPdcPSFwQsFz0G8/fgx+fRgQvvMzLwOh+f4EHpv8Qm97sX21/m03XOf6jthCP4ApPsGpwxodq92wyZ7ikH9BVB+zsj1zFfdAH/6f+HFfwGUXU39f19hT4+47DZ7+PuJlGWvad692x7t0PaKvR+v9193Qd16O2H2l9k92v5S+3ag3N77Su0kuect6Nlr7yP77M3MTfGHN/ja69ZD7Tp7X7XK7sE/FU8RlC+d4vcVQgghRsqbFs8f7OUPr3eSNUzWLyrhosWlLKkIjlsZ3jAtfvHyUe56Yj+RxPH/hX63gw9uqKeiyIPH6cDr0vE4HXhO2PtdDlbUhiacBy9EoTJjOdK7e0jtjpA7bNeDcNUEJJkXYsE6ObmfCofreDJdsRw23GL3vve3HE/sDz8LsWOTO5+mQ1EtFDdCcQOEG0643Wj3FE/mIsN48jk7wT45GT+ZOwDv/Jad1P/u7+wLHsqEZ/8/ePN3cM037VEK7TtxtO3g3W07cb460Zrmmt2rv/gyaH4bNF5sf49TCdVA5bkj7zPz9tSDnregr8W+eGEMTn/IZ+2v81n7ayNjJ+FDiXvNmukVoxNCCCGmQSnFa8eiPPBqGw/u6iCSOP6/876dbYC9BvsFzaVc0FzKhc1lnFtdhKbBw7s7+adH3uJw7/Epdk5d48MXNHLrVcuoKJrEhWkhFhAzniP9eoTUaxFyh6OcvPiP0ZEk35uGUOGnwoX/CoQoFJpmF2orXQzrP24n9wNH7QJzQ9XHhyuQO0feFyif3eJ5pzt3v34jfOppO4l/5p/squ59B+EXHx4+RB/cRik/B5ovsxP4RZvtnveZ4HDaRfkmWZhPCCGEmGuHI0l++2o7v321jUOR5ITH9iZz/OH1Tv7weicAIa+T8iIPh3pGPu/dq2v40juW01w+iYvjQhQApRTZQ1GyBwfAUoBm1xjWGK5FpGn2R+vc4SjZQ6MTeABnpR//+eX4zq/AWeabl+vLny5J5oWYK5oGJYvsrRA53XD5bbDifXYv/bGXRx2SdJfjW3wJev3g8PWaNTJ3XAghxILXn8zRFc8QTRlE0waxTN7ep4e+NjjYk2RX68Co57odOlecW8H1a+uoDnt5uaXP3g73Ec8cL9Qay+SJnfD1RYtL+cq7zmNtQ/EZeIVCzD4rZ5J6tZvEc+3kuyZR3HkMznIfvvPL8a+pwFW18C5wSTIvhJieynPhr/4Ir94DR1+E0iaoXYdRsYrHn3qJa6+9Fn2eLfchhBBCzJSMYfJGe4xdrQO8Orgd7Tu9xEPT4MLmUq5fW8e7VtUQ9h//v7musYT/ftkSTEuxpyPGSy19vNzSy8stffSnDM6tLuK2d53L5edUjDunXohCku/LkHixg+S2TlT69FcacpR58Z9fgW91Oa6awIL+u5BkXggxfboD1n/M3oYsgKFLQgghxInSOZNDkQR7O+PDifuejhiGeXrLvw05rybE9Wtree/aWmrCE9etcegaq+rCrKoL89dbmrEsRTybJ+R1LuhkRZwdhobSJ55rJ7Ond9QweXdjEYGLanCEPfZjavCAwdtDXzpC7gWfwJ9IknkhhBBCCLHgZfMmXdEs/akcLoeO26njGd4cuJ32fbpmz08/2J3gYE+SA90JDvbYW9tAejhpGI/HqbOqLszSiiBhv4uQ10nY5yI0uIV9LkJeF6UBN6WB06xZcwJd1wj7ZOSbmN/MRI5ca5x8Txork0flLFTWxMrmB/emvU8amLGTViVyaPjXVBC8pBZ3vRQqHosk80IIIYQQouANDUM/0puiI5qmfSBD+0CajmiatoHMiArxE3HoGqY1+Z72JRUB1jaUsLaxmHUNxSyvLsLlGLMErBALmjIsch0Jckfj5FrtzezLnPZ59JCb4EU1BC6oxhGc+gWvs4Ek80IIIYQQouAopTjYk+S5AxGeOxDhxUO9IwrCTdV4iXyRx8niyiBLKgIsqQhyfn2Y8+uLpXdcnLWsTN6uMn9ggOzRGEZHEqYy5cShoXscOKsCBC+qwbeqDE0uiE2KJPMFriOa5s/7I/jdDvxuBz6XE9/wbcfg/U68Lv2smTsihBBCiIWpM5oZTt6fOxihK3bq3nZNg8oiDzVhH7XFXsoCHvKWIps3yeUtcnmL7PDeJGdalPjdLKkIsmQweV9aEaSiyCOfpcRZTZkWudY4mf0DZA8MkGuNgTXBE5w67rog7sYi3HVBdL8LzeNA9zjQ3I7jt52SuE+VJPMF7vW2GP/j16+d8jhdg9V1YS5bXsnlyytYU1+MQ5d/SEIIIYSYW7m8xRvtUV5tHaA3kSOesZdyiw0u4RZL54fvS2TH73kv8bu4ZEk5K2pD1BX7qAl7qS32URXy4pZkQYgpyfemybzVR+bAANlDUVTWHPdYZ4UPd0ORnbw3hHBV+6WHfZZJMl/gUrnJDSezFOw6FmXXsSg/eGI/JX4XbzungiuWV/K2cyqmVYBFCCGEEGKyEtk8rxzpZ/the+30V1sHyBgTde+NzedysKm5lC1Ly+wkviaELh0VQkyLUgqjPUn6jQjpN3onXN/dWeHDs7QY77ISPE0hdL9MOTnTJJkvcGvqi/l/37+KdM4kNbilc3n7tmGSGbwvksiyvzsx/Lz+lMFvX23nt6+2o2n2eS47p4KLFpexrrEYr8sxh69KCCGEEAtBfzLHoUiSw5Eku9uibD/Sx5vtMU6jvhxel07I66LI66Q86OHC5lI2Ly1nbWMxHqd8XhFiupRpkW2JkXmzl/QbvZjRsaev6AHXYPJejGdpCc5izxluqTiZJPMFrqk8QFN5YFLHdkYzPL2vmyff6uHZA5HhoWpKMbxW6l1P7Mft0FnTEObC5jIuXFzKhkUl+N0SKkIIIYQYybIUkWSWjoEMh3uTHI6kaIkkaOlNcTiSJJo2TnmOumIfm5pK2NhUyqIy/3DiHvLZe0nYhZg5yjDJ92YwetLke9MYnUkye/tR6bFH+7obi/CuKMN7Tgmu6gCajH6ZVyRDO4tUh738xaZG/mJTI4ZpseNIP0/u7ebpvT281RkfPi5nWmw73M+2w/3885Pg1DVW19vJ/RXLK9jUVCrD2IQQQogFTilFXzJHSyTJsf40nbEMndEMXbEMnbEMXdEM3fEs+dPoZtc0WF5VxKamUjY2lbCpqZTaYt8svgohzk7KUuSOxckdjZOPpIc3c+AURSMdGp4lxfhWluE7rwxHSKbizmeSzJ+lXA6dixaXcdHiMr76rvNoH0jzwsFeXmrp5aWWPo70Hp8fk7cUO48OsPPoAP/69EFqw17es7aW69fWcV5NaA5fhRBCCCGmK5nN0xJJjtgORZK09CSmvNSbpkFt2EdTuZ+msgDN5QGWVAZZ31BCWObVCjErlGmRPRQl/YY9XN6K5yb1PM3jwLu8BN/KcrzLS9C9kiIWCvlNLQD9DxzAWeIheGn9lIe+1Bb7+MCGej6woR6wh+S/1NLLi4f6eLmll4M9yeFj26MZfvz0IX789CGWVxXx3rW1vHdNLQ2l/hl5PUIIIYSYXXnT4vE93dzz8lH+vL8HNYWlocuDbqpCXqpDXqrCXhpLjyfui8r8Un9HiDPAyplk9/XbCfyePtQEF+A0nxNXuQ/n0Fbhw1nmw1Xll+XhCtSCTOZ//etf8/Of/5wdO3YQiURobm7mr/7qr7j11ltxuRbW1eDUaz0kX+wAILN/gNKbls/IcJjqsJf3ra3jfWvrAOiJZ/nz/h4e3NXOM/sjmIND6vZ2xfmnR/byT4/sZeOiEq44txKArGGSyVtkDHNws28bpsWGRSX81ZZmmYcvhBBCnGHtA2l+sa2VX247OuEa7UM964sr7OS8sdRPdXgwcQ95qQx5ZC67ELNA5S3Sr0dIvtyJEUmjOTQ0pz684Tz+tTIVuZYoaqzVIJwa3mUleM8txVUdwFnuwxFYWHmQWKDJ/Pe+9z2ampr47ne/S1VVFc8//zzf+MY3eO2117j77rvnunkzKt+bAQ1QkD0wQNddOyj54HJ855bO6PepKPJww/p6blhfT28iy0O7O/jtq+3sONI/fMz2I/1sP+Hr8Ty5t4efv3SUr7/7PN69ugZNk/n3QgghxGwxLcUz+3r4+UtH+NNb3aMqyTeU+riouYzmigCLywM0lwelZ12IM8yMZkm81EHy5U6sxKkLR45F8zjwnluKb1UZ3nNK0T3yN7zQLchk/sEHH6SiomL46yuuuAKlFLfffvtwgr9QhK5owN1QRN+v9mLFcljJPL3/+QbBzbWE39U8K0NmyoIePn5xEx+/uInWvhS/29XOAzvbRix9dyod0QyfvWcnP198lP/nvStZXl004+0UQgghzlaGabGrdYBn9kf4zY5jtA2kRzzu0DWuOreSj1y0iEuXlkthWyHmgFKK7KEoyRfaSb/ZCyd1sOsBF2h2b73KW5AfPR9GD7rwrSjDu7IM75JiGS5/llmQyfyJifyQDRs2ANDe3r6gknkA79Jiqj63nv5f7yOzpw+AxHPtZA9FKb35XFwVszeXvaHUz2euWMqnL1/CW51xDnQncDt1vC4H3sG9z+3A63Tgden0pwy+/Yc9PLW3B4AXDvVy7Q/+zMcvXsTn334OYZ8M/xFCCCEAommDrGFSGjj19DnLUuzpjPH8gV6eOxjh5ZY+Ujlz1HE1YS8f2tTIX2xqoDrsnY1mC3HWUnmLfCSN0Z3CSuft0ac69rwVDftrzf7ajOdIvtxJvjs18iQ6+FaWE7y4BndzeMQIVqUUmOp4cm8p9KBblos7i00pmd+7dy+PPvooO3bsYMeOHezZswfTNLnzzjv5xje+ccrn33vvvWzdupVdu3aRy+VYunQpH/nIR/jCF74wa3Pan3nmGdxuN0uWLJmV8881R8BF2cdXkHyhg4GHD0FeYXQk6f7BTorfuwT/xqpZHc6uaRrn1YROWd2+MuTlp7ds4ok93fzj79/kaF8K01L89LnD/O7Vdm5757ncuKF+uIcgljHoGMjQHk3TPpCmYyBDRzSD26lTFfIMF96pHLxd6ndL74IQQoiCdbQ3xSNvdPLIG53sONqPUnYeUOp341EO7u3ZQWWRl4oiDxVFHpy6xsuH+3jhYC/9qbGH5moaXHZOBR+5cBFXLK/A6ZCeOyGmw8rmyXfbSXu+J4XRlSLfkybflx7Vuz5ZepGLwAU1BC+oxhH2jHmMpmnDc+aFgCkm8z/60Y+46667pvQNP//5z3PXXXfhdDq58sorCQaD/OlPf+K2227jwQcf5NFHH8Xnm9n1Rt98803uuusuPvWpTxEKLdyl1DRNI3hJLe6mEH3/9Rb5njTKsOj/zX4y+/spuX4p+jxYDkbTNN6+oooty8r5t2cOsfWpA2QMi95kjv/xm9f48TMHcegaHQMZ4tnTWxLH5dCoLPJSV+zjujU1fGB9PQHPghyAIoQQYh5SStGbzNHal8Kha1QUeSgPenCNk0ArpXizI8Yjb3Tx6BudvNUZH+MY6E3mAI32A72TakdFkYdLlpSxeUk5l55TTk1Y1nIXYqrMpEGuJUr2UJTsoQGMztSpnzRJ7qYQwYtr8a0skyRdnLYpZTmrVq3iS1/6EuvWrWP9+vV861vf4mc/+9kpn/fAAw9w1113EQwGefrpp1m/fj0AkUiEK6+8kmeffZbbb7+d733ve8PP+c///E/+8i//8pTnvvfee7nxxhtH3R+JRLj++utZunQp3/nOd07jVRYud22Qyr9bR/T3h0i+3AlA+rUI6Td68S4txreqHO95pTiC0696Px1el4O/u2oZN2yo51sP7eGh3XZV/hOXwTtdhqloG0jTNpDm5cN9fO+RvXz4wkY+cXETtcXyQUYIIcT0KaXojGU4HElxpDfJkb7BfW+KI70pEmNciC4NuKkIeoZ71CuLPGTzFo/v6eJYf3qM7wJLK4MsKvUTSWTpiWfpiqUx1dijz4q8Ti5eXGYn8EvLWVoZlAKzQkyRmciRbYmRPTRA9lCUfNepk3fNpdtLvVX6cVX4h1eXUpYChX1VTg0OlVeABp7FxbhrArP7YsSCNqVk/pOf/OSIr3V9cleRvvWtbwHwla98ZTiRBygvL+df/uVfuPTSS/nnf/5nbr/9dsLhMADvf//7ueiii0557rq6ulH3xeNx3vWud5HL5XjqqacIBM6ePxbd7aDkhmV4lhXT/5sD9pqTpiKzt5/M3n77DaQ5jG9VOb6VZeMO5zkT6op9bP3Iej5yIMI//v5N3uqM43bq1Ia91IR91Bb7qC22b9cUe6kN+zBMi65Yhq5Yls5Yhu5YZvjrrlhmsAcDYpk8P376EP/+5xauXV3DX29pZm1D8Zy9ViGEEIVJKcVrx6I8tLuDh17rGFVQ7lT6kjn6kjn2do3ueT/R2oZirllZxTtWVrOkIjh8v2EYPPTQw2y58moGMibdcTvBT2TzrKoNs6oujEOmmQkxZSpvkdrVQ+L5doy2CYo6a+CqDeKqCeCq9NvJe6UfR7FH5q6LM+6MjT9ua2tj27ZtANx8882jHt+yZQsNDQ20trby8MMP8+EPfxiAcDg8nNifjmw2y/ve9z4OHz7Ms88+S21t7fReQIHyr67A3VBE4pk20m9EMKN2koticKhQlIHfHcTdWITv/AoCF1Sju+dmGYtLlpbzx8+/jUQ2T8DtOGWPwqq68ePizfYY//FcC797tZ2caWFaigd3tfPgrnY2Lirhr7c0c83KavngI4QQYlxKKXa3RXnotQ4e2t0xbg/6EIeuUV/io7HUz6IyP0pBTzxLTyJLd8ze5/IjJ9Q6dY2Ll5RxzYoqrl5RPWFROk2DsM9FecjP0kpZBUaImWBl8iRf7iTxbBtmLDf6AA1cdUE8i8N4FhfjaQqhe2UKp5gfzlgk7ty5E4DS0lKam5vHPGbjxo20trayc+fO4WR+KkzT5EMf+hDbtm3jT3/6E8uXL5/U87LZLNlsdvjrWCwG2FfDDWNq6z3OtKF2nFZ7Ag4C72rE/44G8m0JMm/2kX2zD7Pv+GvNHY2TOxon/swxglc34D2/fM6uLnp0yOdPb678yZZV+Pj29Sv44lVLuOflVn7+cutwYaDtR/rZfqSfEr+LdQ3FrGsIs7ahmNV1IZlfP4OmFKtCzAGJ1cJkWYr+VI6ueJbuuJ0sd8Wz9CVz1Jf42NBYzIqaEO7TnIOay1u82RHj0Te7+cMbYw+Bd+gaFzaVsLy6iMZSH4tK/TSW+akNe8edGw/2xYF4Jk9PIkckkSVtmKxrKB6xkst4cShxKgpFocSqGcuReqGD9LZuVHbkyg/Oaj/upWHczSFcjUUjkncThTnPX5uYnPkcq5Nt0xnLXFpaWgBobGwc95iGhoYRx07VZz7zGR544AHuvPNOTNPkxRdfHH5sxYoV4xbB+/a3v80dd9wx6v5HH30Uv3/2lnebiscee2x6JzgHfCkHxX1uSnpd+NJ2KFixHLHfHKTjkb20NqVIFk0vqZ4PlgFfWwU7IhpPdeh0pu2LFP0pgz/t7eFPg8vkaShq/NAUVCwqUjQFFcUe++KCTDucumnHqhBniMTq/GQp6EpDS1yjJa7RldaI5iBmgDXO/PEhLl2xKKhYXASLQ4rmoOLEDrV0HtpScCyp0Ta4daYZc166juKcsGJtmeL8UkXA1Q2qG3oh3gtv7Ic3pvD6njtwesdLnIpCMV9j1ZtyUNXupTTiRj/hb12hiJYYdNZmSIb6wDwGB7A3saDNx1hNpSZXZPGMJfPxuD1HbKJ568GgPTdsqEd8qv74xz8CcPvtt3P77bePeOzJJ5/k8ssvH/N5X/3qV/niF784/HUsFqOhoYFrrrlm3lTBNwyDxx57jKuvvnpGl/HLd6WIP9ZKbm8/AIGEk3NfD+FdXUbwmkYcxXM3p36mXI/dK/LswV7ueamVbUf6iaaPX6xQaLSnoD2l8Xz38ed5nDplATdlQTelAXsrG9wCHgcOTUPXteG9rjF82+3UWVsfntQawQvNbMWqEDNNYnV+SeXy7G6LsePIAK8cHWBn6wCxzNQuLBuWxoGYxoEY0Aa6Bsuriqgt9rK3KzGpYfMXNZdy7aoq3n5e5Zy+l0ucikIxn2JV5S3yXSmMtiRGWwLjWAKz+6S/e6eGb20F/ktqqK7wMbnxvGIhmE+xerLJ5sMLckzx4cOHp/Q8j8eDxzM6aXW5XPPuFzzTbXLVh/H9ZZjM/n4Gfn9ouGpnZncvmT39FL2tjqLLGtA9czOffiZdeV4NV55Xg1KKQ5EkO48OsPNoPzuPDvBWZwxLjTw+m7doj2Zoj2am9P2cusZl51TwvnV1XH1eFb45qkkwV+bj348QY5FYPXNyeYuOaJrWvjSt/Sla+1K09qdpiSTY0xHHPPmN+CTlQTeVRV6qQh6qQl4qQ4O3i7wU+13s7Yqz/XA/2w73jUjYLQV7OuPsGWP5N7CT/SUVQVbUhriwuYx3rqqedxdjJU5FoTjTsaryFvneNLn2JEZrnNyxOLn2BOTHfj/RvE6CF9cQvKQWR9H8+jsXZ9Z8fF+dbHvOWDJfVGQXakkmx192LJGwK0fOl17ws5F3WQlVt64nua2T2GOHsZJ5yFvE/9RKclsXoSsb8K+rXBCFPzRNY0lFkCUVQW7cUA9AMptnd1uUnUcH2NMRI5LI0pvI0Zu052Ge4vPlmPKW4om3unnirW4CbgfvWFnN+9bVsXlJGc4J5lYKIUShU0rR2pdm+5E+dhzpZ393gmN9KTpjmUm/n5YF3GxYVMKGRSVsbCphZW0Yr2vii6Ibm0r5yIWLAOiIptl+uJ/th/vYdrifPZ0xlAK/28F5NSFW1IRYUWvvl1cXnfLcQoi5o/IW+f4M+d4M+Uja3nrtvTmQtZd8m4iu4aoJ4F9XSWBT9YLopBJntzOWkTU1NQHQ2to67jFDjw0dO18UfAG8KfBsKKdsRTHJp9tIvdgJpsKK5xj47UEGHm7Bu7oM38ZKXPULax1btw4bGkJsaBh9Qcm0FNG0Qe/g8kKRRI5UzkQphakUlqUwlX2cpRSmpYgkcjz8eiddMbvYYDJnct/ONu7b2UZ50M21q6p59+pqVtWefpEmgKxh8lpbjL5kjtpiL3XFPkr8rnnxO5nPRUWEOFEhx2retMjkLYLzpHjnUPG4V44OsOPoADuPDtCTGKM69ASWVQZY31jM+sZiNjSW0FjqO+k9zcIwrHGff7Jyv5N3rqjgnSsqAIhnDKLpPLVhL/qoQq+nd+4zqZDjVJxdphOrKmdiDuQwo1nMgSzWQBYzmsMcGPw6noPT+BN1lHlx1QVx1Qdw1gdxVQfQXPbnLRMLc57+vYszYz6/r062TZpSagp9jSPdcsst3H333dx555184xvfGPOYY8eODRe4O3To0JgV7RsbG2ltbeWee+6ZVjX76dq6dStbt27FNE327dvHPffcM+8K4J1JnrRO/RE/xf2jhyCl/HkilVn6KnKYzmmH0oJkKTgY09ge0djVq5E2RyfaLl3RGIDmkKK5yC7SFBhjdE0mbxeBOhjXOBjTOJIYXajJrStKPVDmtfelHntf6VNUeUEGAwhRuHImHE3AwbjGoZhdEC5raTQFFVuqLdaWKVxn8G88a8LhuD0v/WBM42gCjFMUpQs4j79HlQ2+R5V5oHTwPetMtl8IMfs0C0IDLvxJJw5Tw5HXcJgauon9tamhD+6d5tTeAPIOi6zXIus1SftNksE8qaApn01FwUqlUtx8881Eo9EJR62fsUv59fX1bNq0iW3btnHPPffw9a9/fcTjzz77LK2trXg8Hq699toz1awxfeYzn+Ezn/kMsViMcDh8VhTAm9T37kiS3t5NZldkeAkPf8pJ42EnjceCeFcO9tYvKpoXPcPzUdYweWpfhN+91sGTe3swTPufjGFpHIzbH9CHLKmwe6dW1hTR0pti+5F+9nTETzk0NWfZ1ZiHqvafyOXQaC4LcE5VcMRWF/ah6xqWpYgkc7T1pzk2kB7eH+vP0BPPsn5RMV+6etmIZZTGM5+Lighxovkcq9G0wStHBwaX1Bxgd1t0+H3jRIcTGocPOPh9m4sPrK/lQ5vqaSobv+DsVCWzeV45OsDLh/t5+XA/rx2Lkp/gTSnocbKuITzc0766LkSRd379jAvFfI5TIU5kGAaPPfoYV6y6BOP1ATK7I6jU9FdH0vxOHMUeHKUenGU+HGVeHGVenGVeNL9TPnuK0zaf31fnZQG8r33ta7z//e/nO9/5Du9617tYv349AL29vXz6058G4LOf/SzhcPhMNuuU5mtRhDPdJldjMf7GYqzrlpB+LULy5Q5yRweLCOUVmV0RMrsiOCt8BDZV499QhWOs7uWzmMvl4rq19Vy3tp5o2uCR1zt5/mCE7Uf6R1VVPtiT5GBPknsnOF9TmZ9NTaUsKvPTHs1wrD/Nsb4UxwbS5PKjh44ZpmJfd4J93QnYffz+gNtBeZGHjmhmzOcN2ded4LmDvWy9eT3n1xdP+jXPt78fIcYy17Han8zxenuU19tivN4W5fX2KEd6J16aprLIQ9Dr5FCPXY9mIG3wk+eO8JPnjrBlaTkfvaiRt59XNeX6HKlcnm2H+3nhYC8vHupld1t0wuJ0DaU+NjSWsKGplI2LSjinqgjHqKHsYjrmOk6FmEh+IEtuRzcrdoWJvfjWpJ6juXQ0jwPd40AvcuMs9uAo9uIo8Qzetr+W+e1itszH99VZLYD3yiuvDCffAAcPHgTgxz/+Mb///e+H77///vupqakZ/vr666/n1ltv5Qc/+AEXXXQRV111FYFAgCeeeIKBgQE2b97MnXfeOZUmiTNIdzsIbKwisLEKozNJclsnyVe6UYPLvOV70kQfbiH6yGF8K8sIbKrGs6QYTT7QjRD2ubhpUwM3bbKnn3TFMuw40s/2w/3sONLHG+2xET1e2uCSShc2l7KpuZQLmkqpDHnHPLdlKSKJLK39aY71pzjam2J/d4K9nXEO9iRG9aQlcybJUyQNQ1r70tz4oxf4xnXn8bGLFp3xK+GGaaFrmiQIYlZlDBO3Qx9jTvXM2X0sylN7u4cT+LaBiZdJA2guD7CpqYRNTaVc0FxKY6k9BWzHkX5+/tJRHnqtg5xpX5B79kCEZw9EqAp5eOfKahZXBFlU5qepLEB9iW/MBD9jmLxytJ8XD/by/MFedh0bGHMkwJDFFQEubC7josWlXNhcRnV47PckIcTCZaUM0nv6SO3sJntwABT4OCHxdmr4VpThW12BI+RG9zoGk3cnmtuB5pD/50JM1ZSS+VgsxksvvTTq/mPHjnHs2LHhr7PZ7Khj7rrrLjZv3szWrVt5/vnnMQyDJUuW8JWvfIUvfOELuN2yNEQhcVUHKH7PEsLvbCL9ei+JlzvJtUTtB01F+rUI6dciOEq9BDZVE9hQhSMkv+OxVIW8XLu6hmtX2xfA0jmTXccG2NsZp77Ex8ZFpYT9k7tKp+salYPLNW1YVDLisVze4nBvkrc64+zrjNv7rjj9yRw1xV7qS/w0lPioL/FTP7hvKPWRzJl89p5X2Hl0gJxp8f/77Ru81NLHd25YPWvDZocqYe9s7R9eQvDNjhhOXWdTcykXLy7jkiVlrKwNycoAYtpaIkme2NvLI2908mrrAF6XzuLyIEsqgywuD7CkMsiSigCLy4NTXmIyY5j8/rUOfvbiEXa1Dkx4rNelc15NiDX1xVzQXMrGphIqi8ZOljc2lbKxqZTbr1vBvdtbueflo8O9+l2xLHe/cGTE8U5do77Ex6KyAE1lfkI+l30h8Wj/hKNzllUGuXAwcb+wefwLikKIhUspRb4nTWZPH+m3eskdiY1ZlM61qIjghmp8q8vRffOjSKcQC82MFMBbqIbmzEciEZkzfxryPWnSO7pJv9qDSp40R0oH76pygu9olKS+AOXyFt97bD8/ff54YtBU5ueHH1rDudVFI46dSqxG0wZ7OuK82jrAq8eivNoapTd56krYQY+TC5pKuGhxKRc1l7K8KjirPaozpT+Vo7Uvjdup43XpeJyOwb2O1+koiNcwJJ7J83q7fSHPqeu4HBouh47boeNy2rddgxdcTEuRtyzypiJv2Ss/2PcpNOyEcSrJcmt/iod3d7H9SD8lftfg0pMBllQEaBijJ1opxe62GI+80clvdxyma4w6E+OpDXtZWhlgTX2YdQ3FrKkPE5qglsSx/jT/ta2Ve3e00Z8aXaE24HZwXk0RK2tDrKwJsao2RHO5f8oXqSxL8dyhXv7r5WM88Vb3lJbVBGgu8w//XV3YXEJZ0DO1E4lpK4T//2LhUqaFcSRO9q1+snsHMPsyYx7nKPXiPr+Ul6Nvctl7rpJYFfPafH5fjcVilJeXn7IAniTzY5Bq9jNDsyDc76Kiy0soOvIPxHRYtDWk6anOQuHkK2LQrl6N/zqoD1fmd2mKGxdbXFihmMyo+4wJnSnoSGl0pLXh2zHj1E+u8ikyeYhOcGzAqVgeVqwoUZxbrCia5PtzNAdv9mu8OaBxOK6hAW4HeBz2soUeh8KtD96nQ8itODesaAjCZPNuw4LX+zW29WjsGdCwJqj87dDs7xdyQ4VXUemFCp+iwmt/HXJP/vvOlmgOnu7Qea5LIzPGSg1T4dQUS0L27+7cYkWNj3Hjqj8LO3s1dkZ0jiYn/llWeKHap6jyQSoPu/s1BnJjP6fap7AURDJgTeJNSsM+b3ORoqlI0RRUVPpg74DGs10ab/RrqJPOU+dXbK62WBqy2zZbv8uEAZ1piGQ0etIakQz0ZOx91hr5TUs9imUhxbKwvS+W3F2IBc2V1SiKuXDmj1eU100N3TqhyrwFvpQDxziV5jNek4GSHANlBslgXj7XCTEDJlvNXpL5CUjP/Mwx+zOkd/SQ2tY1oqKpszZA6L3NuOqCc9g6MRVH+lLc+otdvNkRH77vutXVrKwNkTZMkhmDfYcOU1FdRzavSBsmqVyeo31p2qNjX9E/WdjnZE19mLUNxaxtCLOmzu79VEpxuDfFC4f6eKmljxdb+uhLjr0ep6bB6toQb1tWzmXnlLO6Ljw83960FK+1RXlqb4Sn9vWMeC2nozTg4m1Ly3nbOeVcurSc4pOmQyileOXoAPe/2sHDr3cSz0y/qi/Yw7AXlfppLPVTW+ylOuSlJmxv1SEPlUWeWZt+cKA7wU+eO8Jvd7VPOKd6JlSFPFy6tJxLl9rTKnKmxR/f6OLh3Z3sODowI99DQ7GuoZhrVlbx9vMqWTQ4Fz2Xt2jtT3OoJ8mhSJKDkeTw7VP9Hl0ObdTPxuXQeOfKKj56YSPrGsJzWn1ZKUVvMseR3hS9yRzn1RTRUCIXruerQv3/L+YXpRT5zpTdw/5WP/n25OmfRAfXohCe5SV4lhfjLPeNeFhiVRSK+Ryr0jM/A4aS+VP9EM8kwzB4+OGHufbaa+dd0E2GmTSI/qGF1Pau43dqELiohvA7mtC9MqeqkGQMk28+9Cb/98Wj0z5Xsd/FOVVFLK8qYk1DMesai2kuC0xqqLlSin1dCZ4/GOGFg728cKh33ESrxO/isnMq0DWNp/b10DfOMP6wz4XP5SCVy5M2zEknrLoG6xpLuGJ5BRubSnnhYC/372zjaN/oAoPVIS+XL69A0yBjWGQMc3CzyObtfdowaRtndYLJtKWyyEt12IvP5UChUAoUgAJLKRT2z8/l0FlcEWBZZRHnVBVxTlWQiiLPqGRzx5E+fvTUIR7f0zXifrdD5z1raqkOezBMRS5vYZj2UHrDtMiZFrm8habZw/AduobToeHUNRy6jnPw60Qmz/MHe8ctBqdrDLZ59GPn1YS47vwa3rGymmze5EB3goPdCQ70JDjQnaAlkhzxe3Q7dDYvLePt51ZgHXuND10/+ffVoXoOrxztH972dMTHrfReE/bykQsb+YtNjVQUSXe3OH2F/v9fzB1lWmRbomTe7CP9Zi/mwOiaVqeiB5x4l5XgPa8U7zmlE86Bl1gVhWI+x+pk81DJnMQZ5Qi4KL3xHAIbq+i//wD5rhQoSL7QQfr1CMXXLcF3frmsFVogvC4H37x+NZuaSvnqfbtJ5cxTPqfI42RZVZDl1UUsqyyy91VBKoKjE8fJ0jSN5dX2uf5yczOGabHz6ABP7u3mybe6eavzeI97f8rggVfbxzzPytoQV51byRXnVnJ+ffGIivm5vEU6Z5Iy8qRyJslsnjfbYzy5t5tn90dIDr52S9mVxXcc6R/ze/jdDt65qpob1tVz8ZKySVXlNy1FRzTN4UiKlt4khyP21tKbpLUvNe6FBktBZyxDZ2xyIyFeaukb8XXY5+KcqiDLqopYVOrnsTft+egnKvI6+dhFi7hlc9O4xdlOl1KKgz1JntnXw9P7enjxUC/ZwYsZJ+fKyyqDXHd+LdetqWFJxcgRPitrRy5zmjctjvalONCdQNM0LlpcSpHXZf8z737ttNqoaRqNZX4ay/xcv64OsJdx230syitHB3jlaD97O+MsKvPzkQsX8fbzKqVIoxBi1ilLYfZnMDqS5DqSGB1JsocGUJmx/z+7agN4zyvDVeGzK8t7HOiD+6Hl4jSXVJwXYr6SZF7MCU9TmKpb15F4tp3Y40dQhoUVN+j7r7fwbCvGu7wEZ5kPZ7kPZ4kXzSUfguez962t4+LFZbzY0odT1/C5HLh0xSvbXuTtl72NIr8Hn9uB1+Ug4HbM+sUal0PngmZ76a7b3nkuHdE0T+/t4am9PTx7IEIia/fa+90Otiwt58rBBL5qgsrcbqeO26kT5viV2/Pri/nQBY3k8hbbD/fZFw/29nCgOzHiuZoGm5eUc8P6Ot6xspqA5/Teeh26Nri6gJ8ty8pHPJY3LTthj2Zoj2boGEjTEc3QEbX37QMZIonT74UBuyDhtsP9bDs8+sJEdcjLJy9t5kMXNBI8zddzKpqmsbQyyNLKIH+1pZmMYfJySx/P7LN/fwBXr6jiuvNrWX5S4cWJOB06iyuCLK6YnWk9freTCxeXceHislk5vxBCnMjKmRgdSYyOxOA+idGZQk10Yd2h4VkcxreiDO95pTiLZUUKIQqZJPOTYBgGhjH2fNwzbagd86U90+W9pArXimLiDx0m+5adMGQPDJA9MHD8IA30kBtnmRdHmdeulLo4jKs2MDeNFmMq8Tl414qK4a8Nw6B3DzSVek4YuqTI52dmvvjpKPc7+cC6Gj6wroZc3uK1tiimpVjbUIzHefxC0VT/rjRg06IwmxaF+R/XLONYf5qn90d4vS1Gc7mf95xfQ83w+ttqxv9+q4IuqoIu1tSNndgODXfXtMG6RJqGPnhb0+xCf8mcycGeBPu7kxzoTrB/cOuMjbwQsKwywCe3NHHd6hrcTn1WXs/JHMDFzcVc3FzMbe9YNvK1zcD3Xmjvq2Jhkjg9uynTIt+VxmhLYLQlyB9Lku9Jjbkk3Mk0rwPPOcV4zi3Bvax4eEqjYnbiSWJVFIr5HKuTbZPMmR+DVLOfG+E+F40tfty5yS1J1V2VoW1RCmtqyz0LISYhnbcroXenNYo9sCyk5ryCvhBCLEgKHKaGK6vjztmbL+XAn3DiTzrQJ1j9ZEjWY5L2m6T8JulAnrTfJOu1pMK8EAVGqtnPAKlmf+apvIXRnsTsy2D2ZjD7MuQHb6v06GFjerGH0PWL8SwJj3E2MZcWeqyKhUNiVRQCidOFQymFcSRO7kAUcyCLGcthxXKYsZy9fulk6OCs8OOsD+CqCeCs9uOs8s+LQsISq6JQzOdYnWw1+7n/iy8ALpdr3v2C52ObZoQL3Es8sGT0Q1bKIN+bIXNwgPgTR+159gNZBv5zD4ELqwm/q3le/BMTIy3YWBULjsSqKAQSp4XLjOVIvtJFansX+cjYK3aMx1nmxVVfhLuhCHd9EFdtEN09v4cmSqyKQjEfY3Wy7ZHMRxQM3e/C7XfhbijCv6qcvt/sI9cSAyD5UieZt/op+cAyvOeUzHFLhRBCCCHsue6Zt/pIbusis69v3DnumtuBo9iNI+zBEfLgCNu3naVe3HVBdP/8SjSEEPODJPOiIDnLfVT8t/NJvtRB9A8tqJyFGc0S+Y/X8W+sovjdiydcA1UIIYQQYjZYmTz5SJrUaxFSr3RhJUYXsvIsDuPfWIW7Logj7JGRhUKIKZF3DlGwNF0jeHEt3uWl9N+3f7gCfmp7F5m9/XgWh3EEXehFbhxBN46i47f1gEvWTBVCCCHEaVOWIt+dIt+XId+fwezPDu4z5PuzqPTYq7Y4wm78G6oIbKjCWeY7w60WQixEksxPgixNN88VOQh/fDnp7d0kHjmKyppY8RzpXT3jP0cDZ22A4NWNUjxvlkisikIhsSoKgcTp3LPSedI7ukm92IkVzU3uSQ4Nz7kl+DZU4l4SRtO1WVsSbr6QWBWFYj7HqixNNw2yNF3hcmV1Glv8FPe7J/2cgZIcxxalyPomWUFWCCGEEGcNT1qnssNLWY8HhzX+qD6FIuexyHosch6LVCBPX3kO0yUftYUQp0eWppsBsjRd4VI5EzNhYCUMrLiBlcjZtxMGZtzAjKQxezPHn+DQ8F9YTeDyOplrP0MkVkWhkFgVhUDi9MxSSpE7FCP1fAe5fQOjHncvDeNqKMJR4sFR7MFR4kEvcssUPiRWReGYz7EqS9PNoPm6XMF8a9O84nJBwAtVYz+sLEXq1W6ifzyMFcuBqUg930Hm1R5C1ywisKlG/iHPEIlVUSgkVkUhkDidOqUURmeKfFcSZSlQgLL3Sh3/WmVNkq90k+9KjXi+5tLxb6giuLkWV4WM2DwViVVRKOZjrMrSdEJMQNM1Auur8K0qJ/70MeJPH4O8hZXKM/DAQRIvdFB83WK8y2SZOyGEEKJQmfEcmQMDZPf1kznQjxU//bmxjrCH4CW1BDZVyRJxQoh5RZJ5cVbT3Q7CVy8isKmK6B8ODxfNy3eliPzkdRxhD+7GItyNIXtfF0Rz6nPcaiGEEEKMRRkm2cMxMvv7ye4bwOhMTvlc7kUhgptr8a0sl9F6Qoh5SZJ5IQBnsZeyD59L9pJaBh48iHEsAYAZzZLenSW9O2If6NBw1waHE3xPcxhHaPLF9oQQQggxM8x4DqMzidExuHUmMbpTYI5dDkpz63gWF+NpDqG5HaBpoIE2uB/6Gl3DVenHXRc8o69HCCFOlyTzQpzAsyhE5afXknq1m9T2LnLH4qjcCVXuTUWuNU6uNQ7PtYMGvlXlBLfU4W4ssj8QCCGEEGLGqLyF0Z2yk/UTkncrcYoh8xq46oJ4l5XgXVaMuzEko+uEEAuKJPNCnGRoPn1gfRXKVBhdSXJH4+SOxsi1xsn3pI8frCC9O0J6dwRXQxFFW2rxrSpHc8iHBSGEEOJ0KKWw4rnjvezDve1psCax+JIOzgo/7oYivOeU4FlSjCMgc9yFEAuXJPOTYBgGhnH6BVNmw1A75kt7zgZahQdPhQfPhnIArJSBcSxB7nCczM6e4Z4BozVO33/tRQ+14L+wCt+mqrN6mTuJVVEoJFZFIVhIcaryFmZ/lnwkjdmTJt+bwYykyUcyqFR+UufQ/E5c1X6c1X6cVX6c1QGcFT401/GL6RZgLYCfV6FZSLEqFrb5HKuTbZOsMz+GrVu3snXrVkzTZN++fdxzzz34/bIEiRhNs6A04qayw4s/NTJxN3VFb0WW3oosqaBpz8MTQgghFjIFDlPDldNw5XRcho4rp+PO6bizOt60A09GR5vkP0WlKdI+k7T/hC2Qx3Ap+b8qhFiwUqkUN9988ynXmZdkfgKxWIxwOEwkEpnwh3gmGYbBY489xtVXXz3v1kM8mymlMFpiJJ/vJLev316r9gRawIlnaTGec4pxLy1G9y/8HnuJVVEoJFZFIZhvcaoshRlJY7QnMdqS5DuTWLEcZtwAwzr1Ccagh9w4K30n9Lb7cZb7ZJ57gZlvsSrEeOZzrMZiMcrLy0+ZzC/8jGIGuFyuefcLno9tOtu5l5cTWF6OEUmTeK6N1I6u4eJ5KpknsytCZlcENHA3hvCeW4J3eSmumsCCLpwnsSoKhcSqKARzEafKUuQjaYy2BLljcXJtCYz2xMgCsZOkuXSc5T6cFT6cFX5cg3tnuQ/d45iF1ou5Iu+polDMx1idbHskmRdihrnKfZS8bynhqxeRfr2X9N4+svsHUDnTPkBB7kiM3JEYsUeOoPud9geZCp/9oabcvu0s80ohPSGEEHMi35smc2CA7IEBsgcHsCYxl13zOXGE3DiK3PZ+8LYe8ti3w/Ze0xfuBWwhhDiTJJkXYpbofheBC6oJXFCNyltkD8fI7O0js7ePfPfxivhWKj+c3I88AThL7d4L36py/Osq5QOQEEKIWWGlDDIHo2QP9JPZP4DZl5nweEexB3d9EFd9Ee66IO66ILp/fvVsCSHEQifJvBBngObU8S4txru0GN692O7x2NdP5q0+cu1JrHhu9JMsyEfS5CNpMnv6iD9zjPA7m/CeW7qgh+ULIYSYXcpS5HvT5I4lMFrjZI/GMNoSo+q9DNG8TjzNIdwNRbjri3DVBWXJNyGEmAckmRdiDjjLfAQv9hG8uBYAK5O3E/eeNEZPavh2PpJGDRYSynel6L37TdzNIcLvasbTOD+KMgohhJi/lFKY/dnjc91b7b3KmuM/yaHhWRTCs7QY77ISXHVBGRkmhBDzkCTzQswDuteJu97u8TiRshTZliixPx4m1xoHINcSo+dfduFbXU7oHU24yn1z0WQhhBDzgFIKK5XH7M9gDmTJ92fsNdxP2E+YuA9yVfvxLC3Bs6wYT3MY3S3F6IQQYr6TZF6IeUzTNbxLivF8eg3p13uJPXKYfMSeb5/eHSH9Ri+BC6oJXdmAHpSiQkIIsaApMAeyGB0D5Frj5FrjGB3JSSXrJ3KE3PZc94Yg7roi3PUy310IIQqRJPOTYBgGhmHMdTMAhtsxX9ojzhzXuWFKl60mvaOb5JNtWAkDLEXyxQ6SL3bYB2mAroGu2Yn90N6h4W4qIvC2OpxV/jPSXolVUSgkVsV8ZaXzGG0JjGMJcq1xzm8pJvLizsmfwKHhCLtxlHlx1QVx1QVx1gVwFLlHHGYCpsS/mCHynioKxXyO1cm2SVNKjVPu5Oy1detWtm7dimma7Nu3j3vuuQe//8wkQEJMhm5CVbuXqnYfDuv0euP7S3N01KdJB06vJ0cIIcTk6XlAA2uSo9U1C3xJB4GEc3jzZk795KzHJOu1yHpMch6LnMci67HIeUwMt7Iv8gohhCgoqVSKm2++mWg0Sig0fp0sSeYnEIvFCIfDRCKRCX+IZ5JhGDz22GNcffXVuFwyJO5sZyZypJ7tsKsQW6AsCyzAVChLweBmpfKjhmF6zishcHk9rtrArLRNYlUUColVMR3KUph9GfKdKfKdKYzOJPnOFFbUXqVEc+voARd6kQs96EYPuoY3zaFhtCcxjiXId6bAnPgjWd5h4Wsqxt1QhKve7mnXgxKzYn6R91RRKOZzrMZiMcrLy0+ZzMsw+0lwuVzz7hc8H9skzjxXiQvve5ae8jgrZ5J8qZP4M61YcXvYTnZPP9k9/XjPKyV0ZSPuhqJTnGWKbZRYFQVCYlWcTCmFypqYCQMraWAlDMxkDitp2BXiO5LkO5PDq46MeY6chZnLYvZnT++bOzTctUF7ObiGIrQaL4+++CTXvvsSiVNREOQ9VRSK+Rirk22PJPNCnAV0t4OiS+sIXlRN8uVOYk8fw4rZvUaZPX1k9vTZFYyXFOOuDeKqGT2nUgghFhqlFFbSIN+bsZcE7U0P7jNY8Rxm0jhlb/lYNI8DV3UAzaFhJnJYCQMrlZ/wOc4K33Di7q4vwlUTQHPqw48bhiFD5oUQQowgybwQZxHN5SC4uY7ABTUkt3cSf6oVc3AoaHb/ANn9A8PH6kEXrtog7poArtoArpogzjIfmkM+TQohCpOVMkjt6iF7ODacuKvM9OqHOMq8uKsDuGrs90lXTQBHiQdNG/leqfKW3cMfz2HGc5iJHCpn4ary464vQvfJRzIhhBCnR/5zCHEW0lw6wYtrCWyqJrmji/iTrZgDI4eAWgmD7L5+svv6j9/p0HCW+XBW+HBV+HBW+O3b5T5Z1kgIMS8pU5HZ309qRxfpN3sn19OugR504wgMzm8PuHAM7vWgy76/yI2ryo/umdxHKc2p4yz2QLFnmq9ICCGEsEkyL8RZTHPqBC+sIbCpmnx3ilx7AqMjaW/tidHDQk1FvjtFvjtF5qRz6UEXznIfjmIPjrAHLegk3OfCaE+il/nRA65RPVVCCDFbjM4kyVe6SL3SbS/leTINHGEPznKfvZX5cJZ77dsl3hFD3IUQQoj5SJJ5IQSaruGqDuCqPl7ZXimFGcthnJjgd6fI96YhP7pny0oY5E76wLyUIvr27ra/cGr2B+cynz10vyaAqzaIs9yHpkuSL4QYm7IU+Uia3JEYudY4ZjyH5tLRnLq9dznsvVtHczpQpkV6d8Re5eMketCFf20l/rUVuKoCaC5J2IUQQhQuSeaFEGPSNA1n2IMz7MF3Xtnw/cpSmP0ZjEiafE+afE+KfE8aoyeNFc+Nf8K8wuzNYPZmRg7dd+q4qv24B+eaumoDuOuK5EO2EGcpK2WQO5YgO5i8547GUZmJi8dNyKHhO7cU/4YqvMtL0Bzy3iKEEGJhkGReCHFaNH1w3nyZD5aPfMzKmZjRLOZAllxfij3bX2dpVRNWzBi+/+T17slbGMcSGMdO6EVzaLgbivAsDuNpDuNeFEJ3O2b/xQkhZpwyFbkjMdJv9WH2Z1CmAtNCWQpMhTLV4G0LlTXJ9548iWdqXHVBAhuq8K2pwBGQmh5CCCEWHknmhRAzRnc70Cv8uCr8OIwgnZ0Z1l+7eHitTKUUZjSH0ZHAaE9idNpz80d9eDcVucMxcodjxGkFXcNdH7QT+8Vh3PVF8uFciHnMyplk9/WTfrOXzFt9p1yWbSJ60IW7MYS7sQhPYwhnhQ9lWqichTIslGEO7ge3vIW7Ljhi2pAQQgixEEkyL4Q4YzRNw1nswVk8cui+lTXtxL4jQa41QbYlitl3QoJvKXJH7eG2PH0MAN3vxFHmw1XmtfflPhxlXqmsL8QMUEqh0nnMpIE1uClLHZ+fPjhXXR+eq66jDIv03j4yb/aROdA/Zm2NCTk0NIeOs9KHZzB5dzeGxlzmTQghhBCSzAsh5gHd48CzKIRnUQgusu/LR7PkWqJkD0XJtkTJ96RHPMdK5bFScYzW+Ojz+Z24F4XwnlOCZ2mxXWRvBpIBZaoRvYCaxyEjBMScUnkLK2nYSXcqj5Uy7C05dNveK1OBrqFpgKaBroFmT5tBAxSDzxs8VzIP1mkm4+PQ3A68y0vwrijDsyhk18PQNTSHvaHroCMJuxBCCHGaJJmfBMMwMIwxlrWZA0PtmC/tEWI8045Vv45rZQmulSUEATORwzgcJ3c4htmTJt+bwYqOXXDPSuXJ7Okjs6cPAD3sxr00jGeJPUxfPyEBV5bCiuXIDxbnM/sG9/1ZVG7k8N2xkhtHhQ93cwj34hDuptCIc4vCMBvvq2YsR74zicorO2l2aMNJtKZz/LYGaiislAKFvWHfVgpUKo+VyGHGDax4DmtwbyYM1DSGr88mvciF59wSPOeV4m4ODS/zNvzyTvzKssCam3YWEvn/LwqFxKooFPM5VifbJk0pNTOX3heQrVu3snXrVkzTZN++fdxzzz34/f65bpYQ4iSaCZ6sA09Gx5ux9560A1/KgSs/dsVqhSIVMDHcln18xoGuZq5HMOXPEw/liYcNEqE8plPeYhc6R17Dn3AQSDjxJ5wEEk7cRmFWTLc0Rd5lkXcp8k6F4bLIO+37lAa6BZqloVsausXg3r6tKY1kMM9AaY5UwLR7/IUQQghx2lKpFDfffDPRaJRQKDTucZLMTyAWixEOh4lEIhP+EM8kwzB47LHHuPrqq4eLigkxH81lrCpLke9MkTsYtbcjsanN3/U6jq9n7XacsK61Dk4dK5q117Ier1dRAz3gQvM70f1OdL8LPXB8r/ld6H4nmteB7nWi+Qb3zvETQZW3sNJ5u7c2nbcLiymFs9qPo9Q7b4cqm/0Zci0xu5jh4jCOkPvMt2EgS+5wDONIHCtpoAdd6EEXyufgtYNvsH7zRtwlfvt35tLteeNZEzX4cx7a1ODwdbMvg9GWxJyh6uunxaGhF7lwFLnRA66RceZzDt52DcadE5y6PbJEAWqwevzg7aGucs3ntOe/z9MYOtvJ/39RKCRWRaGYz7Eai8UoLy8/ZTIvw+wnweVyzbtf8HxskxBjmatYdS9y419UDFeCMkyyLTEyB/rJ7h/A6EjaBzk1nKU+nOU+nGXewb0PZ7kXR8hjzyc+BSubJ3s4RvZglOzBAYz2xPFxxAqshAEJA3PCs4ykuXQ0nxPd60T3OlCGZSeSaQOVG388suZ14q4PDm5FuOqDOMKji4cpS9nDtmPHN5UzcZZ6cVb5cZb67GHh02Cl82QPDpDZ30/mwMCohNdZ5cd7Told16ApbF8gmUFKKfI9abItUbv2QksMM5od9/ilFBHbu3f4a83jQOUtME//erfmceCuD+KqL8Lhd9qJs8Xg3t6UspdlQ2H3YGuDc9cHb9u/Mvs+3etED7lxDCbvjiK3nXhL0n1Wkv//olBIrIpCMR9jdbLtkWReCLHgaS7HcOIIYCYNlGFOOmGfiO5x4lteim95KTCYxLbYiX32aNye45w07Dn3k2TP0c9hxcauCTDu8zJ5sgcGyB4YON6+oAt3XRB0DTNuJ+5WPHfixOXRHBrOch+uSj/OSj+uSj+uKj+632nP71Z2copSx79WYCVyZAa/f641PuH3yHelSHSlSPy5Dc2l424O27+jpcU4Qm40lwOc2oQJq5UzsYYuSMSzwxcm8n0ZcodjWMmpz4FT2UlefnFquGuCuBvsiyfu+iK74OI040oIIYQQ4lQkmRdCnHXsCvSzcwVW9znxrSjDt6JsxP1WzrR714eW+kodr0Cu0oND5jOD+/TgfZm83RPv0NB9Jw6bPj58Wve7IG+Ra0uQOxbHio9MYK2EQWZv/+m9CFOR70qR70pN98dhc2i4G4vwLi1BmRaZ/QMYx44n+8qwyO7rJ7uvn+iJz9MYnOKgH18Sze1AGaY9miAz+fEOmkvHvSiEpymEuzmMs8xnV26P5zAG0uzZ8TpLa5shZZ/bShpoLt0ewu4/6WcfcOHwO9GL3Lgq/RNOixBCCCGEmC2SzAshxBmgux3obgcUe07refaSYpNftsuMZskdi5M7lhjeq/RgxXMN9KAbR+jEzTPYE65j9KTJ96QwulLkI+kpDTEf4qz0411WjGdZCZ7mMLrHMfxY+Bp7dET2wACZff1k9vePPQpBcXwlAU6varvmdeBpCuNptpN3d21wdNI9+LtwGgadXRnWX9s874bZCSGEEEKMR5J5IYSYx0537roj7MEX9uBbWQ7Yc8fNaBZN19AD7kmfT5mKfF+afHcKoztFvjuNlTNHr1M+PNdbs3u/G4rsofLhiS9aOAIu/Gsq8K+psOe3d6XI7Osn1xpH5UysnIXKWyctD2iichaaQ8MRctvzyEMeex75yRcoSr0y1F0IIYQQC5ok80IIsYBpmoaz2Hv6z3NouCr8uCr8+FbOQsNO/F6ahqs6gKs6MLvfSAghhBBiAZGJfkIIIYQQQgghRIGRZF4IIYQQQgghhCgwkswLIYQQQgghhBAFRpJ5IYQQQgghhBCiwEgyL4QQQgghhBBCFBhJ5oUQQgghhBBCiAIjybwQQgghhBBCCFFgJJkXQgghhBBCCCEKjCTzQgghhBBCCCFEgZFkXgghhBBCCCGEKDDOuW5AITAMA8Mw5roZAMPtmC/tEWI8EquiUEisikIgcSoKhcSqKBTzOVYn2yZNKaVmuS0FZ+vWrWzduhXTNNm3bx/33HMPfr9/rpslhBBCCCGEEGKBS6VS3HzzzUSjUUKh0LjHSTI/gVgsRjgcJhKJTPhDPJMMw+Cxxx7j6quvxuVyzXVzhBiXxKooFBKrohBInIpCIbEqCsV8jtVYLEZ5efkpk3kZZj8JLpdr3v2C52ObhBiLxKooFBKrohBInIpCIbEqCsV8jNXJtkcK4AkhhBBCCCGEEAVGknkhhBBCCCGEEKLASDIvhBBCCCGEEEIUGEnmhRBCCCGEEEKIAiPJvBBCCCGEEEIIUWAkmRdCCCGEEEIIIQqMJPNCCCGEEEIIIUSBkWReCCGEEEIIIYQoMJLMCyGEEEIIIYQQBUaSeSGEEEIIIYQQosBIMi+EEEIIIYQQQhQYSeaFEEIIIYQQQogCI8m8EEIIIYQQQghRYCSZF0IIIYQQQgghCowk80IIIYQQQgghRIGRZF4IIYQQQgghhCgwkswLIYQQQgghhBAFRpJ5IYQQQgghhBCiwEgyL4QQQgghhBBCFJgFmczfd999bNmyhfLycjweD4sXL+aLX/wi/f39c900IYQQQgghhBBi2pxz3YDZ0NfXx+WXX86Xv/xlwuEwu3fv5o477mDXrl088cQTc908IYQQQgghhBBiWhZkMv/JT35yxNeXX345Xq+XT33qUxw9epTGxsY5apkQQgghhBBCCDF9C3KY/VhKS0sBMAxjjlsihBBCCCGEEEJMz5SS+b179/LDH/6QW265hdWrV+N0OtE0jW9+85uTev69997L5ZdfTklJCYFAgDVr1vDd7353xhNt0zTJZDJs376dO+64g2uvvZYlS5bM6PcQQgghhBBCCCHOtCkNs//Rj37EXXfdNaVv+PnPf5677roLp9PJlVdeSTAY5E9/+hO33XYbDz74II8++ig+n29K5z5ZWVkZ0WgUgGuuuYZf/epXM3JeIYQQQgghhBBiLk2pZ37VqlV86Utf4uc//zl79uzhYx/72KSe98ADD3DXXXcRDAZ56aWXeOSRR/jNb37D/v37Wb16Nc8++yy33377iOf853/+J5qmnXL79a9/Per7PfXUUzz33HP867/+K2+++Sbvec97ME1zKi9ZCCGEEEIIIYSYN6bUM39ygTldn9w1gW9961sAfOUrX2H9+vXD95eXl/Mv//IvXHrppfzzP/8zt99+O+FwGID3v//9XHTRRac8d11d3aj71q5dC8All1zC2rVrueiii7j//vu58cYbJ9VeIYQQQgghhBBiPjpj1ezb2trYtm0bADfffPOox7ds2UJDQwOtra08/PDDfPjDHwYgHA4PJ/bTsX79ejRN48CBA9M+lxBCCCGEEEIIMZfOWDK/c+dOwK4q39zcPOYxGzdupLW1lZ07dw4n8zPlueeeQynF4sWLxz0mm82SzWaHvx6ab9/X1zdvquAbhkEqlaK3txeXyzXXzRFiXBKrolBIrIpCIHEqCoXEqigU8zlW4/E4AEqpCY87Y8l8S0sLwIRrvDc0NIw4dqre8Y53cNVVV7Fy5Uo8Hg87d+7kn/7pnzj//PO5/vrrx33et7/9be64445R94938UEIIYQQQgghhJgN8Xh8wlHqZyyZH7q6EAgExj0mGAwCEIvFpvW9LrjgAv7v//2/wxcFmpqa+PSnP80Xv/hF3G73uM/76le/yhe/+MXhry3Loq+vj7KyMjRNm1abZkosFhuejhAKhea6OUKMS2JVFAqJVVEIJE5FoZBYFYViPseqUop4PE5tbe2Ex52xZP5MuvPOO7nzzjtP+3kejwePxzPivuLi4hlq1cwKhULzLuiEGIvEqigUEquiEEicikIhsSoKxXyN1cnUjZvS0nRTUVRUBEAymRz3mEQiATAvf5hCCCGEEEIIIcR8ccaS+aamJgBaW1vHPWbosaFjhRBCCCGEEEIIMdoZS+bXrVsHQG9v77gF7rZv3w4wYg16MZLH4+Ef/uEfRk0HEGK+kVgVhUJiVRQCiVNRKCRWRaFYCLGqqVPVu5+EW265hbvvvps777yTb3zjG+Med8EFF7Bt2za++c1v8vWvf33EY88++yyXXnopHo+Hrq6uGVlbXgghhBBCCCGEWIjOWM88wNe+9jUAvvOd7/DKK68M39/b28unP/1pAD772c9KIi+EEEIIIYQQQkxgSj3zr7zyynDyDXDw4EEikQj19fXU1dUN33///fdTU1Mz4rmf+9zn+MEPfoDL5eKqq64iEAjwxBNPMDAwwObNm3nsscfw+XzTeElCCCGEEEIIIcTCNqVk/qmnnuKKK6445XEtLS1jFrP71a9+xdatW3n11VcxDIMlS5bw0Y9+lC984QsTrgMvhBBCCCGEEEKIKQ6zv/zyy1FKnXIbryr9TTfdxNNPP000GiWVSrF7925uu+22szKRv/fee7n88sspKSkhEAiwZs0avvvd72IYxpTOt2PHDj74wQ9SVVWF1+ulubmZv/u7v6O7u3uGWy7ONjMVqzt37uTb3/42V111FVVVVbhcLkpKSrj00kvZunXrlGNfCJj599QTPfzww2iahqZpvP3tb5+B1oqz2WzE6m9/+1ve+973Ul1djdvtprKykksuuYR//Md/nMGWi7PNTMZqMpnk29/+Nhs3biQUCuFyuaiurua6667jd7/73Sy0XpwN9u7dyw9/+ENuueUWVq9ejdPpRNM0vvnNb07rvI8//jjXXnst5eXl+Hw+zj33XL7+9a8PL6c+LygxZz73uc8pQDmdTnXNNdeoG264QRUXFytAbdmyRaVSqdM637333qucTqcC1KZNm9RNN92kFi9erABVVVWl9u/fP0uvRCx0MxWrhmEoQAEqGAyqK664Qn3oQx9SW7ZsUQ6HQwHqggsuUP39/bP7gsSCNNPvqSfq6+tTtbW1StM0BairrrpqBlsuzjYzHavZbFZ98IMfVIDy+XzqyiuvVB/+8IfVFVdcoSorK1VZWdksvRKx0M1krEYiEbVixYrhzwDXXHONuummm9T69euHPxvceuuts/hqxEI1FKcnb3feeeeUz/n9739fAUrTNPW2t71NffCDH1TV1dUKUMuXL1c9PT0z+AqmTpL5OXL//fcPv5nt2LFj+P6enh61evVqBai///u/n/T52tralN/vV4D68Y9/PHx/Pp9XH/3oR4cTfMuyZvR1iIVvJmPVMAy1YcMG9atf/UplMpkRj7322muqpqZGAeov//IvZ/Q1iIVvpt9TT/aRj3xEORwO9bd/+7eSzItpmY1Y/fjHP64Adf3114/6gGmapnrhhRdmpO3i7DLTsXrrrbcqQG3YsEH19vaOeOyhhx4a7pCSeBWn69/+7d/Ul770JfXzn/9c7dmzR33sYx+bVjL/yiuvKE3TlMPhUA8//PDw/clkUl111VUKUB/4wAdmqvnTIsn8HNm0aZMC1De/+c1Rj/35z39WgPJ4PGpgYGBS5/vyl7+sAPX2t7991GPxeFyFw2EFqD/+8Y/Tbrs4u8x0rE7kZz/72XDPUi6Xm/b5xNljNuP0vvvuU4D68pe/rH76059KMi+mZaZj9fHHH1eAWrVqlbxvihk107G6atUqBahf/epXYz5+9dVXK0B9//vfn1a7hfjEJz4xrWR+aKTTJz/5yVGPHT58WOm6rgC1Z8+e6TZ12s7o0nTC1tbWxrZt2wC4+eabRz2+ZcsWGhoayGazPPzww5M65/333z/u+YLBIO9973sBuO+++6babHEWmo1Ynci6desASKfTRCKRaZ9PnB1mM04jkQh/8zd/w/Lly2XesZi22YjVH/7whwB8/vOfx+VyzVxjxVltNmLV6/VO6rjy8vLJN1SIGZbL5XjooYeAsWN/0aJFbN68GTief80lSebnwM6dOwEoLS2lubl5zGM2btw44tiJxONxDhw4MOJ50zmfEENmOlZPZf/+/QC43W5KS0unfT5xdpjNOP3bv/1bIpEIP/nJTyb9QVSI8cx0rJqmyRNPPAHA2972Njo7O/lf/+t/8bd/+7d8/vOf5+67755fhZpEwZiN99V3vetdAPzP//k/6evrG/HYww8/zJNPPkl1dfVwB5QQc2Hfvn2kUimgMPIq51w34GzU0tICQGNj47jHNDQ0jDh2IocPHx6+Pd45T+d8QgyZ6VidiFKK7373uwBcd911eDyeaZ1PnD1mK05/8Ytf8Otf/5rPfe5zw1fhhZiOmY7VQ4cODSfrL774Ip/+9KdHJe9f/vKX+cUvfsGVV1451WaLs9BsvK/edtttvPzyyzzyyCPDvZvFxcUcOHCAHTt2sHnzZn7yk58QDoen/wKEmKKheC4uLqaoqGjMY+ZTXiU983MgHo8DEAgExj0mGAwCEIvFJn2+ic55OucTYshMx+pE7rjjDl544QWCwSDf+c53pnUucXaZjTjt7OzkM5/5DEuWLOFb3/rW9BspBDMfq729vcO3//qv/5oNGzawbds24vE4r776Ktdeey09PT28733vGx75JMRkzMb7aiAQ4MEHH+RLX/oSyWSSRx55hF/+8pfs2LGDsrIy3v72t1NXVzf9xgsxDWfys+9MkGReCDHn/s//+T/84z/+I7qu8x//8R8sW7ZsrpskznKf+tSn6O/v59///d/x+/1z3RwhxqSUGr5dV1fHI488wsaNGwkGg6xZs4bf/e53rFq1ikQiIRdJxZzr6Ohg8+bN/PCHP+Sb3/zm8MiSl19+mQ0bNnDHHXewZcuWEZ1UQoiJSTI/B4aGbCSTyXGPGRomFwqFJn2+ic55OucTYshMx+pY7r33Xv7qr/4KgH/7t3/jgx/84JTOI85eMx2nd999Nw8++CB/8zd/w+WXXz4jbRQCZvf//y233DJqepLD4eC///f/DsDjjz9+2u0VZ6/Z+P//iU98gm3btnHnnXfyta99jebmZgKBAJs2beL3v/89q1evZteuXXzve9+b/gsQYorOxGffmSRz5udAU1MTAK2treMeM/TY0LETWbRo0fDto0ePsnr16mmdT4ghMx2rJ7vvvvu4+eabsSyLH//4x8NJvRCnY6bjdKg67bZt20Yl852dnQDs2LFj+LFf/OIXVFdXn16jxVlppmO1qakJTdNQSrF48eIxjxm6v6Oj4/QaK85qMx2rbW1tPPbYYwB8+MMfHvW4y+XixhtvZPfu3Tz++OPccccdp99oIWbAUDwPDAwQj8fHnDc/n/Iq6ZmfA0PLb/X29o5bOGH79u0ArF+//pTnC4VCLF26dMTzpnM+IYbMdKye6IEHHuBDH/oQpmnyox/9iP/23/7b9BorzlqzFafbt2/n6aefHrHt3bsXsP/JD92XyWSm+QrE2WKmYzUYDLJ8+XKAcZfzHLp/aI6nEJMx07F69OjR4dvj9WYOFb47udK9EGfS8uXLh6fXFUJeJcn8HKivr2fTpk0A3HPPPaMef/bZZ2ltbcXj8XDttddO6pzvf//7xz1fIpHgwQcfBOCGG26YarPFWWg2YhXgwQcf5KabbiKfz/OjH/1oeBioEFMx03H6wAMPoJQac/vpT38KwFVXXTV833y4Mi8Kw2y8pw5NTRpvGP1Qb+gFF1wwlSaLs9RMx+qJhe1eeumlMY958cUXAcZdCk+IM8HtdvPud78bGDv2jxw5wvPPPw8cz7/mlBJz4v7771eACgaDaseOHcP3RyIRtXr1agWov//7vx/xnPvuu08tX75cXXnllaPO19bWpvx+vwLU//7f/3v4/nw+rz72sY8pQG3atElZljV7L0osSDMdqw899JByu91K0zT14x//eNbbL84OMx2n4/npT3+qAHXVVVfNWNvF2WWmY7Wnp0eVlJQoQP3rv/7riMf+67/+S2mapgD10EMPzc4LEgvWTMfqpk2bFKDOO+881dLSMuKxn/3sZ8Ox+rOf/WxWXo84e3ziE59QgLrzzjvHPeaHP/yhWr58ufrYxz426rEdO3YoTdOUw+FQf/jDH4bvTyaT6qqrrlKA+sAHPjArbT9dkszPoVtvvVUByuVyqXe+853qAx/4gCouLlaA2rx5s0qlUiOOH/oQuWjRojHP96tf/Uo5HA4FqAsvvFD9xV/8hVq8eLECVFVVldq/f/8ZeFViIZqpWO3q6lIej0cBqr6+Xn3iE58Yd+vp6TmDr1AsBDP9njoWSebFTJjpWH300UeV1+tVgFq5cqW68cYb1bp16xSgAHX77befgVclFqKZjNXdu3er8vJyBSiv16suv/xydeONN6qVK1cOx+pHP/pR6XgSp23Hjh3qwgsvHN6G4qy+vn7E/e3t7cPP+Yd/+AcFqMsuu2zMc37/+99XgNI0TV1++eXqpptuUjU1NQpQy5cvnzefUyWZn2O//OUv1dve9jYVCoWUz+dTq1atUt/5zndUNpsddexkPnhu375d3XDDDaqiokK53W61aNEi9ZnPfEZ1dnbO4qsQZ4OZiNWWlpbhf9in2k6+ai/EZMz0e+p4z5FkXkzXTMfq3r171Sc+8QlVV1enXC6XKisrU9dee6165JFHZvFViLPBTMZqZ2enuu2229T555+vAoGAcjqdqqKiQr3jHe9Qv/zlL2f5lYiF6sknnzztz5anSuaVUuqxxx5T73znO1VpaanyeDxq2bJl6qtf/aqKxWKz/6ImSVPqhEVKhRBCCCGEEEIIMe9JATwhhBBCCCGEEKLASDIvhBBCCCGEEEIUGEnmhRBCCCGEEEKIAiPJvBBCCCGEEEIIUWAkmRdCCCGEEEIIIQqMJPNCCCGEEEIIIUSBkWReCCGEEEIIIYQoMJLMCyGEEEIIIYQQBUaSeSGEEEIIIYQQosBIMi+EEEIIIYQQQhQYSeaFEEIIIYQQQogCI8m8EEIIIYQQQghRYCSZF0IIIYQQQgghCsz/H7zMSfDtSZerAAAAAElFTkSuQmCC;" vertex="1" parent="1">
          <mxGeometry x="470" y="145" width="869.48" height="515" as="geometry" />
        </mxCell>
        <mxCell id="NF88TdcVxK6JHxtNJrKi-3" value="" style="shape=image;imageAspect=0;aspect=fixed;verticalLabelPosition=bottom;verticalAlign=top;image=data:image/png,iVBORw0KGgoAAAANSUhEUgAAAXAAAAKZCAYAAAChunDoAAAAOXRFWHRTb2Z0d2FyZQBNYXRwbG90bGliIHZlcnNpb24zLjcuMiwgaHR0cHM6Ly9tYXRwbG90bGliLm9yZy8pXeV/AAAACXBIWXMAAA9hAAAPYQGoP6dpAABAz0lEQVR4nO3deXhU9dn/8c8kmUz2BAiEJQm77KKsIqAoixIVqrSPLWLFpWj7+FiXto8LKqBPsau/2lqXFheK1rpUUHEhoLLJKouyrwkhrAlkJ5NJMr8/LFR6zgQCmXPmzLxf1+V1mfs7IXdmkg+Huc85X5ff7/cLAOA4UXY3AAA4NwQ4ADgUAQ4ADkWAA4BDEeAA4FAEOAA4FAEOAA4VY3cD56O+vl4HDhxQcnKyXC6X3e0AwHnz+/0qLy9X27ZtFRXV8DG2owP8wIEDysrKsrsNAGhyBQUFyszMbPAxjg7w5ORkSd98oykpKTZ3Exl8Pp8WLFigMWPGyO12290OgozX23plZWXKyso6lW8NcXSAn3zbJCUlhQC3iM/nU0JCglJSUviFjgC83vY5m7eFGWICgEMR4ADgUAQ4ADgUAQ4ADkWAA4BDEeAA4FAEOAA4FAEOAA5FgAOAQxHgAOBQBDgAOBQBDgAORYADgEMR4ADgUAQ4ADgUAQ4ADkWAA4BDEeAA4FAEOAA4FAEOAA5FgAOAQxHgAOBQBDgAOBQBDgAORYADgEMR4ADgUAQ4ADgUAQ4ADkWAA4BDEeAA4FAEOAA4FAEOAA5FgAOAQxHgAOBQBDgAOBQBDgAORYADgEMR4ADgUAQ4ADgUAQ4ADkWAA4BDNTrAt2/frj/+8Y+aPHmy+vTpo5iYGLlcLj355JNn/NyFCxcqJydH6enpio+PV/fu3fXII4+ooqLinJoHgEgW09hPeO655/SHP/yh0V/o6aef1v333y+Xy6Xhw4crIyNDS5cu1S9/+Uu98847WrZsmdLT0xv95wJApGr0EXjv3r31s5/9TK+99pq2bt2qm2+++Yyfs379ej3wwAOKjo7W/PnztXjxYr355pvavXu3Ro4cqe3bt+uuu+46p28AACJVo4/A77jjjtM+joo6898BM2fOlN/v16233qqxY8eeqickJGjWrFnq1KmT3nnnHW3btk3du3dvbEsAEJGCPsSsqanR/PnzJUkTJ040rLdv315Dhw6VJL377rvBbgcAwkbQA3zHjh2qqqqSJA0YMMD0MSfr69evD3Y7ABA2gh7ge/fulSSlpaUpOTnZ9DFZWVmnPRYAcGaNfg+8scrLyyVJiYmJAR+TlJQkSSorK2vwz/J6vfJ6vac+Pvl4n88nn893vq3iLJx8nnm+IwOvt/Ua81wHPcCb0syZMzV9+nRDfcGCBUpISLCho8iVm5trdwuwEK+3dU6+5Xw2gh7gJ982qaysDPiYkxfypKSkNPhnPfTQQ7r//vtPfVxWVqasrCyNGTPmjJ+LpuHz+ZSbm6vRo0fL7Xbb3Q6CjNfbemd6J+Lbgh7gHTp0kCSVlJSovLzc9H3wgoKC0x4biMfjkcfjMdTdbjc/XBbjOY8svN7WaczzHPQhZrdu3U69vbF27VrTx5ys9+vXL9jtAEDYCHqAx8bG6pprrpEkvf7664b1/Px8ffHFF5Kk66+/PtjtAEDYsORuhA8++KBcLpdefvllffzxx6fqVVVVuv3221VXV6cJEyZwFSYANEKj3wNft26dfvKTn5z6ePfu3ZKkF154QR988MGp+rvvvqs2bdpI+uatkd/97ne6//77lZOTo8svv1ytWrXS0qVLdfDgQXXr1k3PP//8+X4vABBRGh3gZWVlWrVqlaG+f/9+7d+//9TH3z5fW5Luu+8+9enTR7/73e+0evVqVVZWKjs7Ww899JAeeuihgBf5AADMNTrAR4wYIb/ff05fbNSoURo1atQ5fS4A4HTsyAMADkWAA4BDEeAA4FAEOAA4FAEOAA5FgAOAQxHgAOBQBDgAOBQBDgAORYADgEMR4ADgUAQ4ADgUAQ4ADkWAA4BDEeAA4FAEOAA4FAEOAP+yZMdRbSostbuNs9boHXkAIBzV1/v16LxNyi+uUt+sNN00OFvXXdhW8bHRdrcWEEfgACBp+e4i5RdXSZI2FpToF29/pUG/XKg5K/Nt7iwwAhwAJL22cp+hVl5dq/SkWBu6OTsEOICId7isWrlbDxvqrZI9Gtkjw4aOzg4BDiDivbmmQHX1fkP9xoFZckeHbkyGbmcAYIG6er/+vtr49kmUS/r+oGwbOjp7BDiAiLZ4xxEdKK021K/o1krt0uJt6OjsEeAAIprZ8FKSJg4O7aNviQAHEMEKS07os+1HDPW2qXEa0a2VDR01DgEOIGL9Y/U+mcwu9YNB2YqOclnfUCMR4AAikq+uXm+sKTDUo6Nc+q+BWTZ01HgEOICItGjrYR0p9xrqo3tkKCMlzoaOGo8ABxCRXltlPry86ZLQH16eRIADiDh5RZVaurPIUG/fIkFDO6fb0NG5IcABRByzC3ckaeKgbEU5YHh5EgEOIKJU++r05lrj8DI2Okrf7Z9pQ0fnjgAHEFE+3nRIx6t8hvrVvVurRZLHho7OHQEOIKK8tsr8/t6TLmlvcSfnjwAHEDG2HyrXmrzjhnrXVkka2KGZDR2dHwIcQMQIdPR90+BsuVzOGV6eRIADiAhVNbV6d12hoR7vjtYNDhtenkSAA4gI7204oHJvraE+rm9bpcS5bejo/BHgAMKe3+/XnEBvnzjoysv/RIADCHtf7S/VpsIyQ/3CzFRdmJlmfUNNhAAHEPbmrAw8vHQyAhxAWCut8un9rw4Y6slxMbqub1sbOmo6BDiAsPbOuv2q9tUb6hP6ZSohNsaGjpoOAQ4gbPn9/gbP/XY6AhxA2Fq555h2H6001Ad1bK6uGck2dNS0CHAAYSvQqYNOvO+JGQIcQFg6Ul6tTzYdMtTTk2J1da/WNnTU9AhwAGHpzTUFqjXZcv6/BmQpNiY8oi88vgsA+Ja6er/+vtq4aYPLJf1gkPOHlycR4ADCzmfbjqiw5IShPuKClspqnmBDR8FBgAMIO+E+vDyJAAcQVgqOVWnxjqOGeru0eI3o1sqGjoKHAAcQVl5btU9+4+xSEwdnK9pBO86fDQIcQNjw1prvOO+Odum/BmTZ0FFwEeAAwsZHXx/SscoaQ/3q3m3UMtlZO86fDQIcQNgIdNvYSWFw3xMzBDiAsLD1YJnW5pvvOD+oY3MbOgo+AhxAWAh49H1Je0fuOH82CHAAjlde7dPc9cYd5xNio3V9v3Y2dGQNAhyA481dX6jKmjpDffxF7Ry74/zZIMABOJrf79eclftM1yY5eMf5s0GAA3C0NXnHtf1wuaHeLztNvdqm2tCRdQhwAI72twaGl+GOAAfgWEfLvfp400FDvVmCWzl92tjQkbUIcACO9ebaAvnqTDZtGJilOHe0DR1ZiwAH4Eh19X69ZvL2icsl3TQo/N8+kQhwAA716bYjOlBabaiPuKClsluEz6YNDSHAAThSoOHlzUMi4+hbIsABOFBeUaWWBNi04fILwmvThoYQ4AAc57UAW6bddEn4bdrQEAIcgKNU++r05tr9hnpsdFRYbtrQEAIcgKO8v/GASk/4DPWcPq2VnhR+mzY0hAAH4CiBbhsbScPLkwhwAI6xsaBEG/eXGuo92qSoX3YzGzqyFwEOwDECnjoYxps2NIQAB+AIxytr9P7GA4Z6sidG37m4rQ0d2Y8AB+AIb31ZIG9tvaE+oX+mEmJjbOjIfgQ4gJBXX9/Qpg2RN7w8iQAHEPIW7zyqfceqDPWhXVqoS6skGzoKDQQ4gJA3Z0Xg4WUkI8ABhLSCY1X6dPsRQ711SpxG9ciwoaPQQYADCGlzVuXLb9yzQRMHZysmOrIjLLK/ewAhrdpXpzfXFBjq7miXvj8osu57YoYABxCy5n91UMerjPc9ubp3G7VKjrOho9BCgAMIWbMbuPISNgR4QUGB7r77bnXu3Fkej0fp6em66qqrNH/+fKtbARDCvtpfoo0FJYZ699bJGtgh8u57YsbSAF+zZo0uuugiPfvsszpx4oTGjh2rHj166LPPPtO1116rxx9/3Mp2AISw2YFOHRwSmfc9MWNZgFdXV2vChAk6duyYbrzxRu3evVtz587V0qVLtXz5crVo0UIzZsxQbm6uVS0BCFEN3vfkonY2dBSaLAvwd999VwUFBUpLS9Pzzz+v+Pj4U2sDBw7UY489JkmaMWOGVS0BCFFvrg1835NET2Te98SMZQG+Zs0aSVL//v2VlpZmWB81apQkafny5Tp06JBVbQEIMXX1fs0JsOdlJG7a0BDLAryiokKS1KJFC9P19PR0SZLf79e6deusagtAiFm844gKjp0w1Id1SVfnlpF73xMzlv1bpFWrVpKkPXv2mK5/u753717Tx3i9Xnm93lMfl5WVSZJ8Pp98PuO5omh6J59nnu/IYMfr/eryPNP6xIGZEfFz15jv0bIAv/LKK/V///d/+vLLL7V+/XpdfPHFp60///zzp/7/ZDD/p5kzZ2r69OmG+oIFC5SQkNC0DaNBDJsji1Wv99ET0uKdxlhKi/Wreu9afZhnSRu2qqoy3nUxEJffb3aXgeC4/PLLtWTJEmVmZurPf/6zLrvsMhUXF+vPf/6zfv/73ysmJkY+n09PPfWU/vd//9fw+WZH4FlZWSoqKlJKSopV30ZE8/l8ys3N1ejRo+V2u+1uB0Fm9es986PteukL4/vfD4zqorsu7xT0rx8KysrKlJ6ertLS0jPmmqXj3Lfeeks33HCDli9frnHjxp22du+992rZsmVau3atmjdvbvr5Ho9HHo/HUHe73YSJxXjOI4sVr/eJmjq9va7QUI+NjtLESzpEzM9bY75PSwO8VatWWrp0qRYuXKhPP/1UxcXFysjI0Pjx4zVgwAC1bfvNvnZ9+vSxsi0AIWDehkKVVdca6tde2EYtkowHbrA4wCXJ5XJp9OjRGj169Gn13bt36+DBg2rRooX69etndVsAbOT3+/VqA1dewlzI3Mzqt7/9rSRpypQpio2NtbkbAFb6Mv+4th40nrzQp12qLspKs74hh7A0wLds2WI4w6S2tla//OUv9cILL6hLly565JFHrGwJQAho6Oib+54EZulbKC+++KJeeOEF9e/fX+3atZPX69XKlSt1+PBhdenSRbm5uUpMTLSyJQA2O1JWrY++PmiopyW4Na5vWxs6cg5LAzwnJ0d5eXlat26d1q5dK4/Ho27duumBBx7Q3Xfffdr9UQBEhr+vLlBtvfFs5hsHZinOHW1DR85haYCPGTNGY8aMsfJLAghhvrp6vWZy3xOXS5o0mOHlmYTMEBNA5Plk8yEdKfca6iO7t1JWc66uPhMCHIBtZptcdSlJPxzSwdpGHIoAB2CLLQfKtDrvmKHeMT1Rw7qk29CR8xDgAGwxe0Weaf2HQ9orKopTB88GAQ7AciVVNZq7wXjfk4TYaE3on2lDR85EgAOw3Ftr96vaZ7JlWr9MpcRFxk2rmgIBDsBSdfV+/W1loOElpw42BgEOwFKfbz+ifceMmxZc2rmFumYk29CRcxHgACwV6L4nHH03HgEOwDK7j1ZoyY6jhnrb1DiN6pFhQ0fORoADsMzfAhx9TxrSXjHRxFFj8YwBsESFt1Zvf7nfUI+NidL3B2bb0JHzEeAALPHuuv2q8Bq3TBvXt62aJ7KJy7kgwAEEXUNbpt3CfU/OGQEOIOiW7yrWriMVhvrF2Wnqk5lqQ0fhgQAHEHSvfJFnWp98aQdL+wg3BDiAoCo4VqVF2w4b6i2TPRrbu40NHYUPAhxAUM1ZmS+/ccc0TRyUrdgYIuh88OwBCJoTNXV6Y02BoR4T5dJNgzl18HwR4ACCZt6GQpWe8BnqOX3aqFVKnA0dhRcCHEBQ+P3+gMPLWxheNgkCHEBQrNp7TNsOlRvqfdqlql92mvUNhSECHEBQvNrA0bfLxZZpTYEAB9DkCktO6JPNhwz15omxuvZCTh1sKgQ4gCY3Z2W+6gOcOhjnjra+oTBFgANoUtW+Ov199T5DPTrKpZsu4dTBpkSAA2hS7204oJIq46mDV/dqrTap8TZ0FL4IcABNxu/36+VA9z0Z2sHSXiIBAQ6gyazJO66tB8sM9V5tUzSgfTMbOgpvBDiAJvPKF3tN65w6GBwEOIAm8c2pg8a7DjZPjNW4vm1t6Cj8EeAAmsSclfmqMzl38PsDszh1MEgIcADnraFTB28e0t6GjiIDAQ7gvM3bUGh+6mBvTh0MJgIcwHnx+/16eXme6dqt3HUwqAhwAOdl5R7zuw72bpei/pw6GFQEOIDzEujUwcmXduTUwSAjwAGcs4JjVcrdYn7qIHcdDD4CHMA5+1uAuw7eNJi7DlqBAAdwTqpqavWGyamDMVEuTbqEUwetQIADOCf/XFeosupaQz2nTxtlsGGxJQhwAI3W0IbF3HXQOgQ4gEZbtqtIu45UGOp9s9LUL5tTB61CgANoNC7cCQ0EOIBG2VtUqU+3HTHUWyV7lNOHUwetRIADaJRXA7z3PemS9oqNIVKsxLMN4KyVV/v09pf7DfXY6ChNHMyGxVYjwAGctbfW7leF13jq4LiL2io9yWNDR5GNAAdwVurq/Xp1RZ7p2mSGl7YgwAGclU+3HVF+cZWhPqhjc/Vul2pDRyDAAZyVl5eb33XwNi7csQ0BDuCMth8q1xe7iw31dmnxGt2ztQ0dQSLAAZyFV1cab1olSbdc2l7RUdzz2y4EOIAGVfikeRsPGurx7mjdOIBTB+1EgANo0BeHXaqprTfUJ/Rvp9QEtw0d4SQCHEBANbX1WnrIPCZuHdrR4m7wnwhwAAF9vPmwynzG97hHdGupzi2TbOgI30aAAzDl9/v1yop807XbOPoOCQQ4AFPr9h3X14VlhnqXVkka3jXdho7wnwhwAKZeWpZnWr9taEe5XJw6GAoIcAAG+49X6aNNxlMHU+Pduv7idjZ0BDMEOACD2SvyVe831icOzlZ8bLT1DcEUAQ7gNJXeWv19tfHKy5gol344pL0NHSEQAhzAad5Zt1/l1cZ7fuf0aaM2qfE2dIRACHAAp9TX+wNuWHzbME4dDDUEOIBTPtt+RHuLKg31i7NSdVFWmvUNoUEEOIBTXgpwz+9beO87JBHgACRJWw+Wafku4z2/02L9uqpnKxs6wpkQ4AAkBd5x57LW9YqJJipCEa8KABVVeDV3wwFDPSE2WkMyTE4IR0ggwAFozsp803t+33BxWyXE2NAQzgoBDkS4al+d5qw03nXQ5ZJ+eAk77oQyAhyIcO9tPKCiihpDfWT3VuqYnmhDRzhbBDgQwfx+v15aZj685MKd0EeAAxFs+a5ibTtUbqh3b52sIZ1a2NARGoMAByLYrGV7TOu3D+Oe305AgAMRateRCn22/aihnp7k0biL2trQERqLAAciVKDL5m++pL08Mdzz2wkIcCACHaus0T/X7TfUY2OiNIlTBx2DAAci0Our8lXtM164M6FfO7VI8tjQEc4FAQ5EmJraes1eYbxwR/pmw2I4BwEORJj3Nx7QkXKvoX75BS3VNSPZho5wrghwIIL4/X79NcCFO7dz4Y7jEOBABFmxu1hbD5YZ6t0ykjW8a7oNHeF8EOBABAl49D2cC3eciAAHIsSuIxX6dNsRQz09yaPxXLjjSJYH+L59+3T33XerW7duio+PV1xcnDp27KhbbrlFGzdutLodIGIEunDnh0O4cMepLA3wVatWqXfv3nr22WdVWVmpMWPGKCcnRy6XS7Nnz9aAAQP01ltvWdkSEBGKK7x650vjhTuemCjdNJgLd5zK0gCfMmWKysvLNWXKFO3du1fz5s3TP//5T+3atUtTp05VbW2tpkyZourqaivbAsLea6v2yWu24w4X7jiaZQFeXFysr776SpL05JNPyu12/7uJqChNmzZN8fHxKikp0datW61qCwh71b46zV6RZ7p2+7BO1jaDJmVZgHs8Z/+3fHo6pzMBTeW9DeY77lzZvZW6tEqyoSM0FcsCPCkpScOHD5ckTZ06VT6f79RafX29pk2bphMnTmjs2LHKysqyqi0grH1z4Y75Pb/v4MIdx7N0v+m//OUvysnJ0Ysvvqj58+drwIABio6O1vr161VYWKibb75Zf/rTnwJ+vtfrldf770uAy8q+uSDB5/Od9hcCgufk88zz7QxLdhZpx+EKQ71H62QNyE454+vI6229xjzXlgZ4t27dtGLFCt18881asGCBCgsLT6317NlTI0aMUEpKSsDPnzlzpqZPn26oL1iwQAkJCUHpGeZyc3PtbgFn4dktUTL7h3b/pBJ99NFHZ/3n8Hpbp6qq6qwf6/L7/f4g9nKa5cuX64YbblBMTIx++9vf6sorr1RsbKyWL1+u+++/Xzt37tRtt92mWbNmmX6+2RF4VlaWioqKGgx+NB2fz6fc3FyNHj36tEE0Qs/Wg+Ua9+cVhnpGskef3j9csTFnfgeV19t6ZWVlSk9PV2lp6RlzzbIj8JKSEl1//fUqKirSihUrNHjw4FNr1157rXr27Kk+ffropZde0qRJk3TFFVcY/gyPx2M6DHW73fxwWYznPPS9snKfaX3y0I5KjG/cqYO83tZpzPNs2RBz/vz5Onr0qDp16nRaeJ/07frChQutagsIS4fLqvX+xgOGekJstCYO4sKdcGFZgO/b983RQEP/JEhNTZUkHTt2zJKegHD1yhd58tUZ3x39rwFZSk3gSDpcWBbg7dq1kyRt27ZNpaWlhnWfz6d169ZJkjp25PQm4FxVemv12krjjjtRLu75HW4sC/CxY8cqMTFRJ06c0I9+9CNVVPz71Kaamhrdd9992rdvn9xut7773e9a1RYQdt5cW6Cy6lpD/ererZXVnLO1wollQ8yWLVvq+eef16233qq33npLn3/+uQYOHCi32621a9eqsLBQUVFReuaZZ9SpE5f3Aueitq4+4F0HfzSc36twY+nNrCZNmqS1a9dq8uTJSk5O1qJFi/TRRx8pJiZGN910k1asWKG77rrLypaAsPLJ5sMqOHbCUB/Qvpkuzm5mQ0cIJksv5JGkvn376uWXX7b6ywJhz+/36y9LzS+b/9FlHH2HI3bkAcLE2vzj2lBQYqh3TE/UqB4Z1jeEoCPAgTDx4hLzo+/bhnVUdBT7XYYjAhwIA7uPVmjh1sOGerMEt77bL9OGjmAFAhwIA39duldmdzW6eUgHxcey32W4IsABhyuq8Oqddcb9LmNjovTDIe1t6AhWIcABh5v9RZ5qTPa7nNAvU+nsdxnWCHDAwU7U1Gm2yWXzknTHcC6bD3cEOOBgb31ZoJIq4w4uo3q0UueW7HcZ7ghwwKHq6v3661Lzy+anXNbZ4m5gBwIccKhPNh/SvmPG7bcuykrTwA5cNh8JCHDAgfx+v14IcOHOnZd1ksvFhTuRgAAHHGj13mPaaHLZfPsWCRrTq7X1DcEWBDjgQIEum7+Dy+YjCgEOOMzOw+VatO2Iod4swa3v9s+yoSPYhQAHHCbQ0fctl3LZfKQhwAEHOVxWrbkbCg31OHeUfjikg/UNwVYEOOAgLy83323+e/2z1Dwx1oaOYCcCHHCI8mpfwN3muWw+MhHggEP8ffU+lXuNu82P7d1G7Vsk2tAR7EaAAw5QU1uvWcsCXTbPfpeRigAHHGDehkIdLvMa6kM6tVDfrDTrG0JIIMCBEFdf7w946uCUyzn6jmQEOBDiPtt+RDuPVBjq3TKSNeKCljZ0hFBBgAMh7oXFAY6+uWlVxCPAgRD2Zf5xrc47Zqi3TY3TuIva2tARQgkBDoSwFxbvNq3fNqyj3NH8+kY6fgKAELXrSIVytx421FPj3frBoGwbOkKoIcCBEPXikt3yG6+a182XtFeiJ8b6hhByCHAgBB0qrda76403rYqNidLkoR2sbwghiQAHQtBLy/cGuGlVptKTPDZ0hFBEgAMhpvSET6+v2meoR7m4bB6nI8CBEDNnZb4qTG5aldOHm1bhdAQ4EEKqfXV6ebn5Tavuuryzxd0g1BHgQAh5+8v9KqqoMdSHd01X73apNnSEUEaAAyGitq4+4E2rOPqGGQIcCBEfbTqkfceqDPULM1N1aecWNnSEUEeAAyHA7/fruc/NL5v/8eWduWkVTBHgQAhYsrNIWw6WGeqd0hM1pldrGzqCExDgQAh47vNdpvUpl3VSdBRH3zBHgAM2W7fvuFbuMd4ytlWyR9f3a2dDR3AKAhywWaD3vu8Y3lGemGiLu4GTEOCAjXYcLlfuFuMtY1PiYjRxcHsbOoKTEOCAjZ4PsGHDLZd2UBK3jMUZEOCATfYfr9J7Gw4Y6nHuKE2+tIP1DcFxCHDAJn9Zske19cZbxn5/YLZacMtYnAUCHLBBUYVXb6wpMNRjoly6Y3hHGzqCExHggA1eXr5X3tp6Q33cRW2V2SzBho7gRAQ4YLHyap9mr8g3XfsxN61CIxDggMXmrNyn8mrjhg1X9cpQ14xkGzqCUxHggIWqfXWatcz8lrE/GdHF4m7gdAQ4YKE31xaYbtgwtEsL9c1Ks74hOBoBDljEV1evFxabH33/N0ffOAcEOGCReRsOqLDkhKF+UVaahrBhA84BAQ5YoL7eH/CWsf99RRc2bMA5IcABC3y8+ZB2H6001LtlJGtk91Y2dIRwQIADQeb3+/XsZ+ZH3z8e0VlRbNiAc0SAA0H2+Y6j2nzAuF1advMEXXthGxs6QrggwIEg8vv9evZT86Pvuy7vrJhofgVx7vjpAYJo1d5jWpt/3FDPSPFoQn+2S8P5IcCBIAr03vePhndiuzScNwIcCJKNBSVaurPIUG+W4NbEwdk2dIRwQ4ADQfKnAEfftw/rqIRYtkvD+SPAgSDYdqjMdLPi5LgY/ZDt0tBECHAgCJ79LMBmxUM6KCXObXE3CFcEONDEdh+t0AdfGTcrjndH67ZhbJeGpkOAA03suc93y2/cq1g3Dc5W88RY6xtC2CLAgSZUcKxK764vNNRjY6L0o8s62dARwhkBDjSh5xbvVl298fD7xgFZykiJs6EjhDMCHGgih0qr9fba/YZ6TJRLd17O0TeaHgEONJHnF+9WTV29oX5Dv3bKbJZgQ0cIdwQ40ASOlFfr76v3GepRLjYrRvAQ4EAT+OvSvfLWGo++x/Vtqw7piTZ0hEhAgAPnqbjCq7+tyDfUXS7p7is5+kbwEODAeZq1bK9O+OoM9ZzebdSlVbINHSFSEODAeSipqtFsk6NviaNvBB8BDpyHl5bnqcJba6iP7pmhHm1SbOgIkYQAB85RWbVPLy/fa7p2z5VdLe4GkYgAB87Rq8vzVF5tPPq+snsr9clMtaEjRBoCHDgHFd5azQpw9P0/vPcNixDgwDl49Ys8lVT5DPXhXdN1cXYzGzpCJCLAgUaq9Nbqr0v3mK79dCTvfcM6BDjQSLNX5Ou4ydH3pZ1baECH5jZ0hEhFgAONUOmt1V84+kaIIMCBRpizMl/HKmsM9Us6NdfgTi1s6AiRjAAHzlJVTa1eXGJ+9H0PR9+wgWUBnpeXJ5fLdVb/LVmyxKq2gLM2Z2W+ik2Ovgd1aK4hHH3DBjFWfaGkpCTdcsstAde3bNmiNWvWKDk5Wf3797eqLeCsVNXU6oXFAd77HtVVLpfL4o4ACwM8PT1dr7zySsD1nJwcSdL3v/99JSZy/2SElkBH3wM7NNOlnTn6hj1C4j3wwsJCffLJJ5Kk22+/3eZugNM19N73vaMu4OgbtgmJAH/llVdUX1+vXr16afDgwXa3A5zmpWV7VVTB0TdCT8gEuMTRN0JPcYVXzwd475ujb9jN9gBfvHixdu3apdjYWN188812twOc5o+f7jK93/egDs05+obtLBtiBvLSSy9JksaNG6f09PQGH+v1euX1ek99XFZWJkny+Xzy+YyXNqPpnXyeI+H53nesSq+tMt9t52eju6i21hjs4SaSXu9Q0Zjn2tYALysr09tvvy1Juu222874+JkzZ2r69OmG+oIFC5SQkNDk/SGw3Nxcu1sIur9ui5KvzviP1Aub1+vgpi90cJMNTdkkEl7vUFFVVXXWj3X5/X5/EHtp0Isvvqg777xTmZmZys/PV1RUw+/omB2BZ2VlqaioSCkpbF9lBZ/Pp9zcXI0ePVput9vudoLms+1HNWXOekM9OsqlD+++VJ1aRsaprpHyeoeSsrIypaenq7S09Iy5ZusR+Mm3TyZPnnzG8JYkj8cjj8djqLvdbn64LBbOz3m1r05PfrjddO0Hg7LUrW2atQ2FgHB+vUNNY55n24aYW7Zs0apVq+RyuXTrrbfa1QZg8Nznu7XvmPGfsc0S3HpgdDcbOgLM2Rbgs2bNkiRdccUV6tSpk11tAKfJL67Uc4t3m67979Xd1Swx1uKOgMBsCXCfz6c5c+ZI4txvhA6/36/H39usmtp6w9pFWWn6rwFZNnQFBGZLgH/wwQc6cuSI0tLSdMMNN9jRAmCwYMthfb79qKEe5ZKe/E5vRUVx0Q5Ciy0BfnJ4OXHiRMXFxdnRAnCaqppazXh/i+napEvaq3e7VIs7As7MlrNQ3n//fTu+LBDQs5/tUmHJCUO9RWKsHhjD4BKhyfZL6QG77T5aEfBugw/l9FBqPKfPITQR4Ihofr9fj8/bLF+d8Xq2gR2aaUK/djZ0BZwdAhwR7cOvD2nZriJDPTrKpRnje3O3QYQ0AhwRq8Jbqyc+MB9c3jKkg3q04fYMCG0EOCLWHxft1KGyakO9ZbJH941ml3mEPgIcEWnH4XLNWrbXdG3qNT2UHMfgEqGPAEfE8fv9emzeJtXWGweXl3RqrnF929rQFdB4BDgiznsbD2jlnmOGekyUS08wuISDEOCIKGXVPj05f6vp2m3DOqprRrLFHQHnjgBHRPl/uTt1tNxrqLdOidNPRzK4hLMQ4IgYWw+W6dUVeaZrj17bU4ke27eIBRqFAEdE8Pv9enTuJtWZDC6Hd01XTp/WNnQFnB8CHBHhnXWFWpt/3FB3R7s0bVwvBpdwJAIcYa/0hE8zPzQfXE65rJM6t0yyuCOgaRDgCHu/W7BdxZU1hnq7tHjdfQWDSzgXAY6wtqmwVHNW5puuPXZdT8XHRlvcEdB0CHCErfp6v6bO3SSTuaWu6NZSY3pmWN8U0IQIcIStt74s0IaCEkM9NiaKwSXCAgGOsHS8skZPfbTNdO3Hl3dW+xaJFncEND0CHGHp159s1/Eqn6Ge1TxePx7R2YaOgKZHgCPsbCgo0Rtr9pmuTR/XS3FuBpcIDwQ4wkpd/Te3ivWbDC5H98zQld0ZXCJ8EOAIK6+v3qev9pca6nHuKD12bU8bOgKChwBH2Ciu8Oo3H5sPLu++oouymidY3BEQXAQ4wsZTH21TWXWtod4xPVE/uqyTDR0BwUWAIyyszTumt77cb7o2fVwveWIYXCL8EOBwvNq6ej06b7PpWk6f1rrsgpYWdwRYgwCH4/1tZb62Hiwz1BNio/Uog0uEMQIcjnakvFq/X7DDdO2ekV3VJjXe4o4A6xDgcLSZH25Tudc4uOzSKkm3De1oQ0eAdQhwONbKPcV6d32h6dqM8b0UG8OPN8IbP+FwJF9dvR6bt8l0bVzftrq0c7rFHQHWI8DhSK8sz9OOwxWGepInRo9c08OGjgDrEeBwnEOl1fp/C80Hl/eO6qqMlDiLOwLsQYDDcZ6cv0WVNXWGevfWyZp8aQfrGwJsQoDDUZbvKtIHXx00XZsxvrdiovmRRuTgpx2OUVMbeHB5Q792GtSxucUdAfYiwOEYs5bt1e6jlYZ6clyMHhrL4BKRhwCHIxSWnNAzi3aarv1sTDe1TPZY3BFgPwIcjvDE+1t0wmccXPZqm6JJl7S3oSPAfgQ4Qt7iHUf18eZDpmtPfKe3oqNcFncEhAYCHCGt2lenxwMMLm8ckKV+2c0s7ggIHQQ4QtpfluxRXnGVoZ4a79b/ju1uQ0dA6CDAEbIKjlXpT5/tMl37xdXd1Dwx1uKOgNBCgCNkTX9/i7y19YZ638xUfX9gtg0dAaGFAEdIWrT1sBZuPWyou1wMLoGTCHCEnGpfnaa9b77H5cRB2bowM83ahoAQRYAj5Pz5890qOHbCUG+eGKufX9XNho6A0ESAI6TkFVXq+cW7TdcevLq70hIYXAInEeAIGX6/X4+/t1k1JoPLftlp+m7/TBu6AkIXAY6Q8cnmQ1q846ihHvWvwWUUg0vgNAQ4QkJVTa1mvL/FdO2HQzqoV9tUizsCQh8BjpDwx0936UBptaGenuTRfaMvsKEjIPQR4LDdriMV+uvSPaZrD43trtR4t8UdAc5AgMNW3wwuN8lX5zesDerQXDf0a2dDV4AzEOCw1QdfHdTyXcWGenSUSzO+00suF4NLIBACHLap8Nbqyfnmg8vJl3ZQ99YpFncEOAsBDtv8YeEOHS7zGuqtkj26d1RXGzoCnIUAhy12HC7XS8vzTNemXttTyXEMLoEzIcBhOb/fr6lzN6mu3ji4HNKpha67sI0NXQHOQ4DDcnM3FGr13mOGekyUS08wuATOGgEOS5VV+/R/87eZrt0+vKO6tEq2uCPAuQhwWOr3C3aoqMI4uGyTGqd7rmRwCTQGAQ7LbDlQptkr8kzXHru2pxI9MdY2BDgcAQ5L1Nf79ei8TTKZW+qyC1rq6t6trW8KcDgCHJZ4Z91+fZl/3FCPjY7S9HEMLoFzQYAj6EqrfHrqI/PB5Z2Xd1LH9ESLOwLCAwGOoPvtgu0qrqwx1DObxesnI7rY0BEQHghwBNXX+0s1Z1W+6drj1/VSfGy0xR0B4YMAR9DU1/s1dd4m+U0Gl1d2b6XRPTOsbwoIIwQ4guYfawu0saDEUPfERGnadb2sbwgIMwQ4guJYZY1+9bH54PInI7oou0WCxR0B4YcAR1D85pNtKqnyGertWyTozss72dAREH4IcDS59fuO6401BaZr067rpTg3g0ugKRDgaFJ1/7ri0mxweVWvDF3RvZX1TQFhigBHk3p9Vb42FZYZ6nHuKD16bU8bOgLCFwGOJlNU4dVvPtluuvY/V3ZVZjMGl0BTIsDRZJ76aJvKqmsN9U7pibpjeEcbOgLCGwGOJrE275je/nK/6dr08b3kiWFwCTQ1AhznrbauXlPnbjJdu+bCNhretaXFHQGRgQDHeXt1Rb62HSo31BNiozX1mh42dAREBgIc5+VIWbWezt1hunbvqK5qkxpvcUdA5CDAcV7+78OtqvAaB5ddWyXp1qEMLoFgIsBxzlbsLta8DQdM12aM7y13ND9eQDDxG4Zz4qur12PzzAeX4y9qqyGdW1jcERB5CHCck1dW5GvnkQpDPckTo0dyGFwCVrAlwGtqavTMM89o2LBhat68ueLi4pSZmamxY8fqH//4hx0toRFKvNKfPttjunbf6AvUKiXO4o6AyBRj9Rfcv3+/rrrqKm3ZskXp6ekaOnSoEhMTVVBQoCVLligxMVE33nij1W2hEd7Nj1JVTZ2h3r11sm4Z0t6GjoDIZGmAnzhxQqNHj9a2bds0bdo0Pfzww3K73afWq6qqtGOH+SlpCA3LdhVrQ7H5P9ye+E5vxTC4BCxjaYDPnDlT27Zt05QpU/T4448b1hMSEnTRRRdZ2RIawVtbpxkfbDVdm9AvUwM7NLe4IyCyWXa45PP59Nxzz0mSfv7zn1v1ZdGE/rp0r/YWVxnqKXExeiinuw0dAZHNsiPwdevWqaioSG3btlWXLl309ddf65///KcOHDigZs2aafjw4Ro7dqyiovgneCjaf7xKf/x0p+naz6/qpvQkj8UdAbAswL/66itJUmZmph588EH9+te/lv9b27b86le/0sUXX6y5c+cqOzvb9M/wer3yer2nPi4r+2bjAJ/PJ5/PuP8ims709zar2ldvqPdqm6zv9WvL8x+mTr6uvL7WacxzbVmAFxcXS5LWr1+v1atX67//+791zz33qHXr1qc+Xr9+va655hqtW7futOHmSTNnztT06dMN9QULFighgc0CgmXLcZdytxlvB+uSX1c1P65PPv7Ihq5gpdzcXLtbiBhVVca3KQNx+f1muxc2vZkzZ+rhhx+WJP3gBz/Q66+/ftr6vn371K1bN1VXV2v27Nm6+eabDX+G2RF4VlaWioqKlJKSEtxvIEJ5fXXK+dMX2nfshGHtxgHt9OT4XjZ0Bav4fD7l5uZq9OjRpgdVaHplZWVKT09XaWnpGXPNsiPw5OTkU/9/5513Gtazs7N1zTXX6J133tHChQtNA9zj8cjjMb7X6na7+eEKkj8vzjMN77R4tx4c25PnPULwO2adxjzPlk0MO3XqZPr/Zo85ePCgJT2hYfuKq/Tnz3eZrv1sTFc1S4y1uCMA32ZZgPfr108ul0uSVFRUZPqYk/WkpCSr2kIDpr+/Wd5a4+CyfZJf3+vXzoaOAHybZQHeunVrDRs2TJK0cOFCw7rP59PixYslSYMGDbKqLQSQu+WwFm07Yqi7XNL3OtYpKsplQ1cAvs3Sk65PXn05c+ZMrVy58lS9trZWDzzwgPbs2aPk5GTdeuutVraF/3Cipk7T399sujZxYJay+AcSEBIsDfCRI0fqiSee0PHjxzV8+HANHTpUEyZMUNeuXfXHP/5R8fHx+vvf/66MjAwr28J/+PPnu7T/uHFw2SIxVveN6mJDRwDMWH7Z49SpU/XJJ5+cuqnV+++/r7q6Ok2ePFnr1q3TNddcY3VL+Ja9RZV6YbH5rWIfHNtdqfGciQCECstvJytJY8aM0ZgxY+z40miA3+/XY/M2qabOOLjs376ZJvTLVF2dcf9LAPbgxiM45eNNh7R0p/EMoSiX9MT43gwugRBDgEOSVOmt1YwPtpiu3XJpB/Vsy5WuQKghwCFJeubTnTpYWm2ot0z26L7RF9jQEYAzIcChXUfKNWvpXtO1h3O6KyWOwSUQigjwCOf3+/Xo3M2qrTfe02xwx+b6zkVccQmEKgI8wr3/1UGt2FNsqEdHufTEd3qfuv0BgNBDgEew8mqfngwwuLxtaAddkJFsugYgNBDgEewPC3fqSLnXUM9I8einoxhcAqGOAI9Q2w6V6eUv8kzXHr22p5I8tlzjBaARCPAI5Pf79djczaozGVwO65Kua/q0saErAI1FgEegd9cXanXeMUPdHe3StHG9GFwCDkGAR5jSEz798sNtpmt3DO+kLq24VyzgFAR4hHk6d4eKKoyDy7apcfqfK7lVLOAkBHgE2VRYqtkr8kzXHruupxJiGVwCTkKAR4j6er8enbdJJnNLXXZBS13Vq7X1TQE4LwR4hHj7y/1av6/EUI+NjtJ0BpeAIxHgEaCkqkZPfWw+uLzr8k7qmJ5ocUcAmgIBHgF+88l2HausMdSzmsfrJ1cwuAScigAPc1/tL9Hrq/eZrk27rpfi3NEWdwSgqRDgYayu3q+pczfJbzK4HNWjlUb2yLC+KQBNhgAPY2+s2aev9pca6p6YKD1+XS8bOgLQlAjwMHWsska//ni76drdV3RRVvMEizsC0NQI8DD1q4+2qfSEz1Dv0CJBP7qskw0dAWhqBHgYWrfvuP6xtsB0bfr43gwugTBBgIeZunq/Hp27yXRtbO/WuvyClhZ3BCBYCPAw89qqfG0+UGaox7uj9ei1PW3oCECwEOBh5Gi5V7/5xHxw+T8ju6htWrzFHQEIJgI8jMz8aKvKq2sN9c4tE3XHMAaXQLghwMPE6r3H9M91haZrM8b3VmwMLzUQbvitDgO1dfV6bJ754PLaC9toaJd0izsCYAUCPAy88kWeth0qN9QTY6M19RoGl0C4IsAd7nBZtf7fwp2ma/eOukCtU+Ms7giAVQhwh3ty/lZVeI2DywsykjR5aAfrGwJgGQLcwb7YVaT3Nx4wXXtifG+5o3l5gXDGb7hD1dTW69EAg8vrL26nwZ1aWNwRAKsR4A710vK92n200lBP9sTooZzuNnQEwGoEuAMdKDmhZxaZDy7vH3OBWiUzuAQiAQHuQE/O36KqmjpDvUebFN18SXsbOgJgBwLcYZbsOKoPvz5kuvbkd3ophsElEDH4bXcQb22dHn9vs+na9/pnqn/75hZ3BMBOBLiDvLh4j/YWGQeXKXExenAsg0sg0hDgDlFwrErPfr7LdO3nV3dXiySPxR0BsBsB7hAzPtiial+9oX5hZqomDsq2oSMAdiPAHeDTbYeVu+Wwoe5yfXPFZXSUy4auANiNAA9x1b7Ag8vvD8xW36w0axsCEDII8BD33Oe7VXDshKHeLMGtX1zVzYaOAIQKAjyE5RdX6rnFu03XHhzbXc0SYy3uCEAoIcBDlN/v1+PvbVZNrXFweXF2mr7XP8uGrgCEEgI8RC3Yclifbz9qqEf9a3AZxeASiHgEeAg6UVOnGe9vMV2bdEl79W6XanFHAEIRAR6C/vTZThWWGAeXLRJj9cBoBpcAvkGAh5g9Ryv04pI9pmsP5fRQaoLb4o4AhCoCPIScHFz66vyGtYEdmmlCv3Y2dAUgVBHgIeSjTYe0dGeRoR4d5dKM8b3lcjG4BPBvBHiIqPTWBhxc3jKkg3q0SbG4IwChjgAPEc8s2qlDZdWGestkj+4b3dWGjgCEOgI8BOw8XK5Zy/aark29poeS4xhcAjAiwG3m9/v12LzNqq03Di4v6dRc4/q2taErAE5AgNvsvY0HtGJPsaEeE+XSEwwuATSAALdRebVPT87farp2+7CO6pqRbHFHAJyEALfR07k7dbTca6i3TonTPSMZXAJoGAFuk60Hy/TqijzTtUev7alET4y1DQFwHALcBt8MLjepzmRwObxrunL6tLahKwBOQ4Db4J11hVqTd9xQd0e7NG1cLwaXAM4KAW6x0iqfZn5oPricclkndW6ZZHFHAJyKALfY73K3q7iyxlBvlxavu69gcAng7BHgFtpUWKo5K/NN1x67rqfiY6Mt7giAkxHgFqmv92vq3E0ymVvqim4tNaZnhvVNAXA0Atwib64t0IaCEkM9NiaKwSWAc0KAW+B4ZY1+9fE207UfX95Z7VskWtwRgHBAgFvg159s1/Eqn6Ge3TxBPx7R2YaOAIQDAjzINhSU6I01+0zXpo3rqTg3g0sA54YAD6K6er8enbtJfpPB5eieGbqyO4NLAOeOAA+i11fv09eFpYZ6nDtKj1/X04aOAIQTAjxIiiu8+k2AweX/XNlVmc0SLO4IQLghwIPkqY+2qay61lDvlJ6oO4Z3tKEjAOGGAA+CL/OP6a0v95uuTRvXS54YBpcAzh8B3sRq6+r16NzNpms5fVrrsgtaWtwRgHBFgDexOSvzteVgmaGeEButR69lcAmg6RDgTehIebV+t2CH6do9I7uqTWq8xR0BCGcEeBN66sNtKvcaB5ddWiXptqEMLgE0LQK8iazaU6x/ri80XZsxvpdiY3iqATQtUqUJ+Orq9dg888HluL5tdWnndIs7AhAJCPAm8OoXedp+uNxQT/LE6JFretjQEYBIQICfp0Ol1Xo613xwee+orspIibO4IwCRggA/T0/O36LKmjpDvXvrZE2+tIP1DQGIGJYG+OTJk+VyuRr8r7q62sqWzsvyXUX64KuDpmszxvdWTDR/PwIInhg7vujQoUPVpUsX07XoaGdcZl5TW6/H5m0yXbvh4nYa1LG5xR0BiDS2BPgdd9yhyZMn2/Glm8ysZXu1+2iloZ4cF6OHchhcAgg+/o1/DgpLTuiZRTtN1342pptaJnss7ghAJCLAz8ET72/RCZ9xcNmrbYomXdLeho4ARCJb3kL57LPP9PXXX6u8vFwtWrTQoEGDlJOTI48n9I9cV+4p1sebD5muzRjfW9FRLos7AhCpbAnw2bNnG2pt2rTRSy+9pKuvvjrg53m9Xnm93lMfl5V9c9c/n88nn8+463swXNQuWY9f212/X7hL5d/asOF7/dvpwrZJlvVhl5PfX7h/n/gGr7f1GvNcu/x+sy13g+Ppp59WdHS0Ro4cqezsbJ04cUIbN27UtGnT9MUXX8jtdmvBggUaMWKE6edPmzZN06dPN9Rff/11JSRYu0VZuU96Lz9Kq49GKSHar0curlOS29IWAIShqqoqTZw4UaWlpUpJSWnwsZYGeCB+v1/XX3+95s2bp759+2rDhg2mjzM7As/KylJRUdEZv9FgWZt/XMUVNbqqV2TsMO/z+ZSbm6vRo0fL7eZvrHDH6229srIypaenn1WA2/IWyn9yuVyaPn265s2bp40bN6qgoEBZWVmGx3k8HtP3yd1ut20/XEO6tLLl69rNzucc1uP1tk5jnueQOQulR49/nzu9f7/5fpIAgH8LmQAvLi4+9f/Jyck2dgIAzhAyAf7GG29IklJSUtStWzebuwGA0GdZgG/YsEHvvfeeamtP33Ksvr5es2bN0sMPPyxJuueee3ivDQDOgmVDzLy8PF1//fVq1qyZ+vXrp4yMDJWUlGjTpk3at2+fJOkHP/iBHn/8cataAgBHsyzA+/btq3vvvVdr167Vtm3btHz5cvn9fmVkZOi73/2ubr31VuXk5FjVDgA4nmUB3rFjRz399NNWfTkACHshM8QEADQOAQ4ADkWAA4BDEeAA4FAEOAA4FAEOAA5FgAOAQxHgAOBQBDgAOBQBDgAORYADgEMR4ADgUAQ4ADgUAQ4ADkWAA4BDEeAA4FAEOAA4FAEOAA5FgAOAQxHgAOBQBDgAOBQBDgAORYADgEMR4ADgUAQ4ADgUAQ4ADkWAA4BDEeAA4FAEOAA4FAEOAA5FgAOAQxHgAOBQBDgAOBQBDgAORYADgEMR4ADgUAQ4ADgUAQ4ADkWAA4BDEeAA4FAxdjdwPvx+vySprKzM5k4ih8/nU1VVlcrKyuR2u+1uB0HG6229k3l2Mt8a4ugALy8vlyRlZWXZ3AkANK3y8nKlpqY2+BiX/2xiPkTV19frwIEDSk5OlsvlsrudiFBWVqasrCwVFBQoJSXF7nYQZLze1vP7/SovL1fbtm0VFdXwu9yOPgKPiopSZmam3W1EpJSUFH6hIwivt7XOdOR9EkNMAHAoAhwAHIoAR6N4PB49/vjj8ng8drcCC/B6hzZHDzEBIJJxBA4ADkWAA4BDEeAA4FAEOAA4FAGOs/LWW29pxIgRatasmRITE9W3b1/9+te/ls/ns7s1NCGfz6dFixbp5z//uQYOHKi0tDS53W61bt1a48aN0/z58+1uEd/CWSg4o3vvvVd/+MMfFBMToyuvvFJJSUn69NNPVVJSomHDhmnBggWKj4+3u000gYULF2r06NGSpNatW6t///5KTEzUli1btGnTJknSlClT9Pzzz3P7ilDgBxrw7rvv+iX5k5KS/F9++eWp+tGjR/19+vTxS/I/8MADNnaIprRo0SL/hAkT/EuWLDGsvfHGG/7o6Gi/JP+rr75qQ3f4TxyBo0GDBg3SmjVr9OSTT+qRRx45bW3ZsmUaPny4PB6PDh8+fNb3b4Bz3XHHHZo1a5ZGjhyphQsX2t1OxOM9cARUWFioNWvWSJImTpxoWB82bJiysrLk9Xr14YcfWt0ebHDxxRdLkgoKCmzuBBIBjgasX79ektS8eXN17NjR9DEDBgw47bEIbzt37pQktWnTxuZOIBHgaMDevXslSdnZ2QEfc3IzjZOPRfg6dOiQXnnlFUnShAkT7G0GkghwNODkjkeJiYkBH5OUlCSJbe3CXW1trSZNmqTS0lL16dNHd955p90tQQQ4gLNw1113adGiRWrRooXefvttxcbG2t0SRICjAcnJyZKkysrKgI+pqKiQJHZrCWM//elPNWvWLDVr1ky5ubm64IIL7G4J/0KAI6AOHTpIaviMg5NrJx+L8PLAAw/omWeeUVpamhYsWHDqLBSEBgIcAZ38ZS0uLg44pFy7dq0kqV+/fpb1BWv84he/0O9//3ulpqZqwYIFp844QuggwBFQZmamBg4cKEl6/fXXDevLli1TQUGBPB6PcnJyrG4PQfTggw/qN7/5jVJTU5Wbm3vq5wChhQBHgx5++GFJ0lNPPaV169adqhcXF+snP/mJJOnuu+/mKswwMnXqVP3qV79SWloa4R3iuJQeZ/TTn/5UzzzzjNxut0aOHKnExEQtWrRIJSUlGjp0qHJzc7mZVZh47733NH78eEnfXKTVq1cv08elp6frt7/9rZWtwQQBjrPy5ptv6tlnn9WGDRvk8/nUuXNnTZo0Sffddx+nlIWRV155RbfeeusZH9e+fXvl5eUFvyE0iAAHAIfiPXAAcCgCHAAcigAHAIciwAHAoQhwAHAoAhwAHIoABwCHIsABwKEIcABwKAIcAByKAAcAhyLAAcCh/j+tg8aac86HmAAAAABJRU5ErkJggg==;" parent="1" vertex="1">
          <mxGeometry x="140" y="145" width="288" height="520" as="geometry" />
        </mxCell>
        <mxCell id="TsOxk-7bbi6E-Upar6m4-3" value="&lt;font style=&quot;font-size: 24px;&quot;&gt;Ego Frame, x [m]&lt;/font&gt;" style="text;html=1;align=center;verticalAlign=middle;resizable=0;points=[];autosize=1;strokeColor=none;fillColor=none;" parent="1" vertex="1">
          <mxGeometry x="185" y="670" width="210" height="40" as="geometry" />
        </mxCell>
        <mxCell id="TsOxk-7bbi6E-Upar6m4-4" value="&lt;font style=&quot;font-size: 24px;&quot;&gt;Ego Frame, y [m]&lt;/font&gt;" style="text;html=1;align=center;verticalAlign=middle;resizable=0;points=[];autosize=1;strokeColor=none;fillColor=none;rotation=270;" parent="1" vertex="1">
          <mxGeometry x="25" y="370" width="210" height="40" as="geometry" />
        </mxCell>
        <mxCell id="TsOxk-7bbi6E-Upar6m4-5" value="&lt;font style=&quot;font-size: 24px;&quot;&gt;Simulation Time [s]&lt;/font&gt;" style="text;html=1;align=center;verticalAlign=middle;resizable=0;points=[];autosize=1;strokeColor=none;fillColor=none;" parent="1" vertex="1">
          <mxGeometry x="781" y="670" width="230" height="40" as="geometry" />
        </mxCell>
        <mxCell id="TsOxk-7bbi6E-Upar6m4-6" value="&lt;font style=&quot;font-size: 24px;&quot;&gt;Positioning Error [m]&lt;/font&gt;" style="text;html=1;align=center;verticalAlign=middle;resizable=0;points=[];autosize=1;strokeColor=none;fillColor=none;rotation=270;" parent="1" vertex="1">
          <mxGeometry x="340" y="370" width="240" height="40" as="geometry" />
        </mxCell>
        <mxCell id="NF88TdcVxK6JHxtNJrKi-1" value="&lt;font style=&quot;font-size: 24px;&quot;&gt;(a)&lt;/font&gt;" style="text;html=1;align=center;verticalAlign=middle;resizable=0;points=[];autosize=1;strokeColor=none;fillColor=none;" parent="1" vertex="1">
          <mxGeometry x="265" y="710" width="50" height="40" as="geometry" />
        </mxCell>
        <mxCell id="NF88TdcVxK6JHxtNJrKi-2" value="&lt;font style=&quot;font-size: 24px;&quot;&gt;(b)&lt;/font&gt;" style="text;html=1;align=center;verticalAlign=middle;resizable=0;points=[];autosize=1;strokeColor=none;fillColor=none;" parent="1" vertex="1">
          <mxGeometry x="871" y="710" width="50" height="40" as="geometry" />
        </mxCell>
      </root>
    </mxGraphModel>
  </diagram>
  <diagram id="wk_hw1nYocD0M3D8te04" name="es3">
    <mxGraphModel dx="1046" dy="648" grid="1" gridSize="10" guides="1" tooltips="1" connect="1" arrows="1" fold="1" page="1" pageScale="1" pageWidth="1100" pageHeight="850" math="0" shadow="0">
      <root>
        <mxCell id="0" />
        <mxCell id="1" parent="0" />
        <mxCell id="kNh-EA1-bw_leAr4-S6o-3" value="" style="shape=image;imageAspect=0;aspect=fixed;verticalLabelPosition=bottom;verticalAlign=top;image=data:image/png,iVBORw0KGgoAAAANSUhEUgAAAYYAAAGVCAYAAAD6wlbQAAAAOXRFWHRTb2Z0d2FyZQBNYXRwbG90bGliIHZlcnNpb24zLjcuMiwgaHR0cHM6Ly9tYXRwbG90bGliLm9yZy8pXeV/AAAACXBIWXMAAA9hAAAPYQGoP6dpAABY7klEQVR4nO29e7RdZX3v/ZuXdd1rrX3JZSeBQLgoLS0JiEApWoJmyEEPA7FwxB4JoqWKr1pP6pGDSkCLQypU8EKxMl6G6FtPfe045dUWOX3fVEq1VA0h2oKoIJeQTXZue++19rrPy/tHJPR3SdZaO5l7Zybfzxh7jDwzz3zm8zxzrvWs5/edv9/PieM4JgAAAODXuAvdAQAAAEcWWBgAAAAwsDAAAABgYGEAAADAwMIAAACAgYUBAAAAAwsDAAAABhYGAAAADL+fSlEU0cTEBJXLZXIcJ+k+AQBSwsv+sZVKBd8NRxF9LQwTExO0cuXKpPsCAEgpMzMzVKlUFrob4DDR18JQLpeJiGjbtm2puvm/87G71bHGaxqsnMsHqs7/ueZrrPyuLdeoOr4fqWP/+tpvsfLan1yu6rS6fModR0ckiWP+y8t39bXaXY+Vo7C3VdCq43q8bce1+sPL2Wyo6nQ6njomf0B2WhlVJ5vvWl1lZDL8ekGgx5HP8vsYRnOzkhYyvD+uMfdBpMc6U8uz8liloeqEce8+eY64H8bzkfX4fFhj9US/R3JNVWdidpiVC76+F4sKdVZ+fmaUX7vRpiff9SV13tHCI488Qrfffjs99thj9NJLL9Hf/u3f0lvf+taF7lbi9LUwvLxFrFQqqVoYvFxeHXOL/APjGV9MpTL/oHlF3Y7n6y/Hijovp8+bw8IgP+RWO9THwmDVkQuD28fC4GX1Yur5+lGSC4Pr6IXBK+gvWVUnw68XB/ocLyvu4xwXBi8r7qEx93Gor++G/BnxhvTz0U+f5PVc4/nwxcLg9LEwZHK6P17En08/o9vJFPi8el39TB/N1Ot1WrNmDb373e+mt73tbQvdnXkD4jMAAByASy65hG699Va6/HK9+z8Qt9xyC5155pl033330QknnEClUone//73UxiG9NnPfpaWLVtGS5cupU9/+tMJ9vzQ6GvHkBbWfOhOVq69tq0rdfla2HH1r7+rNv8hK1vxZ6NIC22/+YOre/YxECYg+YudiCgUv+wtSU9e38/oX4TdNr+9nmH+kv0hY6yOxw+Gxi92a+cTiV+yvrHTyIrdQL1u7M6MOZI021lWzmT0teQ8do1x5MR5bdEuEVHX2DHkxc6zbpyXF203O3oHJe9rXu6ESJuSrF1NvcOvL3ehRERD2Q4rWybLRsDbOWlkLyt3Mx36N3XW/NBqtajT6fSuaBDHsRLLc7kc5XKHZ0f0zDPP0He/+1166KGH6JlnnqErrriCfvWrX9GrX/1q+qd/+if6l3/5F3r3u99N69ato/POO++wXPNwclQtDACAY4NWq0UnnViiHTsNk10flEolmp2dZcduvvlmuuWWWw5D7/a9yXnfffdRuVym008/nS666CL6+c9/Tg8++CC5rkunnXYa/dmf/Rl973vfw8IAAACHg06nQzt2hvT8Y6uUtteLai2iE89+Tr1Mc7h2C0REq1at2v/SDhHR+Pg4eZ5HruuyYzt37jxs1zycYGEAAKSWUtmhUnkw/4mIkn+ZJpPhZkLHccxjUdTbTLoQpHZheM0ffU4dm34N31b+0xs+r+qsffhDA18rMGzR1quXCkOHiENxzLDpu3k+jkieQ0Sx0CG61rXq/PaGQ9ruHrf52PwhbdMOGkKrKOp2gpq2qbsFXq9b0/pBUOBt+znddn3nECsXl9RVnXaT34+u1E6IyBdvkmUNzWPvdImVLe3EOjZU5HpWW741RkQkNAapORDp12WbXf2c7arxPhYMHaKU4/2x2hkr8Fdqs642y0y3C6y8bXqElcOGoePNI2EcUThgDsowPjK/jI8kUrswAABARDFF1q+rHuf0y+zsLD399NP7y88++yxt3bqVxsbG6IQTThjoumkCCwMAAByAzZs300UXXbS/vGHDBiIiuuaaa+irX/3qAvUqebAwAABSS0QRDWoYGuSMtWvX7o8H1S+33HKLervJWkQefvjhgdqdT7AwAABSSxjHFA74xT1o/WORI3JheM11Wlj2W/xm7nm9XvUdIYqu/Z4WmmUsoMhwVmo25dsDuo+xIfZSVxzLGA+gcLAjz3AMa4rbEhjXEuOwwkSQELFjI8YQCWFbCs37TuR1wqoWmi2zrXSqcg1hOxIxlgJHX1+eJx0AiYiyIuaVctwjok6D99t6gUA6ClpOgSMlHQdptsVfdbQcyqRDnSVQ53w+jplZLdjLOEyWY9ruWS7YWwJ1O+TX390YUnVkbK/hQouVg2hhxWeQDEfkwgAAAP2QtPh8rIKFAQCQWiKKKcTCcNhBED0AAACMI3LHkJ/WNtOXXifs1S29pkUyIJ6pDciTdCW3Kdq2TPzGiw2hCOntVrWdO5aaQsdoXJzmV/VYuyPCFj5rXMsXOoTxMyAuinZm9CMRFsS4OsbcVwznOaFXWH5FjtBP3MW6HaVDGLb5UDrqGXk2/D5yP0jNKZa6ERHtmdG2eJmfQzrTERHNTPHz8iVtn28HfGwFo8+7p8qsbIWAz+f4eXlfz8cuoUPkjHbk6EOhnUSGljKfwJSUDEfkwgAAAP2At5KSAaYkAAAADOwYAACpJfr136DngIODhQEAkFrCObyVNGj9Y5F5Xxh+7y2fVcf+5it3sfLkeR9RdeJMdNAyESkh2ZvVlrJYarSWsCwEYc9IEhVZwTNrIp+zoXV2K70fShm80zGG6gth2xSWhdDtGYJ96PNjUdaIJiqc8qKiIVI2jaxuYh6jsiFQC1+5cMZwnlMZ5IybJpz3nIIeR3eWt+34uk4sxuoYuZJ9w3ExENfvdgzntaFOzzp7m72j9hZEO8PFpqpTEw53u6olVUc66jWMrHOhyMInnfLCYG6JcsCRDXYMAIDUEsY0h7DbyfTlaAILAwAgtUBjSAa8lQQAAICR+I5h3QW3svKO/6Sdg87/htYUFCLYmz+ruy4tz36tt/NNMNR7X5mZNQKilYzgd8L2HBspZLMzImidYQuPxdAcw4zrC8er0NAGYo/XsbSKzDT/bWD5K0n9wpFB/g50fWnDNxzj1E8T4/pS44gLekKkntQlY/KFXiD1BCIiR/RROSQSUWhkcItaIsudETDQFV6RjqOvX+gjYGCjygPrNRuGLiOwgj7mR7jms7eqP5ujZa5DSEe5IFzYIHoRORRaD02Pc8DBgSkJAJBaonjf36DngIODhQEAkFrCOewYBq1/LAKNAQAAAAM7BgBAasGOIRkO68LwpnNuUcdevGSYlWPXMPDJ+2RUye/qHfFUirSW2CqPZXfohkKh5VntSCc4s55lyxSneW3djj8l+qOTeCliI82cnI+4t++UdgA0yO/U15o90ZpsUewj6515z8Q4Qs9w1CuLKLFVQyAXbZtRYoe5+OsY4rOVnc0T2QNDIxNeU4jdruGk6SmBWl+/JdopVlqqTltkpyuUdJ3te/hnc9FwXdWZqhVZuTLE2wmDhX35M4qdgSO8LnRE2DQAUxIAAAAGTEkAgNQCU1IyYGEAAKSWkFwKBzR8ILpTbw7rwrDrtRV1TDprWWSnetuZfREnzKojTYfWtV3hj2PZ1LPVuGcdv6GPSYcy6zwZfM9vGg5UeTkQ3Y4M7OcaAftkO7FRR54XGI57rpHFrJ86rtBPXB1Dj0Lhh2YGAxSOg7mdemKlo2K0REc+dKeEyGIMy5/kAlOw2IqEaDjGDYvrWXqK0tJ0nWaTX787rR31cot00DxJscgf9EJWj6M+y8Wr6dmiqrOownWHmUaBlcM2nAKORrBjAACklngO4rP18gDgYGEAAKQWaAzJgLeSAAAAMLBjAACkljB2KbSEqYOek1BnjiIOaWH4jZvuZOXma7W6WPoFF/z8puEcJAQsKzuaJ/xzvI7heORKjyrdjhNKYVlXks+ZZZJ0jVcbukXZJ8N5TfQ7KPZ2lJPCu1XHEuMlgdYWFZmq7k9nVNwfw1FuaJv+cMrrdUaMqKQiAmt+t26ntZjX6YwZgxXRd93dupPyZYSoop/XSN4P4zvHrxnit9fbe1BGc41iPY4wFO0YWeZk5rf2rO6PJyLJ1htaxI7a/DwjUSFNTC9i5dywdHBbWLNMRA5FAxo+IqT27AlMSQAAABgwJQEAUgvE52TAwgAASC1z0xhgSuoFTEkAAAAYh7ZjEDuyRT+0mhPi4lRvldQ1XhsIs3wNy1a1+it/OHSH9LonvW+9tm6nPcxFOSPAJYVZvR3NiOCUTqTH2h4V46jpxh3RR+kdTETUrQhvcUMMlyKx5R3d6xwiouy0TEeq63S00ztFIt1nZkbPWWucz1FkZKmUEWi9GX1fu5Xez5VK0xkawn9TCLmjWpINlxnpLMV5Mh0pkU5JaqYWFWJz3DaeYRGh2IpYnMvzfst0oEREI4tnWXl6Z1nVyVb4WMvCozo0Jev5Y5/4jNSehxuYkgAAqSWaQ6wkvJXUG5iSAAAAMLBjAACkFojPyTDQwvC7//1u8rKv2CoXb+fGcK+lJ9yf7Yo62qkoLPSRWkwQZQz7bCSicO7WWata49xA7rW1bbr0Iu9jc1wbvrMz2qjvdnlbQUk7HhUn+Xw0l+qxd4e4DdTXw9A6jGFiby7l7Qy9pO9PR2gVlsYgNY7ctK4jndCIiBzh/NQdNmzhe/kcBcpJkCjKSAc744MtoplGBT0hsj+xoTGQ0CHiWeMjktNtu3U+jmhYP+eOzNhWswQdkUGuYIhHLwiRZ5m283favG3p8EZE1Al4n6XzGhFR0OXj3zs9xMpRo4+UfwkSkQsHtwTAjgEAkFrC2KFwwGipg9Y/FoHGAAAAgIEdAwAgtcwtgxtMSb3AwgAASC1R7FI0oPgcQXzuyUALw9LNVfL/Q05J9xcvsP+P2trxxxsbZeW4o4Uyr8DFtLhaU3XCapWVs8vGVZ14lHtZdRcNqTq5PbyPUVaLZ7HfO9Wo5SPTHhOCX0ef2FzC6wQyjSeRFpKN51ilMTUcw4qT/MT2sL5WKPyePMN3S6YotaLf+rO92y7sMBzchGjdTztZIwJscxmftOwefV87i7kAm92l63Rl5NY+hG4ioqgozrMc3GRTUowmIn+CK/3BuP685F7NPwutpr75jvDKjHZor8ToeD4fQwV986dFJNdCkfcnpD68JkHqwI4BAJBaYEpKBiwMAIDUEtHgbxn1kbrkmAdvJQEAAGAMtGOYObXEHNyKY69m/28FpKO6cNgJ9HodCAc3tzuq6jgO/1XQLmnnIK8pHO6M/kQ+Xwu7ZT0FmdlAlK0IdVYGOW6zdtu6jicDuRlIBzdZJtIObjI4IBFRKEzPkRGMT2oKXR1HjTLcpE2dEV3H0mFk8MFuSdeRWo0V6E9qDB3DUc4VgfYsRzm3JbQj61bIW23cr/wL2qbfOo53XDq8EelsgbGhX0j9IJzVN63V4s9+ZGRRCzu8jyMnT6s6s3U+sfVYXysORNBHnz9ooW88ePPI3Bzc8Hu4FzAlAQBSy9xCYmBh6AVmCAAAAAM7BgBAakE+hmTAwgAASC0wJSXDQAvD8P96nHznFeFrx/vPZf+f32tEnexyQStT13W8lshs5WlhWQp3XsvIjjbGryXPISJyDaczSZDnwmF7VAuJVgY3SeTp89rD/KH0m0ZUUiGAel1D6BaXD3PWWEW02SndjhS2LQc3KVr7DV0nKOpjso9RwYicKp7A9iLjGRLiatRHQM+wYoiiMgKrb3xBjHAROfOiFmTbY8bLCLKPw4aKLq7vF3Qf67v4RLpFIxpxXXw+rEx0ou1mu3cEYxlJlYgoKxzapmV0VZnxDhwVYMcAAEgtc3Nww46hF1gYAACpJYodigZ1cEPY7Z5g6QQAAMAYaMfwwJ77qFJ5JVDdGX9yJ/v/yQu17XXkcW7btAK5OSJKm2dkLJN6kcpgZhD5+lpemzckM5gREflNXpYZzIi0DkBENPQSt+u2Fmn7a6bO+21d3xWaggzqZ9Vpj+j+SNu8RSBiq2VmdR3pKGc5hoU5fTDM82Ne2xoHL+em9W+VhgiQZ71UEmf5tbI79aPdrYg++sZAZvjz2l1ieQ4az7DQAuKWvveuyHYWGPfHEcH3HMPBLlPmQlCwSwfIi4V4024bWoBoO1vSAfuk7pBXQfT0OfNJNAdTEhzcegNTEgAgtcwt7DYWhl5gYQAApJaQHAoH9EsYtP6xCJZOAAAADOwYAACpBaakZDikheHf/vy/sfL5b79D1Zk+lZdDI2NZRiRsc3XiNRW90zGyaMn8G5bzWGuMPxTmMxL3jlwaGf5Cs8cLwc8U2kXZ8LdrjfDzXFPfE85ShtOZJZpLpEOb1Z9umXfaEp8zRla1UEQ4tTK/5fby82RGNyJS+9rYNaLWzopKxuOh+m2I4bEQ0fPb9Y2OjKioHdEnb0g/NLFwOnOM1ya9MlfjC0XtcVib4k5wQ8cZbwzIdl0jm6CI0hp0ezurFXJCfA4XNoNbSIObhoz3RoAASycAAAAGTEkAgNQCU1IyYGEAAKQWBNFLBswQAAAAxmHdMTz6zY+oY6v/+E6jJqe1lAt3ft0Q5YQ3tCVkSo/lKNNboLaE1PaYOM9ysrbETaFqWX2UWKks5bFgyIrAKtJ/lnt7gsdWf8RpMo0mkfZYjrL6WpYYX3iJ/+6wxtEVaTotYTcWHspxxkgPK/oko4sSETlCII5klFIiIlGndUJ/UqWbFfVe0sp/5oQ6K3fb+ob4Gd5Oq6nTiGbyfGydjhaNA9G2L/tHRIUCF5JnZ3U7lTL/ULnyo7HALgHxHPIxxPBj6AlMSQCA1AJTUjJghgAA4AA88sgjdOmll9KKFSvIcRx64IEHVJ04jmnjxo20fPlyKhQKtG7dOvrlL385/509jGBhAACklpfDbg/61y/1ep3WrFlDd9999wHrfPazn6UvfOEL9OUvf5l++MMf0tDQEF188cXUahnRQFNC4qakpZu5XfXFN2rvNWmbD4qGA9GI0CEa+uZ2y9SzjrRXW0ZSlUHNcDCznMf60QbcrrTX63ak3d/a+cYiMqZVRzqr9ZP5zHJwk9cKDY3Bumcqemkf0V69lq4TFESnjOim2b18cLGvB9tdLLKzjegPbvgSdx7zlmvPwdBwBIuqXK9wluqHpiMcyiztqtsRH0lDBHOFs1q3ZjyM8j7mDIc71W7vaylHOeuBmUeSTtRzySWX0CWXXHLA/4/jmO666y76xCc+QZdddhkREX3ta1+j8fFxeuCBB+iqq64yz4uiiO644w76yle+Qtu2baPx8XF673vfSx//+Mfpueeeo5NOOom++c1v0he/+EXavHkz/fZv/zb91V/9Fc3MzND1119PTz31FL3+9a+nr33ta7RkyZKBxt8P2DEAAMAcefbZZ2nHjh20bt26/ceGh4fpvPPOo0cfffSA5914441022230U033URPPvkkfeMb36Dx8XFW5+abb6ZPfOITtGXLFvJ9n/7gD/6APvrRj9LnP/95+ud//md6+umnaePGjYmMC+IzACC1HEoGt2q1yo7ncjnK5fqII/Mf2LFjBxGR+lIfHx/f/3+SWq1Gn//85+lLX/oSXXPNNUREdMopp9DrXvc6Vu8jH/kIXXzxxURE9Md//Mf0jne8gzZt2kQXXHABERG95z3voa9+9asD9bdfsGMAAKSWiNw5/RERrVy5koaHh/f/feYzn5mXPv/sZz+jdrtNb3zjGw9ab/Xq1fv//fLCc8YZZ7BjO3fuTKSP2DEAAI5Jtm3bxjJSDrpbICJatmwZERFNTk7S8uXL9x+fnJykM8880zynUNAZ9ywymVc0KcdxzGNRlIzGk/jC8P/94BOsvPZNt6k6f/qVe1n5Xd/6P1SdSAiQXc8QloUoGuWNDZGYRytyqlTlAiPaqyUcumI2ZUpMIqJYiImWg53IdGqmEZV1TB88cdByTJOVoqJRpcPnWs7zATsg+h2XDaezOh9IaAj2lO0tPneP52KvcjgjIprhNySQYjAR0SLeTnfa8PgzRFoSjnmOcWOzwjGtXNTi93SNf2nk89oDUo7equMLkdj3en+BtD09H60OP1ap8EiuQWaBo6vGDoUDmpJerl+pVNjCMBdOOukkWrZsGW3atGn/QlCtVumHP/whXX/99eY5r3rVq6hQKNCmTZvoD//wDw/p+kmBHQMAILUcisbQD7Ozs/T000/vLz/77LO0detWGhsboxNOOIEcx6EPf/jDdOutt9KrXvUqOumkk+imm26iFStW0Fvf+lazzXw+TzfccAN99KMfpWw2SxdccAHt2rWLnnjiCXrPe94z0FiSAgsDAAAcgM2bN9NFF120v7xhwwYiIrrmmmv2C78f/ehHqV6v0x/90R/R9PQ0ve51r6OHHnqI8nljt/lrbrrpJvJ9nzZu3EgTExO0fPlyet/73pfoWAYBCwMAILXEcwi7HQ9Qf+3atRTHlp30FRzHoU996lP0qU99qu92Xdelj3/84/Txj39c/d+qVavUNa1+vOtd76J3vetdfV9zEOZ9YXj4H/6HOvZ7/5nfqGV5bQ/dfqG4mdJ5ikg7ho1o+2fc4e1ERiY4RzihOYZjlnT6IiKK26JtYxyxCOynHO4M3KblvSb1FKM/0lnMsHvLYHzmuISm4NV1f4KyYdOXT5d1y5TDoa7jNIXzWt64VpVfzBs3bN/DQoew5kPoB12jP0MVrQ3Ua/zXYa6gr9/cyQWcdknb9IslnrEtDPVcx8IUIrOqWTTaWvAqZHkfS4bmIa/V7PI+h92FdnBz5pDBDUH0eoEdAwAgtUTxYJrBy+eAgwM/BgAAAAzsGAAAqQWpPZMBCwMAILVEc0jUM2j9Y5EjYmF45O8+ysrn/dc/V3VWPMINgxNvMBrqR8gtciejqK0jZapMZ0a7UmgmIoqlkG1FRRWCpyk+y2imRsYyFRXWcLpSv4wMB7NIiM+ObwjmYlxhaDw2xmdNRi+VWcWIiFwpJBuCcCjukZczxGeRsa3HiyRERNRt6f54wpmuIMRgIqKOjIBKRK6YNxUllYhKy7lzWKPe29NWir9ERLkMH2vW1/Mhxea24cw3Xqmx8nTzwK9XvsxwTtzTQM8PSD9HxMIAAABz4VA8n8GBwcIAAEgt0BiSATMEAACAcUTuGH74V3+ijr3mus+x8qLH9Hm7z+WG5Ycv/ryqc9E/fZCVPcNZKpaB9gynr8gISuaUucOQpV9Q1IdNv9nHbZG6g7E7jmV2rW7v3wGuoXmENd4fZ0w7VMWz2oYtNQXpPGYR1nU7ntCFYiOInpcxdAeBL2zxxaK2j0dRbwfIfvSLfEHPkQxs96oVOmTyMzt4Ni6rjxkxjnZXPy++x+ucPL5b1QnEL+fx0qyq0xZ60kyb6xBhe2HNMhHNIVYSxOeeHJELAwAA9EM8h7eSYiwMPYEpCQAAAAM7BgBAakk67PaxChYGAEBqwVtJyZCahWHLvRt61lnzgTtZ+cLMh1UdR4i2nqtFS+nk5LpaIHYNIbUtxVbDf8kXImloCKmx6KNjXF+KpNZvoECI367lKCfbNSLJuiUuqlsisnRmIyIKA359x+iknNs4b6XU4/hGdrZinou9liArs6rNVnWKxcWLuNNXxtPXana0QC6dzqzrS16q6uxh42M8Qf1IvqnqVIUA3HX1F50nxjrV0mM9oTLF67R1+r7JapmVjxueYWU4uB2dpGZhAAAACUxJyYCFAQCQWhArKRlgbAMAAMA4qnYMP/nSf2Pl1X98p6pTPYfbwjPZ3jZtyzae9fV5m8+9n5XPf+ydqk4otAE3q+31LWHDlrbxfcdCUdZ9lGdJBy8iHaTNM7LOSYcqK/OZFX+mJWSH4ZLWIRptPlbPN+zlwpnQsvvLOZJ9JtJOX8WczrIWiIxp1boOLCf7Q0TUFEHrlo1UVZ09dW7DL2b19Tsh12WknmCRM+Yj7/O2Zzta8Hp+ZoyVSzmtF5y8aA8ru+Kp6hqfg/kEpqRkOKoWBgDAsQUWhmSAKQkAAAADOwYAQGrBjiEZ+loY4l9HDatWtd30SCZsa5t21OTHQkcHO5NY9vswo+3D1Rq3PYcNbbOVGoNM3ENEFHakfmBpDL37GLWEz4Rhd1cJfwz7uUxCY/bZ+LCp67vGfLR521bQOpm4yO1DY5DzTETkiPOs74dQJiVqGb4fVlBFcV6QMcba4PpB2NXPkHxjJvB62/AtzScQGkNgPOZhyOfD8knodvmJUmMI6r0/P0mChSEZ+loYarV9Tj8rV65MtDNpZ5k6cscC9AIcCTyz0B04Rohp8NdP+wiOe8zT18KwYsUK2rZtG5XLZXKsn6YAgGOSl60J5XK5R02QJvpaGFzXpeOPPz7pvgAAwEDAlJQMEJ8BAKkFC0My4HVVAAAADOwYAACpBTuGZMDCAABILVgYkgGmJAAAAAzsGAAAqSWOHRUIsp9zwMHBwgAASC3Ix5AMMCUBAABgYMcAAEgtEJ+TAQsDACC1QGNIBpiSAAAAMLBjAACkFpiSkgELAwAgtcCUlAwwJQEAAGBgxwAASC3xHExJ2DH0BgsDACC1xEQUD5iSDRnceoOFAQCQWiJyyIHn82EHGgMAAAAGdgwAgNSCt5KSoa+FIYoimpiYoHK5TI6DSQUA7CP+tYG/UqksyHdDFDvkwI/hsNPXwjAxMUErV65Mui8AgJQyMzNDlUplobsBDhN9LQzlcpmIiLZt25aqm//tX71OHXMpYuWZqKDq1MSxvd2SqtOO9NSFQrJ5qTWs6pT9Fivvauu2W2GGlYt+R9WZbvM+VrItVWe2k1PHetEMMupYwe/2PM9x9Lseu+p8bPmMbmckz/td72RVnWKGj9/qYyXbZuXdzaKqk3EjdazXtbqRp+sY85H1AlZ+oTqq6qwa3svKOxv63stxNIyxyuv7bqjqyDkayuhnqCaeD9e4h3ITIOsE9Q794xVfVefNF3E8h7eS8FpST/paGF7eIlYqlVQtDMWy/lC74o2ETqinIBBf+rmu/nBSHwtDxtNfctkM/3LK+LpOKBaGjHGXfJ9/qDNZ/aXnZwZfGHzji8j3e7+jYC0MXsyv72d1O5k877fVZz/D75nVx0yWX993jXb6WBjktWJjYcj42hSR8fjYvEBfPzPE77XvGHXkOAL9fMjrWwtDV5yXMR5hOdfWwiCPWXUWEmgMyYC3kgAAADCOqreS/tczZ7HydKjNCdKU9FJXb/lf6nATUK2bV3VywnRARFQV9Wa7+hehNA3sbmpzgid+2WZdfa1aW+wYjF+NVWEqKBqmnDDivw2axu5I9sf61djo6PNk25YpZ3K2zMqR8YNUzrVsl4hoUphlglD/0m+E/LxOoOssKskdpa5jiZejYv6Hstp0E4h+Dxvmv5bYwcpziIhch89j3ngW5T3KGs/HSK7Z81pTbf4Zks9ZEC7sb0vsGJLhqFoYAADHFngrKRlgSgIAAMDAjgEAkFrwVlIypHZh+NbTZ6tj9Yjb+PcG2n4fireSpJ5ApDUF65VS65VJuUVtB3p6C8LOP9vWb51IW2/LaEe+BbSjVlZ1pC21nzdKZP+IiGaafD4sG61ln8763PZtbeGlfuEbfQxi3rY1jpro49hQQ9VpEr9n5Xxb1ZFjzWW0/d53tFbyyz1LWDnra5v+808uZ2V3sb7+2MgsK8v5ISKacfirys/PaJ3spBH+aqzUv4iIqm0xZ/m6qnNyeQ8rPzZ5PCuHDeN1p3lk38IwqMaQUGeOImBKAgAAwEjtjgEAAPBWUjJgYQAApJaYBs+vAEtSb2BKAgAAwDgidwzf+OW56lgr5iJXK9Ji62SXC8kvtrQo1xThJqxYNEHMnZr2GnF3LLFVCrfWL5OZFhf8rHYadV4nNJyIPC/qWUfGuZmu67hQUlydbWinvOESd8RqdvRjE0V6ex57/NjEHi30Z7P8+q6rZ22qxuffCuJZLvI+WtcaKnKx1/e0QCxpd/VYm74RNkS0NVJoqjp0CheELSe4aovPf97X4vfOGn8ZYrigHeWkQG8J//KlhrrhkCkdMBcJUT8gLaDPJzAlJcMRuTAAAEBfwJaUCDAlAQAAYGDHAABIL3MwJRFMST05IheGqpEjYXeXawoT7RFVpx5yZ7E97SFVZ2ddO6tJZJA26ahFRNQ0gsbVmtxGaz2wHWGflzZ2IiJX2Ks7bX0t6eBmXcsRzlGRERBOnmfVqbf4vMoxEBH5hkNXUzjvxaHuYz7LdZmZqtZzPNG2pTHIYG65nHbUk3WsIHodoSmMD9dUnd2z+rmSTlPPTOnnLFfondeiKOZj+64R3U6e16kbTpIvRFxfGytoh79yjusDQxmtF4wXq6xc7fDPZrePXB1JAs/nZDgiFwYAAOgHiM/JAI0BAAAAAzsGAEB6iZ3BNQPsGHqCHQMAILW8rDEM+tcvjzzyCF166aW0YsUKchyHHnjggcTGciQx7zuGz/9snTomI57OBCOqznPNRaw8UdcOTG2R/aphZCOrCucx6ShGpJ3FOq3egjURkSOcs6y2Y+EI1pzWUS8dmb/ZeJDltWS7+w5ycTVu698BLSEIe77uc7vJ5zHqaNHWKxnn1YQoaoxjapLnEM9WtACaF0JyyxDjPTEfgSUsi/44Y7o/0lHu+WeXqDrjK6fUselZLspm81qUHSlxAbhlvMDQFrmij1syrep0o94iuozKOtXSL3R44gUGKxqwdHArCLE5CHrn0U4z9Xqd1qxZQ+9+97vpbW9720J3Z97AjgEAkF7iOf71ySWXXEK33norXX755QN16zvf+Q6dc845lM/nafHixez8VatW0a233krr16+nUqlEJ554In3729+mXbt20WWXXUalUolWr15NmzdvHuiahxMsDACA1PLyW0mD/iXJ3//939Pll19Ob37zm+nxxx+nTZs20bnn8jA/d955J11wwQX0+OOP01ve8ha6+uqraf369fTOd76TtmzZQqeccgqtX7+e4gV6txbiMwDgmKRa5T4auVyOcjkdL2pQPv3pT9NVV11Fn/zkJ/cfW7NmDavz5je/md773vcSEdHGjRvpnnvuoXPOOYeuvPJKIiK64YYb6Pzzz6fJyUlatmzZIfdpUBJfGO79+etZuRtrB6afN8ZZ+flZbfytdfgNswLCyQBs9aq23/tZ7iwVGvZZ5TzW0nXI0yt5LK4fNY3plUHijF8vcVNcT2oOZGgM1rUkRjs0ze3czlIj+JtwenOr+lphQTvqOUKvkHNPpMch556IqDbD73WuqO33KhOc4XCXGeNjaxjPR1AUm2jjPneNgIXy2bOCCs6KAHntltYYyiXex1qr9xeVFYjRFZe35jUWx6RjJxHRnl9xR7mRVdP8nMYR8Ntyjj+qV65cyco333wz3XLLLYfcna1bt9J111130DqrV6/e/+/x8X3ff2eccYY6tnPnzqNzYQAAgKQ4FAe3bdu2UaXyyssPh2O3QERUKOgfrZJM5pUfBc6vXfmtY1G0MOI+NAYAwDFJpVJhf4drYVi9ejVt2rTpsLS1UGDHAABILwmH3Z6dnaWnn356f/nZZ5+lrVu30tjYGJ1wwgnmOTfffDO98Y1vpFNOOYWuuuoqCoKAHnzwQbrhhhsG7OjCgR0DACDFOHP864/NmzfTWWedRWeddRYREW3YsIHOOuss2rhx4wHPWbt2LX3rW9+ib3/723TmmWfSG97wBvrRj340l8EtGId1x3DHkxerY41ohJWfaWiHoV9M82OWCCazeAWGk1UUiPMMAbArhWQj4mc/y6XTMjKmietFeW0f9Kb5lIclI4uYLwTZWSNjWkGclzFskaI/Tt2Irlrg53VnjO207M8inXksahsivhBuu1O6bW9YZL2b1HXisnhhwBCxd+7mjnJ+RteRUUlHF+nIqQ0h9ipnQyLau7OijuXK3DEvZ0TN7YoXHbI5XUdeP5TPNBEVCnz+fdd4zoxjEimGF7Ja1C+fUD1onaC7sNFVk2bt2rVzemX0bW972wEd4p577jl1TF5j1apVC/aqKhFMSQCANIMMbomAhQEAkF6wMCQCNAYAAACMw7pjmAn1+7s/mT6elSdmtX12usbPC9q6W9KBy20aNv6MsIV3DOexbO86biC0gqzxE8M45LVFQDrpqGbg7THs/u7By0REysfKMCnH0j5uaC6OnEejy26V1wkXa43B0mpyz3IbdusEfV5YFU5eo4bzmhyH5awlNA5tvdc2/WpNO1sGdd6f3HBL1enE2jGtK7LadRo6q1q+xHWIjvGcywCO+YKes2KOH7MyuBUyIvCgESBPOtiNDeksb3v28iB6rnSK6yzwz2+E3U4EmJIAAKkFqT2TAaYkAAAADOwYAADpBeJzImBhAACkF2gMiXBIC8On/v1SVn5k52mqzq4aF6/qMzqiJQknHrdmZKSSIrFhBHPrvW+4M9u7jkh8Rm5XnxMZIq0UiX2jP2FeROHUuiG5IomZJT67DX4w9g1BVrQ9tE031C3LsqFii8ih7owWX6OidihrHS+E5K4xEDlFlmAvxOeulfVOiN+WHbneES9HWIL5KBebrSiprjHXUkR3hrT8HfyCT3ZwvM5WJzPoDeW1+LxnZoj3R0bsJaKdIf/cSVGbiGikwsXmiT06K2JRCOa5DB9X6Fsy//zhxOa7CD3PAQcHGgMAAAAGTEkAgPQCjSERsDAAANILNIZEgCkJAAAA45B2DN+dOJ2Vd+zW4lU8xRXQ7IzhsSxFQEMdkgKwFIiJiPw6L0daIyVHaKuWsCu3mlY7cV73MTvN+9gd0nUyNelVbVxfEBa0IJwR3sh+S/8Kao3xY43jdTuucV7P6+eMVKMNfUMy07yPnSVGas+2ENHLWswMrdSqqhIveiNGqtEXuWgdLNXCbqfJb7YlNGdz2ju7MywEeiu66cmiT4bns4wAu2uH/kzlK1wQ9jx9rVaTP1gZI9qrjMA6NlzvWUdGOQ4bC/zrG6akRIApCQCQXrAwJAJMSQAAABjYMQAA0gt2DIkw0MJw1gO3kVd8xU7bmeSZ13K7tS3YFWbczKxu15HJyLSpkzrC1Oq1DB1CmFE9I/JjfYUMXaqvJdtxrSRrhm0+ErPp92N/ta4v5izXthzTejvKZav8+qERFFVlnTP8lbo5oe8Y/fHrRh+Hhe3byDLnT/FnplsxbPoTfHCdpbqTcZG3HRpOeJ7UC6y3U0SV0Iji2+zoY16OPyRByxCmhCNatqC1Ckfoa66RrU5mdSvk9I0NMrzOWFl/qCaFQ9viUZ3RTlIucn0jJOOhmk/wVlIiwJQEAACAAVMSACC1ICRGMmBhAACkF2gMiQBTEgAAAMZAO4bC98vkZV8Rn4drfOn1W1ook0Ku2e4OHtEyzur1qjHO00S6Xb3sRxkhthr639B2LlK2Ry2HO5G+MN+fWOWJLJBWH7ulPhzKRPBQ2S6RdpSTjntERIHIXCkFayKi3B4hPutsl0Qi1Wlhp37JoDtsvAwgo9JOGakspaOg4cwW5sQBI+KpJyLyRjndn8JLwuHueC2cyqislohcGtEpMGdnRORWI+KpL5zMwkCPtT3Fb76T15+poCPOG1JVqDLEH5rdMyVVxxeRUss5He11R5VHhB2SQrf14IHUA1MSACC1ODQHjSGRnhxdwJQEAACAgR0DACC9wI8hEQZaGKpnt8ktvDKpmW3c8cg3Aqn5TV62HNM6ZW7YtgLbSTtzfq/l4MaPdUq6oc4wfygyVUMHqPA6rvZDUs5sREShcDKTYyci9UaE5cyXrYr+lHWdoMgbcgL9sPvCFJ6p6floLxYOVX04wbWXGHZlYzsvzc9mUENxnjWOcFTcAONzHY7wizlGJrj6aqFlTRnZBIUTnuPrsXa7+ua7O/kDGo4ZD43QwGLjC0pmkGvPSoGFqDzGH5rZhq6Ty3H9wAq0NzzEH9DtUzpg39IK90idafI5CwPD+3M+wVtJiYAdAwAgvWBhSARoDAAAABjYMQAAUgs8n5MBCwMAIL3AlJQIAy0MF532FGVLryisjwydyv6/sasgT6GsiJ7pNbXg1hb6lRRNiUgJjtUTtbgYy+imhrArxdXmUt0fKf4Geli2X48wzNWP023HwvEpt003Uz1ZNNsxHLpEdFcpRhNppzPlcEZEfp0fa40bWdaEIBx7+lqeEV01FtFMYyPzmzctHNOsjHYur+Maz5AUtq1rudLpzHAei6XznCF0t/YYD8QiLjbny9pZrDUjROLAcK4U0WWXjM+oOrt3VfilF+uoqDLzWrOjlf+aEJIjw3Gw3uE3pNHi5agFB7ejEewYAADpBTuGRMDCAABILdAYkgFvJQEAAGAMtGP44mu+QpXKK/bN9zvvZP//g+xJ6pyZIo/w1TEcj3wRAM1y6JJOb17bsLsLs25rsW5HOquFRrA1GYwvKBnOdNqErOzRlkOXL+zjjaW6TkaYjIOCvn7siSB6oWEMF+Zfqx01fqMdqXGowHdE5BmOce2KcBYzNI5gXJzYNbKjDXFnrWjIsM1P88m2dJCozZ+zfMXQAapcB5AZ1YiI4pzWJjIiG1unrT9ahRHuvBaGRta7Fj9v77QOflco83Ys/UAGAyzmrGxxfF5nI+0oN13lzqf5Ar9fC+/gBs/nJIApCQCQXqAxJAJMSQAAABjYMQAAUgvE52TAwgAASC8wJSXCIS0Mf3H2/8XKH3Lfoeo8VR5n5RenR1Sd1jAXz4IZw8tJ3MyoY0RO9Xvfca/Bz5MOZ0Q6g5p01NpXx8jQNcvbtpzg1HnGUEMhEkeGs5Z0HHQMDTAq8vNiw6HLmeGPgBTHiYi6i7hI6RhRdGN9SInx8ZCR4U9GM92tJyQzwZ+PlpF5LbOce0VKEZeIyM/y63eMOq4QlodKOn1eYGRea+7mIm1mWAvbbZENLpvrnd5wuKK9NBstLhJLoZmIaOkwj4q608jgNlLi0VUtoT0ULwMMj/H5CCLrLQyQdrBjAACklzmYkrBj6A0WBgBAeoEpKRHwVhIAAAAGdgwAgPSCHUMiHNaF4Qtn/U917FP/fikrb/ZOVHV2Nbl39FS2qOo0a0JwG9LCXSw9SQ2BOihxcdExPG2dUIi/BS3+Wp7GwZB44gxhWz2UfXhhmukuhYgdFo3IpSLiaRRp0VR6NUeZPvpsiPGd5YaQKrtk3A/5EoGzRAvLrTGRajWrReygK8ZmTGvQ6V1HRmCtTelnMVvUXsT5RVzI7WwbUnXixXxsVrrNpUt4aN9qQ6cfLReFAGx4UO/YyyOw+hk9Z5F49haVdFjjKTEfTZHWdKE9n/G6ajLAlAQAAICBhQEAAAADGgMAIL1AY0iExBeGksftob+36JeqzpbqCaw8nNNORbNlrjHsrWvbbyAyYlmOSJHQFGIji5ZyGDIyW8VZQ3cQjl+WDkIiwqfpnSSdvjL6WqHsk6GVhCKrmFPTtztcwR2U4oau4winr9jojzVHSlMoaHt0vsTt7u1JfV8zi7n9Por0WIeKfBytto44mhF29sasjibqerxOrqI1D9/QBqS93j+pquqodlzdzlSNjz9nREXNij62u/qeLRrhDm6hMWcyy1sxo8fayfHnda+IthpZ2RbnEWgMyQBTEgAAAAZMSQCAdIMdwGEHCwMAIL1AY0gEmJIAAAAwEt8xbPjN/5eV/+KptarOecPPsvJkt6LqvNAcZeVS1oheGfLhTDUKqk4sRMJ6QwuQjnDqUY5RpCN1EhF1PX59z3AEk8JtbDjKxeJ6seWEJ8RvzxApAyEku4u0uCjFVivep5wPWSay5yPM83Hk8vr6jV3CEcyYs65wbsyUdDu1Kr/XflaPRKbbXLyopupMzUjHND2urK+PNYTY3axpx7SlS2d4f4yXI8ZHeJ+sqKgNIRr7njH3QmyuGY5yK0Z5f4q+ntdZl8/9cYv4OUG+TfzTO79AfE4GmJIAAOkFpqREgCkJAAAAAzsGAEBqgSkpGeZ9YXj/bzysjt3789ez8vLstKrjiXRoFV9rDNNdbmd2jSfAFfvIatawzYfc9tvwtbOU1CqIiLwhbqMNjeBmMkuW5YQnHdxcwxEqFjZk13C6ypZ5f6wMXe09fM4KS7THkhyr5ZMXGuOQmoI11uISnqEsl9HaQEHco9mW1oWCrHBcNO6PDJA3XdMa1OJRbuP3jDmrt3WWuSExVkuHkE5w/TidjZb1/ciIOgVfP8NTLT62kxbv6Vmn0e39nHfEZyPsLvC3LExJiQBTEgAAAAZMSQCA9IIdQyJgYQAApBZoDMkAUxIAAADGEbFjuO60f2blr//yd1SdRR6PFrnDH1Z1dnfLrDyWras6ezvcgckSZLsi09lQVjv+tEMjG5poq2GIlFKAzBmOWLJO3hBkI9HtpnGtdouLiZZjmjfcW6CWom1XZksjIs8QW+V5paKOmtsWgqd1/T1Vfs+y1pwJIXdRWd/7mSZ38nJ6J8+jvbM62qv5zIjnYUl5VtVpirEuLuk+tgP+kZypa4F8TGRaawZaNJZZ3Wba2sFNititoPfXQTnHX/oIAv0SyLwCU1IiHBELAwAAzAksDIkAUxIAAAAGdgwAgNQC8TkZjsiF4epX/as69sAza1h5ZWavqlN0ub28kdF292VZnlnrWW+xqtMMuc22E2mbetbVNvWXGjz4n7ThEtnahETalYeGemscWb+p6gTC6apa13Zmafe3HMPkMelwRkRUM4IRynrS7k1ElMvIOkbWPXHeUM4IBpgXmehUDe1wOFbRNv6KCM7Y6mj7fWjMkeyT1Bws6h39fEoHN9/QbjIiaJ7ULoiIlpW5o56lQywv8s/Cz/cuUXWOq/A60kG0a2R9m1fmwZR099130+233047duygNWvW0Be/+EU699xzD1j/iSeeoI0bN9Jjjz1Gzz//PN1555304Q9/eMBOLiwwJQEAUsvLO4ZB//rlm9/8Jm3YsIFuvvlm2rJlC61Zs4Yuvvhi2rlz5wHPaTQadPLJJ9Ntt91Gy5YtOwyjnH+wMAAAwAH43Oc+R9dddx1de+21dPrpp9OXv/xlKhaLdN999x3wnHPOOYduv/12uuqqqyiX0zvpA/GDH/yA1q5dS8VikUZHR+niiy+mqakpIiJau3YtffCDH6QPf/jDNDo6SuPj43TvvfdSvV6na6+9lsrlMp166qn03e9+95DHTISFAQCQZuI5/vVBp9Ohxx57jNatW7f/mOu6tG7dOnr00UcP3xiIaOvWrfTGN76RTj/9dHr00Ufp+9//Pl166aUUhq+YDe+//35avHgx/ehHP6IPfvCDdP3119OVV15Jv/u7v0tbtmyhN73pTXT11VdTo6Hjaw3KEakxAABAXxyCxlCtcv0kl8uxX/i7d++mMAxpfHyc1RsfH6ennnpqDp09MJ/97Gfpta99Lf3FX/zF/mO/9Vu/xeqsWbOGPvGJTxAR0Y033ki33XYbLV68mK677joiItq4cSPdc8899NOf/pR+53e0L9ggpGZheOspP+lZ51tPn83KHmnnJE88Rb9V2q7q/KLB7YJ7O7qdgqcF2PECF/yqXSOLl8iS1QgMAVIYQaXDG5GOzGk54ZEf9KwjI2qWc9oJTdaxBNmCkUGuK6KpWqKxxDfqFMUxK2quOiej+1ManWbliPS8BjGfV8sJbfeszPJGNCzmrWWIvVI0toR+WWdRQf/6k0Ly4qLuo6xjCdQ5jz8fGSNCr2xHRnK15jAtrFy5kpVvvvlmuuWWWxakL1u3bqUrr7zyoHVWr169/9+e59GiRYvojDPO2H/s5QXsYPpHv6RmYQAAAInz679BzyEi2rZtG1Uqr7xJKPWAxYsXk+d5NDk5yY5PTk4edlG5UNAe7pJMRkYJcNgx59eu/FGkF/hBgcYAAEgvh6AxVCoV9icXhmw2S2effTZt2rRp/7EoimjTpk10/vnnH9ZhrF69ml1nocHCAAAAB2DDhg1077330v33308/+9nP6Prrr9//JtDLrF+/nm688cb95U6nQ1u3bqWtW7dSp9Oh7du309atW+npp58+4HVuvPFG+vGPf0zvf//76ac//Sk99dRTdM8999Du3bsTHd+BOKpMSVee+hgrf+dXZ6g69Yj/KohivTZmhoRTkTYp0/b2qDo25GdFWdvLpfNcNqsd05bkeQC2dqhvU0scs7SKRpcfG8nra0mGjf5IZ61MXgdOs3QQme1LBogjIirlegdhKwltpB/NxaojA8lJez4RUVYcq7X164a+YYuXWG2P5rheMNU2tCthww+sLG8im+H2GR1Q8sSRqYO2S0Q00+HzUTB0GTmPI1k+hm53YR3ckvZ8fvvb3067du2ijRs30o4dO+jMM8+khx56iAnSL7zwArnuK/dpYmKCzjrrrP3lO+64g+644w668MIL6eGHHzav8+pXv5r+4R/+gT72sY/RueeeS4VCgc477zx6xzveMdjgDhNH1cIAADjGmAfP5w984AP0gQ984ID/L7/sV61aRbGV/7YHF154If3gBz/o6xpERM8995w6NpfrWsCUBAAAgIEdAwAg3SAo3mGnr4Xh5e2JdAg50mnUtJ23EfFjkfFUNUOdCEbSbmt7bCfi9thOoO3cXZlhxyB2eB+7xutn3ZAfCwLdbtAVAc9CbQ8O2k7vOs3eOoBt9+cag/Xefl+JXkRguX40htgIYCiH5hiBEF2hDYRdPa/mOGI+jtDQrroB70DQ1oH2usL3JIz0teT4w4bWl2RwO+mfQUTkuPxaVn+kz0iXRLDA+tGtMRyr9LUw1Gr7HLekQwgA4MjkiYXuAEg1fS0MK1asoG3btlG5XN7vRAEAAC9bE8rlco+aSXWAkMEtAfpaGFzXpeOPPz7pvgAAwEDAlJQMeCsJAAAAA28lAQDSC0xJiYCFAQCQWmBKSgaYkgAAADCwYwAApBeYkhIBCwMAIL1gYUgELAwAgNQCjSEZoDEAAABgYMcAAEgvMCUlAhYGAEBqceKYnAFzEAxa/1gEpiQAAAAM7BgAAOkFpqREwMIAAEgteCspGWBKAgAAwMCOAQCQXmBKSgQsDACA1AJTUjLAlAQAAICBHQMAIL3AlJQIWBgAAKkFpqRk6GthiKKIJiYmqFwuk+M4SfcJAJAS4l97EVcqFXw3HEX0tTBMTEzQypUrk+4LACClzMzMUKVSmf8Lw5SUCH0tDOVymYiItm3btjA3f4588t//qzr2YmuElfNuV9V5/fAvWfk7u9eoOkGkdfuPHPe/efnnV6o6GS9k5Worr9sOedueF6k67Ra/dZmsrtNte6wcx71/0YWBHpfr87bjSLdj/VgMZzOiIf2J9Ib4/Idt/Ug64vrWB1v2MWwa7WTEOMT8EBF5xYCVI2s+MqE6RmJuw4a+vi/GGhhj9XL8+mHH6GPWuL5A9juT1895p5Ht2Y6c16jL+xM1WzTxJ7f1bCdJYBo6/PS1MLy8RaxUKqlaGHKljDqW8fiHIevpb7RiiT/8mab+ADnGwlAqiy/0oZyq44uFwXN1nbiPhcF1+disL4vQ47e3n4Uh7lpfhHNbGOKw98LgFsXi5c5xYZB9NB5ttTC4+kvXFQsDWfNhfTGLuY1jfX05VtcYq5vn1489o4+53guD7LdXMNqJ+1gYxJyRsVCBow+IzwCA9BLH+/4GPQcclKNqYXjfY1ezcjscVnXGsg1W3tspqjr3bns9K7cCY8tv7F/f98Q7WbnZ0TsWSbNu7EY83nbGMF10hRkgigJVR5ozrF+acncSt/Uv5Ej+GjZ2DBQYu4iuOK+odz5hjc+R09HXj+UtMq4VtsQvWaOPcciPWdcK5S7C2DGExhw5hT7MO6JP1s4jrItnxhhrLH7Fu8ZOTO5gotDocx9asZwzT+xoHOO5m0/wVlIywMENAAAA46jaMQAAjjHwVlIiYGEAAKQWJ9r3N+g54OCkdmF4z4/fpY5lhGHsskVbVJ2Hplez8ksNrUM0utzOW2vqV0o7xquGkXhTKTLs0/INm8h4rVHax0P5ZgiRfj2yamgVwsYvbdzWtcjTP6fiBre7O0Y7bksfi3KiLWs+pA6RMX7OyesZb1e5DTH3hp5BYe9rubPiTS7Dfm+8cETuLqH5yLETkVPjb6BF1liz/Jg115F4DTjuGjpEidv+uzP67TenIPQCY6xS76LtBV427vu8gh1DIkBjAAAAwEjtjgEAAPBWUjJgYQAApBf4MSQCTEkAAAAYR+SO4Y4nL1bHnm4uFUe0a/7u9hAr/9kz/0nVaXX5kLuhbqfT4XU6Te2oZoWOcES8othyThKitWO049WF05lvOH3JQ4YG6Ej/KSOcQSwOSTGYiCjKCYcqo451TOJVDWcxKdK2jBAUwocqzFuCMD+W3a3HGgr9NTaEdq8jRH393gHFMkQH9Xc/IvFps4RlkvfM8JvzxByZQrfU63UzRELEjoz5cMR8xGXeocjvIzxHgsCUlAxH5MIAAAB9gbeSEgGmJAAAAAzsGAAAqQWmpGQ4IheGLdUT1LHpDnesaQba7l9rcyNyraENxC3hZESWF6SMwW/YlJ2GtmE7wjnKsrv7TV62bNjywXWbVkzrg59DpG3a0lZvXd+vGxqDCBrnhLqOZff3GyIAmzGOoCC0gRnj+kI/MPuYFc58lhOaGL8VDFC2HRlRpr2aodVIP8G63ozL+egMW054op2G0Y6Yx86I0c5e8fkwdAh5LcdwHIzzom2pmy20FzHeSkoEmJIAAAAwjsgdAwAA9ANMScmAhQEAkF7wVlIiwJQEAACAMe87hg9s+QN17OKRf2PlRvB6VWeiynNNV2cLqo6MZhrLrF6khUPp4EVE5AqnHq9l5A82RDd5TDk9EZErcrJ7TV1HbnWtdqROaPVHprOWwjcRUVdmRzN0bldczBKx5ZyZfTLazk7zwcn5IerTCU8I1K7hd5Wp8fMC/QhRt8Tbye01BPMhdUiNzUqv3S3zCXEMB0hPRCu17r3so3JkJCJXtG05W0YykmtHt+M0Dh5t1jEcEucTmJKSAaYkAEB6ieJ9f4OeAw4KTEkAAAAY2DEAANILxOdESHxhuPnfLmPlH+/6TVXnRztPZOXdU2VVJ6zzrlpORnL7kzGCtkmbbT/2xuy0PmY5UEmbumX7jWSiNcMW7c/ycmjYwqV9PDdlBZbjjXcN23hxJz+vuUR3KFMTB6x4ecY8BlK/MOp4wq7tGnZu5dClk+5RbkoEv9MJy5SzmhoXaQc7S0+QjmpE+t5b+oUM0GfpEPKBtJwCO8NCT7EyuInn03IK7IqgeZZOJNvuVvg5lkY3nzg0B40hkZ4cXWDHAABIL/B8TgRoDAAAABjYMQAAUgteV00GLAwAgPQC8TkRDuvC8N9/cqU69v3J32DlqZpUJInae7lSJ7NGERHlhCOUJcp5bV62fhlIB6rclPYM6w7xtq12/IY+mKvytupLtTKXq/HzOiUr4ig/lt+tr9UtCyc8yzmpyc/LzOo6mTrvc5g1RP0ub0f2j8iOEputijqGICyd5byWHqu8Z1Z0V/lSgd/Q12qPinOMp1+an+UzRUTkGA5+ElcH/1VY9ywoCoHaihIrnQANg7AUw6UzGxFRbjc/MSgacy/G6s+K6LMtSLlHI9gxAABSixPH5AwoJg9a/1gECwMAIL1ENHhOiIXOIZEC8FYSAAAAxmHdMXznmd9Wx5p7uH6Q3aUvWapyO6XlrJWZFc44gV72fWFT91rawyzKiUB7ruHQJfQLv67b6ZZ62+JLL2ljdJThbZeqeqyRcEwL87qPhb38vO6QXuPbwyL4nWHTbi7i52WN/uRqfPzVlfoe5vca9mlxPa+lry9/moQZQ3MRspTlVCX73RozNCjRn0xVVVH9CQztxNRKxCPi13UdOQ4z8KHQNCwnuKz4vChHQtLOlaGRwU3OY2ToIlLPyAiNIWwvrMYAU1IywJQEAEgveCspEWBKAgAAwMCOAQCQXhASIxGwMAAAUgs8n5PhkBaGK/7lffzA1tNUncXb+V2oPG95YvFi7se/1HWWLWHFqKxVQUcK0qEhuOW44hZUtJLoNblo3K3IkKhEfksrh26393twQYFPebeorXnZGm8nkqnYiMgTv3o6Q7qOFGQtsTMjsrpZddoVPmfl7VqMN0Vj6QhnGC6zwuGvsdQYxwyv47f1fZVCuxXZ1spgJ5GOcpao3lpsRaDl9cKsUUcI0ip7HhFlhGOejAhLpEViy3FR1rEiwrZHeZ/zu3s7Lsp2I7z6eVQCjQEAkF5eNiUN+jcAd999N61atYry+Tydd9559KMf/eig9Z944gn6/d//fVq1ahU5jkN33XXXIQxwYcDCAABILU40t79++eY3v0kbNmygm2++mbZs2UJr1qyhiy++mHbu3HnAcxqNBp188sl022230bJlyw7DKOcfLAwAAHAAPve5z9F1111H1157LZ1++un05S9/mYrFIt13330HPOecc86h22+/na666irK5QynF4OvfvWrNDIyQn/3d39Hp512GhWLRbriiiuo0WjQ/fffT6tWraLR0VH60Ic+RGH4ip101apVdOutt9L69eupVCrRiSeeSN/+9rdp165ddNlll1GpVKLVq1fT5s2bBxo3FgYAQHpJ0JTU6XToscceo3Xr1u0/5rourVu3jh599NHDPpRGo0Ff+MIX6K//+q/poYceoocffpguv/xyevDBB+nBBx+kr3/96/SXf/mX9Dd/8zfsvDvvvJMuuOACevzxx+ktb3kLXX311bR+/Xp65zvfSVu2bKFTTjmF1q9fT/EAJrRDEp9//NRJrJw3WguEKNpcot0rs7NcKaz/3m+oOplZLgh7Le1V7E1xda+zYkTVUW8kGHMlxWa/rq8VFLQq6ERCgMxZdXi5/IJ2B+4M8zkqTmrBvlvmk2160XZ4f3LTxjiKvI/SM5uIKHbEPRzVvydkFM595/Fypq4nuyOixEqhmUh76DbGDcFenGd5DMv70zUi2+b38DoqFSsdwINb0J8XsVFHiubGffXF9a00onL8VpTYbE0I9sa1ZFRWKWLHfUSaTZRDcHCrVrnrey6XY7/wd+/eTWEY0vj4OKs3Pj5OTz311Bw6e3C63S7dc889dMoppxAR0RVXXEFf//rXaXJykkqlEp1++ul00UUX0fe+9z16+9vfvv+8N7/5zfTe976XiIg2btxI99xzD51zzjl05ZX7ol3fcMMNdP7559Pk5GTfpi3sGAAAxyQrV66k4eHh/X+f+cxnFrQ/xWJx/6JAtG8BWrVqFZVKJXZM6hurV69m/09EdMYZZ6hjB9NFJPBjAACklkOJlbRt2zaqVCr7j0s9YPHixeR5Hk1OTrLjg/zyHoRMhm8zHccxj0XiHeH/WMf59e7eOibPOxjYMQAA0sshaAyVSoX9yYUhm83S2WefTZs2bdp/LIoi2rRpE51//vnzOsz5ZqAdw2/dfxe5hVc8XvLbuQF2aMKIiirsyoXdMv0UUZTh61NmVtvUI2Gvd7ragykuiBv74l5VJxwt83MM5zUnEBnLhvQ05Sa0gbizdIiV3Y5eofPCec6MnjnFx99cpp35wpyInGrYestPcxtq7VUVVUc6gln9kU5fWUMrkJFliYjawyJDmBElVl7PilwqHeV84/rSpm9lPqNI6Bk1Q88Q58mxE+kovkRad4iM68uxKT2BtKRgRZKVdaxsdd0SL1sZ9iTW3Bd28jlrLRLnLLQXcUyD51cYoM8bNmyga665hl772tfSueeeS3fddRfV63W69tpr99dZv349HXfccftNUZ1Oh5588sn9/96+fTtt3bqVSqUSnXrqqQN2dmGAKQkAAA7A29/+dtq1axdt3LiRduzYQWeeeSY99NBDTJB+4YUXyHVf+QUxMTFBZ5111v7yHXfcQXfccQddeOGF9PDDD89n9+eME/fxDlO1WqXh4WE6/gufFDsG/jOtnx1DcbL3jsGfNeqIHUNmWr8a4oo3lZy6joEgdwyhsWOIPJGzwde/dPvZMVi4Ye+wHY441s+OwQpJMfbTaVbua8dg/EJuV8SOzvjF3M+OwcL6ZS1ROwbj+jKsipwfIv3WjdVnlSvZyrls7M7kjqE9YoSX6GPHIH/9WjsGec+s/sgdg/nWmMzHYOW5qPGy2jG0WvTMbR+jmZkZZq9Pmpe/k95w1v8g3+tjO/QfCMIW/ePjt817n9MEdgwAgPQS0xyiqybSk6MKiM8AAAAYA+0YFv+rT172lVMKe/j+tLDDUMHEai7NJERE0U9+xg+co1OE+lKQNlJ7Upf3J1xUVlXaS3hIy+xewyQl0n22R7UqZ5mNpNNdZ1SbqdxZ3u8wr/fvoXCey1a1HaBT4bcuN6XrNI/n9gQr4mh+N59X6VxHROQJk4tlgrGixOZmRJRYw9zliUipLcN5rvSSmDPD6UymaJUvEBBpM1G3rPvjCqdA6dxHRBT5xvhFKlHLwU2mFu0nRanlhCdpjxoHRRelcx2RFv6tSLJBkVfKCNOSazjOzSvIx5AIMCUBANJLREpf6usccFBgSgIAAMDAjgEAkFoOxfMZHJiBFoa9q2Ny869MavlZfnprTNv0czPcsJ3ba7yK+obXsLLX0PbyWBiI3a7x/t2MMIBWdHSxwgszvN2snoLOIn6eZziqWfZyX+oHOSPYXJsfszQG2bYMdLevbV6nU9ZGbTn3rmF3by3mBnvzNU+hTfhNYz6MV3rla67ZWX2e1BSsV1HlK7StMT2v+b1Su9F15KvTUk8gImWWsL5ELK1G6gUy0B2RoR8YGdzao7IDuo4Kxlc36gg9Q76+SqQDSrbGjHsv6khHubCPgIKJAo0hEWBKAgAAwIApCQCQXrBjSAQsDACA9IKFIRFgSgIAAMAYaMcwesoUecVXnL2mwjH2/5Gv1xkn4sfcjr6k2+XCYewZiptoOypqp7NobDlv13KCE7GKwqIWbaXjj9/UamOmpUX0zihX5vI7tfdP13Agk0gh14p4mhFCrqGFU5gVTl/GD6V2mc9rrqbnrLlIzL2v76EVU0hGKrUEainkyoxuRDrOjyUayz5mGoYTmsgmaMYhktcyBHsrnpR0XrMc7GT8JDPrnhBzpQMgEVFzae/Iuu1RKbTrec3y9zAotkJ9ycur8K/GOfMJ/BgSAaYkAEBqweuqyQBTEgAAAAZ2DACA9ALxOREGWhgeedNGFr/8tOaneIUJ7eBW3MkNoF5b2+uzL/BMa7FvOH2VuNNZVNBd96dEED8rAJqhTUgKT+9i5c7KRapOlDOuLxzzgpLWE8Is36RZ21q/wY2ggRGgTgbsqy/XkeUywhGtM6TbydaFvmPpGcIxTDrOERHNLrdEBl60HNOkDd9yHJTOWVbmtYwIANcYN7QKmcfACCwXCp/IKDDyKmi/SfKEnOQahm+paQSGg1uGJ92j1pLe4zAD9rXEeZYvnzhmtSP7LDUYSyeZV6LYFs96nQMOCnYMAID0gh1DIkBjAAAAwMCOAQCQYuawY1jwd2yPfLAwAADSC0xJiXBIC8PPf38jK58a/qmq89wpXKkrbNciqX/mcaxsZZLyhaOPlUXMXcSFZcuBKT/JVcIoqyvVTx9n5dxuHUKyfoJWDqUzUqamPY+yIoNde1TfAqmZW0naG8u4UiiFZiIduTQzq+dMCtJ+y8rOJrKTef09NmFeOHQZ2fuCgsgQVtd1pOApHff2tcPLltNXP0Kpyg5nZIuT4i+RzmRmCdSqP0Y7nWHRrjEOSWZWH2st7u3g1ljO6/h1XUe23RwXLwsY2exA+sGOAQCQXqKYBjYN4a2knmBhAACklzja9zfoOeCg4K0kAAAADOwYAADpBeJzIhzWheHp/3KTOnbhpo+w8guVMVUnrnKFrzljeOhWe29ulPdpR9dpjgkl13hG8jN8q7lntc6LmJvR21EZdbOxTCuXUki2PH1lO5ZoKj2UZRpNIqLSS1zdbI30nsOWTC1JOk2lFHqJiIKiPq+wm3e8PayvL+tIwZyIKBLT2DWigMpIoVYqSynkyueFyPAqNoR/K7qqFI2tOv14XkuHaStqbVDqLRq7XSn863bkMxQaQQGCIX4t+XFZ8K9YaAyJAFMSAAAABkxJAID0AlNSImBhAACkl5jmsDAk0pOjisQXhjNGJ1g5NsJ37ilxZ7HmiDZ21lvc2OvOWJngeNumDbnT2/baHBfXMmzB3bI2Pvsia5hld5fX8wyHMnlemFdVyGvKhnWd2krex2xVX6u1iJ+Ym+pdx4rAKjOYEeloqpZTYvVEUcdyTBOnWQ5dMlKpZeOX/e5UdB2ZQc2aV+UEZ51noPUlXUdltBsxHP6E5mS1oxzPjGcoU+OD6wwbTqPifshzwvag6dNAGsCOAQCQXmBKSgQsDACA9BJFNHAS5wgObr3AW0kAAAAY2DEAANILTEmJkPjC8KXXfIOVP/T4O1SdE1bw1J7/uPs0VWf7DPcgqhspOoMOV/eChhG5NBQC9azliSSKhohtCX7ZqtOzjhQXnSFDvBOHLPFbia3GnczUeHn2+D7STRZ0HSksW05f/UQTjY1Uq7JtU1gWbVuOWNIJzpoz6WDWLmuTgtvhNz8o6i8R677KFwSkSEtE1Bnj13O6uk5YkBF6jRcYRLelE1q/tMaliq3rhGL8QUk8460FNstgYUgEmJIAAAAwYEoCAKQXhMRIBCwMAIDUEscRxQOG0R60/rHIvC8MXzjrf6pjf7L1v7By0dfeUitHplm5ZmgMM01u6K1ltOFb/lYICsYUdIXTVcuwuBnPlsqaZdiQpeOV5YQn7f4yg5mJ0UXlGGf8UJIB2LplI4NbWfTHcAr0DEenfrJ7SXu9nEMioigr7e56sLJPgeGEJh3c/Ibus7K7G7iWU5fotuWY5gs9S+oJFpaeEXv8vLCo++wEzkHLRIajoqEdyWdYBedrLbCDWxwPvgOAxtATaAwAAAAYMCUBANJLPAeNATuGnmBhAACklyiyE5YcDGgMPYEpCQAAAOOI2DH8+Zn/Nyvf9G9vVXWeqC5n5eVFrdoOZ3mIy/pQQ9XZ2+CC9Kynw06GIV8vo4JeP+PQCt8pii1DzZM+RUVdRTo+RVnjF450gmvq/khhOTaEzK6IqGkJxlIw9zuG0JwxosT24XglRVHbUU+ItjkrCqgQ0Ye1Qu7P8PthCbJOKDKWWc58eUNYboqoowV9z4IKP89ycJPPkGe8+NBeKsZmTLMnnofAmA8SIrbT0IOVAnV3hLcTNY125xOYkhLhiFgYAABgLsRRRPGApiS8rtobmJIAAAAwsGMAAKQXmJIS4YhcGP70jAfUsTuevJiVf1ZfrurkPO4J9u4V/6zq/PXO81j5hcyoqtPs8mnphtr26sm0YkRUm+X6RZzV9teoYxitBY64PhUMO64IBmhpA528CBhY19eOpC3c+sxEwn4/agSfMxydYuGY5hiOYWGJj810JpTdMWz8kbgfMlgikXaUa5f0OOIcP+ZVLa8vfSgQbUkntH2dEvqFoUM4TX69rhHoT51jjDWUYzOeVzfPPy/WldQ45LWscc4nUWyO7aBgYegJTEkAAAAYR+SOAQAA+iKOaeAMbtgx9AQLAwAgtcRRTPGApqQYC0NPYEoCAADASM2O4SOn/++edT6w5Q9Y+f/Z8xpVRwrUvzk6qer8cmYJK1dbOpJrIatThLku39I2jPMyZe6E125rr7NAiNaOCoNJFAtB2DGEbhIRRsO8laKrdztxW6Z5M8ROw5nNEX2Mho0wsaKtqKzrdGSWu8hwDJMiqG8IyzI7ndGOk+HnRYuMdgzHRScv5q3T2wFSCblEFA8JMT5n3Fd5P4zoqnGTf7SdQPfHE3NkBSl1arydWN6fhRaf44gGNyXBj6EXqVkYAABAAlNSMsCUBAAAgIEdAwAgtQRxe2DTUEDaDAw4R9XC8KXXfIOVb/33/6zqPFUfZ+WCp224p41w3SHnarv3C/UxdWzDq7kO8rFfvE3VaQd8ynO+vr4nnJra0uGNiDoBtzMHgbZ7d9v8vOyQzown6/hZPdZQ2pGNnbjUPIgMbcKyYQvnvdiwhZPH58M19IPIOk8ibfpWwEBRx63puY8NrUZaJ9yCoadIicNwdnTEWCNDz1HX7uqxu0P8y8+6VrfJ9S2lkxARCY0jK53iHP1MzQfZbJaWLVtG39/x4JzOX7ZsGWWzRpo/QERH2cIAADg2yOfz9Oyzz1KnM7eFKZvNUj6vIyuDfWBhAACkknw+jy/3hID4DAAAgNHXjuHl17uq1WqinTnctGa1yNRt8K1nx9Nb0VD4DTiutr3KdoiI6jVuHw7qOplQGPaR2ETElw8DfU4oNAXLxh51+O2NQm33VnUCo47ULyyNwfK1kBqDa/g6hCL4nKUVyNcRPUNjsBInSaQt3tAY1Nha+iMSWWJnJO6R0UelMXR7awwWKkmUdYp4zqxryf44hnYj5yOKhMbQ1M84SD9O3MdLvS+++CKtXLlyPvoDAEghMzMzVKlUFrob4DDR18IQRRFNTExQuVwmx+n9lgQA4Njg5a+PSqWC74ajiL4WBgAAAMcOEJ8BAAAwsDAAAABgYGEAAADAwMIAAACAgYUBAAAAAwsDAAAABhYGAAAAjP8f+P79cRjOFFoAAAAASUVORK5CYII=;" vertex="1" parent="1">
          <mxGeometry x="197" y="83" width="390" height="405" as="geometry" />
        </mxCell>
        <mxCell id="Qysu87LrH2-GhLI-RLq4-1" value="&lt;font style=&quot;font-size: 14px;&quot;&gt;Ego Frame, x [m]&lt;/font&gt;" style="text;html=1;align=center;verticalAlign=middle;resizable=0;points=[];autosize=1;strokeColor=none;fillColor=none;rotation=-90;" parent="1" vertex="1">
          <mxGeometry x="90" y="262" width="130" height="30" as="geometry" />
        </mxCell>
        <mxCell id="Qysu87LrH2-GhLI-RLq4-5" value="&lt;font style=&quot;font-size: 14px;&quot;&gt;Ego Frame, y [m]&lt;/font&gt;" style="text;html=1;align=center;verticalAlign=middle;resizable=0;points=[];autosize=1;strokeColor=none;fillColor=none;rotation=0;" parent="1" vertex="1">
          <mxGeometry x="270" y="51" width="130" height="30" as="geometry" />
        </mxCell>
        <mxCell id="Qysu87LrH2-GhLI-RLq4-14" value="&lt;font style=&quot;font-size: 12px;&quot;&gt;0&lt;/font&gt;" style="text;html=1;align=center;verticalAlign=middle;resizable=0;points=[];autosize=1;strokeColor=none;fillColor=none;rotation=-90;fontSize=12;" parent="1" vertex="1">
          <mxGeometry x="179" y="137" width="30" height="30" as="geometry" />
        </mxCell>
        <mxCell id="Qysu87LrH2-GhLI-RLq4-15" value="&lt;font style=&quot;font-size: 12px;&quot;&gt;-3&lt;/font&gt;" style="text;html=1;align=center;verticalAlign=middle;resizable=0;points=[];autosize=1;strokeColor=none;fillColor=none;rotation=-90;fontSize=12;" parent="1" vertex="1">
          <mxGeometry x="179" y="87" width="30" height="30" as="geometry" />
        </mxCell>
        <mxCell id="Qysu87LrH2-GhLI-RLq4-16" value="&lt;font style=&quot;font-size: 12px;&quot;&gt;+3&lt;/font&gt;" style="text;html=1;align=center;verticalAlign=middle;resizable=0;points=[];autosize=1;strokeColor=none;fillColor=none;rotation=-90;fontSize=12;" parent="1" vertex="1">
          <mxGeometry x="174" y="187" width="40" height="30" as="geometry" />
        </mxCell>
        <mxCell id="Qysu87LrH2-GhLI-RLq4-17" value="" style="endArrow=none;html=1;rounded=0;dashed=1;strokeWidth=2;strokeColor=#ABABAB;" parent="1" edge="1">
          <mxGeometry width="50" height="50" relative="1" as="geometry">
            <mxPoint x="208" y="131" as="sourcePoint" />
            <mxPoint x="470" y="131" as="targetPoint" />
          </mxGeometry>
        </mxCell>
        <mxCell id="Qysu87LrH2-GhLI-RLq4-18" value="" style="endArrow=none;html=1;rounded=0;dashed=1;strokeWidth=2;strokeColor=#ABABAB;" parent="1" edge="1">
          <mxGeometry width="50" height="50" relative="1" as="geometry">
            <mxPoint x="208" y="171" as="sourcePoint" />
            <mxPoint x="470" y="171" as="targetPoint" />
          </mxGeometry>
        </mxCell>
        <mxCell id="Qysu87LrH2-GhLI-RLq4-29" value="&lt;font style=&quot;font-size: 12px;&quot;&gt;1&lt;/font&gt;" style="text;html=1;align=center;verticalAlign=middle;resizable=0;points=[];autosize=1;strokeColor=none;fillColor=none;rotation=0;fontSize=12;" parent="1" vertex="1">
          <mxGeometry x="192" y="66" width="30" height="30" as="geometry" />
        </mxCell>
        <mxCell id="Qysu87LrH2-GhLI-RLq4-30" value="&lt;font style=&quot;font-size: 12px;&quot;&gt;15&lt;/font&gt;" style="text;html=1;align=center;verticalAlign=middle;resizable=0;points=[];autosize=1;strokeColor=none;fillColor=none;rotation=0;fontSize=12;" parent="1" vertex="1">
          <mxGeometry x="441" y="66" width="40" height="30" as="geometry" />
        </mxCell>
        <mxCell id="Qysu87LrH2-GhLI-RLq4-31" value="classical fix with direct bearing measurements" style="text;html=1;align=center;verticalAlign=middle;resizable=0;points=[];autosize=1;strokeColor=none;fillColor=none;rotation=0;" parent="1" vertex="1">
          <mxGeometry x="202.00000000000006" y="203" width="270" height="30" as="geometry" />
        </mxCell>
        <mxCell id="Qysu87LrH2-GhLI-RLq4-32" value="&lt;font style=&quot;font-size: 16px;&quot;&gt;error&lt;/font&gt;" style="text;html=1;align=center;verticalAlign=middle;resizable=0;points=[];autosize=1;strokeColor=none;fillColor=none;rotation=0;" parent="1" vertex="1">
          <mxGeometry x="500" y="56" width="60" height="30" as="geometry" />
        </mxCell>
        <mxCell id="Qysu87LrH2-GhLI-RLq4-34" value="classical fix with direct range measurements" style="text;html=1;align=center;verticalAlign=middle;resizable=0;points=[];autosize=1;strokeColor=none;fillColor=none;rotation=0;" parent="1" vertex="1">
          <mxGeometry x="207.00000000000006" y="338" width="260" height="30" as="geometry" />
        </mxCell>
        <mxCell id="Qysu87LrH2-GhLI-RLq4-37" value="&lt;font style=&quot;font-size: 12px;&quot;&gt;0&lt;/font&gt;" style="text;html=1;align=center;verticalAlign=middle;resizable=0;points=[];autosize=1;strokeColor=none;fillColor=none;rotation=-90;fontSize=12;" parent="1" vertex="1">
          <mxGeometry x="179" y="270" width="30" height="30" as="geometry" />
        </mxCell>
        <mxCell id="Qysu87LrH2-GhLI-RLq4-38" value="&lt;font style=&quot;font-size: 12px;&quot;&gt;-3&lt;/font&gt;" style="text;html=1;align=center;verticalAlign=middle;resizable=0;points=[];autosize=1;strokeColor=none;fillColor=none;rotation=-90;fontSize=12;" parent="1" vertex="1">
          <mxGeometry x="179" y="220" width="30" height="30" as="geometry" />
        </mxCell>
        <mxCell id="Qysu87LrH2-GhLI-RLq4-39" value="&lt;font style=&quot;font-size: 12px;&quot;&gt;+3&lt;/font&gt;" style="text;html=1;align=center;verticalAlign=middle;resizable=0;points=[];autosize=1;strokeColor=none;fillColor=none;rotation=-90;fontSize=12;" parent="1" vertex="1">
          <mxGeometry x="174" y="320" width="40" height="30" as="geometry" />
        </mxCell>
        <mxCell id="kNh-EA1-bw_leAr4-S6o-4" value="" style="endArrow=none;html=1;rounded=0;dashed=1;strokeWidth=2;strokeColor=#ABABAB;" edge="1" parent="1">
          <mxGeometry width="50" height="50" relative="1" as="geometry">
            <mxPoint x="208" y="267" as="sourcePoint" />
            <mxPoint x="470" y="267" as="targetPoint" />
          </mxGeometry>
        </mxCell>
        <mxCell id="kNh-EA1-bw_leAr4-S6o-5" value="" style="endArrow=none;html=1;rounded=0;dashed=1;strokeWidth=2;strokeColor=#ABABAB;" edge="1" parent="1">
          <mxGeometry width="50" height="50" relative="1" as="geometry">
            <mxPoint x="208" y="307" as="sourcePoint" />
            <mxPoint x="470" y="307" as="targetPoint" />
          </mxGeometry>
        </mxCell>
        <mxCell id="kNh-EA1-bw_leAr4-S6o-8" value="&lt;font style=&quot;font-size: 12px;&quot;&gt;0&lt;/font&gt;" style="text;html=1;align=center;verticalAlign=middle;resizable=0;points=[];autosize=1;strokeColor=none;fillColor=none;rotation=-90;fontSize=12;" vertex="1" parent="1">
          <mxGeometry x="179" y="405" width="30" height="30" as="geometry" />
        </mxCell>
        <mxCell id="kNh-EA1-bw_leAr4-S6o-9" value="&lt;font style=&quot;font-size: 12px;&quot;&gt;-3&lt;/font&gt;" style="text;html=1;align=center;verticalAlign=middle;resizable=0;points=[];autosize=1;strokeColor=none;fillColor=none;rotation=-90;fontSize=12;" vertex="1" parent="1">
          <mxGeometry x="179" y="355" width="30" height="30" as="geometry" />
        </mxCell>
        <mxCell id="kNh-EA1-bw_leAr4-S6o-10" value="&lt;font style=&quot;font-size: 12px;&quot;&gt;+3&lt;/font&gt;" style="text;html=1;align=center;verticalAlign=middle;resizable=0;points=[];autosize=1;strokeColor=none;fillColor=none;rotation=-90;fontSize=12;" vertex="1" parent="1">
          <mxGeometry x="174" y="455" width="40" height="30" as="geometry" />
        </mxCell>
        <mxCell id="kNh-EA1-bw_leAr4-S6o-11" value="" style="endArrow=none;html=1;rounded=0;dashed=1;strokeWidth=2;strokeColor=#ABABAB;" edge="1" parent="1">
          <mxGeometry width="50" height="50" relative="1" as="geometry">
            <mxPoint x="208" y="402" as="sourcePoint" />
            <mxPoint x="470" y="402" as="targetPoint" />
          </mxGeometry>
        </mxCell>
        <mxCell id="kNh-EA1-bw_leAr4-S6o-12" value="" style="endArrow=none;html=1;rounded=0;dashed=1;strokeWidth=2;strokeColor=#ABABAB;" edge="1" parent="1">
          <mxGeometry width="50" height="50" relative="1" as="geometry">
            <mxPoint x="208" y="442" as="sourcePoint" />
            <mxPoint x="470" y="442" as="targetPoint" />
          </mxGeometry>
        </mxCell>
        <mxCell id="kNh-EA1-bw_leAr4-S6o-13" value="novel hybrid classical fix method" style="text;html=1;align=center;verticalAlign=middle;resizable=0;points=[];autosize=1;strokeColor=none;fillColor=none;rotation=0;" vertex="1" parent="1">
          <mxGeometry x="237.00000000000006" y="478" width="200" height="30" as="geometry" />
        </mxCell>
        <mxCell id="kNh-EA1-bw_leAr4-S6o-14" value="" style="endArrow=none;html=1;strokeWidth=3;strokeColor=#FF8000;curved=1;exitX=0.596;exitY=0.971;exitDx=0;exitDy=0;exitPerimeter=0;entryX=0.426;entryY=0.962;entryDx=0;entryDy=0;entryPerimeter=0;dashed=1;dashPattern=1 1;" edge="1" parent="1" source="Qysu87LrH2-GhLI-RLq4-37" target="Qysu87LrH2-GhLI-RLq4-37">
          <mxGeometry width="50" height="50" relative="1" as="geometry">
            <mxPoint x="207" y="277" as="sourcePoint" />
            <mxPoint x="207" y="297" as="targetPoint" />
            <Array as="points">
              <mxPoint x="320" y="240" />
              <mxPoint x="520" y="280" />
              <mxPoint x="330" y="330" />
            </Array>
          </mxGeometry>
        </mxCell>
        <mxCell id="kNh-EA1-bw_leAr4-S6o-15" value="" style="endArrow=none;html=1;strokeWidth=3;strokeColor=#FF8000;curved=1;exitX=0.596;exitY=0.971;exitDx=0;exitDy=0;exitPerimeter=0;entryX=0.426;entryY=0.962;entryDx=0;entryDy=0;entryPerimeter=0;dashed=1;dashPattern=1 1;" edge="1" parent="1">
          <mxGeometry width="50" height="50" relative="1" as="geometry">
            <mxPoint x="208" y="152" as="sourcePoint" />
            <mxPoint x="208" y="157" as="targetPoint" />
            <Array as="points">
              <mxPoint x="290" y="80" />
              <mxPoint x="450" y="150" />
              <mxPoint x="300" y="220" />
            </Array>
          </mxGeometry>
        </mxCell>
        <mxCell id="kNh-EA1-bw_leAr4-S6o-16" value="" style="endArrow=none;html=1;strokeWidth=3;strokeColor=#FF8000;curved=1;exitX=0.596;exitY=0.971;exitDx=0;exitDy=0;exitPerimeter=0;entryX=0.426;entryY=0.962;entryDx=0;entryDy=0;entryPerimeter=0;dashed=1;dashPattern=1 1;" edge="1" parent="1">
          <mxGeometry width="50" height="50" relative="1" as="geometry">
            <mxPoint x="208" y="420" as="sourcePoint" />
            <mxPoint x="208" y="425" as="targetPoint" />
            <Array as="points">
              <mxPoint x="260" y="378" />
              <mxPoint x="340" y="368" />
              <mxPoint x="440" y="370" />
              <mxPoint x="470" y="418" />
              <mxPoint x="440" y="478" />
              <mxPoint x="340" y="478" />
              <mxPoint x="260" y="468" />
            </Array>
          </mxGeometry>
        </mxCell>
        <mxCell id="kNh-EA1-bw_leAr4-S6o-17" value="cm-level region" style="text;html=1;align=center;verticalAlign=middle;resizable=0;points=[];autosize=1;strokeColor=none;fillColor=none;fontColor=#FF8000;" vertex="1" parent="1">
          <mxGeometry x="313" y="363" width="100" height="30" as="geometry" />
        </mxCell>
        <mxCell id="kNh-EA1-bw_leAr4-S6o-19" value="cm-level region" style="text;html=1;align=center;verticalAlign=middle;resizable=0;points=[];autosize=1;strokeColor=none;fillColor=none;fontColor=#FF8000;" vertex="1" parent="1">
          <mxGeometry x="237" y="280" width="100" height="30" as="geometry" />
        </mxCell>
        <mxCell id="kNh-EA1-bw_leAr4-S6o-20" value="cm-level region" style="text;html=1;align=center;verticalAlign=middle;resizable=0;points=[];autosize=1;strokeColor=none;fillColor=none;fontColor=#FF8000;" vertex="1" parent="1">
          <mxGeometry x="285" y="107" width="100" height="30" as="geometry" />
        </mxCell>
      </root>
    </mxGraphModel>
  </diagram>
</mxfile>
